<?xml version="1.0" standalone="no"?>
<!DOCTYPE svg PUBLIC "-//W3C//DTD SVG 20010904//EN"
 "http://www.w3.org/TR/2001/REC-SVG-20010904/DTD/svg10.dtd">
<svg version="1.0" xmlns="http://www.w3.org/2000/svg"
 width="241.000000pt" height="241.000000pt" viewBox="0 0 241.000000 241.000000"
 preserveAspectRatio="xMidYMid meet">
<metadata>
Created by potrace 1.14, written by Peter Selinger 2001-2017
</metadata>
<g transform="translate(0.000000,241.000000) scale(0.100000,-0.100000)"
fill="#000000" stroke="none">
<path d="M1010 2150 c-248 -53 -452 -183 -597 -380 -79 -106 -151 -263 -168
-365 -3 -22 -10 -62 -15 -90 -9 -52 -6 -251 4 -295 3 -14 8 -38 12 -55 10 -53
45 -148 80 -218 93 -190 254 -348 448 -442 220 -107 456 -129 693 -65 364 98
654 425 709 800 10 71 12 207 2 275 -20 156 -97 341 -191 465 -43 55 -176 190
-189 190 -3 0 -13 6 -20 13 -46 46 -212 124 -334 157 -111 31 -316 35 -434 10z"/>
</g>
</svg>
