<svg width="1161" height="1096" viewBox="0 0 1161 1096" fill="none" xmlns="http://www.w3.org/2000/svg">
<mask id="path-1-outside-1_518_24" maskUnits="userSpaceOnUse" x="42" y="770" width="1106" height="290" fill="black">
<rect fill="white" x="42" y="770" width="1106" height="290"/>
<path d="M47 775H1140C1092.67 895.25 1098.39 954.568 1140 1052L47 1054V775Z"/>
</mask>
<path d="M47 775H1140C1092.67 895.25 1098.39 954.568 1140 1052L47 1054V775Z" fill="white"/>
<path d="M47 775H1140C1092.67 895.25 1098.39 954.568 1140 1052L47 1054V775Z" stroke="#B0B0B0" stroke-width="10" mask="url(#path-1-outside-1_518_24)"/>
<path fill-rule="evenodd" clip-rule="evenodd" d="M46.9712 837V828L1121.39 828C1120.48 831.038 1119.61 834.037 1118.79 837H46.9712ZM46.9712 867V858H1113.55C1112.88 861.034 1112.26 864.033 1111.69 867H46.9712ZM46.9712 895V886H1108.65C1108.27 889.028 1107.94 892.026 1107.67 895H46.9712ZM46.9712 925V916H1106.59C1106.57 919.016 1106.6 922.014 1106.69 925H46.9712ZM46.9712 954V945H1108.12C1108.47 948.001 1108.86 951 1109.32 954H46.9712ZM46.9712 983V974H1113.14C1113.83 976.987 1114.57 979.985 1115.36 983H46.9712ZM46.9712 1013V1004H1121.58C1122.55 1006.97 1123.57 1009.97 1124.64 1013H46.9712Z" fill="#E6E6E6"/>
<path d="M217.971 1051H1160.97V1096H216.471L217.971 1051Z" fill="black"/>
<path d="M105.471 71.4999C105.471 55.4996 123.971 -3.8445e-05 198.471 -2.28882e-05H282.971L235.971 775H117.971C29.4715 783 36.9663 1051 118 1051H218L216.471 1096H117.971C38.9715 1096 -16.5286 996 4.47137 867L105.471 71.4999Z" fill="black"/>
<mask id="path-5-inside-2_518_24" fill="white">
<path d="M208.936 -2.28882e-05H969.178L1161 775H158L208.936 -2.28882e-05Z"/>
</mask>
<path d="M208.936 -2.28882e-05H969.178L1161 775H158L208.936 -2.28882e-05Z" fill="#557A42" stroke="black" stroke-width="100" mask="url(#path-5-inside-2_518_24)"/>
<path d="M262 676L467 676" stroke="black" stroke-width="12" stroke-miterlimit="1.41421" stroke-dasharray="50 15 75 10"/>
<path d="M267 650L431 650" stroke="black" stroke-width="12" stroke-dasharray="90 10"/>
<path d="M298 177.5H459" stroke="black" stroke-width="15" stroke-dasharray="100 10"/>
<path d="M300 148H483" stroke="black" stroke-width="15" stroke-dasharray="55 15 65 0.1"/>
<path d="M302 119H450" stroke="black" stroke-width="15" stroke-dasharray="40 15 55 7"/>
<path d="M304 90H504" stroke="black" stroke-width="15" stroke-dasharray="100 10"/>
<path fill-rule="evenodd" clip-rule="evenodd" d="M868 182.5C876.513 167.323 841.817 147.093 832.976 162.854L811.674 200.86L737.399 337.313C667.775 313.822 583.829 318.004 500.848 369.616C498.276 371.216 497.796 374.347 499.743 376.695L628.311 531.78L560.428 652.792C559.916 653.705 559.536 654.685 559.298 655.704L544.951 717.204C544.273 720.109 547.758 722.143 549.954 720.124L596.855 676.999C597.735 676.191 598.478 675.246 599.056 674.2L658.041 567.642L774.657 708.31C776.586 710.636 780.299 711.38 783.026 710.015C971.538 615.682 915.521 427.521 776.293 354.018L847.273 220.295L868 182.5ZM706.791 391.876C675.059 382.154 639.789 380.672 604.004 391.121C600.833 392.047 599.801 395.318 601.828 397.763L662.461 470.902L706.791 391.876ZM745.905 408.913C826.177 455.172 866.819 555.631 797.25 624.12C795.074 626.262 790.965 625.909 788.927 623.45L691.921 506.437L745.905 408.913Z" fill="#292929" fill-opacity="0.45"/>
<path fill-rule="evenodd" clip-rule="evenodd" d="M784.737 697.657C782.363 698.84 779.082 698.219 777.406 696.197L501.59 363.495C499.898 361.454 500.415 358.669 502.648 357.275C784.133 181.545 1077.07 552.07 784.737 697.657ZM606.378 378.446C603.205 379.371 602.102 382.665 604.129 385.11L791.228 610.797C793.266 613.255 797.405 613.581 799.58 611.439C903.997 508.584 759.942 333.674 606.378 378.446Z" fill="#C9C9C9"/>
<path opacity="0.5" d="M520.286 346.983L530.503 359.307M549.012 381.633L560.743 395.784M760.648 640.699L771.076 653.278M789.585 675.604L800.795 689.126M501.433 363.306L517.423 354.241M524.113 390.664L535.839 384.016M546.794 418.022L562.784 408.957M570.517 446.638L582.243 439.99M593.979 474.939L609.969 465.874M617.702 503.555L629.428 496.907M640.382 530.913L656.372 521.848M664.105 559.529L675.831 552.881M687.307 587.516L703.297 578.451M711.03 616.132L722.756 609.484M733.71 643.49L749.7 634.425M757.433 672.106L769.159 665.458M590.098 397.17L606.089 388.105M604.103 405.872L615.474 399.426M608.347 419.182L624.337 410.117M622.351 427.884L633.722 421.438M627.117 441.823L643.107 432.758M641.121 450.525L652.492 444.079M645.626 464.15L661.616 455.085M659.63 472.852L671.001 466.406M663.874 486.162L679.865 477.097M677.879 494.864L689.25 488.418M682.123 508.174L698.113 499.109M696.127 516.876L707.498 510.43M700.371 530.187L716.362 521.122M714.376 538.888L725.747 532.442M719.141 552.828L735.131 543.763M733.146 561.53L744.516 555.083M737.65 575.154L753.641 566.089M751.655 583.856L763.026 577.41M755.899 597.167L771.889 588.102M769.903 605.868L781.274 599.422M774.147 619.179L790.138 610.114" stroke="black" stroke-width="3"/>
<path opacity="0.5" d="M543.801 368.416C759.492 246.139 1004.54 541.731 786.015 665.616" stroke="black" stroke-width="5"/>
<path opacity="0.5" fill-rule="evenodd" clip-rule="evenodd" d="M817.219 679.042C816.669 679.405 816.117 679.766 815.561 680.127L809.398 672.693L811.138 671.706L817.219 679.042ZM832.749 667.979C832.234 668.375 831.717 668.77 831.197 669.164L818.867 658.262L820.379 657.041L832.749 667.979ZM847.055 656.046C846.58 656.476 846.102 656.905 845.621 657.333L836.322 650.308L837.7 648.977L847.055 656.046ZM860.39 642.87C859.961 643.334 859.528 643.798 859.093 644.261L844.618 635.071L845.84 633.633L860.39 642.87ZM872.039 629.031C871.66 629.528 871.278 630.023 870.893 630.518L859.991 624.588L861.073 623.067L872.039 629.031ZM882.302 614.067C881.98 614.593 881.654 615.119 881.325 615.644L863.475 607.927L864.357 606.308L882.302 614.067ZM890.989 597.96C890.729 598.514 890.466 599.067 890.199 599.619L877.663 595.35L878.356 593.659L890.989 597.96ZM897.711 581.265C897.517 581.84 897.319 582.414 897.117 582.988L876.899 577.354L877.454 575.621L897.711 581.265ZM902.435 564.142C902.307 564.734 902.176 565.325 902.042 565.916L887.299 562.736L887.706 560.965L902.435 564.142ZM905.107 547.381C905.044 547.984 904.978 548.586 904.908 549.189L883.511 545.51L883.81 543.719L905.107 547.381ZM905.957 528.455C905.965 529.064 905.97 529.673 905.972 530.282L889.836 529.065L889.892 527.244L905.957 528.455ZM904.691 510.116C904.767 510.725 904.839 511.334 904.908 511.943L884.088 512.525L883.881 510.697L904.691 510.116ZM901.516 492.176C901.655 492.781 901.791 493.386 901.924 493.991L886.044 495.271L885.706 493.45L901.516 492.176ZM896.592 474.713C896.791 475.309 896.987 475.905 897.18 476.502L874.943 479.877L874.434 478.076L896.592 474.713ZM536.243 338.855C535.632 339.144 535.022 339.436 534.411 339.731L543.42 350.597L545.16 349.611L536.243 338.855ZM552.959 331.518L562.751 348.69L564.683 347.981L554.862 330.757C554.228 331.008 553.594 331.262 552.959 331.518ZM572.466 324.421L578.469 337.38L580.471 336.807L574.441 323.788C573.783 323.996 573.125 324.207 572.466 324.421ZM592.551 318.711L598.645 336.472L600.714 336.065L594.592 318.22C593.912 318.381 593.232 318.545 592.551 318.711ZM612.929 314.534L616.534 329.023L618.645 328.755L615.022 314.196C614.325 314.305 613.627 314.418 612.929 314.534ZM633.591 311.93L636.421 331.528L638.563 331.42L635.723 311.755C635.013 311.81 634.302 311.869 633.591 311.93ZM655.19 310.951L655.793 326.469L657.949 326.524L657.344 310.951C656.627 310.948 655.909 310.948 655.19 310.951ZM677.18 311.787L676.265 332.828L678.421 333.01L679.336 311.969C678.618 311.905 677.9 311.845 677.18 311.787ZM699.405 314.541L696.932 331.206L699.073 331.546L701.542 314.909C700.831 314.783 700.118 314.661 699.405 314.541ZM719.55 318.747L715.185 339.306L717.31 339.739L721.653 319.283C720.953 319.102 720.252 318.923 719.55 318.747ZM740.273 324.853L734.241 341.36L736.306 342L742.315 325.557C741.636 325.32 740.955 325.085 740.273 324.853ZM760.747 332.779L750.822 351.767L752.804 352.594L762.709 333.644C762.057 333.353 761.402 333.065 760.747 332.779ZM780.33 342.289L771.002 356.458L772.903 357.424L782.199 343.304C781.578 342.963 780.955 342.625 780.33 342.289ZM798.19 352.809L784.359 370.58L786.183 371.653L799.957 353.955C799.37 353.571 798.781 353.189 798.19 352.809ZM831.085 377.823L815.604 391.643L817.213 392.945L832.611 379.199C832.105 378.739 831.596 378.28 831.085 377.823ZM842.83 419.124L860.242 409.254L858.965 407.714L841.554 417.585L842.83 419.124ZM834.837 402.386L846.942 393.675L845.485 392.25L833.381 400.961L834.837 402.386ZM858.367 431.11L871.847 425.318L870.776 423.676L857.296 429.469L858.367 431.11ZM862.453 448.186L882.021 442.177L881.175 440.453L861.606 446.462L862.453 448.186ZM805.269 378.433L817.065 366.199L815.36 364.99L803.564 377.224L805.269 378.433ZM874.377 462.67L890.037 458.877L889.325 457.116L873.665 460.909L874.377 462.67Z" fill="black"/>
<path d="M662.461 470.901L633.179 522.3L672 569.05L705.77 507.7L668.173 462.137L662.461 470.901Z" fill="#292929" fill-opacity="0.45"/>
<path d="M729 386.5C743.455 393.163 751.106 397.569 764.024 406.424L794.5 350.47C781.426 342.39 770.5 337 760 332.5L729 386.5Z" fill="#292929" fill-opacity="0.45"/>
<path d="M824.737 140.52C833.579 124.759 864.775 143.052 856.261 158.229L835.995 194.858L804.715 176.198L824.737 140.52Z" fill="#F4A5BB"/>
<path d="M809.885 166.724C818.727 150.963 850.177 169.935 841.663 185.112L836.141 194.867L804.714 176.196L809.885 166.724Z" fill="#D9D9D9"/>
<path d="M837.471 192.524L586.537 650.008C585.962 651.057 585.219 652.006 584.337 652.816L537.362 696.002C535.189 698.001 531.739 695.987 532.41 693.112L546.782 631.527C547.021 630.501 547.407 629.514 547.928 628.597L805.371 175.026L837.471 192.524Z" fill="#FDD34F"/>
<mask id="path-22-inside-3_518_24" fill="white">
<path d="M837.471 192.524L585.668 651.593L579.111 637.595L562.669 629.037L547.143 629.98L805.371 175.026C808.352 169.712 814.093 167.249 821.025 170.138C826.33 172.348 830.173 174.041 834.399 178.199C839.265 182.989 840.492 187.139 837.471 192.524Z"/>
</mask>
<path d="M837.471 192.524L585.668 651.593L579.111 637.595L562.669 629.037L547.143 629.98L805.371 175.026C808.352 169.712 814.093 167.249 821.025 170.138C826.33 172.348 830.173 174.041 834.399 178.199C839.265 182.989 840.492 187.139 837.471 192.524Z" fill="#FDD34F"/>
<path d="M564.412 630.018L822.768 171.119L819.282 169.156L560.927 628.056L564.412 630.018ZM832.651 177.228L577.363 636.624L580.859 638.567L836.147 179.171L832.651 177.228ZM837.471 192.524L833.982 190.567L833.973 190.583L833.964 190.6L837.471 192.524ZM585.668 651.593L582.046 653.289L585.387 660.422L589.175 653.516L585.668 651.593ZM547.143 629.98L543.664 628.005L540.024 634.419L547.385 633.972L547.143 629.98ZM805.371 175.026L808.85 177L808.855 176.992L808.86 176.983L805.371 175.026ZM562.669 629.037L564.516 625.489L563.533 624.977L562.427 625.044L562.669 629.037ZM579.111 637.595L582.733 635.898L582.159 634.672L580.958 634.047L579.111 637.595ZM821.025 170.138L819.486 173.83L819.486 173.83L821.025 170.138ZM834.399 178.199L837.205 175.348L837.205 175.348L834.399 178.199ZM833.964 190.6L582.161 649.669L589.175 653.516L840.978 194.448L833.964 190.6ZM550.622 631.954L808.85 177L801.893 173.051L543.664 628.005L550.622 631.954ZM547.385 633.972L562.912 633.03L562.427 625.044L546.9 625.987L547.385 633.972ZM560.823 632.585L577.264 641.143L580.958 634.047L564.516 625.489L560.823 632.585ZM575.489 639.292L582.046 653.289L589.29 649.896L582.733 635.898L575.489 639.292ZM808.86 176.983C809.938 175.06 811.396 173.845 813.017 173.289C814.624 172.736 816.776 172.7 819.486 173.83L822.564 166.446C818.343 164.686 814.158 164.437 810.417 165.723C806.689 167.004 803.785 169.678 801.883 173.069L808.86 176.983ZM819.486 173.83C824.738 176.019 827.956 177.47 831.593 181.05L837.205 175.348C832.391 170.611 827.922 168.678 822.564 166.446L819.486 173.83ZM831.593 181.05C833.794 183.216 834.708 184.805 834.997 186.045C835.25 187.132 835.147 188.491 833.982 190.567L840.96 194.481C842.816 191.172 843.61 187.763 842.789 184.232C842.003 180.854 839.87 177.972 837.205 175.348L831.593 181.05Z" fill="#BD9F3E" mask="url(#path-22-inside-3_518_24)"/>
<path d="M585.357 650.933C585.542 651.328 585.45 651.798 585.129 652.093L537.362 696.007C535.189 698.005 531.739 695.992 532.41 693.117L546.973 630.715C547.074 630.282 547.449 629.967 547.893 629.943L563.277 629.116L579.249 637.894L585.357 650.933Z" fill="#F6D2B7"/>
<path d="M537.362 696.006C535.189 698.004 531.739 695.991 532.41 693.116L537.257 672.345C545.104 672.366 549.232 674.866 552.581 682.015L537.362 696.006Z" fill="black"/>
</svg>
