<svg width="1162" height="1097" viewBox="0 0 1162 1097" fill="none" xmlns="http://www.w3.org/2000/svg">
<path d="M46.9722 772.502H44.4722V775.002V1054V1056.51L46.9767 1056.5L1139.98 1054.5L1143.76 1054.5L1142.27 1051.02C1121.52 1002.42 1109.83 963.583 1109.12 922.017C1108.41 880.44 1118.69 835.897 1142.3 775.918L1143.64 772.502H1139.97H46.9722Z" fill="white" stroke="#B0B0B0" stroke-width="5"/>
<path fill-rule="evenodd" clip-rule="evenodd" d="M46.9722 837.001V828.001H1121.39C1120.48 831.04 1119.62 834.039 1118.79 837.001H46.9722ZM46.9722 867.001V858.001H1113.55C1112.88 861.036 1112.26 864.035 1111.69 867.001H46.9722ZM46.9722 895.001V886.001H1108.65C1108.27 889.029 1107.94 892.028 1107.67 895.001H46.9722ZM46.9722 925.001V916.001H1106.59C1106.57 919.017 1106.6 922.016 1106.69 925.001H46.9722ZM46.9722 954.001V945.001H1108.12C1108.47 948.003 1108.87 951.001 1109.32 954.001H46.9722ZM46.9722 983.001V974.001H1113.15C1113.83 976.988 1114.57 979.987 1115.36 983.001H46.9722ZM46.9722 1013V1004H1121.58C1122.55 1006.98 1123.57 1009.97 1124.64 1013H46.9722Z" fill="#E6E6E6"/>
<path d="M264.972 0.00195312H984.472L1161.47 775.002H217.972L264.972 0.00195312Z" fill="#24321C"/>
<path d="M105.472 71.5019C105.472 55.5016 123.972 0.00193757 198.472 0.00195313H282.972L235.972 775.002H117.972C29.4725 783.002 36.9385 1051 117.972 1051H655L653.5 1096H117.972C38.9725 1096 -16.5276 996.002 4.47234 867.002L105.472 71.5019Z" fill="#24321C"/>
<path fill-rule="evenodd" clip-rule="evenodd" d="M658.475 775L658.561 774.648L658.645 773.259L658.54 771.555L658.224 768.987L657.677 767.914L657.15 766.841L655.971 765.241L653.614 763.221L652.33 761.832L651.572 760.864L651.025 759.265L650.498 757.329L650.372 754.657L649.299 752.952L648.33 747.607L647.678 746.008L646.499 743.104L645.425 741.083L644.583 740.431L642.015 738.727L640.289 737.674L637.721 736.601L635.911 735.528L633.553 733.823L630.564 731.172L628.964 730.414L627.028 729.993L625.765 729.678L624.144 728.941L623.618 727.321L622.965 726.795L622.334 725.616L621.471 724.754L621.155 724.543L619.66 722.628L617.513 721.45L616.019 720.503L614.84 719.745L612.377 719.535L610.356 719.324L608.23 719.219L607.577 719.114L606.735 718.903H606.63L604.273 718.062L603.515 717.304L602.441 715.915L601.915 715.81L600.42 716.462L599.031 717.22L598.084 718.083L596.589 719.787L596.274 720.65L594.358 722.902L593.495 725.153L593.179 725.259L592.548 725.701L590.948 726.227L589.453 726.563L587.201 726.984L585.917 726.9L584.212 726.248L583.033 725.511L581.328 725.301L579.097 725.406L576.318 724.985L572.782 724.669L571.182 724.354L568.088 723.617L566.383 722.544L564.446 720.398L561.773 717.725L560.068 716.336L559.541 714.211L559.205 712.064L558.994 710.991L558.784 710.339L558.468 709.392L556.426 708.003L555.037 707.351L553.753 706.067L552.574 703.71L550.763 702.553L549.795 701.9L548.406 701.585L546.911 701.795L544.996 701.69L543.396 701.479L542.428 701.816L541.691 702.784V702.995L542.322 702.784L542.975 702.342H543.08L543.185 702.447L542.87 702.889L542.659 703.1V703.963L540.723 704.804L539.46 706.004L539.123 706.425L537.313 707.708L536.997 708.045L536.155 708.255L536.05 708.361V708.676L536.155 708.992L536.471 709.434L536.155 709.644L535.734 710.823L535.502 712.212L534.66 712.969L533.797 713.18L532.639 712.759L532.092 712.654L531.019 713.411L530.177 713.832L529.545 714.042H529.103L528.051 714.274L527.503 714.484L526.451 715.242L525.377 715.663L524.619 715.978H522.809L522.283 715.768L521.946 715.558L521.314 714.821H520.451L519.399 715.347L516.936 715.999L515.231 715.579L514.052 715.684L513.315 715.789L512.873 715.684L512.347 715.579L511.61 714.926L511.063 714.295L510.642 713.537L510.537 713.327L510.095 713.537L509.884 713.769H509.358L509.148 713.432L507.969 711.622L507.864 710.444L506.685 709.476L506.474 708.739L506.264 708.192L507.211 707.014L507.653 706.593L507.864 706.046V705.52L507.316 705.625L506.158 706.593L505.716 707.456L505.085 707.771V708.297L504.327 709.16L503.59 709.476L502.096 709.392H500.601L496.328 710.465L494.307 709.813L493.234 709.939L492.602 710.149L491.634 711.012L490.666 711.328V712.191L491.318 712.822L492.813 714.211L493.55 714.758L494.623 715.179L495.276 715.074L495.907 714.632L498.033 715.389L499.001 718.062L498.265 719.345L498.37 719.998L498.896 720.524L499.654 719.998L500.18 719.766L500.938 720.103L501.359 720.839L502.538 721.155L503.169 721.597L503.59 722.67L503.485 723.091L503.275 723.407L502.854 722.123L501.885 721.702L500.833 721.281L500.18 720.734L498.686 721.281L499.107 723.091L499.001 724.059L499.338 725.027L499.759 725.785L499.654 726.416V727.279L500.412 728.121L501.675 728.878L502.433 730.372L502.643 731.551L503.085 732.519L503.611 733.487L502.643 732.834L502.327 732.308L502.222 731.761L501.57 729.951L501.149 729.404L500.307 729.089L499.023 728.878L498.475 728.668L498.054 727.384L497.949 725.448L497.844 722.144L497.191 719.998L496.665 718.609L497.086 717.536L497.191 716.147L496.981 715.705H496.328L496.118 716.042V716.673L495.697 717.22L495.065 716.989L494.939 716.357L494.834 716.147L494.413 716.252L494.097 716.462L493.992 717.115L493.781 717.957H493.129L492.392 718.398L491.529 719.472L490.581 721.176L489.403 722.586L489.297 721.723L489.929 719.893L490.455 718.609L490.139 718.083L489.297 717.43L488.013 716.357L487.571 716.147H486.414L486.077 716.042L485.866 716.357L485.656 716.483H485.445L485.13 715.936L484.814 715.831H484.477L484.161 715.726L483.319 714.127V713.474L483.53 712.843L483.635 712.611L483.951 712.085L483.845 711.77L483.424 711.98L482.982 713.053L482.456 714.653L482.246 715.095L482.14 715.2L481.067 715.621L480.646 715.726L481.698 714.758L481.93 714.547L482.351 713.369L482.877 712.296L482.982 711.875L482.667 711.664L482.561 711.875L482.246 712.401L482.14 712.632L481.698 712.948L481.383 712.843L481.277 712.738L481.067 712.632L480.962 712.191L481.172 711.77L481.067 711.559H480.751L480.541 712.085L480.309 712.527L479.993 712.632H479.678L479.783 712.422L480.099 711.664L480.646 710.802L480.751 710.486L480.646 709.834L479.257 709.202L478.814 708.445L477.53 707.813L476.583 707.372L476.373 707.266L476.267 706.845L476.373 706.53V706.193L475.615 705.772H474.773L473.91 705.667L473.594 705.351L473.384 705.562L473.278 705.983V706.319L473.173 706.845V707.182L472.836 707.287L472.521 707.393H472.415L472.31 707.182L472.205 706.951L472.626 706.109L472.836 705.877L472.626 705.772H472.31L472.205 706.004L471.889 706.214L471.784 706.635L471.679 706.951L471.552 707.077L471.342 706.951L471.236 706.635H471.131L470.71 706.845L468.247 703.647L467.932 702.679L467.616 702.153L467.826 701.921H468.142V701.711L468.247 701.29L469.216 701.711L469.426 702.027L469.952 702.574L470.71 702.784L470.605 702.468L470.289 701.711L468.795 700.743L468.037 700.322L466.858 700.112L466.542 700.322V701.606L466.753 702.363L467.069 702.889L467.826 704.51L468.689 706.214L469.637 708.255L470.289 709.855L471.026 711.559L471.573 712.527L472.31 713.6L472.857 714.674L473.489 717.451L474.12 719.072L474.457 720.229L475.089 722.27L476.162 725.385L476.92 727.637L477.131 728.815L477.236 729.341L477.657 732.329L477.762 733.95L477.888 735.549L477.994 736.517L478.309 737.38L478.415 739.084V740.263L478.73 741.441V742.304L478.52 743.272V744.114L478.625 745.082L478.836 745.945L478.857 747.965L479.067 750.869L479.909 750.532H480.351L480.667 750.869L481.088 751.5L481.298 751.942H480.772L480.456 752.468L480.035 753.541L479.804 754.299L479.383 755.351L478.857 756.003L478.646 755.793V755.372L478.857 754.72L479.383 753.226L479.488 752.889V752.678L479.383 752.258L479.172 751.942H479.067L478.962 752.678L478.415 754.194L477.994 755.372L477.678 756.971L477.257 758.465V759.539L476.815 760.191L476.394 760.401H475.868L475.11 760.507L474.583 760.612L473.615 760.928L472.226 761.369L471.594 762.001L471.173 762.548L470.837 763.179V764.358L470.521 764.905L469.995 765.536L469.131 765.978L468.395 766.399L467.847 766.609L467.637 766.946L467.742 767.472L467.847 768.019L467.637 768.651V769.071L468.079 769.408L468.605 769.724L468.71 770.355L469.258 770.902L469.574 771.534V772.396L469.784 773.154L470.1 773.575L470.752 773.68L470.858 773.996L471.068 774.648V775H658.475ZM441.529 1096L441.619 1095.54L441.956 1094.49L442.061 1093.1V1091.82L442.272 1090.32L442.587 1089.36L442.693 1088.18L442.798 1086.7L442.903 1084.87L443.114 1083.72L443.324 1082.85V1081.88L443.429 1081.04V1080.18L443.535 1079.44L443.745 1078.48V1077.74L444.819 1077.4L445.892 1076.88L447.282 1075.91L447.492 1076.01L447.597 1076.77V1077.09L447.724 1077.3L447.934 1077.82L448.566 1078.58L449.113 1078.48L449.639 1078.16L450.292 1078.05L450.713 1078.16V1078.48H450.502L450.292 1078.58L449.744 1078.9L449.429 1079.32L449.113 1079.86L448.902 1080.81L448.355 1081.67L448.145 1082.1V1082.41L448.481 1082.64H448.797L449.008 1082.75L449.218 1082.64L449.323 1082.41V1082.2L449.113 1081.99V1081.67L449.429 1081.25L449.976 1080.92L450.186 1080.5L450.713 1079.32L451.05 1079.21L451.576 1079.42L451.997 1080.07L452.228 1081.23L452.123 1081.99L451.05 1083.48L450.502 1084.35V1085.61L451.471 1086.16L452.881 1086.47L453.933 1086.68H454.586L455.449 1087.31L456.417 1087.97L457.154 1088.39L457.807 1088.6L458.88 1088.81H460.164L461.553 1087.63L461.764 1086.03L462.627 1085.82L463.259 1085.06L462.627 1084.75L461.869 1084.96L461.448 1085.29L460.901 1085.82L460.585 1086.89L460.164 1087.63L459.512 1087.95L457.912 1087.63L456.417 1087L455.007 1085.82L454.586 1085.5H452.86L451.913 1085.08L451.681 1084.87V1084.56L452.123 1083.8L452.334 1083.27L453.07 1082.2L453.618 1081.57L453.512 1080.81L453.281 1079.86L452.965 1079.11L453.386 1078.48L454.144 1077.82L454.354 1077.4L454.144 1076.54L453.176 1075.05L452.102 1074.73H450.923L449.639 1075.07L448.881 1074.73L447.808 1074.1L447.387 1073.68H446.966L446.629 1073.99L446.208 1074.41L445.998 1074.86L445.787 1075.17L445.471 1075.38L445.134 1075.7L444.819 1075.8L444.398 1075.91L444.166 1075.59L444.292 1075.07L444.271 1074.65L444.166 1073.57L444.271 1072.81L444.482 1072.08L444.713 1071.22L444.924 1070.48L445.134 1069.83L445.345 1068.56L445.555 1068.02L445.766 1067.49L445.976 1067.07V1066.42L445.871 1066.1L445.661 1065.24L445.45 1064.71L445.008 1064.19L444.692 1063.98H444.166L443.724 1064.08L443.198 1063.98L442.987 1063.87L442.651 1063.53L442.545 1063.11L442.651 1062.9L442.756 1062.8H443.303L443.514 1062.59L444.04 1061.51L444.903 1057.77L445.324 1055.85L445.976 1053.18L446.187 1051.37L446.286 1051H1161V1096H441.529ZM465.679 687.464L465.469 687.359L465.258 687.464L465.048 687.885L464.627 688.011L464.185 688.117L464.08 688.538L464.29 689.19L464.732 690.137L465.785 690.894L467.174 691.862L468.142 692.494L468.353 692.073L468.037 691.862L467.616 691.526L466.858 689.169L466.332 687.99L466.121 687.78L465.679 687.464ZM469.847 691.968L469.742 692.494L470.5 693.251L471.342 693.672L472.415 693.883L473.152 694.093L473.594 693.567L473.805 693.357L474.015 693.125L473.594 692.599L473.152 692.389L472.415 692.283L471.657 692.073L470.921 691.968L470.268 691.862L469.847 691.968ZM551.079 696.113H550.764V695.798L550.974 695.692L551.079 695.461L551.5 695.25L552.132 695.356L552.574 695.692L552.679 696.008H552.027L551.079 696.113ZM552.574 697.397L552.679 697.713L555.142 698.996H556.089L556.3 698.786L555.668 698.133L554.595 696.85L553.416 696.534L553.1 696.429H552.469L551.921 696.534V696.766L552.153 696.976L552.784 697.292L553.311 697.502L553.753 697.818L553.311 697.713L552.89 697.502L552.574 697.397ZM552.258 698.891L552.469 698.365H552.89L555.247 699.417L555.879 699.312H556.742L557.163 699.522L557.373 700.069L557.057 700.28L556.3 700.596L555.984 700.701L553.963 701.248L552.363 699.649L552.258 698.891ZM543.817 699.333L544.238 699.017L543.291 698.176H542.428L540.933 699.249L541.144 699.67L543.817 699.333ZM548.195 699.88L549.269 699.228H549.69L550.006 698.912L550.427 699.122L550.869 700.617L551.184 701.143L550.974 701.479L549.795 700.827L548.953 700.617L548.301 700.301L548.195 699.88ZM541.691 700.09L541.27 700.196H540.828L540.617 699.985L540.196 699.775L539.881 699.67L539.439 700.322L539.333 700.638L539.544 700.953H540.091L540.617 701.269V702.026L540.933 702.132L541.27 701.921L541.375 701.374H541.586L541.901 701.269L542.217 700.953V700.532L542.007 700.09H541.691ZM553.437 704.047L553.332 703.71L553.437 702.868V702.426L553.963 701.9L554.7 701.669L555.773 701.353L556.742 701.248L557.268 701.458L557.689 701.984L558.236 702.09L558.657 701.984L559.31 701.879H559.52L560.257 704.236V705.309L559.52 705.856V707.877L559.415 708.087L558.784 708.319L557.815 707.456L556.426 706.719L555.668 705.541L554.826 705.436L553.963 704.468L553.437 704.047ZM537.86 704.615L536.365 705.141L535.713 705.246L535.186 705.351L534.871 705.583V706.004L534.534 706.214L534.218 706.425L533.902 706.656L533.692 706.761L533.902 707.287L535.186 707.077L535.292 707.603L536.786 707.077L537.312 706.425L539.018 704.699L538.807 704.173L538.281 704.278L537.86 704.615ZM531.019 708.255L532.092 707.94L533.166 708.045L534.871 708.466L535.186 709.118L534.976 710.612L534.871 711.686L534.134 712.422L532.955 711.791L531.671 711.37L532.408 710.823L532.092 709.855L531.671 709.75L531.776 709.223L530.913 708.697L531.019 708.255ZM525.482 713.727L524.619 714.063L523.777 714.169H522.704L522.283 714.379L522.072 714.821L522.388 715.347L523.883 715.558L524.198 715.347L524.619 714.695L526.009 714.379L526.556 714.063L527.714 713.727L527.924 713.306L527.398 713.095H527.082L526.43 713.411L526.324 713.516L525.482 713.727ZM519.504 714.821H519.062L518.746 714.716V714.505L518.852 714.274L519.188 714.063H519.715L520.03 713.958L520.136 714.169L520.03 714.379L519.925 714.611L519.504 714.821ZM603.831 715.6L604.167 715.81L604.588 716.126L605.557 717.409L606.504 717.957L607.051 718.377L608.441 718.483L609.935 718.693L610.356 718.588L610.567 717.83L610.356 717.62H609.388L608.335 717.409L607.262 716.441L605.978 716.021L604.694 715.389L603.831 715.284V715.6ZM589.432 724.627L591.053 724.101L591.579 723.659L592.527 723.238H592.969V723.554L593.074 723.975L592.653 724.943L591.79 725.28L590.401 725.701L589.011 725.911L587.201 725.932H585.812L584.738 725.616L584.633 724.964H585.286L585.917 724.859H587.517L588.696 724.733L589.432 724.627ZM652.098 756.151L651.888 756.256L651.551 756.698L651.783 757.224V757.434H651.551L651.34 757.561L651.446 757.876L652.204 758.823L652.625 759.37L652.751 759.581L653.172 760.002H653.488V759.265L653.277 758.613L653.172 757.876L652.73 757.119L652.309 756.487L652.098 756.151Z" fill="#557A42"/>
<path fill-rule="evenodd" clip-rule="evenodd" d="M597.306 0.00195312H984.472L1161.47 775.002H661.193C661.059 773.367 661.709 771.592 663.314 770.435C665.059 769.176 665.517 768.141 664.331 768.133C663.146 768.126 662.184 766.84 662.194 765.277C662.204 763.714 660.122 758.818 657.567 754.398C655.012 749.978 653.465 746.365 654.128 746.369C654.791 746.374 654.062 745.09 652.508 743.518C650.954 741.945 649.689 739.589 649.698 738.282C649.706 736.975 648.511 733.567 647.042 730.709C645.574 727.851 644.363 726.169 644.352 726.971C644.341 727.773 641.898 726.972 638.923 725.191C635.949 723.409 633.518 721.393 633.523 720.711C633.527 720.028 631.297 718.551 628.567 717.429C625.837 716.307 620.85 713.348 617.484 710.853C609.785 705.147 605.258 705.119 595.317 710.715C587.164 715.304 573.832 716.781 573.855 713.092C573.864 711.607 573.218 711.594 571.445 713.046C569.653 714.513 568.141 714.377 565.636 712.522C562.76 710.393 562.616 709.578 564.682 707.122C566.742 704.674 566.681 704.227 564.284 704.211C562.436 704.2 561.7 702.951 562.164 700.619C562.556 698.654 562.102 696.56 561.156 695.967C560.209 695.375 559.84 694.243 560.335 693.454C560.831 692.664 559.648 690.563 557.708 688.786C554.648 685.984 552.913 685.796 544.64 687.376C532.06 689.779 521.297 687.88 518.812 682.819C516.934 678.995 516.827 678.985 512.441 682.262C509.883 684.173 506.368 685.184 504.201 684.632C501.738 684.004 498.386 685.358 494.576 688.521C489.628 692.628 488.074 693.07 484.46 691.397C478.597 688.682 472.707 683.375 472.723 680.821C472.736 678.789 468.845 676.484 465.365 676.462C464.451 676.456 463.693 677.984 463.682 679.857C463.659 683.447 457.133 686.286 455.408 683.457C454.49 681.952 455.526 671.559 457.733 660.14C458.995 653.611 459.07 598.814 457.82 596.764C457.24 595.814 457.573 595.041 458.56 595.047C459.547 595.053 460.882 593.435 461.526 591.449C463.082 586.656 466.779 586.805 465.49 591.609C464.937 593.669 465.603 599.761 466.971 605.148C468.339 610.534 469.041 617.598 468.533 620.845C466.645 632.898 466.499 636.687 467.922 636.696C468.726 636.702 469.399 634.178 469.419 631.088C469.445 626.854 470.117 625.729 472.143 626.52C473.952 627.227 475.213 626.096 475.994 623.066C476.871 619.668 477.992 618.833 480.558 619.664C485.171 621.16 484.877 619.791 478.596 610.544C472.437 601.475 471.927 597.888 476.431 595.305C479.269 593.677 479.174 593.473 475.538 593.401C470.717 593.306 470.472 592.249 474.377 588.396C476.64 586.163 477.58 586.04 478.675 587.836C479.734 589.573 481.242 589.133 484.855 586.034C487.484 583.779 489.639 581.291 489.644 580.507C489.659 578.118 477.212 579.305 476.242 581.785C475.691 583.192 473.471 583.749 470.577 583.206C467.579 582.643 466.242 583.007 466.963 584.189C467.592 585.222 466.838 586.058 465.286 586.048C463.66 586.038 462.475 584.48 462.488 582.37C462.502 580.218 460.808 578.049 458.38 577.109C455.354 575.937 454.15 573.887 453.877 569.44C453.673 566.102 452.995 560.519 452.372 557.035C451.748 553.55 451.243 545.206 451.249 538.493C451.255 531.78 450.902 526.285 450.465 526.282C450.028 526.279 448.62 527.693 447.337 529.424C446.053 531.155 444.638 532.163 444.192 531.664C443.745 531.166 442.947 518.142 442.418 502.724C441.308 470.341 435.529 441.898 430.146 442.32C428.026 442.487 427.19 441.064 427.214 437.329C427.234 434.072 426.299 432.099 424.729 432.09C421.612 432.07 420.313 426.974 419.097 409.998C417.796 391.838 413.369 364.24 410.363 355.552C408.993 351.59 407.872 346.213 407.872 343.603C407.873 340.941 405.52 336.155 402.512 332.702C399.564 329.316 397.159 325.342 397.168 323.87C397.187 320.888 383.016 307.056 379.923 307.036C377.545 307.021 373.8 299.163 373.831 294.255C373.844 292.312 373.145 290.719 372.28 290.713C370.136 290.7 366.46 270.576 366.428 258.685C366.414 253.361 365.698 248.564 364.837 248.025C363.977 247.486 363.282 245.465 363.295 243.535C363.307 241.605 362.095 240.018 360.602 240.008C356.638 239.983 357.285 237.582 362.579 232.674C366.327 229.2 367.049 227.224 366.227 222.687C365.545 218.928 366.066 216.323 367.778 214.922C369.194 213.762 369.945 211.213 369.447 209.257C368.946 207.291 369.444 205.707 370.561 205.714C373.799 205.734 372.927 200.618 369.02 196.663C367.042 194.661 365.428 192.278 365.434 191.366C365.44 190.455 364.429 189.36 363.187 188.934C358.94 187.475 365.6 182.174 371.594 182.241C377.972 182.312 380.752 183.74 382.234 187.705C382.996 189.745 383.291 189.564 383.414 186.98C383.561 183.911 383.921 183.823 386.729 186.175C388.462 187.626 392.111 189.947 394.84 191.333C397.568 192.718 399.796 194.528 399.79 195.355C399.785 196.181 400.995 196.865 402.479 196.874C403.964 196.884 407.446 199.293 410.218 202.228C416.468 208.848 432.981 215.669 440.695 214.819C443.869 214.469 446.17 214.655 445.808 215.233C445.445 215.81 449.341 219.123 454.465 222.595C459.589 226.066 465.338 230.321 467.242 232.05C474.815 238.929 497.581 242.742 517.823 240.521C528.284 239.374 530.823 239.641 533.6 242.185C536.06 244.438 538.733 244.937 544.011 244.127C549.399 243.301 551.359 243.693 552.133 245.749C553.317 248.89 558.69 249.475 558.709 246.464C558.718 245.044 559.518 245.103 561.371 246.659C565.529 250.153 576.478 252.054 582.59 250.344C585.805 249.444 589.361 249.468 591.004 250.4C594.222 252.227 603.938 248.119 603.958 244.923C603.965 243.848 605.109 243.413 606.5 243.956C608.056 244.564 609.433 243.445 610.075 241.052C611.115 237.179 611.138 237.177 614.52 240.753C616.39 242.73 619.954 246.092 622.44 248.225C625.422 250.783 627.35 254.796 628.106 260.015C628.737 264.366 630.034 269.152 630.989 270.65C632.21 272.563 632.402 271.625 631.636 267.494C630.283 260.2 633.321 256.198 640.178 256.241C643.651 256.263 645.615 257.407 646.374 259.85C646.985 261.817 649.878 265.153 652.803 267.262C655.729 269.372 657.653 271.846 657.079 272.761C656.505 273.676 656.898 274.43 657.952 274.436C661.102 274.456 660.158 271.268 655.669 266.725C653.347 264.376 651.589 260.696 651.761 258.547C652.138 253.833 657.772 247.311 661.446 247.335C663.544 247.348 663.654 246.805 661.97 244.752C660.276 242.685 660.517 241.794 663.147 240.409C667.574 238.078 674.584 243.763 674.375 249.514C674.204 254.2 671.131 262.35 670.953 258.59C670.891 257.287 670.1 256.673 669.195 257.224C667.151 258.468 668.766 265.463 671.1 265.478C672.038 265.484 672.332 266.244 671.754 267.166C671.175 268.088 671.526 269.359 672.534 269.99C673.604 270.66 674.403 269.027 674.455 266.058C674.569 259.587 678.851 253.887 682.522 255.321C684.355 256.038 685.31 258.764 685.297 263.251C685.288 267.012 685.758 271.922 686.344 274.164C687.203 277.451 686.668 278.234 683.58 278.215C678.424 278.182 678.723 280.117 685.43 290.184C688.565 294.891 691.296 300.442 691.497 302.519C691.698 304.596 692.438 308.13 693.141 310.372C694.245 313.894 693.774 314.445 689.684 314.419C686.789 314.401 684.943 315.392 684.933 316.97C684.924 318.39 682.9 321.116 680.434 323.029C676.409 326.152 675.003 329.596 670.787 346.665C670.018 349.776 670.338 350.617 671.921 349.654C673.133 348.916 673.713 347.219 673.21 345.884C672.707 344.549 674.305 340.537 676.762 336.968C679.219 333.399 681.234 329.905 681.24 329.203C681.258 327.094 696.592 313.52 698.302 314.1C699.174 314.396 699.399 312.769 698.802 310.485C698.205 308.201 697.715 304.821 697.713 302.974C697.712 300.911 696.77 299.97 695.272 300.534C693.526 301.191 693.079 300.216 693.695 297.101C694.169 294.708 695.14 292.754 695.853 292.759C696.567 292.763 700.41 295.839 704.392 299.594C709.524 304.431 712.007 308.529 712.914 313.657C713.618 317.638 715.081 321.45 716.165 322.129C717.551 322.998 717.429 324.206 715.752 326.2C714.155 328.097 714.038 329.039 715.398 329.048C716.515 329.055 717.296 329.67 717.133 330.415C716.97 331.16 717.483 333.279 718.272 335.125C720.032 339.243 716.752 341.647 709.382 341.64L704.129 341.634L708.453 345.428C712.661 349.119 713.573 353.048 714.202 370.178C714.32 373.411 715.028 376.06 715.775 376.065C719.389 376.088 716.446 379.577 711.217 381.467C707.975 382.639 706.342 383.998 707.59 384.488C708.837 384.977 709.45 386.027 708.952 386.821C708.454 387.615 709.253 389.277 710.727 390.516C713.764 393.067 714.283 400.586 711.537 402.258C710.538 402.866 709.715 404.285 709.708 405.411C709.687 408.761 715.046 400.752 715.13 397.308C715.173 395.568 715.912 394.148 716.772 394.154C718.56 394.165 724.236 408.424 724.61 413.848C724.747 415.835 725.507 417.067 726.299 416.585C727.091 416.103 727.789 416.774 727.851 418.077C727.913 419.379 729.158 417.249 730.617 413.345C732.997 406.975 732.95 405.395 730.157 397.971C728.444 393.421 727.293 388.622 727.598 387.307C727.904 385.992 727.227 383.786 726.094 382.404C723.156 378.821 725.843 375.642 730.955 376.652C733.347 377.125 735.784 376.748 736.369 375.814C737.54 373.948 732.432 368.491 727.847 366.709C726.247 366.088 724.542 364.025 724.058 362.125C723.005 357.995 730.642 343.143 732.849 345.029C733.697 345.753 733.444 345.079 732.286 343.531C731.128 341.982 729.649 337.254 729 333.023C728.006 326.552 728.435 324.764 731.706 321.758C733.844 319.793 735.601 316.996 735.61 315.543C735.619 314.09 736.456 312.906 737.471 312.913C738.512 312.919 738.854 311.039 738.256 308.594C737.674 306.213 738.081 303.726 739.161 303.069C740.241 302.411 741.14 299.459 741.159 296.51C741.188 291.989 742.053 290.981 746.666 290.089C752.286 289.003 754.327 287.107 755.039 282.315C755.263 280.807 756.074 277.543 756.842 275.062C758.064 271.11 757.882 270.837 755.379 272.86C752.966 274.811 751.946 274.43 748.82 270.407C746.784 267.787 744.268 266.161 743.229 266.794C742.19 267.426 741.346 266.871 741.355 265.559C741.363 264.247 739.348 260.967 736.877 258.27C733.672 254.772 732.397 251.333 732.429 246.275C732.455 242.202 731.333 238.227 729.793 236.934C728.319 235.695 727.506 234.055 727.987 233.289C728.467 232.523 727.655 230.883 726.18 229.645C723.994 227.808 723.497 227.934 723.482 230.327C723.472 231.94 722.704 233.256 721.776 233.25C717.929 233.226 717.689 240.812 721.41 244.82C723.48 247.05 725.17 249.468 725.166 250.193C725.161 250.918 727.179 253.718 729.65 256.416C732.121 259.113 734.137 262.345 734.129 263.598C734.121 264.851 734.793 265.881 735.622 265.886C736.452 265.891 737.123 267.005 737.115 268.36C737.087 272.78 731.26 269.408 727.861 263.004C726.042 259.578 723.435 256.768 722.068 256.759C720.701 256.751 719.14 255.572 718.601 254.139C718.061 252.707 716.667 251.876 715.502 252.292C712.159 253.489 709.792 250.881 707.704 243.7C705.078 234.672 705.924 223.357 709.486 219.841C711.657 217.7 712.633 217.533 713.246 219.198C713.814 220.74 714.963 220.315 716.898 217.849C719.16 214.964 720.173 214.702 722 216.525C725.223 219.742 726.601 219.377 727.777 214.997C728.9 210.812 725.755 204.343 722.587 204.323C721.487 204.316 719.124 202.673 717.336 200.673C715.547 198.673 712.174 197.024 709.84 197.009C707.506 196.994 705.697 196.373 705.82 195.628C706.545 191.218 705.292 187.939 702.876 187.924C700.698 187.91 700.495 188.658 701.935 191.388C703.244 193.871 703.17 195.067 701.676 195.554C700.523 195.93 702.552 198.015 706.185 200.188C713.259 204.42 714.176 207.083 710.339 212.258C707.748 215.752 700.056 214.791 700.08 210.977C700.087 209.876 698.045 210.873 695.542 213.193C693.039 215.513 690.982 218.829 690.971 220.562C690.96 222.295 689.998 224.023 688.833 224.403C687.667 224.783 689.576 226.473 693.073 228.159C698.68 230.861 699.737 232.508 702.015 242.088C703.436 248.064 704.079 253.578 703.444 254.341C702.809 255.105 703.745 258.587 705.524 262.079L708.759 268.429L708.799 262.552C708.852 254.875 713.81 254.666 718.748 262.132C720.714 265.105 724.599 268.497 727.381 269.669C733.779 272.365 737.161 279.229 736.658 288.496C736.091 298.936 734.245 302.043 728.626 302.007C722.198 301.967 719.429 298.889 719.474 291.836C719.509 286.19 714.085 281.203 712.611 285.528C711.759 288.03 705.022 287.965 705.038 285.455C705.053 282.951 700.479 278.322 697.974 278.306C696.907 278.299 696.051 275.713 696.071 272.56C696.091 269.406 694.769 265.329 693.134 263.5C690.769 260.855 690.68 260.172 692.702 260.162C694.735 260.153 694.775 259.849 692.9 258.644C690.996 257.42 690.991 256.196 692.869 252.144C694.908 247.746 694.766 246.842 691.674 244.553C689.498 242.942 687.922 242.663 687.527 243.82C686.404 247.118 681.764 245.777 681.787 242.162C681.799 240.24 679.377 236.915 676.405 234.771C669.905 230.084 669.43 224.188 674.727 213.966C676.742 210.077 678.397 205.893 678.405 204.668C678.412 203.443 679.997 201.351 681.926 200.019C685.618 197.469 688.382 183.111 685.525 181.321C684.679 180.791 683.997 178.731 684.01 176.742C684.023 174.753 684.839 173.63 685.823 174.247C686.861 174.896 687.465 173.424 687.26 170.746C686.809 164.843 684.49 164.774 682.982 170.62C681.128 177.811 677.967 176.007 679.237 168.482C680.422 161.465 683.427 158.317 687.485 159.838C689.141 160.459 689.588 159.818 688.855 157.871C688.256 156.283 687.711 153.626 687.643 151.966C687.566 150.086 687.17 149.799 686.592 151.203C685.112 154.804 677.305 153.862 676.085 149.935C674.787 145.755 676.771 137.127 679.028 137.142C679.915 137.147 680.648 136.042 680.657 134.686C680.68 131.023 688.654 132.091 689.353 135.851C689.713 137.784 688.833 139.012 687.096 139.001C683.779 138.98 683.516 140.61 686.222 144.42C687.856 146.72 688.002 146.65 687.159 143.974C686.515 141.931 687.105 140.809 688.818 140.82C690.279 140.829 691.471 141.475 691.466 142.255C691.461 143.035 693.891 145.131 696.866 146.912C702.133 150.066 704.256 155.384 700.238 155.358C699.136 155.351 698.676 156.516 699.215 157.947C699.754 159.378 699.22 160.951 698.029 161.442C696.838 161.933 697.9 162.196 700.389 162.026C703.69 161.8 704.843 162.567 704.647 164.86C704.5 166.589 705.048 167.596 705.865 167.099C706.682 166.601 707.835 166.988 708.428 167.96C709.02 168.931 710.556 169.329 711.843 168.845C714.611 167.804 713.759 158.982 710.222 152.063C707.503 146.744 709.289 144.641 716.526 144.639C719.632 144.639 720.503 143.874 719.732 141.826C719.124 140.213 719.432 139.489 720.453 140.129C724.412 142.608 721.92 137.449 717.229 133.454C710.34 127.586 709.002 124.945 711.447 122.039C713.022 120.167 712.964 118.638 711.207 115.788C709.437 112.915 709.379 111.231 710.964 108.731C712.65 106.07 712.401 105.04 709.648 103.298C704.752 100.199 702.309 100.589 696.676 105.369C691.37 109.871 689.145 116.203 694.372 111.923C696.652 110.057 697.097 110.32 697.077 113.527C697.048 118.127 694.023 118.446 689.523 114.324C687.714 112.667 686.228 112.098 686.222 113.059C686.216 114.021 688.642 116.628 691.614 118.853C694.586 121.077 697.007 124.5 696.995 126.46C696.971 130.245 694.318 131.233 692.442 128.156C691.823 127.141 690.43 126.851 689.345 127.511C688.168 128.228 687.899 127.874 688.678 126.632C689.395 125.489 689.213 124.548 688.272 124.542C687.332 124.536 685.228 121.675 683.597 118.184C681.966 114.692 679.799 111.831 678.781 111.824C676.188 111.808 677.639 104.126 680.403 103.236C681.65 102.835 682.661 103.957 682.649 105.731C682.622 110.081 685.494 106.815 686.933 100.86C687.837 97.117 687.169 95.6938 683.593 93.7522C681.133 92.4169 679.13 89.9641 679.14 88.3014C679.151 86.6387 675.745 81.7532 671.572 77.4448C664.222 69.8573 664.111 69.5655 668.011 68.1515C673.713 66.0848 673.344 61.417 667.564 62.4834C664.406 63.066 662.7 62.3656 661.862 60.1426C659.999 55.1983 663.774 51.0724 669.531 51.7596C665.887 48.0336 662.052 44.6848 659.761 44.7983C654.004 45.3053 652.597 44.1872 651.92 40.7589C651.729 38.8561 653.156 37.527 654.364 36.4026C655.509 35.336 656.457 34.4537 655.637 33.4408C654.18 31.5263 652.263 30.034 649.889 30.2581C646.461 30.5815 645.503 31.3804 644.361 32.3319C643.179 33.318 641.799 34.468 637.27 35.4223C625.968 38.5911 626.051 40.2574 626.197 43.165L626.197 43.1659C626.219 43.6076 626.243 44.0778 626.228 44.5863C633.086 44.6297 634.366 45.1449 633.448 47.4923C632.834 49.0615 632.328 50.957 632.323 51.7044C632.318 52.4519 629.872 53.0479 626.886 53.0291C623.569 53.0081 621.463 52.0572 621.473 50.5838C621.481 49.2578 620.674 48.1678 619.678 48.1615C618.683 48.1552 617.874 47.3363 617.88 46.3418C617.882 46.0381 618.234 45.7535 618.852 45.5055C617.647 40.0711 615.523 39.0119 611.562 37.3574C607.601 35.7029 604.643 30.6291 607.416 29.4652C609.379 28.5465 610.432 29.4466 611.604 30.447C612.656 31.3461 613.803 32.3261 615.79 32.1401C618.539 31.8828 619.135 30.7482 620.064 28.9784C620.908 27.37 622.027 25.237 625.289 22.761C627.203 21.4934 629.077 20.277 630.847 19.1281C638.727 14.0127 644.545 10.2358 642.68 9.23653C641.176 8.69287 637.525 11.1832 632.695 14.4773C627.374 18.1066 620.622 22.7116 613.736 25.3099C610.995 26.2762 604.313 22.6284 603.288 18.9511C601.645 13.7378 601.461 8.77982 601.286 3.73086C601.267 3.17933 600.726 2.90129 600.025 2.54126C599.126 2.07955 597.965 1.48302 597.306 0.00195312ZM253.354 0.00195312H487.218C490.007 3.38793 491.637 6.32513 493.846 12.4821C494.887 14.3857 496.695 13.9862 499.074 13.4608C501.116 13.0098 503.577 12.466 506.335 13.2052C511.174 12.8085 511.459 16.4185 511.004 21.8462C510.933 22.6865 511.743 23.6063 512.915 24.9388C514.475 26.7111 516.676 29.2135 518.305 33.2299C520.875 39.5669 518.748 39.2334 516.914 38.9455C515.913 38.7886 514.999 38.6452 514.981 39.6049C515.103 41.4964 516.526 43.0656 517.73 44.3941C519.254 46.0758 520.429 47.3716 518.173 48.4467C516.373 49.3049 514.643 48.0319 511.463 45.692L511.461 45.691L511.459 45.6894C511.075 45.4067 510.67 45.1085 510.241 44.7966C507.232 45.24 511.523 50.0784 515.57 53.8986C522.475 59.0296 526.616 62.507 526.389 63.6041C525.416 67.624 529.358 70.5988 532.97 73.3248C533.384 73.637 533.793 73.946 534.19 74.2529C538.142 76.8278 544.373 83.9464 542.981 85.4204C537.879 90.8253 542.009 92.9661 545.321 93.966C547.302 95.0035 547.021 97.7196 545.189 100.965C544.363 102.542 541.55 101.968 539.04 101.455C536.823 101.002 534.841 100.597 534.672 101.767C534.097 105.757 537.779 109.973 545.327 110.469C548.01 110.52 550.453 113.566 552.684 120.131C553.295 125.042 551.533 126.062 550.147 126.865C549.275 127.37 548.552 127.789 548.661 129.035C548.801 130.642 549.809 131.725 550.945 132.944C552.594 134.715 554.512 136.774 554.434 141.146C554.37 144.733 552.388 147.506 550.784 149.749C549.463 151.597 548.399 153.086 548.877 154.372C549.421 156.436 551.149 155.001 556.292 148.682C560.858 145.634 562.912 143.174 561.526 135.294C560.629 130.19 562.536 128.964 563.871 128.106C564.902 127.443 565.591 127 564.38 125.158C564.274 125.087 564.169 125.017 564.064 124.948L563.794 124.769L563.537 124.598C560.267 122.434 558.192 121.061 559.128 119.17C560.537 117.189 563.394 116.81 565.893 116.858C568.393 116.905 573.578 120.524 573.779 123.007C574.315 129.625 572.969 131.842 572.173 133.154C571.764 133.828 571.499 134.264 571.709 134.934C571.687 136.124 573.467 138.531 575.265 140.961C576.544 142.69 577.831 144.43 578.485 145.752C579.069 151.075 579.156 153.581 578.825 157.036C578.799 158.366 580.614 159.717 582.96 161.463C586.032 163.751 590.015 166.716 591.969 171.201C592.814 174.549 591.027 175.695 589.374 176.755C588.468 177.337 587.602 177.892 587.231 178.77C587.358 184.173 586.543 184.261 583.138 184.628C582.971 184.646 582.798 184.665 582.619 184.685C575.443 185.483 572.525 181.311 570.318 178.156C568.981 176.244 567.905 174.706 566.301 174.876C564.479 175.068 563.758 177.141 562.849 179.755C561.757 182.893 560.394 186.811 556.529 189.194C551.992 191.109 551.656 192.378 551.398 196.099C550.748 204.088 550.21 206.078 545.702 206.493C544.58 206.472 544.04 205.274 543.435 203.932C542.421 201.683 541.225 199.029 536.807 200.825C536.719 201.125 536.634 201.414 536.553 201.692C535.577 205.048 535.08 206.755 533.704 206.267C530.723 205.211 525.309 200.608 524.057 195.754C521.255 193.988 517.536 194.199 508.706 194.697H508.706L508.204 194.726L507.416 194.77C504.992 194.905 503.531 193.806 502.05 192.69C500.46 191.493 498.846 190.278 495.993 190.554L495.781 190.589C494.136 190.857 493.408 190.976 492.715 190.868C492.165 190.783 491.637 190.555 490.69 190.148L490.69 190.147C490.45 190.044 490.183 189.929 489.881 189.801C470.174 179.612 458.501 174.252 436.456 165.428C433.438 160.444 427.307 158.533 421.609 157.121C419.681 155.381 417.244 155.068 415.034 154.784C412.735 154.489 410.681 154.225 409.696 152.422C408.974 150.908 410.507 149.187 412.04 147.465C413.572 145.744 415.105 144.022 414.383 142.509C412.934 142.481 411.381 143.396 409.561 144.467C406.988 145.983 403.882 147.812 399.782 147.735C382.804 146.415 362.706 135.534 360.091 130.984C357.352 126.218 354.161 124.211 351.873 122.773C350.035 121.617 348.78 120.828 348.809 119.27C348.827 118.342 349.94 117.779 351.468 117.006C354.058 115.697 357.842 113.784 359.515 108.469C359.693 107.368 361.732 105.257 364.256 102.644C369.732 96.9739 377.493 88.9385 373.483 83.7279C371.071 84.554 369.185 87.6686 366.777 91.6453C363.658 96.7958 359.664 103.392 352.516 108.337C346.252 117.572 342.14 120.306 331.916 113.45C325.375 109.891 321.026 108.608 317.285 107.505C313.948 106.52 311.095 105.678 307.599 103.491C304.734 102.152 304.596 98.3886 304.479 95.1979C304.414 93.421 304.355 91.8217 303.835 90.9175C302.091 90.004 300.487 90.8162 299.261 91.4369C298.398 91.8736 297.723 92.2156 297.318 91.7949C295.067 89.8518 293.716 89.6877 291.22 90.6798C290.375 88.6636 302.09 77.3822 312.239 69.5719C314.6 67.8694 317.121 67.508 319.107 67.2231C320.533 67.0187 321.683 66.8537 322.303 66.2609C323.739 64.1252 323.523 62.0376 323.147 58.4153L323.147 58.4142L323.147 58.4117C323.094 57.8976 323.037 57.3525 322.982 56.772C323.019 54.8043 325.097 53.3373 327.55 51.6058C329.459 50.258 331.595 48.7498 333.173 46.7204C329.571 42.7599 325.783 40.8219 323.764 41.7841C323.538 42.9988 323.98 43.8134 324.379 44.5499C324.963 45.6262 325.456 46.5356 323.642 48.2829C322.241 49.6325 320.898 48.3875 319.612 47.1945C318.782 46.4243 317.975 45.6757 317.19 45.661C316.341 45.645 315.433 46.1843 314.461 46.7615C313.143 47.5441 311.708 48.3963 310.144 48.0287C308.325 47.6009 307.104 45.942 305.96 44.3883C304.823 42.8441 303.763 41.4038 302.268 41.3792C298.418 41.3157 294.251 42.2283 294.194 45.2278C294.247 48.547 292.572 51.6984 289.073 51.6325C283.799 51.1156 278.64 47.9353 278.697 44.9359C278.499 40.7419 278.111 38.5409 277.766 36.58L277.766 36.58C277.579 35.5217 277.405 34.5334 277.28 33.3395C276.923 31.6616 275.085 31.5699 271.425 31.3874C270.678 31.3501 269.855 31.309 268.953 31.2499C266.629 30.9927 265.639 32.4733 263.879 35.155C259.003 40.3729 257.433 28.7217 255.526 14.5621L255.526 14.5621C254.886 9.8103 254.207 4.77602 253.354 0.00195312ZM476.114 528.641C466.268 531.688 460.977 535.261 460.954 538.877C460.947 539.943 460.079 540.809 459.025 540.802C457.971 540.796 457.649 539.928 458.31 538.875C458.97 537.822 458.121 535.406 456.421 533.506C454.722 531.606 453.754 528.973 454.27 527.654C454.786 526.335 454.087 523.704 452.717 521.806C449.466 517.304 449.562 511.81 452.892 511.831C454.335 511.84 456.406 510.429 457.493 508.696C459.366 505.711 459.586 505.721 461.654 508.879C462.854 510.713 464.644 513.347 465.63 514.732C466.617 516.118 471.895 518.411 477.36 519.829C482.825 521.247 486.989 523.126 486.613 524.004C486.237 524.883 481.513 526.969 476.114 528.641ZM690.103 478.746C690.635 479.619 689.076 482.457 686.637 485.053C684.199 487.649 680.256 489.761 677.874 489.746C673.093 489.716 667.587 484.628 667.615 480.267C667.638 476.564 663.329 473.072 660.191 474.253C658.372 474.937 657.624 473.347 657.436 468.39C657.294 464.648 656.857 457.319 656.464 452.102C655.872 444.232 656.169 442.969 658.211 444.684C660.157 446.318 660.437 446.128 659.55 443.775C658.934 442.139 659.243 440.805 660.239 440.811C661.234 440.818 662.56 439.515 663.185 437.916C663.989 435.864 663.54 435.304 661.66 436.012C659.428 436.851 659.341 436.271 661.126 432.422C663.044 428.285 663.383 428.162 664.547 431.174C666.951 437.392 666.05 444.447 662.39 448.058C658.749 451.651 657.259 460.683 660.304 460.703C661.191 460.708 662.462 462.954 663.128 465.693C664.709 472.198 669.122 477.043 672.357 475.826C674.042 475.192 674.582 475.745 673.923 477.428C673.37 478.841 674.55 481.493 676.546 483.32C681.415 487.78 685.684 484.386 685.737 476.012C685.764 471.789 686.613 469.91 688.49 469.922C689.983 469.932 691.212 468.818 691.22 467.449C691.242 463.955 686.705 460.54 681.583 460.196C678.93 460.018 677.595 459.033 678.135 457.651C678.62 456.411 678.09 455.39 676.957 455.383C669.747 455.338 677.651 434.242 686.712 429.349C692.337 426.311 692.352 426.314 688.459 429.711C686.3 431.595 683.628 436.316 682.522 440.203C679.873 449.509 679.927 449.977 683.665 450.001C685.67 450.014 688.028 452.768 690.004 457.407C693.164 464.824 697.023 466.125 698.216 460.176C698.733 457.598 705.815 448.757 705.802 450.705C705.801 451.016 704.149 454.628 702.133 458.732C700.116 462.836 698.458 467.512 698.448 469.123C698.427 472.496 694.188 477.191 691.181 477.172C690.056 477.165 689.571 477.873 690.103 478.746ZM644.13 480.491C645.165 480.498 646.486 481.762 647.066 483.3C648.668 487.552 646.907 488.038 644.435 484.028C643.051 481.782 642.94 480.484 644.13 480.491ZM634.16 476.812C639.148 474.707 642.005 474.725 638.683 476.84C637.184 477.795 634.737 478.523 633.244 478.459C631.455 478.383 631.767 477.821 634.16 476.812ZM649.659 475.101C651.708 475.114 652.876 475.936 652.255 476.926C651.633 477.917 649.951 478.72 648.517 478.711C647.083 478.702 645.915 477.881 645.921 476.886C645.928 475.892 647.609 475.089 649.659 475.101ZM676.683 468.039C677.647 468.045 677.959 469.268 677.377 470.756C676.795 472.244 675.998 473.46 675.607 473.457C675.216 473.455 674.904 472.232 674.913 470.74C674.923 469.249 675.719 468.033 676.683 468.039ZM723.601 446.227C724.773 446.626 725.724 448.104 725.715 449.513C725.706 450.922 725.089 452.016 724.343 451.944C721.551 451.674 714.869 447.785 714.877 446.434C714.892 444.057 709.383 439.314 706.587 439.296C704.529 439.283 704.351 440.062 705.789 442.789C706.807 444.719 707.603 446.962 707.558 447.773C707.513 448.584 706.376 447.197 705.032 444.69C702.525 440.019 703.278 430.234 706.143 430.252C707.022 430.257 707.731 431.889 707.718 433.878C707.702 436.518 708.902 437.502 712.163 437.523C715.663 437.545 716.377 436.865 715.463 434.379C714.458 431.649 714.702 431.542 717.213 433.607C719.725 435.674 720.491 435.329 722.733 431.116L725.337 426.226L724.854 432.365C724.589 435.742 723.719 440.079 722.921 442.003C722 444.224 722.249 445.767 723.601 446.227ZM729.422 435.73C729.437 433.251 735.744 430.544 738.087 432.011C739.412 432.841 738.194 434.068 734.801 435.324C731.837 436.421 729.416 436.604 729.422 435.73ZM619.416 409.385C614.442 419.005 613.302 422.552 614.135 425.818C614.682 427.965 614.031 429.829 612.538 430.391C608.948 431.742 609.376 426.09 613.596 416.421C615.54 411.966 616.752 407.939 616.289 407.47C615.826 407.001 616.706 406.144 618.246 405.565C621.464 404.354 621.67 405.026 619.416 409.385ZM619.076 429.702C615.782 427.545 618.639 427.563 623.6 429.73C625.98 430.77 626.284 431.335 624.494 431.389C623.001 431.435 620.563 430.675 619.076 429.702ZM649.264 423.459C650.353 420.677 650.557 420.681 652.123 423.519C653.05 425.2 653.325 427.054 652.732 427.639C652.139 428.224 651.661 427.705 651.669 426.486C651.676 425.267 650.875 424.761 649.887 425.363C648.832 426.005 648.575 425.22 649.264 423.459ZM706.426 420.82C706.861 419.547 707.632 420.745 708.139 423.484C708.646 426.222 708.741 428.46 708.35 428.458C706.985 428.449 705.642 423.116 706.426 420.82ZM735.083 418.985C735.208 417.112 738.104 422.507 738.409 425.182C738.475 425.762 737.273 426.229 735.737 426.22C734.073 426.209 733.349 425.171 733.944 423.65C734.493 422.246 735.006 420.147 735.083 418.985ZM640.874 416.518C640.881 415.385 641.724 415.498 643.014 416.803C644.184 417.988 644.718 419.374 644.201 419.885C643.683 420.395 642.72 420.267 642.061 419.6C641.402 418.933 640.868 417.546 640.874 416.518ZM709.62 410.383C710.584 410.389 710.896 411.612 710.314 413.1C709.508 413.745 708.939 414.217 708.549 414.556C708.203 414.49 707.843 414.219 707.85 413.084C707.859 411.592 708.656 410.377 709.62 410.383ZM624.913 398.998C625.908 399.004 626.214 399.82 625.592 400.81C624.971 401.801 623.648 402.607 622.653 402.6C621.658 402.594 621.352 401.778 621.973 400.788C622.595 399.797 623.917 398.992 624.913 398.998ZM640.323 376.261C636.14 378.962 631.705 385.278 629.1 392.243C628.45 393.98 627.27 395.396 626.477 395.391C625.685 395.386 625.974 392.947 627.119 389.971C628.265 386.994 629.839 384.563 630.616 384.568C631.393 384.573 632.036 383.411 632.045 381.985C632.054 380.56 636.198 375.202 641.254 370.08C648.717 362.52 650.79 359.022 652.265 351.495C653.264 346.395 654.891 341.953 655.88 341.624C656.87 341.295 658.576 339.376 659.672 337.361C661.117 334.703 661.115 334.031 659.666 334.913C658.568 335.582 657.674 335.308 657.68 334.304C657.686 333.3 658.826 331.836 660.213 331.049C661.6 330.262 663.149 327.994 663.654 326.008C664.184 323.93 664.644 325.3 664.74 329.238C664.832 333 663.667 338.991 662.152 342.552C660.636 346.113 659.39 350.059 659.382 351.322C659.361 354.651 668.595 356.657 670.477 353.732C671.626 351.947 671.995 352.117 672.002 354.434C672.012 358.163 670.061 359.461 663.203 360.284C656.907 361.04 642.448 369.661 643.789 371.86C644.309 372.714 642.75 374.694 640.323 376.261ZM682.814 365.911C684.113 317.811 684.62 366.48 684.607 368.528C684.594 370.576 683.769 372.246 682.774 372.24C681.779 372.233 680.972 371.056 680.981 369.623C680.986 368.865 681.49 368.197 681.968 367.563C682.394 366.999 682.799 366.462 682.814 365.911ZM696.161 356.482C695.942 352.345 696.16 352.131 697.715 354.95C698.714 356.761 698.828 358.914 697.969 359.76C697.111 360.606 696.301 359.137 696.161 356.482ZM702.086 179.782C703.078 180.403 703.885 181.589 703.879 182.419C703.874 183.248 702.555 184.421 700.947 185.026C698.808 185.831 698.326 185.355 699.149 183.252C699.767 181.672 700.276 179.99 700.279 179.516C700.282 179.041 701.095 179.161 702.086 179.782ZM462.296 525.201C461.663 524.56 461.592 523.326 462.136 522.458C463.305 520.595 466.488 522.227 466.472 524.682C466.46 526.626 464.005 526.931 462.296 525.201ZM737.665 276.749C737.671 275.754 738.898 274.948 740.391 274.958C741.883 274.967 743.1 275.789 743.093 276.783C743.087 277.778 741.86 278.583 740.368 278.574C738.875 278.565 737.659 277.743 737.665 276.749ZM651.415 180.287C651.444 175.795 646.302 173.198 638.769 173.899C632.803 174.454 629.542 173.566 623.691 169.793C609.592 160.701 606.975 157.352 607.455 149.008C607.693 144.852 607.232 139.693 606.43 137.545C605.099 133.979 605.591 133.617 612.057 133.405C617.256 133.234 619.137 133.891 619.124 135.872C619.115 137.356 619.922 138.576 620.918 138.583C621.915 138.589 625.87 141.869 629.708 145.871C633.547 149.874 637.597 153.154 638.708 153.161C642.154 153.183 640.892 158.886 637.236 159.817C632.049 161.138 631.409 166.502 636.167 168.782C639.868 170.556 640.389 170.121 642.396 163.578C643.601 159.651 645.033 155.296 645.579 153.9C646.255 152.173 645.673 151.7 643.76 152.42C642.042 153.066 640.04 152.006 638.616 149.695C637.334 147.615 635.26 145.906 634.007 145.898C631.239 145.881 631.172 144.883 633.636 140.352C635.127 137.61 634.939 136.863 632.753 136.849C627.752 136.817 629.745 128.771 636.31 122.492C639.765 119.188 642.434 115.637 642.241 114.602C642.048 113.566 644.947 112.206 648.683 111.579C652.419 110.951 655.472 111.124 655.466 111.962C655.461 112.8 656.068 113.335 656.816 113.151C657.564 112.967 662.375 115.524 667.508 118.833C677.396 125.208 678.355 129.06 670.528 130.971C667.871 131.619 666.189 133.35 666.175 135.448C666.163 137.341 664.894 138.861 663.333 138.851C661.781 138.841 660.918 138.185 661.415 137.392C661.912 136.6 660.678 134.913 658.673 133.644C655.367 131.552 655.14 131.698 656.233 135.217C657.156 138.188 656.044 140.325 651.484 144.342C648.209 147.227 646.442 149.593 647.558 149.601C648.673 149.608 650.143 148.726 650.823 147.641C651.583 146.43 653.32 147.615 655.323 150.709C657.762 154.476 658.12 156.605 656.741 159.142C655.443 161.529 655.541 163.323 657.072 165.19C658.269 166.65 659.658 167.44 660.159 166.946C660.659 166.452 660.084 164.847 658.881 163.379C657.112 161.222 657.355 160.303 660.148 158.584C663.158 156.732 663.37 155.563 661.794 149.509C659.513 140.748 660.844 139.443 667.808 143.613C673.631 147.101 674.525 148.819 671.478 150.674C670.463 151.292 670.096 152.559 670.663 153.488C671.229 154.417 670.22 155.181 668.419 155.185C665.779 155.191 665.641 155.51 667.707 156.834C669.885 158.231 669.801 159.179 667.142 163.179C665.274 165.989 664.211 170.501 664.5 174.39C664.968 180.688 664.764 180.92 658.193 181.587C654.02 182.01 651.408 181.509 651.415 180.287ZM642.242 139.811C640.968 138.416 639.225 137.693 638.369 138.205C637.513 138.716 637.913 139.842 639.258 140.705C643.061 143.147 644.81 142.623 642.242 139.811ZM652.406 127.028C651.843 125.532 651.062 124.307 650.671 124.304C650.28 124.302 649.952 125.521 649.943 127.012C649.933 128.504 650.714 129.73 651.678 129.736C652.642 129.742 652.97 128.523 652.406 127.028ZM702.309 144.522C702.316 143.527 703.135 142.719 704.13 142.725C705.125 142.731 705.935 143.55 705.928 144.545C705.922 145.539 705.103 146.348 704.107 146.341C703.112 146.335 702.303 145.516 702.309 144.522ZM599.954 123.08C599.391 121.584 599.413 119.125 600.005 117.614C600.9 115.327 601.689 115.254 604.725 117.175C609.533 120.218 609.487 125.852 604.654 125.822C602.633 125.809 600.517 124.575 599.954 123.08ZM627.119 119.635C627.702 118.147 627.476 116.925 626.619 116.919C625.761 116.914 624.662 115.853 624.175 114.561C623.214 112.01 632.882 110.407 634.319 112.88C635.836 115.49 631.99 122.378 629.027 122.359C627.134 122.347 626.444 121.362 627.119 119.635ZM648.435 101.838C648.369 99.9311 648.803 98.8658 649.4 99.4705C649.998 100.075 650.052 101.635 649.521 102.937C648.935 104.376 648.509 103.945 648.435 101.838ZM600.659 103.009C598.136 104.212 605.379 109.262 607.582 107.14C609.11 105.668 603.686 101.566 600.659 103.009ZM575.032 83.0237C573.467 86.4948 576.353 92.5502 579.409 89.6072C581.946 87.6547 580.503 84.627 575.032 83.0237ZM585.53 109.724C583.006 110.927 586.712 117.912 588.916 115.789C590.444 114.318 588.557 108.281 585.53 109.724ZM527.304 41.6174C532.003 41.5114 533.042 44.4824 534.642 50.2572C538.691 54.8583 539.873 57.0443 537.472 59.3121C535.09 60.9469 534.584 58.7807 533.926 55.9588C533.604 54.5799 533.246 53.0444 532.614 51.7192C527.209 46.6165 526.247 44.598 527.304 41.6174ZM554.771 69.2203C551.326 66.4508 547.595 63.4509 543.952 60.4343C542.467 66.8849 543.192 69.4491 546.033 72.9757C549.315 76.6791 549.014 78.622 547.047 81.9964C544.582 86.6119 546.869 88.1146 550.498 90.4997L550.499 90.5002L550.507 90.505L550.513 90.5092L550.52 90.5141C550.798 90.6968 551.084 90.8847 551.376 91.0796C554.336 94.7704 553.506 95.087 552.041 95.6455C551.088 96.009 549.866 96.4751 549.245 98.0407C547.748 101.996 549.221 102.931 550.935 104.019C552.233 104.843 553.669 105.755 554.056 108.133C554.626 111.644 557.907 112.57 563.016 110.302C568.371 107.925 567.7 106.186 567.044 104.49C566.774 103.79 566.507 103.097 566.666 102.37C566.826 101.919 567.84 102.124 569.181 102.395C572.283 103.021 577.138 104 577.249 98.0681C577.273 96.7877 573.231 93.6991 569.057 90.5106C563.454 86.2297 557.614 81.7685 561.063 81.2603C562.334 81.073 563.5 81.6864 564.615 82.2729C566.141 83.0754 567.571 83.8276 569.043 82.4107C571.229 82.4519 564.037 76.6695 554.771 69.2203ZM506.457 6.71861C506.41 9.21817 516.592 14.5846 520.304 14.9809C526.847 15.6833 528.596 14.8174 526.897 10.1042C526.703 9.56729 524.82 9.1881 522.498 8.72073C518.287 7.87315 512.636 6.73557 513.012 3.84156C508.434 4.28912 506.495 4.71897 506.457 6.71861ZM534.566 27.7517C531.847 20.7976 530.726 17.9726 527.227 19.112C526.028 19.4157 527.001 20.7767 528.545 22.9359C529.966 24.9229 531.871 27.5859 533.01 30.7229C534.069 32.6601 535.288 34.1933 536.652 35.9088L536.652 35.9091L536.653 35.9093L536.653 35.9095C537.779 37.3261 539.004 38.8671 540.32 40.8624C542.763 43.909 544.272 43.4373 543.357 38.9193C540.835 32.5994 538.241 30.8546 536.486 29.674C535.582 29.0662 534.901 28.6079 534.566 27.7517ZM546.206 46.9744C548.974 45.7074 550.474 47.4456 553.101 52.6052C553.6 53.5855 555.715 54.714 559.057 56.498C562.601 58.3897 567.527 61.0185 573.372 64.9892C575.493 66.6433 576.999 67.086 578.352 67.4838C579.514 67.8254 580.564 68.134 581.795 69.1486C582.515 70.0222 583.297 70.8668 584.043 71.6731L584.045 71.6748L584.046 71.6757L584.046 71.6759C586.336 74.1503 588.293 76.2641 587.134 77.7506C585.606 79.2221 583.611 79.3503 578.635 77.5906C575.36 76.547 574.403 74.6769 573.268 70.4882C572.863 68.9954 569.106 66.8875 562.971 63.4462L562.969 63.4451C562.013 62.9085 560.999 62.3396 559.93 61.7355C556.25 59.7171 553.726 57.4624 548.278 52.5971L548.278 52.5968L547.612 52.0017C547.429 51.7518 547.249 51.5108 547.077 51.2785L547.076 51.2776C545.485 49.1383 544.443 47.7379 546.206 46.9744ZM587.202 81.3291C586.09 82.1705 585.301 82.7673 585.521 83.7213C586.049 85.5546 586.965 85.6354 588.833 85.8C589.778 85.8834 590.967 85.9882 592.473 86.3527C595.969 86.9278 597.123 84.9521 598.094 79.9574C596.107 79.92 594.248 78.5172 592.949 77.5378C591.961 76.7923 591.298 76.2921 591.152 76.8261C590.057 79.169 588.432 80.3987 587.202 81.3291ZM587.398 90.2578C586.554 90.2419 586.769 90.7813 587.215 91.898C587.826 93.4251 588.867 96.032 588.219 99.775C588.058 100.705 588.592 100.951 589.552 101.393C590.45 101.807 591.72 102.391 593.143 103.868C595.34 105.696 596.001 103.191 597.288 98.3131L597.29 98.308L597.292 98.3001L597.298 98.2747C597.45 97.6997 597.611 97.0919 597.783 96.4545C598.611 93.6964 591.416 89.3333 587.398 90.2578ZM610.894 90.7004C606.15 89.3663 604.489 90.2761 603.311 95.0584C602.632 96.9519 604.733 98.248 609.706 100.68C612.291 101.349 614.872 101.032 618.768 100.554C619.23 100.497 619.711 100.438 620.213 100.378C621.883 99.9731 622.403 99.4134 622.76 97.9252C623.823 97.8142 624.682 97.7324 625.376 97.6663L625.378 97.6662C627.486 97.4654 628.072 97.4096 628.231 97.1196C628.293 97.0079 628.291 96.8617 628.288 96.6591L628.288 96.591L628.287 96.529C628.286 95.7525 627.19 95.6973 625.027 95.5884C624.256 95.5496 623.349 95.5039 622.307 95.4162C616.531 91.7691 614.202 90.9694 610.894 90.7004ZM591.255 140.855H591.255C592.158 140.89 592.538 140.905 592.67 140.731C592.765 140.605 592.729 140.378 592.666 139.985C592.592 139.532 592.484 138.858 592.502 137.862C588.424 134.555 586.098 132.741 584.579 133.712C584.06 134.703 587.42 139.633 589.946 140.815C590.472 140.825 590.903 140.841 591.255 140.855ZM315.554 52.8934C314.35 52.2687 301.844 63.8752 304.325 64.9221C305.806 65.9501 307.796 66.4877 311.843 64.0635C316.617 58.0797 318.03 54.1783 315.554 52.8934Z" fill="#557A42"/>
<path d="M1063 682H828" stroke="black" stroke-width="15" stroke-dasharray="30 10 120 10"/>
<path d="M1048 653L886 653" stroke="black" stroke-width="15" stroke-dasharray="25 5 80 10"/>
<path d="M1042 624L865 624" stroke="black" stroke-width="15" stroke-dasharray="80 10"/>
<path d="M742.456 868.218C742.456 864.812 738.971 858 732 858H841.544C848.515 858 852 863.109 852 868.218L845.029 1009L797.228 956.774L748.929 1009L742.456 868.218Z" fill="#5C8647"/>
</svg>
