<svg width="1161" height="1096" viewBox="0 0 1161 1096" fill="none" xmlns="http://www.w3.org/2000/svg">
<path d="M47 772.5H44.5V775V1054V1056.5L47.0046 1056.5L1140 1054.5L1143.78 1054.49L1142.3 1051.02C1121.55 1002.42 1109.85 963.581 1109.15 922.015C1108.44 880.438 1118.72 835.895 1142.33 775.916L1143.67 772.5H1140H47Z" fill="white" stroke="#B0B0B0" stroke-width="5"/>
<path fill-rule="evenodd" clip-rule="evenodd" d="M46.9717 837V828H1121.39C1120.48 831.038 1119.62 834.037 1118.79 837H46.9717ZM46.9717 867V858H1113.55C1112.88 861.035 1112.26 864.034 1111.69 867H46.9717ZM46.9717 895V886H1108.65C1108.27 889.028 1107.94 892.026 1107.67 895H46.9717ZM46.9717 925V916H1106.59C1106.57 919.016 1106.6 922.014 1106.69 925H46.9717ZM46.9717 954V945H1108.12C1108.47 948.001 1108.87 951 1109.32 954H46.9717ZM46.9717 983V974H1113.14C1113.83 976.987 1114.57 979.985 1115.36 983H46.9717ZM46.9717 1013V1004H1121.58C1122.55 1006.97 1123.57 1009.97 1124.64 1013H46.9717Z" fill="#E6E6E6"/>
<path d="M217.972 1051H1160.97V1096H216.472L217.972 1051Z" fill="#557A42"/>
<path d="M208.936 0H969.178L1161 775H158L208.936 0Z" fill="#557A42"/>
<path d="M105.471 71.4999C105.471 55.4997 123.971 -1.55568e-05 198.471 0H282.971L235.971 775H117.971C29.4715 783 36.9663 1051 118 1051H218L216.471 1096H117.971C38.9715 1096 -16.5286 996 4.47137 867L105.471 71.4999Z" fill="#24321C"/>
<path d="M823.639 381.34C819.133 381.692 816.191 382.26 810.45 383.883C789.75 389.783 780.376 395.087 774.334 404.315C761.253 424.34 757.664 447.559 764.393 468.315C767.567 478.139 772.335 486.771 779.768 496.216C780.218 496.784 780.14 496.838 777.142 498.489C772.295 501.168 769.929 502.927 766.917 506.201C761.991 511.478 760.139 515.402 757.536 525.983C756.556 529.961 755.781 533.398 755.795 533.588C755.81 533.777 755.713 533.939 755.577 533.939C755.469 533.939 751 530.043 745.652 525.28C739.488 519.759 735.839 516.322 735.67 515.862C735.531 515.456 733.877 508.556 732.005 500.545C730.158 492.508 728.551 485.878 728.489 485.77C728.396 485.608 718.39 486.798 718.187 486.988C718.111 487.069 721.482 503.901 721.805 504.957C721.949 505.444 721.876 505.552 721.569 505.444C721.346 505.362 711.191 499.084 699.014 491.534C686.835 483.957 676.734 477.679 676.536 477.57C676.111 477.327 670.98 485.31 671.164 485.959C671.236 486.203 676.558 489.883 683.063 494.159C691.905 499.923 694.685 501.899 694.227 501.953C693.876 501.98 690.61 501.844 686.93 501.628C683.253 501.439 680.229 501.276 680.204 501.303C680.128 501.384 682.196 511.289 682.339 511.397C682.398 511.451 688.137 511.262 695.118 510.991C702.097 510.694 707.946 510.531 708.117 510.639C708.851 511.018 753.232 545.44 753.363 545.738C753.429 545.901 753.384 547.118 753.266 548.444C752.837 552.882 752.816 555.886 753.165 560.568C753.848 569.742 755.311 574.802 759.306 581.811C760.526 583.976 761.263 585.491 761.079 585.573C760.92 585.627 759.649 586.412 758.25 587.305C743.213 597.101 734.129 613.581 731.186 636.367C730.464 641.969 730.208 646.19 730.06 654.769C729.972 659.775 731.102 675.308 731.757 677.906C734.946 690.49 741.07 700.936 750.28 709.46C756.342 715.062 761.091 717.984 767.088 719.798C789.495 726.617 810.087 728.376 845.603 726.482C849.847 726.265 857.255 725.886 862.096 725.67C872.265 725.21 876.474 724.885 881.494 724.154C922.387 718.309 940.557 699.934 939.791 665.242C939.644 659.261 937.998 642.266 937.107 637.585C935.255 628.032 932.915 621.023 929.589 614.988C925.291 607.195 921.018 602.648 910.285 594.449C907.954 592.663 905.681 590.931 905.277 590.606L904.529 590.038L905.432 587.223C906.998 582.379 907.738 578.834 908.218 573.99C908.619 569.904 907.968 559.702 906.928 553.397C906.471 550.528 906.183 548.12 906.283 548.011C906.409 547.876 908.558 547.227 911.03 546.523C935.22 539.758 943.966 537.322 951.89 535.13L961.087 532.559L966.603 536.294L972.089 540.001L975.586 538.134C977.491 537.106 979.053 536.213 979.048 536.158C979.044 536.104 977.256 534.318 975.064 532.207C972.815 530.07 971.223 528.365 971.436 528.311C971.651 528.284 973.726 528.094 976.071 527.878C978.39 527.688 980.355 527.472 980.405 527.418C981.589 525.821 984.169 521.112 984.129 520.571L984.076 519.867L981.578 519.84C974.408 519.759 963.448 519.434 963.331 519.326C963.271 519.245 962.722 514.428 962.101 508.637C961.504 502.819 960.844 496.865 960.649 495.35L960.285 492.644L954.192 493.537C950.863 494.024 947.962 494.43 947.8 494.43C947.528 494.43 947.669 497.406 948.483 508.339L949.519 522.249L948.675 522.574C948.199 522.736 942.221 524.82 935.368 527.174C928.542 529.528 918.831 532.857 913.831 534.589C908.831 536.321 904.567 537.728 904.35 537.728C904.133 537.728 903.971 537.376 903.925 536.754C903.78 534.805 902.553 529.988 901.549 527.445C898.934 520.76 894.147 514.049 884.541 503.495L883.803 502.683L885.867 500.518C889.817 496.351 891.096 494.213 895.116 484.796C900.037 473.268 902.501 463.715 902.972 454.379C903.148 450.915 902.547 442.85 901.894 439.901C899.851 430.7 896.707 423.096 891.531 414.815C886.725 407.129 880.729 400.58 874.518 396.251C867.475 391.325 856.311 386.075 849.575 384.533C843.5 383.126 839.945 382.395 837.447 382.016C834.839 381.61 827.846 380.988 826.956 381.069C826.714 381.096 825.232 381.231 823.639 381.34Z" fill="#24321C"/>
<path d="M823.038 269.938C835.859 273.607 851.362 279.149 864.689 284.886C867.11 285.9 877.414 291.442 887.614 297.179C897.817 302.955 906.225 307.716 906.306 307.755C906.39 307.833 905.901 310.721 905.264 314.234C903.33 325.005 901.575 330.313 897.96 336.362C895.459 340.577 892.99 343.113 890.519 344.05C887.629 345.143 887.451 345.377 888.127 348.148C888.921 351.465 888.528 352.48 885.833 353.573L883.711 354.47L884.861 356.265C886.332 358.685 886.263 360.91 884.654 365.554C883.627 368.559 883.465 369.534 883.559 372.891C883.654 376.793 884.428 380.891 885.831 385.028C886.738 387.76 893.36 401.614 894.032 402.239C894.284 402.473 897.641 403.449 901.46 404.346C910.455 406.493 923.668 410.161 928.961 411.956C936.181 414.415 940.307 416.796 940.443 418.63C940.522 419.684 939.724 421.05 938.743 421.518C936.066 422.845 921.64 422.298 903.302 420.152C898.805 419.606 894.942 419.176 894.786 419.176L785.417 399.897C785.414 399.858 784.377 399.585 783.106 399.312C771.667 396.892 748.021 390.648 741.354 388.267C733.282 385.379 730.655 383.701 730.475 381.281C730.291 378.823 732.278 378.198 740.604 378.198C748.931 378.198 765.661 379.759 782.528 382.101C785.45 382.491 787.897 382.803 787.894 382.764C788.183 382.452 791.787 354.743 792.602 346.782C793.208 341.279 793.935 335.815 794.281 334.684C795.254 331.483 796.784 329.454 798.903 328.517L800.758 327.698L800.528 325.668C800.234 323.288 800.742 322.234 802.804 321.063C805.126 319.697 805.139 319.346 803.284 315.951C802.38 314.312 801.57 312.36 801.518 311.658C801.317 308.965 804.373 299.091 808.145 290.427C810.378 285.237 817.601 270.953 818.778 269.431C819.24 268.807 818.924 268.768 823.038 269.938Z" fill="#24321C"/>
<path d="M392 430.193L554.908 397.147" stroke="#24321C" stroke-width="10" stroke-miterlimit="1.41421" stroke-dasharray="50 20 30 10"/>
<path d="M398.14 407.436L528.467 381" stroke="#24321C" stroke-width="10" stroke-dasharray="60 10"/>
<path d="M482.065 367.917C481.191 368.985 481.348 370.56 482.417 371.435C483.486 372.309 485.061 372.152 485.935 371.083L482.065 367.917ZM698.436 364.499C699.816 364.534 700.964 363.444 700.999 362.064L701.576 339.571C701.611 338.191 700.521 337.043 699.141 337.008C697.761 336.973 696.613 338.063 696.578 339.443L696.065 359.437L676.071 358.924C674.691 358.889 673.544 359.979 673.508 361.359C673.473 362.739 674.563 363.887 675.943 363.922L698.436 364.499ZM485.935 371.083C543.401 300.847 640.633 304.717 696.688 363.722L700.312 360.278C642.367 299.283 541.599 295.153 482.065 367.917L485.935 371.083Z" fill="#24321C"/>
<path d="M378 672H561" stroke="#24321C" stroke-width="15" stroke-dasharray="30 20 100 10"/>
<path d="M382 614H530" stroke="#24321C" stroke-width="15" stroke-dasharray="50 5 40 10"/>
<path d="M380 642H580" stroke="#24321C" stroke-width="15" stroke-dasharray="90 20"/>
<path d="M379.163 73.5H892.074C894.502 73.5 896.579 75.2442 896.999 77.6355L921.488 217.135C922.025 220.196 919.67 223 916.563 223H374.79C371.967 223 369.704 220.665 369.793 217.843L374.166 78.3434C374.25 75.6442 376.463 73.5 379.163 73.5Z" fill="#5C8647" stroke="#24321C" stroke-width="10"/>
<path d="M426 168H586.5" stroke="#24321C" stroke-width="20" stroke-dasharray="90 20 80 30"/>
<path d="M422 127L688.5 127" stroke="#24321C" stroke-width="20" stroke-dasharray="30 15 100 15 70 10"/>
</svg>
