<svg width="1162" height="1096" viewBox="0 0 1162 1096" fill="none" xmlns="http://www.w3.org/2000/svg">
<path d="M46.9714 772.5H44.4714V775V1054V1056.5L46.9759 1056.5L1139.98 1054.5L1143.75 1054.49L1142.27 1051.02C1121.52 1002.42 1109.83 963.581 1109.12 922.015C1108.41 880.438 1118.69 835.895 1142.3 775.916L1143.64 772.5H1139.97H46.9714Z" fill="white" stroke="#B0B0B0" stroke-width="5"/>
<path fill-rule="evenodd" clip-rule="evenodd" d="M46.9714 837V828H1121.39C1120.48 831.038 1119.61 834.037 1118.79 837H46.9714ZM46.9714 867V858H1113.55C1112.88 861.035 1112.26 864.034 1111.69 867H46.9714ZM46.9714 895V886H1108.65C1108.27 889.028 1107.94 892.026 1107.67 895H46.9714ZM46.9714 925V916H1106.59C1106.57 919.016 1106.6 922.014 1106.69 925H46.9714ZM46.9714 954V945H1108.12C1108.47 948.001 1108.87 951 1109.32 954H46.9714ZM46.9714 983V974H1113.14C1113.83 976.987 1114.57 979.985 1115.36 983H46.9714ZM46.9714 1013V1004H1121.58C1122.55 1006.97 1123.57 1009.97 1124.64 1013H46.9714Z" fill="#E6E6E6"/>
<path d="M217.971 1051H1160.97V1096H216.471L217.971 1051Z" fill="#24321C"/>
<path d="M217.971 775H1161.47L1085.65 443H238.106L217.971 775Z" fill="#24321C"/>
<path d="M117.971 775H235.971L256.288 440H58.6851L4.47136 867C-16.5286 996 38.9715 1096 117.971 1096H216.471L217.971 1051H117.971C36.9375 1051 29.4715 783 117.971 775Z" fill="#24321C"/>
<path d="M264.971 0H984.472L1085.19 441H238.227L264.971 0Z" fill="#557A42"/>
<path d="M198.471 0C123.971 -1.55568e-05 105.471 55.4997 105.471 71.4999L58.8121 439H256.348L282.971 0H198.471Z" fill="#557A42"/>
<path fill-rule="evenodd" clip-rule="evenodd" d="M1084.1 436.216C1083.41 436.073 1082.69 435.923 1081.96 435.77C1070.88 433.583 1065.08 432.021 1051.79 427.827C1027.23 420.107 1021.69 418.679 1011.56 417.652C1002.8 416.804 995.008 417.652 986.268 420.464C983.871 421.222 980.924 421.802 979.35 421.802C974.535 421.847 969.767 419.527 967.334 415.957C964.102 411.182 967.299 407.255 975.364 406.095C976.427 405.937 978.375 405.671 980.515 405.379L980.535 405.376L980.557 405.373C982.041 405.171 983.615 404.956 985.049 404.756C995.138 403.328 999.97 401.141 1001.57 397.304C1002.66 394.805 1002.7 393.198 1001.84 388.691C1000.26 380.079 993.624 373.787 981.475 369.28C965.782 363.478 949.173 363.478 933.033 369.369C911.681 377.122 893.164 391.377 877.429 404.478C862.387 414.931 844.662 422.272 826.251 425.663C820.2 426.732 812.812 426.862 804.565 426.908C789.305 426.908 782.73 429.267 776.078 431.653C769.268 434.097 762.376 436.569 746 436.569C738.996 436.569 735.147 433.552 732.498 426.928C731.463 420.215 732.409 415.007 735.603 409.823C738.944 404.436 742.465 401.445 754.223 394.132C757.077 392.353 760.397 390.179 761.593 389.282C768.404 384.196 770.865 379.081 769.48 372.953C768.915 370.451 768.189 369.265 766.446 368.066C763.788 366.231 760.794 365.894 756.921 367.011C752.641 368.243 749.299 370.422 746.313 373.968C744.242 376.438 742.682 379.034 739.513 385.395C734.593 395.215 731.919 398.111 726.6 399.338C722.653 400.23 720.087 399.869 717.094 397.94C714.253 396.146 711.727 392.761 709.548 387.922C708.011 384.434 706.668 380.516 704.585 373.436C700.676 360.087 698.803 356.071 695.761 354.564C694.813 354.103 694.596 354.104 692.875 354.493C690.557 355.016 689.524 355.781 687.929 358.119C686.513 360.176 685.384 362.651 683.056 368.894C680.668 375.295 679.544 377.793 677.852 380.443C676.266 382.924 674.68 384.658 672.791 385.905C671.538 386.767 671.158 386.901 667.986 387.594C664.952 388.255 664.271 388.337 662.379 388.186C652.333 387.489 646.044 380.902 639.937 364.769C639.419 363.438 638.176 359.859 637.155 356.834C636.133 353.808 634.847 350.143 634.321 348.669C630.632 338.431 627.351 333.841 622.858 332.637C621.599 332.295 621.267 332.321 619.064 332.819C616.999 333.286 616.532 333.464 615.81 334.109C613.971 335.683 613.159 337.748 612.96 341.243C612.871 342.879 612.961 343.703 613.69 346.819C614.846 351.937 615.8 353.7 622.368 362.805C626.99 369.166 629.284 372.701 630.936 375.849C633.288 380.383 633.917 382.099 635.047 387.102C635.95 391.095 636.101 391.978 636.042 393.849C635.89 400.01 633.863 404.594 629.868 407.836C627.334 409.856 625.517 410.677 621.433 411.6C615.851 412.838 611.347 412.867 606.124 411.635C597.54 409.619 591.836 405.939 577.721 393.328C566.925 383.659 560.369 379.52 553.126 377.779C547.744 376.487 543.029 376.54 537.608 377.958C534.847 378.654 534.029 378.984 532.56 379.846C528.521 382.255 526.193 386.255 525.979 391.176C525.897 393.052 526.6 397.018 527.45 399.287C530.953 408.699 537.97 414.133 550.431 417.082C555.932 418.371 559.693 418.896 573.698 420.242C586.421 421.467 592.589 422.293 597.345 423.485C606.059 425.631 610.317 428.527 613.011 433C616.39 441.5 602.47 440.916 572.656 437.863C569.095 437.505 565.707 437.183 562.456 436.874L562.445 436.873C536.941 434.446 519.869 432.822 493.525 421.355C481.973 416.412 477.56 415.433 465.391 415.153C458.652 414.967 454.112 415.153 445.387 415.946C422.397 418.091 409.629 416.366 396.843 409.464C387.334 404.288 382.316 399.671 367.66 382.557C353.065 365.537 346.424 360.267 335.44 357.05C331.333 355.837 329.743 355.604 323.879 355.511C319.367 355.371 315.965 355.558 313.774 355.977C303.361 358.076 296.459 364.231 295.362 372.532C294.704 377.381 296.559 381.765 300.743 385.402C305.509 389.552 309.669 390.765 321.202 391.231C328.707 391.511 330.898 391.791 334.501 392.816C345.146 395.848 351.397 401.677 352.086 409.231C352.699 416.506 347.247 422.474 337.173 425.459C329.486 427.744 313.035 430.309 302.557 430.868C290.131 431.474 273.509 429.176 256.755 424.979C252.835 423.92 250.431 422.733 248.225 421.643C244.243 419.677 240.908 418.03 230.474 418.03C224.802 418.03 219.578 421.422 214.646 424.624C209.986 427.65 205.586 430.506 201.316 430.172C189.612 429.258 170.678 417.01 160.887 410.533C135.504 393.755 118.521 387.354 106.88 390.097C99.0088 391.972 95.9555 396.772 98.0837 403.858C99.4345 408.201 102.819 411.447 107.628 412.956C108.804 413.321 112.101 413.961 115.005 414.373C120.687 415.241 123.631 416.247 125.325 418.03C127.735 420.499 126.919 424.11 123.538 426.122C122.321 426.854 120.564 427.173 115.841 427.494C105.455 428.197 96.1267 430.117 86.8249 432.032C77.8768 433.873 68.9531 435.71 59.1353 436.454L39.632 590.067L1122.16 602.889L1084.1 436.216ZM706.368 290.639C707.607 292.073 709.268 295.053 710.08 297.259C710.397 298.129 711.036 300.64 711.489 302.855C712.204 306.339 712.31 307.232 712.229 309.326C711.893 318.6 708.217 327.904 703.277 331.941C701.995 332.979 701.563 333.198 700.148 333.542C698.773 333.853 698.34 333.854 697.304 333.533C695.64 332.991 694.206 331.867 692.659 329.923C689.898 326.444 688.108 321.827 686.649 314.625C685.617 309.523 685.348 306.736 685.555 303.285C685.839 298.682 686.824 295.37 688.787 292.44C691.185 288.88 694.279 287.119 698.413 286.981C701.351 286.872 704.335 288.25 706.368 290.639ZM754.918 464.23H762.267L755.5 464.78L754.918 464.23ZM386.403 369.594C387.288 364.184 389.409 361.433 394.888 358.635C395.463 358.355 397.455 358.169 399.306 358.262C402.133 358.355 403.076 358.635 404.847 359.801C407.929 361.806 410.407 365.117 410.886 367.822C411.146 369.081 410.978 371.832 410.517 374.304C409.635 379.06 409.916 386.241 411.204 390.998C411.593 392.537 412.94 395.241 414.168 397.107C415.818 399.531 416.345 400.744 416.142 401.63C415.508 404.661 412.34 405.081 406.749 402.889C397.746 399.345 389.553 388.713 386.752 376.962C385.97 373.837 385.927 372.578 386.403 369.594ZM285.056 407.785C284.766 404.008 287.986 400.044 292.488 398.645C298.791 396.687 304.78 398.412 312.075 404.428C318.384 409.604 320.974 412.961 321.232 416.319C321.404 418.557 321.274 418.977 319.986 419.863C316.738 422.055 303.193 420.796 294.482 417.531C289.18 415.573 285.347 411.563 285.056 407.785ZM140.404 362.393C137.879 363.399 136.977 364.404 136.458 366.69C136.024 368.793 136.706 371.216 138.557 374.142C140.617 377.297 143.552 379.354 148.749 381.228C156.338 383.971 165.333 390.006 169.36 395.08C172.132 398.601 174.023 399.652 175.607 398.601C176.955 397.686 177.262 396.086 176.798 392.383C175.866 385.114 168.744 375.285 158.952 367.833C151.924 362.484 145.263 360.518 140.404 362.393ZM193.131 400.475C192.134 398.235 192.599 396.543 194.456 395.629C195.18 395.263 196.395 394.989 197.137 394.989C204.167 394.943 216.182 407.332 215.398 413.824C215.036 416.476 213.277 416.019 210.546 412.636C209.01 410.761 204.285 407.835 199.917 406.098C195.762 404.452 194.339 403.264 193.131 400.475ZM79.8617 413.413C78.5728 414.83 79.2542 417.253 81.2777 418.899C84.5164 421.505 93.0104 422.785 93.1803 420.727C93.3485 419.127 88.6166 414.327 85.5169 412.956C83.2223 411.95 80.9138 412.133 79.8617 413.413ZM215.837 374.444C214.092 368.79 215.901 364.279 220.136 363.603C221.923 363.311 225.638 364.378 227.681 365.729C234.389 370.231 239.988 384.034 239.295 394.381C238.588 404.924 231.556 408.017 230.474 398.288C230.334 397.121 229.791 395.234 229.302 394.128C227.537 390.2 223.834 384.548 221.286 381.804C217.11 377.305 216.418 376.341 215.837 374.444ZM438.84 399.874C438.016 394.012 442.46 384.8 449.119 378.555C449.801 377.904 451.35 376.778 452.587 376.014C456.258 373.786 459.577 373.149 463.228 373.977C468.119 375.09 471.294 382.846 468.312 387.685C464.6 393.874 449.377 400.566 443.294 401.759C443.178 401.772 443.063 401.786 442.949 401.8C442.818 401.816 442.689 401.833 442.563 401.849C440.687 402.092 439.31 402.271 438.84 399.874ZM496.264 398.044C491.031 398.677 485.9 400.948 484.393 403.301C483.375 404.87 483.458 405.902 484.619 406.37C485.343 406.673 486.151 406.549 487.251 405.999C490.192 404.542 494.16 404.935 497.671 405.282C500.106 405.524 502.322 405.743 503.821 405.308C506.828 404.275 506.533 401.498 504.541 399.874C503.052 398.663 501.248 398.071 498.758 397.975C497.914 397.948 496.803 397.975 496.264 398.044ZM1022.59 407.21C1020.6 404.131 1026.04 395.251 1030.65 394.135C1036.01 392.841 1042.87 395.876 1044.37 400.204C1045.78 404.265 1043.52 406.362 1035.68 408.326C1029.42 409.843 1024 409.397 1022.59 407.21ZM1064.36 411.807C1061.01 412.03 1056.44 414.484 1055.76 416.447C1055.26 417.965 1055.28 418.188 1056.31 418.813C1057.17 419.393 1057.65 419.393 1058.98 418.991C1061.08 418.322 1066.56 418.768 1070.7 419.928C1073.78 420.821 1073.95 420.821 1075.64 420.062C1076.57 419.616 1077.44 418.679 1077.58 418.009C1077.86 416.938 1077.67 416.537 1076.3 415.109C1073.82 412.476 1070.1 411.45 1064.36 411.807ZM865.584 357.927C871.222 352.909 875.283 350.679 881.15 349.332C886.481 348.078 893.265 349.471 897.142 352.584C901.656 356.208 902.268 361.318 898.845 366.196C896.835 368.984 894.655 370.285 889.972 371.493C883.262 373.165 880.468 374.234 875.566 376.835C869.416 380.134 866.556 382.457 864.737 385.616C863.06 388.496 860.67 389.89 858.242 389.379C856.256 388.961 855.103 387.381 854.128 383.897C852.005 376.092 856.492 366.011 865.584 357.927ZM818.281 357.602C814.201 358.903 810.255 362.619 807.61 367.73C806.57 369.727 806.337 370.935 806.52 373.305C806.811 377.068 807.736 378.508 809.73 378.322C810.809 378.229 811.471 377.672 812.283 376.231C813.765 373.63 818.04 370.656 822.786 368.845C827.27 367.172 828.925 365.407 828.703 362.526C828.509 360.018 827.67 358.995 824.928 357.927C822.301 356.951 820.612 356.858 818.281 357.602ZM796.466 413.909C796.756 407.823 805.791 397.602 812.788 395.419C817.982 393.793 825.287 395.605 828.62 399.414C831.474 402.62 831.604 407.126 828.942 410.611C825.534 414.978 807.839 419.902 800.99 418.369C797.564 417.579 796.331 416.371 796.466 413.909ZM1025.63 370.718C1023.08 365.551 1028.47 358.827 1037.79 355.528C1042.79 353.784 1050.26 353.473 1054.01 354.905C1060.52 357.271 1064.55 362.562 1062.43 366.049C1060.68 368.85 1059.34 369.161 1048.38 369.224C1038.22 369.224 1038.07 369.224 1033.73 371.34C1028.94 373.706 1027.08 373.581 1025.63 370.718Z" fill="#24321C"/>
<path d="M388 676H842" stroke="#557A42" stroke-width="15" stroke-miterlimit="1.41421" stroke-dasharray="200 25 75 10"/>
<path d="M428 646H791" stroke="#557A42" stroke-width="15" stroke-dasharray="240 48 720 96"/>
<path d="M525 546H673" stroke="#557A42" stroke-width="15" stroke-dasharray="30 10 120 10"/>
<path d="M498 517H698" stroke="#557A42" stroke-width="15" stroke-dasharray="80 10"/>
<path d="M331.218 101.5H856.35C863.586 101.5 869.79 106.665 871.102 113.781L893.408 234.781C895.107 243.999 888.03 252.5 878.656 252.5H323.194C314.519 252.5 307.653 245.163 308.227 236.507L316.251 115.507C316.773 107.626 323.319 101.5 331.218 101.5Z" fill="#5C8647" stroke="#24321C" stroke-width="10"/>
<path d="M475.5 153L742 153M526.5 194H687" stroke="#24321C" stroke-width="20" stroke-dasharray="80 12 120 20 90 60"/>
<path d="M418.583 479.56C408.167 482.558 405.619 496.886 414.04 504.66C421.242 511.213 431.214 510.214 435.867 502.55C442.847 490.999 431.546 475.894 418.583 479.56ZM433.54 487.889C436.31 491.444 436.421 494.553 434.094 500.551C431.435 507.215 426.006 509.103 419.358 505.549C412.71 502.217 412.489 492.332 418.915 487.223C423.236 483.78 430.66 484.224 433.54 487.889Z" fill="#557A42" stroke="#557A42" stroke-width="5"/>
<path d="M406.796 525.935C401.662 531.083 401.772 535.355 406.905 540.503C410.401 544.008 411.165 544.337 415.425 543.789C425.146 542.474 429.406 531.959 422.852 525.387C418.156 520.678 411.82 520.897 406.796 525.935ZM421.979 527.469C425.583 530.864 425.801 534.807 422.525 538.312C419.357 541.708 414.66 541.598 411.274 538.093C407.888 534.807 407.779 530.097 410.837 526.154C413.677 522.54 417.282 522.978 421.979 527.469Z" fill="#557A42" stroke="#557A42" stroke-width="5"/>
<path d="M424.594 562.758C423.911 563.133 422.755 564.259 422.072 565.278C421.074 566.832 420.864 567.637 421.074 569.781C421.284 571.979 421.652 572.73 423.228 574.231C424.752 575.678 425.54 576 427.484 576C429.428 576 430.216 575.678 431.739 574.231C437.414 568.923 431.424 559.22 424.594 562.758ZM429.533 563.187C433 564.795 433.316 569.888 430.058 572.73C427.641 574.928 426.013 574.874 423.753 572.569C421.021 569.781 421.652 565.867 425.277 563.669C427.221 562.436 427.746 562.383 429.533 563.187Z" fill="#557A42" stroke="#557A42" stroke-width="5"/>
<path d="M200.6 657.363C198.6 658.163 195 664.829 195 667.763C195 671.096 201.133 676.429 205 676.429C209.267 676.429 216.333 669.763 216.333 665.763C216.333 659.629 207.267 654.696 200.6 657.363ZM209.4 659.896C216.067 664.429 211.267 674.296 202.733 673.496C198.733 673.096 198.333 672.696 197.933 668.163C197.667 664.563 198.333 662.429 200.2 660.563C203.533 657.229 205.4 657.096 209.4 659.896Z" fill="#557A42" stroke="#557A42" stroke-width="5"/>
<path d="M166.075 562.563C149.408 570.83 147.808 597.096 163.141 607.363C182.075 619.763 205.408 602.43 200.341 579.763C196.741 563.63 180.475 555.496 166.075 562.563ZM181.541 568.296C188.875 572.163 195.141 581.763 195.141 589.363C195.141 598.83 185.808 609.096 177.408 609.096C168.075 609.096 156.475 596.296 156.475 586.03C156.475 572.696 170.741 562.696 181.541 568.296Z" fill="#557A42" stroke="#557A42" stroke-width="5"/>
<path d="M161.275 624.763C152.208 627.563 146.875 637.696 149.808 646.63C153.941 659.163 171.941 660.23 179.141 648.363C184.608 639.563 181.141 629.296 171.675 625.296C166.741 623.163 166.608 623.163 161.275 624.763ZM172.875 627.563C177.008 629.43 179.141 633.963 179.141 640.763C179.141 647.83 175.541 651.43 168.608 651.43C161.941 651.43 157.941 648.096 156.875 641.83C155.808 634.896 157.275 630.496 161.541 628.23C165.941 625.83 168.608 625.696 172.875 627.563Z" fill="#557A42" stroke="#557A42" stroke-width="5"/>
<path d="M171.141 695.163C158.341 701.563 156.875 720.363 168.741 726.896C173.275 729.563 181.808 729.163 186.741 726.096C198.475 719.03 198.208 700.363 186.341 694.763C180.741 692.096 176.875 692.23 171.141 695.163ZM184.875 704.763C189.941 710.363 190.075 719.296 185.141 723.296C179.941 727.296 174.341 728.096 170.341 725.43C162.875 720.496 161.141 706.763 167.408 701.563C171.941 697.963 180.075 699.43 184.875 704.763Z" fill="#557A42" stroke="#557A42" stroke-width="5"/>
<path d="M946.875 486.54C941.941 487.34 937.141 494.274 937.141 500.407C937.141 504.407 938.075 506.54 941.008 509.607C950.075 518.674 964.341 510.007 961.941 497.074C960.608 490.14 953.808 485.34 946.875 486.54ZM956.341 491.607C963.008 498.407 959.408 509.474 950.608 509.474C947.941 509.474 945.675 508.274 943.275 505.34C939.141 500.407 938.875 496.407 942.608 491.607C946.208 487.074 951.675 487.074 956.341 491.607Z" fill="#557A42" stroke="#557A42" stroke-width="5"/>
<path d="M953.275 528.941C949.808 533.341 949.675 537.474 953.141 541.074C958.741 547.207 966.875 546.541 969.808 539.874C971.808 535.074 971.275 532.807 967.408 528.407C963.541 524.14 956.875 524.407 953.275 528.941ZM966.475 529.474C972.608 535.607 967.275 545.874 959.541 542.941C953.675 540.674 952.208 530.274 957.541 528.141C962.075 526.407 963.541 526.54 966.475 529.474Z" fill="#557A42" stroke="#557A42" stroke-width="5"/>
<path d="M979.475 588.341C972.541 592.607 970.408 596.074 969.741 603.807C968.675 616.607 977.075 625.407 989.075 624.074C1007.61 622.074 1011.21 594.874 994.008 587.674C988.008 585.141 984.275 585.274 979.475 588.341ZM994.141 592.741C999.208 595.007 1003.34 602.341 1002.27 607.274C1001.07 613.141 996.941 618.474 991.341 621.141C987.341 623.007 986.008 623.141 982.541 621.674C977.741 619.674 973.475 613.274 973.475 607.941C973.475 600.607 981.741 591.407 988.408 591.141C989.608 591.141 992.275 591.807 994.141 592.741Z" fill="#557A42" stroke="#557A42" stroke-width="5"/>
<path d="M966.008 633.808C957.741 637.141 954.541 651.008 960.275 658.341C965.875 665.408 974.141 667.541 981.475 663.808C987.075 660.874 989.475 656.741 989.475 649.674C989.475 637.541 977.208 629.274 966.008 633.808ZM979.741 638.608C982.675 641.541 983.075 642.874 982.408 648.208C981.475 656.741 976.541 661.008 968.941 660.074C962.275 659.141 960.141 656.341 960.141 648.341C960.141 639.674 963.875 635.141 970.941 635.141C974.941 635.141 977.208 636.074 979.741 638.608Z" fill="#557A42" stroke="#557A42" stroke-width="5"/>
<path d="M975.924 682.601C973.498 685.676 973.401 687.598 975.439 690.48C978.932 695.477 986.211 695.093 988.443 689.712C991.549 682.408 980.873 676.354 975.924 682.601ZM984.561 682.985C986.696 685.099 987.182 689.616 985.338 691.441C983.688 693.075 979.709 692.883 977.574 690.961C975.633 689.231 975.245 683.946 976.991 682.216C978.738 680.486 982.426 680.871 984.561 682.985Z" fill="#557A42" stroke="#557A42" stroke-width="5"/>
</svg>
