<svg width="1161" height="1096" viewBox="0 0 1161 1096" fill="none" xmlns="http://www.w3.org/2000/svg">
<path d="M47 772.5H44.5V775V1054V1056.5L47.0046 1056.5L1140 1054.5L1143.78 1054.49L1142.3 1051.02C1121.55 1002.42 1109.85 963.581 1109.15 922.015C1108.44 880.438 1118.72 835.895 1142.33 775.916L1143.67 772.5H1140H47Z" fill="white" stroke="#B0B0B0" stroke-width="5"/>
<path fill-rule="evenodd" clip-rule="evenodd" d="M46.9712 837V828H1121.39C1120.48 831.038 1119.61 834.037 1118.79 837H46.9712ZM46.9712 867V858H1113.55C1112.88 861.035 1112.26 864.034 1111.69 867H46.9712ZM46.9712 895V886H1108.65C1108.27 889.028 1107.94 892.026 1107.67 895H46.9712ZM46.9712 925V916H1106.59C1106.57 919.016 1106.6 922.014 1106.69 925H46.9712ZM46.9712 954V945H1108.12C1108.47 948.001 1108.86 951 1109.32 954H46.9712ZM46.9712 983V974H1113.14C1113.83 976.987 1114.57 979.985 1115.36 983H46.9712ZM46.9712 1013V1004H1121.58C1122.55 1006.97 1123.57 1009.97 1124.64 1013H46.9712Z" fill="#E6E6E6"/>
<path d="M217.971 1051H1160.97V1096H216.471L217.971 1051Z" fill="#557A42"/>
<path d="M208.936 0H969.178L1161 775H158L208.936 0Z" fill="#557A42"/>
<path d="M105.471 71.4999C105.471 55.4997 123.971 -1.55568e-05 198.471 0H282.971L235.971 775H117.971C29.4715 783 36.9663 1051 118 1051H218L216.471 1096H117.971C38.9715 1096 -16.5286 996 4.47137 867L105.471 71.4999Z" fill="#557A42"/>
<path d="M1110.8 572H145C101.5 572 49.606 594.194 33 642L13 799.99C31.4715 754.99 65 702 141 702H1142.9L1110.8 572Z" fill="#24321C"/>
<path d="M270.285 90.5651L237.794 489.565C236.371 507.036 250.166 522 267.695 522H948.64C967.554 522 981.748 504.711 978.066 486.159L898.866 87.1591C896.078 73.1163 883.757 63 869.44 63H300.186C284.561 63 271.553 74.9923 270.285 90.5651Z" fill="#5C8647" stroke="#24321C" stroke-width="20"/>
<path d="M390 649H844" stroke="#496839" stroke-width="15" stroke-miterlimit="1.41421" stroke-dasharray="200 25 75 10"/>
<path d="M430 619H793" stroke="#496839" stroke-width="15" stroke-dasharray="120 18 160 16"/>
<path d="M804.954 178.172C806.035 176.914 809.59 174.778 814.097 172.642C816.036 171.764 818.133 171.002 818.743 171.002C821.98 170.925 828.859 173.557 834.09 176.799C835.588 177.791 840.018 180.995 843.942 184.008C847.827 187.022 853.015 190.912 855.429 192.705C859.226 195.451 860.747 196.901 865.352 202.126C872.1 209.793 878.986 217.956 884.594 224.936C893.412 235.921 900.634 243.168 907.71 248.241C910.429 250.192 914.167 252.711 918.671 255.641C924.652 259.532 927.4 279.822 922.298 277.001C912.522 272.807 903.806 267.566 886.746 256.022C878.896 250.721 869.81 245.876 863.562 243.664C856.071 240.994 851.638 238.477 848.023 234.777C845.615 232.336 837.873 221.541 837.824 220.549C837.799 220.054 837.519 219.787 837.062 219.787C836.566 219.787 836.246 219.481 836.141 218.909C836.039 218.375 835.678 218.032 835.141 217.956C834.565 217.879 834.245 217.574 834.22 217.078C834.198 216.621 833.918 216.354 833.422 216.354C832.926 216.354 832.646 216.087 832.622 215.591C832.589 214.942 832.317 214.828 831.059 214.828C829.801 214.828 829.528 214.714 829.496 214.065C829.471 213.569 829.191 213.302 828.695 213.302C828.2 213.302 827.92 213.035 827.895 212.539C827.871 212.043 827.59 211.776 827.095 211.776C826.675 211.776 826.34 211.929 826.347 212.082C826.406 213.264 828.795 228.369 829.459 231.763C830.482 237.027 832.183 242.1 833.442 243.664C834.092 244.465 835.232 245.152 836.862 245.724C838.221 246.22 841.689 247.745 844.577 249.08C849.066 251.178 850.207 251.903 852.252 253.925C853.574 255.221 855.118 257.129 855.703 258.158C857.503 261.401 860.479 265.291 862.394 267.008C864.666 268.991 869.545 271.28 871.528 271.28C872.748 271.28 873.259 271.585 874.739 272.996C875.702 273.95 876.807 274.713 877.15 274.713C877.493 274.713 877.892 275.056 878.027 275.475C878.164 275.933 878.598 276.238 879.094 276.238C879.666 276.238 879.866 276.429 879.812 276.887C879.761 277.383 879.315 277.611 878.213 277.688C877.376 277.726 874.129 278.374 871.003 279.137C866.667 280.129 863.752 280.548 859.078 280.854C852.274 281.273 846.168 281.922 837.193 283.142L831.363 283.981L829.682 282.379C828.764 281.54 827.698 280.815 827.317 280.815C826.707 280.815 826.618 280.548 826.651 278.145C826.638 275.59 826.705 275.399 828.263 273.759C829.169 272.805 831.11 271.203 832.548 270.212C835.168 268.457 835.24 268.381 835.161 266.779C835.097 265.482 834.967 265.177 834.357 265.177C833.976 265.177 833.391 264.91 833.105 264.528C832.177 263.498 828.842 261.591 825.495 260.218C817.436 256.862 814.484 253.467 811.232 244.007C810.518 241.909 808.819 237.637 807.482 234.51C806.145 231.382 805.05 228.521 805.031 228.14C805.006 227.644 804.728 227.415 804.118 227.415C803.622 227.415 802.881 227.072 802.479 226.652C801.997 226.156 801.259 225.889 800.268 225.889H798.819L798.9 227.53C798.961 228.75 798.764 229.399 798.219 229.933C796.69 231.382 795.846 234.357 791.899 251.636C787.519 270.936 786.045 276.582 783.446 284.134C780.28 293.326 776.751 300.574 770.958 309.842C750.888 341.806 744.063 354.088 739.414 366.447C737.498 371.634 737.132 373.465 737.342 377.699L737.52 381.284L736 382.924C734.661 384.374 734.251 384.565 732.802 384.565H731.086L731.007 378.347C730.876 370.337 731.6 366.485 735.572 354.317C739.81 341.387 743.172 333.834 751.213 319.149C761.281 300.764 764.387 293.441 769.421 275.781L772.538 264.833L772.309 260.218L772.082 255.641H767.392H762.703L761.291 257.167C760.496 258.044 759.499 258.692 759.041 258.692C758.431 258.692 758.14 258.959 758.092 259.532C758.042 260.066 757.718 260.447 757.226 260.523C756.62 260.6 756.128 261.439 755.147 263.956C753.025 269.601 746.964 286.537 745.6 290.542C733.157 327.922 729.062 339.136 721.117 357.292C711.12 380.178 701.46 397.571 688.364 416.414C681.852 425.797 676.718 432.205 669.944 439.376C653.103 457.265 640.488 465.809 616.943 475.383C606.478 479.617 600.445 482.516 599.294 483.889C598.607 484.652 598.046 484.881 596.75 484.881C595.378 484.881 595.116 484.995 595.149 485.644C595.173 486.14 594.92 486.407 594.424 486.407C593.928 486.407 593.675 486.674 593.699 487.169C593.733 487.856 593.47 487.932 591.259 487.932H588.781L588.705 486.407C588.643 485.148 588.744 484.881 589.392 484.881C589.887 484.881 590.141 484.614 590.117 484.118C590.088 483.546 590.346 483.355 591.032 483.355C591.718 483.355 591.976 483.164 591.947 482.592C591.923 482.096 592.176 481.829 592.672 481.829C593.167 481.829 593.421 481.562 593.396 481.067C593.372 480.571 593.626 480.304 594.121 480.304C594.617 480.304 594.87 480.037 594.846 479.541C594.821 479.045 595.075 478.778 595.571 478.778C596.104 478.778 596.32 478.511 596.29 477.901C596.257 477.252 596.618 476.833 597.548 476.375C600.75 474.811 622.754 459.554 635.881 449.789C668.018 425.912 672.534 420.877 687.067 392.575C697.637 372.016 704.67 356.987 705.678 352.715C706.277 350.198 706.358 348.748 706.138 344.324C705.841 338.335 705.428 336.924 702.624 331.889C698.987 325.443 688.413 315.945 681.911 313.237C677.979 311.597 671.154 312.36 664.277 315.144C654.971 318.92 651.564 324.794 644.687 349.092C642.807 355.767 642.161 358.131 632.508 394.1C628.327 409.739 626.043 417.482 625.503 418.131C623.992 419.961 623.263 422.174 623.384 424.615C623.485 426.636 623.422 426.903 622.736 426.903C622.24 426.903 621.986 427.17 622.011 427.666C622.035 428.162 621.782 428.429 621.286 428.429C620.6 428.429 620.51 428.162 620.365 425.225C620.228 422.479 620.399 421.296 621.5 417.368C622.472 413.897 622.764 412.104 622.673 410.273C622.565 408.099 622.476 407.832 621.789 407.832C621.218 407.832 621.04 408.099 621.076 408.824C621.116 409.625 620.971 409.777 620.353 409.625C619.736 409.472 619.591 409.625 619.623 410.273C619.646 410.731 619.049 411.761 618.213 412.6C617.378 413.439 616.781 414.469 616.804 414.927C616.834 415.537 616.582 415.842 615.976 415.918C615.408 415.994 615.192 416.262 615.291 416.719C615.39 417.177 615.171 417.368 614.523 417.368C613.798 417.368 612.904 418.55 609.513 423.966C603.05 434.341 600.666 437.774 599.719 437.889C599.189 437.965 598.899 438.27 598.923 438.766C598.946 439.224 598.692 439.491 598.197 439.491C597.701 439.491 597.447 439.758 597.472 440.254C597.506 440.94 597.243 441.016 594.345 441.016H591.181L589.77 442.542C588.538 443.839 588.13 444.068 586.719 444.068C585.346 444.068 585.074 443.953 585.042 443.305C585.017 442.809 585.271 442.542 585.766 442.542C586.415 442.542 586.516 442.275 586.453 441.016C586.391 439.758 586.492 439.491 587.14 439.491C587.636 439.491 587.889 439.224 587.867 438.766C587.842 438.27 588.132 437.965 588.7 437.889C589.383 437.812 589.52 437.507 589.562 436.058C589.576 434.799 589.881 434.036 590.641 433.197C591.941 431.748 592.674 430.374 599.635 416.223C608.781 397.686 617.151 378.881 620.389 369.613C623.295 361.335 623.295 361.335 623.123 357.864C622.97 354.775 622.875 354.393 622.27 354.508C621.855 354.584 621.577 354.355 621.47 353.745C621.322 353.058 621.047 352.906 619.789 352.906C618.455 352.906 618.306 352.982 618.351 353.898C618.391 354.699 618.244 354.813 617.625 354.622C616.927 354.393 616.858 354.546 616.936 356.11C617.01 357.597 616.909 357.864 616.261 357.864C615.765 357.864 615.511 358.131 615.536 358.627C615.56 359.123 615.307 359.39 614.811 359.39C614.201 359.39 614.062 359.657 614.119 360.801C614.194 362.327 611.348 367.972 580.186 428.429C565.091 457.685 561.117 465.199 558.433 469.509C557.518 471.035 556.757 472.599 556.779 473.057C556.804 473.552 556.55 473.819 556.055 473.819C555.559 473.819 555.305 474.086 555.33 474.582C555.355 475.078 555.101 475.345 554.643 475.345C554.033 475.345 553.896 475.65 553.848 476.985C553.834 478.244 553.66 478.587 553.125 478.549C552.665 478.511 552.486 478.74 552.518 479.388C552.55 480.037 552.335 480.304 551.801 480.304C551.153 480.304 551.052 480.571 551.114 481.829C551.182 483.203 551.114 483.355 550.237 483.355C549.512 483.355 549.293 483.546 549.325 484.194C549.358 484.843 548.417 485.873 545.778 488.009C543.839 489.649 540.198 493.12 537.698 495.752C534.582 499.032 532.902 500.52 532.33 500.52C531.72 500.52 531.465 500.748 531.491 501.282C531.516 501.778 531.262 502.045 530.767 502.045C530.271 502.045 530.017 502.312 530.042 502.808C530.067 503.304 529.813 503.571 529.355 503.571C528.86 503.571 528.57 503.876 528.52 504.41C528.468 504.906 528.182 505.287 527.877 505.287C527.572 505.287 527.246 505.631 527.153 506.05C527.059 506.47 526.621 506.851 526.205 506.928C525.751 507.004 524.796 507.729 524.035 508.53C523.238 509.369 522.242 510.055 521.823 510.055C521.366 510.055 520.696 510.399 520.336 510.818C519.975 511.238 519.268 511.581 518.772 511.581C518.01 511.581 517.886 511.39 517.82 510.055L517.744 508.53H519.269H520.794L520.715 506.928C520.647 505.554 520.853 505.097 522.155 503.685C523.025 502.77 523.698 501.74 523.679 501.359C523.66 500.977 523.988 500.672 524.48 500.596C524.972 500.52 525.338 500.214 525.321 499.871C525.306 499.566 526.014 498.46 526.878 497.43C532.46 490.831 539.56 477.939 550.173 455.167C563.369 426.827 569.257 414.85 570.775 413.172C572.115 411.761 572.352 411.15 572.396 409.739C572.439 408.29 572.576 407.984 573.259 407.908C573.827 407.832 574.117 407.527 574.092 407.031C574.069 406.573 574.323 406.306 574.819 406.306C575.39 406.306 575.568 406.039 575.526 405.2C575.454 403.751 575.762 403.026 586.524 378.652C601.226 345.315 614.014 317.967 617.955 311.33C620.735 306.638 625.522 303.244 630.075 302.786C632.921 302.519 634.86 301.642 636.83 299.849C638.287 298.476 643.826 290.237 652.091 277.001C658.626 266.55 663.524 259.226 664.761 258.044C665.814 256.976 669.561 255.641 671.352 255.641C672.115 255.641 673.888 256.022 675.359 256.48C677.877 257.281 678.193 257.51 681.139 260.79C690.092 270.631 694.604 276.276 699.717 284.058C702.642 288.444 705.776 293.212 706.759 294.585C708.813 297.56 711.311 299.506 713.141 299.506C714.209 299.506 714.407 299.658 714.443 300.383C714.47 300.917 715.205 301.909 716.286 302.938C717.284 303.854 718.06 304.884 718 305.227C717.947 305.685 718.526 305.837 721.123 305.914L724.255 306.028L724.136 303.625C724.02 301.298 724.219 300.688 729.637 287.719C738.84 265.711 744.252 254.153 748.154 248.279C748.83 247.288 750.75 245.266 752.468 243.779C758.132 238.82 769.969 226.881 773.274 222.8C777.981 217.002 781.334 212.349 790.251 199.189C798.28 187.365 803.48 179.965 804.954 178.172Z" fill="#24321C" stroke="#24321C" stroke-width="4"/>
<path d="M364.698 406.315L363.046 411.058L361.387 415.799L368.774 418.404L370.477 413.611L372.185 408.827L374.97 412.097C376.504 413.9 377.767 415.372 377.777 415.362C377.793 415.354 379.054 414.266 380.577 412.947C382.101 411.628 383.429 410.483 383.524 410.402L383.703 410.256L375.178 400.243L377.629 393.291C379.676 387.486 380.09 386.35 380.141 386.415C380.161 386.435 380.709 387.082 381.576 388.103L381.587 388.116C382.443 389.124 383.605 390.493 384.874 391.985L389.547 397.48L385.049 410.238L392.376 412.821L393.868 408.589C394.69 406.26 395.373 404.361 395.385 404.365C395.397 404.369 396.833 406.05 398.569 408.1C400.312 410.146 401.782 411.845 401.836 411.864C401.983 411.923 407.799 406.92 407.737 406.79C407.716 406.736 406.28 405.034 404.545 403.005C402.811 400.969 401.369 399.266 401.342 399.209C401.301 399.134 402.171 398.948 405.494 398.318C407.806 397.877 409.703 397.493 409.716 397.457C409.747 397.367 408.357 389.837 408.303 389.818C408.274 389.808 405.386 390.342 401.888 391.012C398.384 391.68 395.479 392.208 395.425 392.189C395.292 392.149 386.167 381.297 386.238 381.268C386.291 381.241 398.155 379.233 398.493 379.199C398.662 379.185 398.787 379.309 402.841 383.663C405.139 386.132 407.041 388.137 407.07 388.125C407.271 388.037 412.355 383.99 412.325 383.934C412.309 383.906 411.075 382.568 409.591 380.977C408.103 379.379 406.895 378.055 406.898 378.028C406.9 378.006 408.883 377.7 411.303 377.349C413.721 377.003 415.736 376.714 415.784 376.702C415.843 376.695 415.661 375.79 415.106 373.413C414.687 371.613 414.326 370.128 414.307 370.11C414.287 370.097 412.236 370.379 409.746 370.734L405.219 371.387L406.415 367.941L407.615 364.501L400.697 362.062L398.832 367.317L396.961 372.57L390.616 373.485C387.127 373.987 384.234 374.398 384.19 374.4C384.127 374.4 384.516 373.26 386.132 368.712L388.157 363.025L394.065 362.172C397.311 361.703 399.974 361.302 399.981 361.281C399.995 361.241 398.548 354.92 398.487 354.774C398.468 354.721 397.313 354.865 394.744 355.231C392.701 355.528 390.951 355.774 390.854 355.785L390.671 355.806L393.558 347.617L386.64 345.177L385.215 349.219C384.431 351.442 383.778 353.256 383.767 353.252C383.756 353.248 382.503 351.909 380.984 350.277C379.464 348.645 378.213 347.318 378.198 347.324C378.128 347.362 372.943 351.446 372.92 351.478C372.903 351.506 374.765 353.537 377.055 355.992L381.218 360.464L377.167 372.043L373.609 368.221C371.648 366.115 369.623 363.941 369.104 363.384L368.156 362.373L371.87 351.84L368.424 350.637L364.97 349.436L362.49 356.292L359.315 352.878C357.563 350.999 356.126 349.47 356.111 349.476C356.102 349.484 354.899 350.423 353.438 351.56C351.332 353.209 350.8 353.652 350.847 353.714C350.881 353.76 352.29 355.279 353.984 357.092C355.676 358.91 357.055 360.407 357.05 360.423C357.045 360.438 355.244 360.706 353.042 361.026C350.03 361.457 349.044 361.621 349.046 361.684C349.053 361.755 350.188 366.682 350.467 367.831C350.503 367.997 350.56 368.153 350.59 368.175C350.615 368.195 353.343 367.823 356.647 367.346C360.07 366.855 362.697 366.503 362.749 366.533C362.83 366.59 371.281 375.914 371.329 376.011C371.354 376.053 365.854 376.996 357.206 378.632L356.875 378.697L352.618 373.693C349.37 369.875 348.337 368.7 348.271 368.738C348.089 368.836 342.542 373.663 342.496 373.755C342.465 373.825 343.232 374.764 345.212 377.089C346.729 378.866 347.964 380.34 347.963 380.361C347.957 380.379 345.691 380.822 342.934 381.348L337.908 382.303L337.944 382.525C337.96 382.652 338.274 384.382 338.642 386.375C339.143 389.096 339.335 389.995 339.409 389.994C339.465 389.986 341.659 389.579 344.286 389.081C346.913 388.583 349.114 388.171 349.18 388.174C349.29 388.166 349.216 388.396 347.802 392.406L346.307 396.644L353.634 399.228L358.177 386.439L365.251 385.086L366.906 384.771C370.029 384.177 372.426 383.72 372.522 383.708L372.715 383.675L367.743 397.757L361.148 399.002C357.522 399.694 354.56 400.27 354.559 400.29C354.597 400.62 355.959 407.945 355.983 407.954C356.001 407.96 357.971 407.595 360.361 407.142L364.698 406.315Z" fill="#24321C"/>
<path d="M487.831 333.91L489.42 340.338L491 346.769L501.035 344.329L499.467 337.809L497.909 331.295L503.339 332.903C506.332 333.791 508.786 334.507 508.79 334.489C508.802 334.468 509.412 332.359 510.145 329.806C510.879 327.252 511.522 325.032 511.569 324.873L511.661 324.583L495.037 319.659L492.741 310.215C490.823 302.329 490.463 300.775 490.566 300.811C490.602 300.819 491.673 301.138 493.367 301.643C495.038 302.14 497.317 302.819 499.804 303.557L508.921 306.264L513.135 323.594L523.089 321.174L521.691 315.425C520.921 312.26 520.309 309.671 520.325 309.667C520.341 309.663 523.138 310.486 526.531 311.501C529.929 312.506 532.776 313.325 532.849 313.308C533.054 313.267 535.877 303.554 535.716 303.455C535.654 303.409 532.843 302.564 529.464 301.572C526.084 300.571 523.265 299.727 523.195 299.684C523.096 299.63 523.922 298.799 527.14 295.711C529.377 293.56 531.195 291.77 531.184 291.721C531.154 291.599 524.198 284.281 524.125 284.299C524.085 284.309 521.279 286.978 517.898 290.236C514.508 293.496 511.678 296.17 511.605 296.188C511.429 296.239 493.539 290.819 493.596 290.736C493.636 290.669 505.296 279.911 505.645 279.63C505.82 279.493 506.048 279.539 513.661 281.432C517.976 282.505 521.521 283.351 521.544 283.316C521.702 283.074 524.406 274.945 524.332 274.905C524.295 274.885 521.968 274.295 519.183 273.606C516.39 272.911 514.102 272.319 514.086 272.286C514.072 272.261 516.043 270.495 518.463 268.366C520.885 266.243 522.903 264.474 522.948 264.426C523.008 264.375 522.155 263.507 519.831 261.281C518.072 259.594 516.605 258.213 516.571 258.207C516.539 258.207 514.478 259.995 511.982 262.179L507.451 266.159L506.292 261.491L505.142 256.828L495.744 259.113L497.466 266.261L499.18 273.41L492.83 278.988C489.337 282.054 486.438 284.591 486.39 284.624C486.32 284.67 485.93 283.13 484.442 276.943L482.584 269.203L488.497 264.008C491.745 261.154 494.398 258.794 494.391 258.766C494.378 258.711 488.23 252.771 488.056 252.653C487.998 252.609 486.826 253.599 484.251 255.853C482.208 257.651 480.453 259.182 480.352 259.265L480.165 259.419L477.46 248.295L468.062 250.58L469.397 256.07C470.131 259.09 470.717 261.564 470.701 261.568C470.686 261.571 468.338 260.994 465.485 260.285C462.631 259.576 460.294 259.01 460.282 259.028C460.233 259.12 457.445 267.364 457.441 267.416C457.444 267.459 460.962 268.362 465.259 269.425L473.076 271.369L476.935 287.076L470.254 285.415C466.572 284.5 462.77 283.556 461.796 283.314L460.021 282.88L456.542 268.572L451.869 269.722L447.19 270.882L449.385 280.24L443.421 278.754C440.132 277.94 437.444 277.285 437.433 277.303C437.428 277.318 436.775 279.221 435.98 281.53C434.841 284.867 434.571 285.739 434.668 285.774C434.738 285.8 437.388 286.464 440.565 287.247C443.743 288.037 446.344 288.699 446.349 288.719C446.354 288.74 444.558 290.332 442.356 292.27C439.339 294.915 438.367 295.806 438.416 295.874C438.474 295.947 443.275 300.572 444.41 301.641C444.568 301.799 444.745 301.93 444.794 301.933C444.835 301.938 447.581 299.562 450.888 296.657C454.315 293.651 456.964 291.371 457.043 291.367C457.173 291.372 473.22 295.589 473.342 295.661C473.401 295.69 468.004 300.691 459.629 308.721L459.31 309.032L451.006 306.568C444.669 304.688 442.683 304.135 442.636 304.224C442.506 304.463 439.854 313.788 439.869 313.923C439.885 314.023 441.408 314.507 445.269 315.65C448.223 316.521 450.649 317.262 450.663 317.284C450.669 317.309 448.484 319.429 445.817 321.995L440.954 326.667L441.153 326.887C441.261 327.016 442.854 328.701 444.696 330.638C447.207 333.283 448.066 334.137 448.147 334.083C448.204 334.034 450.334 332.005 452.877 329.564C455.42 327.123 457.556 325.084 457.631 325.04C457.746 324.951 457.83 325.259 459.154 330.707L460.554 336.465L470.508 334.044L466.321 316.647L473.162 310.061L474.763 308.521L474.763 308.521C477.784 305.617 480.104 303.387 480.201 303.305L480.39 303.129L485.034 322.264L478.646 328.386C475.138 331.761 472.28 334.529 472.294 334.552C472.573 334.89 479.35 342.001 479.383 341.993C479.407 341.987 481.321 340.165 483.635 337.944L487.831 333.91Z" fill="#24321C"/>
<path d="M373.815 217.913L371.545 226.865L369.264 235.814L383.211 239.406L385.566 230.355L387.93 221.318L393.554 226.864C396.652 229.922 399.2 232.416 399.217 232.396C399.246 232.379 401.382 230.186 403.962 227.526C406.542 224.867 408.792 222.557 408.954 222.393L409.258 222.097L392.042 205.117L395.423 191.99C398.246 181.029 398.823 178.881 398.926 178.992C398.966 179.027 400.074 180.123 401.826 181.856L401.844 181.874C403.571 183.583 405.921 185.907 408.487 188.441L417.924 197.761L411.721 221.849L425.555 225.412L427.613 217.421C428.746 213.022 429.694 209.435 429.717 209.441C429.739 209.446 432.639 212.297 436.145 215.774C439.666 219.243 442.63 222.122 442.731 222.148C443.01 222.232 452.865 212.139 452.732 211.911C452.685 211.814 449.782 208.927 446.279 205.487C442.778 202.035 439.864 199.145 439.806 199.045C439.72 198.914 441.283 198.435 447.27 196.749C451.434 195.574 454.848 194.567 454.866 194.499C454.909 194.329 451.161 180.757 451.059 180.731C451.003 180.716 445.799 182.156 439.498 183.942C433.186 185.725 427.948 187.156 427.847 187.13C427.596 187.077 409.149 168.655 409.274 168.59C409.367 168.533 430.779 162.961 431.394 162.845C431.699 162.791 431.949 162.998 440.071 170.328C444.673 174.483 448.478 177.853 448.53 177.826C448.884 177.632 457.551 169.408 457.486 169.31C457.454 169.261 454.979 167.007 452.006 164.329C449.026 161.639 446.601 159.408 446.603 159.357C446.602 159.316 450.187 158.439 454.563 157.41C458.937 156.39 462.583 155.539 462.669 155.511C462.776 155.487 462.297 153.858 460.901 149.593C459.846 146.362 458.948 143.7 458.911 143.67C458.871 143.649 455.16 144.494 450.656 145.541L442.467 147.46L444.108 140.956L445.757 134.464L432.694 131.1L430.116 141.024L427.527 150.945L416.051 153.635C409.739 155.111 404.506 156.327 404.425 156.336C404.31 156.347 404.841 154.196 407.076 145.607L409.876 134.865L420.564 132.36C426.434 130.983 431.248 129.822 431.258 129.784C431.278 129.708 427.618 118.36 427.482 118.102C427.439 118.009 425.346 118.457 420.698 119.538C417.003 120.407 413.838 121.138 413.66 121.173L413.329 121.241L417.311 105.779L404.248 102.415L402.282 110.045C401.202 114.242 400.296 117.671 400.275 117.665C400.254 117.66 397.745 115.407 394.701 112.66C391.656 109.912 389.153 107.681 389.127 107.695C389.005 107.775 380.159 116.085 380.12 116.146C380.095 116.201 383.83 119.624 388.417 123.755L396.757 131.283L391.184 153.14L384.056 146.707C380.127 143.162 376.071 139.504 375.032 138.565L373.133 136.866L378.255 116.978L371.75 115.323L365.232 113.675L361.784 126.63L355.423 120.882C351.913 117.72 349.036 115.149 349.01 115.162C348.995 115.179 346.941 117.091 344.446 119.408C340.852 122.764 339.947 123.66 340.043 123.767C340.113 123.845 342.936 126.403 346.329 129.454C349.72 132.514 352.485 135.037 352.478 135.065C352.471 135.094 349.215 135.872 345.233 136.81C339.783 138.081 338.003 138.538 338.018 138.654C338.041 138.782 340.908 147.627 341.602 149.687C341.693 149.985 341.824 150.263 341.882 150.299C341.93 150.331 346.869 149.213 352.846 147.813C359.037 146.366 363.793 145.303 363.894 145.349C364.05 145.44 381.02 161.172 381.123 161.34C381.176 161.414 371.251 164.02 355.671 168.396L355.075 168.569L346.478 160.082C339.919 153.606 337.839 151.62 337.723 151.699C337.406 151.907 328.016 161.637 327.946 161.812C327.9 161.945 329.456 163.542 333.454 167.485C336.516 170.498 339.013 173.002 339.016 173.039C339.007 173.073 334.927 174.247 329.959 175.651L320.907 178.202L321.007 178.603C321.056 178.833 321.908 181.953 322.901 185.545C324.253 190.45 324.749 192.065 324.884 192.051C324.986 192.029 328.938 190.932 333.671 189.6C338.404 188.269 342.37 187.163 342.492 187.158C342.692 187.125 342.592 187.559 340.642 195.131L338.581 203.133L352.416 206.696L358.696 182.544L371.439 178.936L374.421 178.095C380.045 176.507 384.364 175.288 384.538 175.251L384.886 175.159L378.026 201.749L366.145 205.083C359.612 206.93 354.277 208.457 354.28 208.494C354.401 209.093 358.066 222.293 358.111 222.305C358.145 222.314 361.696 221.331 366.002 220.119L373.815 217.913Z" fill="#24321C"/>
</svg>
