<svg width="1185" height="1116" viewBox="0 0 1185 1116" fill="none" xmlns="http://www.w3.org/2000/svg">
<path d="M1150 1062C1106.29 952.797 1105.79 892.139 1150 785" stroke="black" stroke-width="15" stroke-dasharray="30 30"/>
<path d="M208.471 10C133.971 9.99998 115.471 65.4997 115.471 81.4999L14.4714 877C-6.52857 1006 48.9715 1106 127.971 1106H226.471H1170.97V1061H227.971H127.971C46.9375 1061 39.4715 793 127.971 785H245.971H1171.47L994.472 10H292.971H208.471Z" stroke="black" stroke-width="20" stroke-dasharray="40 40"/>
<path d="M247.971 764L290.971 29" stroke="black" stroke-width="15" stroke-dasharray="40 40"/>
<path d="M939 254H377L386.453 95H914.939L939 254Z" stroke="black" stroke-width="15" stroke-dasharray="20 20"/>
<path d="M386 371.5H569" stroke="black" stroke-width="10" stroke-dasharray="15 15"/>
<path d="M388 342.5H536" stroke="black" stroke-width="10" stroke-dasharray="15 15"/>
<path d="M390 313.5H590" stroke="black" stroke-width="10" stroke-dasharray="15 15"/>
<path d="M953.57 875.77L958.564 876.017L957.693 893.615L952.699 893.368L951.828 910.965L956.822 911.213L955.95 928.81L950.956 928.563L950.085 946.161L955.079 946.408L954.207 964.006L949.214 963.759L948.342 981.356L953.336 981.604L952.465 999.201L950.673 999.113L949.742 998.096L948.736 999.017L947.471 998.954L947.408 1000.23L946.054 1001.47L934.104 988.416L937.792 985.04L925.842 971.983L922.154 975.359L910.203 962.303L913.892 958.927L907.917 952.399L904.247 948.39L900.557 952.38L894.52 958.908L898.191 962.303L886.116 975.359L882.445 971.964L870.371 985.021L874.041 988.416L861.967 1001.47L860.575 1000.19L860.52 998.972L859.323 999.027L858.296 998.077L857.333 999.118L855.525 999.201L854.716 981.604L859.71 981.374L858.901 963.776L853.907 964.006L853.098 946.408L858.092 946.178L857.283 928.581L852.288 928.81L851.479 911.213L856.474 910.983L855.665 893.385L850.67 893.615L849.861 876.017L854.856 875.788L854.456 867.084C854.415 864.059 853.017 860.482 850.711 857.665C850.528 857.441 850.337 857.219 850.137 857H866.386V862H884.643V857H902.9V862H921.158V857H939.415V862H948.544C950.712 862 951.952 862.749 952.687 863.558C953.479 864.428 953.975 865.697 953.999 867.112L953.57 875.77Z" stroke="black" stroke-width="10" stroke-dasharray="17.5 17.5"/>
</svg>
