<svg width="1185" height="1116" viewBox="0 0 1185 1116" fill="none" xmlns="http://www.w3.org/2000/svg">
<path d="M1150 1062C1106.29 952.797 1105.79 892.139 1150 785" stroke="black" stroke-width="15" stroke-dasharray="30 30"/>
<path d="M208.471 10C133.971 9.99998 115.471 65.4997 115.471 81.4999L14.4714 877C-6.52857 1006 48.9715 1106 127.971 1106H226.471H1170.97V1061H227.971H127.971C46.9375 1061 39.4715 793 127.971 785H245.971H1171.47L994.472 10H292.971H208.471Z" stroke="black" stroke-width="20" stroke-dasharray="40 40"/>
<path d="M938.5 254H284.5L295.5 94.5H910.5L938.5 254Z" stroke="black" stroke-width="15" stroke-dasharray="20 20"/>
<path d="M293 371.5H476" stroke="black" stroke-width="10" stroke-dasharray="15 15"/>
<path d="M297 342.5H445" stroke="black" stroke-width="10" stroke-dasharray="15 15"/>
<path d="M301 313.5H501" stroke="black" stroke-width="10" stroke-dasharray="15 15"/>
</svg>
