<svg width="1162" height="1096" viewBox="0 0 1162 1096" fill="none" xmlns="http://www.w3.org/2000/svg">
<path d="M47 772.5H44.5V775V1054V1056.5L47.0046 1056.5L1140 1054.5L1143.78 1054.49L1142.3 1051.02C1121.55 1002.42 1109.85 963.581 1109.15 922.015C1108.44 880.438 1118.72 835.895 1142.33 775.916L1143.67 772.5H1140H47Z" fill="white" stroke="#B0B0B0" stroke-width="5"/>
<path fill-rule="evenodd" clip-rule="evenodd" d="M47 837V828L1121.42 828C1120.51 831.038 1119.64 834.037 1118.82 837H47ZM47 867V858H1113.58C1112.91 861.035 1112.29 864.034 1111.72 867H47ZM47 895V886H1108.68C1108.3 889.028 1107.97 892.026 1107.69 895H47ZM47 925V916H1106.62C1106.6 919.016 1106.63 922.014 1106.72 925H47ZM47 954V945H1108.15C1108.49 948.001 1108.89 951 1109.35 954H47ZM47 983V974H1113.17C1113.86 976.987 1114.6 979.985 1115.39 983H47ZM47 1013V1004H1121.6C1122.58 1006.97 1123.6 1009.97 1124.66 1013H47Z" fill="#E6E6E6"/>
<path d="M218 1051H1161V1096H216.5L218 1051Z" fill="#557A42"/>
<path d="M265 0H984.5L1161.5 775H218L265 0Z" fill="#557A42"/>
<path d="M105.5 71.4999C105.5 55.4997 124 -1.55568e-05 198.5 0H283L236 775H118C29.5001 783 36.9662 1051 118 1051H218L216.5 1096H118C39.0002 1096 -16.4999 996 4.5 867L105.5 71.4999Z" fill="black"/>
<path d="M896.301 73.5L922.546 223H369.659L374.346 73.5H896.301Z" fill="#5C8647" stroke="black" stroke-width="10"/>
<path d="M363 269.5H563M359 327.5H542M361 298.5H509" stroke="black" stroke-width="15"/>
</svg>
