<svg width="1161" height="1096" viewBox="0 0 1161 1096" fill="none" xmlns="http://www.w3.org/2000/svg">
<path d="M47 772.5H44.5V775V1054V1056.5L47.0046 1056.5L1140 1054.5L1143.78 1054.49L1142.3 1051.02C1121.55 1002.42 1109.85 963.581 1109.15 922.015C1108.44 880.438 1118.72 835.895 1142.33 775.916L1143.67 772.5H1140H47Z" fill="white" stroke="#B0B0B0" stroke-width="5"/>
<path fill-rule="evenodd" clip-rule="evenodd" d="M46.9714 837V828H1121.39C1120.48 831.038 1119.61 834.037 1118.79 837H46.9714ZM46.9714 867V858H1113.55C1112.88 861.035 1112.26 864.034 1111.69 867H46.9714ZM46.9714 895V886H1108.65C1108.27 889.028 1107.94 892.026 1107.67 895H46.9714ZM46.9714 925V916H1106.59C1106.57 919.016 1106.6 922.014 1106.69 925H46.9714ZM46.9714 954V945H1108.12C1108.47 948.001 1108.87 951 1109.32 954H46.9714ZM46.9714 983V974H1113.14C1113.83 976.987 1114.57 979.985 1115.36 983H46.9714ZM46.9714 1013V1004H1121.58C1122.55 1006.97 1123.57 1009.97 1124.64 1013H46.9714Z" fill="#E6E6E6"/>
<path d="M217.971 1051H1160.97V1096H216.471L217.971 1051Z" fill="black"/>
<path d="M105.471 71.4999C105.471 55.4997 123.971 -1.55568e-05 198.471 0H282.971L235.971 775H117.971C29.4715 783 36.9663 1051 118 1051H218L216.471 1096H117.971C38.9715 1096 -16.5286 996 4.47137 867L105.471 71.4999Z" fill="black"/>
<path d="M184.697 750L232.347 25H949.612L1129.06 750H184.697Z" fill="#557A42" stroke="black" stroke-width="50"/>
<path d="M1029 589L824 589M1019 563L855 563" stroke="black" stroke-width="12" stroke-dasharray="30 5 62 10 45 12"/>
<path d="M260 589L465 589" stroke="black" stroke-width="12" stroke-miterlimit="1.41421" stroke-dasharray="70 15 95 10"/>
<path d="M265 563L429 563" stroke="black" stroke-width="12" stroke-dasharray="90 10"/>
<path d="M298 177.5H459" stroke="black" stroke-width="15" stroke-dasharray="100 10 1600 200"/>
<path d="M300 148H483" stroke="black" stroke-width="15" stroke-dasharray="50 10 1600 0.1"/>
<path d="M302 119H450" stroke="black" stroke-width="15" stroke-dasharray="40 10 50 5"/>
<path d="M304 90H504" stroke="black" stroke-width="15" stroke-dasharray="100 20"/>
<path d="M523.192 653.886C518.205 656.432 516.275 658.937 515.469 663.86C515.036 666.577 515.075 667.723 515.787 670.567C518.337 681.263 525.794 690.94 533.988 694.166C539.078 696.161 541.961 695.779 542.538 693.02C542.723 692.214 542.243 691.11 540.741 688.903C539.623 687.205 538.398 684.743 538.043 683.343C536.871 679.013 536.616 672.477 537.418 668.147C537.837 665.898 537.99 663.393 537.754 662.247C537.318 659.785 535.063 656.772 532.257 654.947C530.645 653.886 529.787 653.631 527.213 653.546C525.529 653.461 523.715 653.631 523.192 653.886Z" fill="black"/>
<path d="M429.986 690.304C425.889 691.577 422.957 695.185 423.222 698.623C423.486 702.061 426.975 705.711 431.801 707.494C439.73 710.465 452.059 711.611 455.015 709.616C456.187 708.81 456.306 708.428 456.15 706.39C455.915 703.334 453.557 700.278 447.815 695.567C441.175 690.091 435.723 688.521 429.986 690.304Z" fill="black"/>
<path d="M291.557 657.306C289.259 658.221 288.437 659.137 287.965 661.217C287.57 663.132 288.19 665.337 289.876 668C291.751 670.871 294.422 672.744 299.152 674.45C306.06 676.947 314.248 682.44 317.913 687.059C320.436 690.263 322.157 691.22 323.599 690.263C324.826 689.43 325.105 687.974 324.683 684.603C323.835 677.987 317.352 669.04 308.44 662.258C302.042 657.389 295.979 655.6 291.557 657.306Z" fill="black"/>
<path d="M340.755 687.558C339.065 688.39 338.642 689.93 339.549 691.969C340.649 694.507 341.944 695.589 345.726 697.087C349.702 698.668 354.003 701.332 355.401 703.038C357.887 706.117 359.488 706.533 359.818 704.12C360.531 698.211 349.594 686.934 343.196 686.975C342.521 686.975 341.415 687.225 340.755 687.558Z" fill="black"/>
<path d="M236.45 703.745C235.277 705.035 235.897 707.24 237.739 708.738C240.687 711.11 248.418 712.275 248.573 710.403C248.726 708.947 244.419 704.577 241.598 703.329C239.509 702.413 237.408 702.58 236.45 703.745Z" fill="black"/>
<path d="M364.13 658.407C360.276 659.022 358.628 663.129 360.217 668.275C360.746 670.002 361.376 670.879 365.177 674.974C367.496 677.472 370.866 682.616 372.473 686.191C372.918 687.198 373.413 688.916 373.539 689.978C374.525 698.834 380.925 696.019 381.569 686.422C382.199 677.004 377.104 664.44 370.998 660.343C369.138 659.113 365.757 658.142 364.13 658.407Z" fill="black"/>
<path d="M449.361 651.466C439.883 653.376 433.6 658.979 432.602 666.534C432.003 670.949 433.692 674.938 437.5 678.249C441.838 682.027 445.625 683.13 456.122 683.555C462.953 683.809 464.947 684.064 468.227 684.998C477.916 687.757 483.606 693.063 484.233 699.939C484.791 706.56 479.829 711.993 470.659 714.71C463.662 716.789 448.688 719.124 439.151 719.633C427.841 720.185 412.711 718.093 397.461 714.273C387.454 711.568 388.298 707.948 373.539 707.948C363.5 707.948 355 719.625 347 719C336.346 718.168 319.112 707.019 310.2 701.123C287.097 685.852 271.639 680.026 261.042 682.523C253.878 684.229 251.099 688.598 253.036 695.048C254.266 699.001 257.346 701.956 261.724 703.329C262.794 703.662 265.795 704.244 268.438 704.619C273.61 705.41 276.29 706.325 277.831 707.948C280.025 710.195 279.283 713.482 276.205 715.313C275.098 715.979 273.498 716.27 269.199 716.562C248.794 717.944 232.875 724.484 212 725V750.5H685V726C656.32 723.121 640.012 722.743 612.973 710.974C602.459 706.475 598.442 705.584 587.365 705.329C581.232 705.159 577.099 705.329 569.158 706.051C548.231 708.003 536.61 706.433 524.971 700.151C516.317 695.439 511.749 691.237 498.409 675.66C485.125 660.168 479.08 655.371 469.081 652.442C465.344 651.339 463.896 651.127 458.559 651.042C454.452 650.914 451.355 651.084 449.361 651.466Z" fill="black"/>
<path d="M572.555 672.017C566.494 677.701 562.448 686.086 563.198 691.422C563.68 693.878 565.208 693.363 567.253 693.138C572.789 692.052 586.645 685.96 590.024 680.327C592.739 675.922 589.848 668.863 585.396 667.85C582.073 667.097 579.052 667.676 575.711 669.704C574.585 670.399 573.175 671.424 572.555 672.017Z" fill="black"/>
<path d="M615.466 689.756C610.703 690.332 606.033 692.399 604.662 694.541C603.734 695.969 603.81 696.909 604.867 697.335C605.526 697.611 606.261 697.498 607.263 696.997C611.798 694.751 619.013 697.335 622.345 696.368C625.082 695.428 624.814 692.9 623 691.422C621.645 690.32 620.003 689.781 617.736 689.693C616.969 689.668 615.957 689.693 615.466 689.756Z" fill="black"/>
<path d="M731.268 626.916C730.309 625.003 728.503 622.477 727.237 621.306C725.154 619.353 722.315 618.411 719.669 618.809C715.943 619.355 713.325 621.263 711.518 624.727C710.042 627.577 709.488 630.674 709.7 634.866C709.864 638.008 710.392 640.502 711.845 645.011C713.899 651.377 715.989 655.37 718.841 658.236C720.438 659.837 721.85 660.708 723.41 661.028C724.379 661.213 724.771 661.167 725.982 660.746C727.227 660.291 727.596 660.049 728.65 658.979C732.706 654.824 735.083 646.034 734.442 637.612C734.302 635.71 734.115 634.912 733.113 631.834C732.478 629.877 731.644 627.671 731.268 626.916Z" fill="black"/>
<path fill-rule="evenodd" clip-rule="evenodd" d="M835.519 733.9C841.533 733.397 846.48 735.691 849.316 740.328C851.667 744.159 851.957 748.842 850.134 752.99C848.699 756.233 846.838 758.444 843.722 760.57C842.386 761.487 841.76 761.773 838.557 762.864C830.924 765.494 826.312 765.986 816.921 765.19C807.131 764.353 803.567 764.73 795.82 767.423C792.734 768.495 789.991 769.608 787.544 770.788H668.376C664.079 759.924 656.126 754.39 642.165 752.576C637.741 751.982 632.078 751.864 620.445 752.052C607.641 752.262 604.186 752.171 599.078 751.565C587.507 750.168 580.606 745.968 576.479 737.811C575.479 735.846 574.438 732.331 574.322 730.625C574.014 726.152 575.712 722.297 579.12 719.707C580.361 718.777 581.067 718.396 583.493 717.484C588.251 715.649 592.511 715.121 597.511 715.742C604.24 716.577 610.591 719.653 621.342 727.299C635.393 737.267 640.927 740.014 648.897 740.963C653.747 741.545 657.818 741.059 662.74 739.371C666.341 738.12 667.9 737.193 669.987 735.107C673.269 731.767 674.636 727.415 674.145 721.826C674.008 720.128 673.781 719.345 672.558 715.825C671.025 711.415 670.282 709.928 667.693 706.066C665.877 703.387 663.442 700.424 658.614 695.141C651.744 687.575 650.703 686.077 649.135 681.566C648.158 678.822 647.993 678.086 647.907 676.597C647.731 673.416 648.254 671.465 649.758 669.854C650.345 669.197 650.749 668.988 652.569 668.356C654.511 667.681 654.808 667.623 655.982 667.804C660.169 668.435 663.604 672.252 667.984 681.137C668.61 682.416 670.147 685.6 671.38 688.233C672.612 690.866 674.101 693.976 674.705 695.126C681.872 709.096 688.232 714.414 697.39 714.02C699.116 713.964 699.724 713.821 702.401 712.913C705.2 711.963 705.53 711.803 706.575 710.896C708.156 709.576 709.414 707.846 710.596 705.44C711.856 702.871 712.618 700.497 714.126 694.463C715.595 688.579 716.364 686.226 717.436 684.221C718.639 681.944 719.496 681.147 721.539 680.437C723.056 679.91 723.252 679.887 724.157 680.207C727.063 681.261 729.165 684.702 734.062 696.378C736.667 702.569 738.282 705.976 740.027 708.974C742.491 713.129 745.12 715.934 747.873 717.267C750.777 718.706 753.135 718.771 756.614 717.562C761.3 715.911 763.423 713.019 766.873 703.635C769.091 697.559 770.237 695.051 771.859 692.606C774.198 689.095 776.999 686.784 780.745 685.233C784.134 683.828 786.876 683.827 789.468 685.217C791.166 686.123 791.944 687.122 792.71 689.327C794.587 694.729 792.882 699.607 787.24 704.9C786.25 705.834 783.469 708.139 781.068 710.038C771.178 717.851 768.299 720.916 765.825 726.128C763.465 731.143 763.14 735.95 764.76 741.916C766.495 748.342 769.404 752.342 774.026 754.749C780.115 757.916 788.924 757.235 798.58 752.859C801.845 751.362 804.004 750.135 807.946 747.518C808.778 746.961 809.825 746.263 810.898 745.549C812.362 744.574 813.875 743.566 814.957 742.837C822.384 737.92 830.688 734.286 835.519 733.9Z" fill="black"/>
<path d="M1039.25 660.325C1033.18 662.478 1029.66 666.864 1031.33 670.236C1032.27 672.104 1033.49 672.185 1036.61 670.642C1039.44 669.261 1039.54 669.261 1046.16 669.261C1053.31 669.22 1054.17 669.017 1055.32 667.189C1056.7 664.915 1054.07 661.462 1049.83 659.919C1047.38 658.984 1042.51 659.187 1039.25 660.325Z" fill="black"/>
<path d="M1033.61 686.198C1029.41 687.214 1024.46 695.297 1026.27 698.099C1027.56 700.09 1032.49 700.496 1038.19 699.115C1045.33 697.328 1047.38 695.419 1046.1 691.722C1044.73 687.782 1038.48 685.02 1033.61 686.198Z" fill="black"/>
<path d="M1064.29 702.283C1061.25 702.486 1057.08 704.72 1056.47 706.507C1056.01 707.888 1056.03 708.091 1056.97 708.66C1057.74 709.188 1058.19 709.188 1059.39 708.822C1061.31 708.213 1066.29 708.619 1070.07 709.675C1072.87 710.488 1073.02 710.488 1074.55 709.797C1075.4 709.391 1076.19 708.538 1076.33 707.929C1076.58 706.954 1076.4 706.588 1075.16 705.289C1072.9 702.892 1069.51 701.958 1064.29 702.283Z" fill="black"/>
<path d="M897.53 645.418C892.19 646.644 888.493 648.674 883.361 653.241C875.086 660.599 871.002 669.775 872.934 676.879C873.821 680.051 874.871 681.489 876.679 681.869C878.889 682.334 881.064 681.066 882.59 678.444C884.246 675.568 886.849 673.454 892.447 670.452C896.909 668.084 899.452 667.111 905.56 665.589C909.823 664.489 911.806 663.305 913.636 660.768C916.752 656.328 916.195 651.676 912.086 648.378C908.557 645.544 902.382 644.276 897.53 645.418Z" fill="black"/>
<path d="M840.305 652.945C836.592 654.129 833 657.512 830.592 662.163C829.646 663.982 829.434 665.081 829.601 667.238C829.865 670.663 830.708 671.974 832.523 671.805C833.504 671.72 834.107 671.213 834.846 669.902C836.195 667.534 840.086 664.827 844.406 663.178C848.488 661.656 849.994 660.049 849.791 657.427C849.615 655.144 848.852 654.213 846.356 653.241C843.965 652.353 842.427 652.268 840.305 652.945Z" fill="black"/>
<path d="M835.305 687.366C828.937 689.354 820.713 698.657 820.449 704.197C820.326 706.438 821.448 707.537 824.567 708.256C830.801 709.652 846.907 705.169 850.01 701.194C852.433 698.023 852.313 693.921 849.717 691.003C846.682 687.536 840.033 685.886 835.305 687.366Z" fill="black"/>
<path d="M1088 725.76C1087.87 725.679 1084.41 724.948 1080.31 724.095C1070.23 722.104 1064.94 720.683 1052.85 716.865C1030.5 709.838 1025.45 708.538 1016.23 707.604C1008.26 706.832 1001.17 707.604 993.21 710.163C991.028 710.853 988.346 711.381 986.913 711.381C982.53 711.422 978.19 709.31 975.976 706.06C973.034 701.714 975.944 698.14 983.285 697.084C984.253 696.94 986.025 696.698 987.974 696.432L987.992 696.43C989.348 696.245 990.789 696.048 992.101 695.865C1001.28 694.566 1005.68 692.575 1007.14 689.082C1008.13 686.808 1008.16 685.345 1007.38 681.243C1005.94 673.404 999.905 667.677 988.847 663.574C974.564 658.294 959.445 658.294 944.755 663.655C925.32 670.712 908.465 683.688 894.143 695.612C880.451 705.127 864.317 711.808 847.56 714.895C842.052 715.868 835.328 715.986 827.821 716.029C799.71 716.029 794.465 726 765 726V750H1088V725.76Z" fill="black"/>
</svg>
