<svg width="1161" height="1096" viewBox="0 0 1161 1096" fill="none" xmlns="http://www.w3.org/2000/svg">
<path d="M47 772.5H44.5V775V1054V1056.5L47.0046 1056.5L1140 1054.5L1143.78 1054.49L1142.3 1051.02C1121.55 1002.42 1109.85 963.581 1109.15 922.015C1108.44 880.438 1118.72 835.895 1142.33 775.916L1143.67 772.5H1140H47Z" fill="white" stroke="#B0B0B0" stroke-width="5"/>
<path fill-rule="evenodd" clip-rule="evenodd" d="M46.9714 837V828H1121.39C1120.48 831.038 1119.61 834.037 1118.79 837H46.9714ZM46.9714 867V858H1113.55C1112.88 861.035 1112.26 864.034 1111.69 867H46.9714ZM46.9714 895V886H1108.65C1108.27 889.028 1107.94 892.026 1107.67 895H46.9714ZM46.9714 925V916H1106.59C1106.57 919.016 1106.6 922.014 1106.69 925H46.9714ZM46.9714 954V945H1108.12C1108.47 948.001 1108.86 951 1109.32 954H46.9714ZM46.9714 983V974H1113.14C1113.83 976.987 1114.57 979.985 1115.36 983H46.9714ZM46.9714 1013V1004H1121.58C1122.55 1006.97 1123.57 1009.97 1124.64 1013H46.9714Z" fill="#E6E6E6"/>
<path d="M217.971 1051H1160.97V1096H216.471L217.971 1051Z" fill="#557A42"/>
<path d="M208.936 -6.10352e-05H969.178L1161 775H158L208.936 -6.10352e-05Z" fill="#557A42"/>
<path d="M105.471 71.4999C105.471 55.4996 123.971 -7.6592e-05 198.471 -6.10352e-05H282.971L235.971 775H117.971C29.4715 783 36.9663 1051 118 1051H218L216.471 1096H117.971C38.9715 1096 -16.5286 996 4.47137 867L105.471 71.4999Z" fill="#557A42"/>
<path d="M1110.8 572H145C101.5 572 49.606 594.194 33 642L13 799.99C31.4715 754.99 65 702 141 702H1142.9L1110.8 572Z" fill="#24321C"/>
<path d="M982.299 53.0104H216C165.5 53.0104 115.5 75.5 98.894 123.306L86 225C104.471 180 140 138.5 216 138.5H1003.46L982.299 53.0104Z" fill="#24321C"/>
<path d="M390 649H844" stroke="#496839" stroke-width="15" stroke-miterlimit="1.41421" stroke-dasharray="200 25 75 10"/>
<path d="M430 619H793" stroke="#496839" stroke-width="15" stroke-dasharray="240 48 720 96"/>
<path d="M469 205L735.5 205M521 246H681.5" stroke="#24321C" stroke-width="25" stroke-dasharray="60 20 190 25 100 15"/>
<path fill-rule="evenodd" clip-rule="evenodd" d="M744.737 378.21C758.542 364.74 797.062 332.557 836.841 301.297L837.26 300.968C841.571 297.584 845.241 294.703 845.485 294.499C845.779 294.29 846.198 294.415 846.534 294.835C847.079 295.464 844.52 298.108 822.491 319.927C808.937 333.354 785.229 356.81 769.788 372.084L741.716 399.861L742.346 397.469C743.185 394.28 742.597 390.084 740.793 386.224L739.45 383.371L744.737 378.21Z" fill="#292929" fill-opacity="0.45"/>
<path fill-rule="evenodd" clip-rule="evenodd" d="M480.805 731.388C471.844 736.695 454.503 746.314 440.75 753.735C435.25 755 429.75 748 431.25 743.848C436.808 733.699 443.469 721.819 448.327 713.513C458.398 696.225 461.671 691.316 469.056 682.294C496.246 649.02 571.02 571.184 702.105 439.639C730.345 411.358 731.562 410.015 728.415 411.904C724.554 414.211 719.016 416.267 716.582 416.267C711.966 416.267 710.791 412.03 713.687 405.568C716.708 398.686 729.548 382.028 739.031 372.671C751.913 359.999 784.013 333.103 828.659 297.604C839.485 289.003 841.667 287.03 856.563 272.386L872.717 256.442L876.158 259.882L879.641 263.281L881.193 261.854C882.075 261.057 888.579 254.679 895.67 247.672L908.552 235L911.195 235.042C912.664 235.042 915.349 235.42 917.238 235.839C932.805 239.364 947.198 252.204 952.485 267.351C953.785 271.044 954.75 275.869 954.75 278.555V280.527L912.244 322.948C741.087 493.768 593.721 636.474 529.899 693.246C503.925 716.324 496.666 721.989 480.805 731.388ZM744.737 378.21C758.542 364.74 797.062 332.557 836.841 301.297L837.26 300.968C841.571 297.584 845.241 294.703 845.485 294.499C845.779 294.29 846.198 294.415 846.534 294.835C847.079 295.464 844.52 298.108 822.491 319.927C808.937 333.354 785.229 356.81 769.788 372.084L741.716 399.861L742.346 397.469C743.185 394.28 742.597 390.084 740.793 386.224L739.45 383.371L744.737 378.21Z" fill="#292929" fill-opacity="0.45"/>
<path fill-rule="evenodd" clip-rule="evenodd" d="M479.805 701.388L447.327 683.513C442.468 691.819 435.808 703.699 430.25 713.848C428.75 718 434.25 725 439.75 723.735C453.503 716.314 470.843 706.695 479.805 701.388Z" fill="#515151"/>
<path fill-rule="evenodd" clip-rule="evenodd" d="M951.485 237.351C946.198 222.204 931.805 209.364 916.238 205.839C914.349 205.42 911.664 205.042 910.195 205.042L907.552 205L894.67 217.672C887.579 224.679 881.075 231.057 880.193 231.854L878.641 233.281L875.158 229.882L871.717 226.442L855.563 242.386C840.667 257.03 838.485 259.003 827.659 267.604C783.013 303.103 750.913 329.999 738.031 342.671C728.548 352.028 715.708 368.686 712.687 375.568C709.791 382.03 710.966 386.267 715.582 386.267C718.016 386.267 723.554 384.211 727.415 381.904C730.562 380.015 729.345 381.358 701.105 409.639C570.02 541.184 495.246 619.02 468.056 652.294C460.671 661.316 457.398 666.225 447.327 683.513C442.469 691.819 435.808 703.699 430.25 713.848C435.25 712 441.25 719 439.75 723.735C453.503 716.314 470.844 706.695 479.805 701.388C495.666 691.989 502.925 686.324 528.899 663.246C592.721 606.474 740.087 463.768 911.244 292.948L953.75 250.527V248.555C953.75 245.869 952.785 241.044 951.485 237.351ZM743.737 348.21C757.542 334.741 796.062 302.557 835.841 271.297L836.26 270.968C840.571 267.584 844.241 264.703 844.485 264.499C844.779 264.29 845.198 264.415 845.534 264.835C846.079 265.464 843.52 268.108 821.491 289.927C807.937 303.354 784.229 326.81 768.788 342.084L740.716 369.861L741.346 367.469C742.185 364.28 741.597 360.084 739.793 356.224L738.45 353.371L743.737 348.21Z" fill="#8F8F8F"/>
<path fill-rule="evenodd" clip-rule="evenodd" d="M727.415 381.904C727.445 381.886 727.474 381.868 727.503 381.851C731.651 379.361 734.618 376.251 739.106 371.547C739.621 371.006 740.157 370.445 740.716 369.861L741.346 367.469C742.185 364.28 741.598 360.084 739.793 356.224L738.451 353.371L743.738 348.21C757.543 334.741 796.063 302.557 835.841 271.297L836.26 270.968C840.571 267.584 844.241 264.703 844.485 264.499C844.779 264.29 845.198 264.415 845.534 264.835L878.641 233.281L875.158 229.882L871.718 226.442L855.563 242.386C840.667 257.03 838.485 259.003 827.659 267.604C783.013 303.103 750.913 329.999 738.031 342.671C728.548 352.028 715.708 368.686 712.687 375.568C709.791 382.03 710.966 386.267 715.582 386.267C718.016 386.267 723.555 384.211 727.415 381.904Z" fill="black"/>
<path fill-rule="evenodd" clip-rule="evenodd" d="M501.967 614C523.447 590.766 552.744 560.17 590.398 521.644C609.251 518 637.279 547.796 633.251 565.735C595.746 601.66 564.385 631.129 541.075 652.294C537.034 633.5 517.751 615.5 501.967 614Z" fill="black"/>
</svg>
