<svg width="1162" height="1096" viewBox="0 0 1162 1096" fill="none" xmlns="http://www.w3.org/2000/svg">
<path d="M46.9714 772.5H44.4714V775V1054V1056.5L46.976 1056.5L1139.98 1054.5L1143.75 1054.49L1142.27 1051.02C1121.52 1002.42 1109.83 963.581 1109.12 922.015C1108.41 880.438 1118.69 835.895 1142.3 775.916L1143.64 772.5H1139.97H46.9714Z" fill="white" stroke="#B0B0B0" stroke-width="5"/>
<path fill-rule="evenodd" clip-rule="evenodd" d="M46.9714 837V828L1121.39 828C1120.48 831.038 1119.61 834.037 1118.79 837H46.9714ZM46.9714 867V858H1113.55C1112.88 861.035 1112.26 864.034 1111.69 867H46.9714ZM46.9714 895V886H1108.65C1108.27 889.028 1107.94 892.026 1107.67 895H46.9714ZM46.9714 925V916H1106.59C1106.57 919.016 1106.6 922.014 1106.69 925H46.9714ZM46.9714 954V945H1108.12C1108.47 948.001 1108.87 951 1109.32 954H46.9714ZM46.9714 983V974H1113.14C1113.83 976.987 1114.57 979.985 1115.36 983H46.9714ZM46.9714 1013V1004H1121.58C1122.55 1006.97 1123.57 1009.97 1124.64 1013H46.9714Z" fill="#E6E6E6"/>
<path d="M217.971 1051H1160.97V1096H216.471L217.971 1051Z" fill="#557A42"/>
<path d="M264.971 0H984.472L1161.47 775H217.971L264.971 0Z" fill="#557A42"/>
<path d="M105.471 71.4999C105.471 55.4997 123.971 -1.55568e-05 198.471 0H282.971L235.971 775H117.971C29.4715 783 36.9375 1051 117.971 1051H217.971L216.471 1096H117.971C38.9715 1096 -16.5286 996 4.47137 867L105.471 71.4999Z" fill="black"/>
<!-- <path fill-rule="evenodd" clip-rule="evenodd" d="M541.934 330H475.441V335.782L493.108 336.103C505.162 336.103 503.821 348.47 502.663 358.864C501.784 366.751 500.136 378.688 506.402 378.688C512.668 378.688 510.879 368.389 509.969 361.638C508.79 352.883 507.281 341.684 518.163 336.424C523.606 334.308 525.238 339.824 526.319 343.474C526.386 343.702 526.451 343.923 526.515 344.134C527.877 347.352 529.607 354.508 529.31 359.352C527.819 371.674 521.012 392.019 530.12 392.019C539.228 392.019 536.534 382.47 535.685 371.273C534.216 361.933 533.282 358.062 535.509 341.243C535.933 338.042 539.479 335.806 542.37 335.806L541.934 330Z" fill="black"/> -->
<path d="M396.971 328.5H579.971" stroke="black" stroke-width="15" stroke-dasharray="30 10 120 10"/>
<path d="M398.971 299.5H546.971" stroke="black" stroke-width="15" stroke-dasharray="25 5 80 10"/>
<path d="M400.971 270.5H600.971" stroke="black" stroke-width="15" stroke-dasharray="80 10"/>
<path fill-rule="evenodd" clip-rule="evenodd" d="M750.167 227.993C750.167 227.993 750.27 229.027 747 196.15H889L892.167 227.993C887.167 227.993 882.875 231.056 878.43 237.446C876.749 239.988 876.164 243.864 878.487 246.676C885.982 255.772 868.443 263.861 866.426 252.375C865.971 249.782 866.384 247.097 866.8 244.393C867.487 239.923 868.183 235.4 864.977 231.15C858.177 225.322 850.779 234.293 851.85 241.01C852.03 252.997 853.81 265.039 855.586 277.052C856.053 280.21 856.52 283.366 856.957 286.518C857.754 292.226 859.425 297.826 861.096 303.42C862.991 309.772 864.885 316.117 865.496 322.605C866.049 330.779 855.638 335.759 848.965 329.97C842.393 324.99 844.215 316.729 845.6 310.451C847.728 293.79 848.008 276.603 845.748 259.512C845.378 258.149 845.098 256.602 844.805 254.991C843.77 249.279 842.588 242.761 836.736 240.806C831.173 239.712 831.231 242.848 831.294 246.342C831.333 248.466 831.374 250.721 830.157 252.239C826.801 257.861 815.434 255.113 815.56 248.572C815.685 242.06 809.576 237.609 805.54 242.818C804.021 249.451 806.251 256.981 809.676 263.236C813.685 268.845 812.813 277.226 806.669 279.889C799.49 283.563 789.863 275.691 790.925 267.825C793.59 256.973 794.43 245.22 790.767 233.853C789.461 226.592 776.936 227.266 777.903 234.501C780.276 240.74 783.377 252.343 772.972 251.177C767.436 250.381 767.663 244.088 767.873 238.259C768.063 233.004 768.239 228.127 764.167 227.993H750.167Z" fill="black"/>
<path d="M388.854 73.5H883.676C890.96 73.5 897.191 78.7325 898.45 85.9064L919.428 205.406C921.04 214.588 913.976 223 904.654 223H385.108C376.64 223 369.85 215.994 370.115 207.53L373.861 88.0301C374.115 79.9327 380.753 73.5 388.854 73.5Z" fill="#5C8647" stroke="black" stroke-width="10"/>
<path d="M839.456 868.218C839.456 864.812 835.971 858 829 858H938.544C945.515 858 949 863.109 949 868.218L942.029 1009L894.228 956.774L845.929 1009L839.456 868.218Z" fill="#314626"/>
</svg>
