<svg width="1161" height="1096" viewBox="0 0 1161 1096" fill="none" xmlns="http://www.w3.org/2000/svg">
<mask id="path-1-outside-1_101_2" maskUnits="userSpaceOnUse" x="42" y="770" width="1106" height="290" fill="black">
<rect fill="white" x="42" y="770" width="1106" height="290"/>
<path d="M47 775H1140C1092.67 895.251 1098.39 954.568 1140 1052L47 1054V775Z"/>
</mask>
<path d="M47 775H1140C1092.67 895.251 1098.39 954.568 1140 1052L47 1054V775Z" fill="white"/>
<path d="M47 775H1140C1092.67 895.251 1098.39 954.568 1140 1052L47 1054V775Z" stroke="#B0B0B0" stroke-width="10" mask="url(#path-1-outside-1_101_2)"/>
<path fill-rule="evenodd" clip-rule="evenodd" d="M46.9714 837V828L1121.39 828C1120.48 831.038 1119.61 834.037 1118.79 837H46.9714ZM46.9714 867V858H1113.55C1112.88 861.035 1112.26 864.034 1111.69 867H46.9714ZM46.9714 895V886H1108.65C1108.27 889.028 1107.94 892.026 1107.67 895H46.9714ZM46.9714 925V916H1106.59C1106.57 919.016 1106.6 922.014 1106.69 925H46.9714ZM46.9714 954V945H1108.12C1108.47 948.001 1108.87 951 1109.32 954H46.9714ZM46.9714 983V974H1113.14C1113.83 976.987 1114.57 979.985 1115.36 983H46.9714ZM46.9714 1013V1004H1121.58C1122.55 1006.97 1123.57 1009.97 1124.64 1013H46.9714Z" fill="#E6E6E6"/>
<path d="M714.456 881.218C714.456 877.812 711.971 847 700 847H787.544C799.515 847 802 876.109 802 881.218V987L758.228 1030.5L714.456 987V881.218Z" fill="#314626"/>
<path d="M875.913 853.92C875.913 851.34 874.037 828 865 828H931.087C940.124 828 942 850.05 942 853.92V934.049L908.957 967L875.913 934.049V853.92Z" fill="#314626"/>
<path d="M217.971 1051H1160.97V1096H216.471L217.971 1051Z" fill="#557A42"/>
<path d="M208.936 0H969.178L1161 775H158L208.936 0Z" fill="#557A42"/>
<path d="M105.471 71.4999C105.471 55.4997 123.971 -1.55568e-05 198.471 0H282.971L235.971 775H117.971C29.4715 783 36.9663 1051 118 1051H218L216.471 1096H117.971C38.9715 1096 -16.5286 996 4.47137 867L105.471 71.4999Z" fill="#557A42"/>
<path d="M330.374 450.647C333.739 427.529 333.634 427.845 337.525 424.843C339.681 423.211 340.364 423 342.94 423C345.464 423 346.305 423.263 348.146 424.58C352.51 427.845 352.615 428.424 354.297 448.541C354.718 453.754 355.296 460.495 355.612 463.549C355.875 466.603 356.348 471.922 356.611 475.398C356.926 478.873 357.557 485.614 357.978 490.406C358.451 495.198 359.029 501.676 359.292 504.888C359.555 508.048 360.028 513.261 360.344 516.473C360.607 519.633 361.08 525.004 361.395 528.322C361.658 531.64 362.289 538.644 362.71 543.857C363.183 549.071 363.761 555.706 364.024 558.602C364.235 561.499 364.813 567.555 365.286 572.031C365.707 576.507 366.601 586.249 367.232 593.622C367.81 600.994 368.493 607.893 368.704 608.894C369.019 610.579 369.177 610.315 370.018 605.997C373.015 590.62 374.172 588.145 379.903 585.249C383.636 583.406 386.58 583.142 389.63 584.406C392.048 585.459 392.259 585.407 392.574 583.985C392.732 583.353 394.099 578.771 395.571 573.874C397.096 568.924 398.884 562.92 399.567 560.445C400.251 557.97 401.197 554.758 401.618 553.336C408.663 529.217 408.663 529.217 412.712 527.269C417.128 525.11 422.964 526.637 425.225 530.481C426.277 532.219 427.276 535.379 431.061 548.333C432.586 553.705 434.216 559.182 434.637 560.445C435.057 561.762 436.161 565.29 437.108 568.345C439.842 577.455 443.47 588.935 444.574 592.305C445.152 594.043 445.731 595.781 445.836 596.15C445.994 596.676 446.624 596.518 448.254 595.57C453.88 592.358 459.191 592.463 466.131 596.044C468.234 597.097 470.863 598.467 471.967 598.993C473.071 599.52 475.437 600.099 477.225 600.204C481.589 600.52 626.862 600.994 723.816 600.994H1118L1123 620.848L647.052 620.69C561.771 620.584 487.688 620.374 482.325 620.268C473.597 620.005 472.177 619.847 468.392 618.636C466.078 617.846 462.924 616.529 461.346 615.687C459.822 614.792 458.455 614.212 458.402 614.265C458.349 614.37 457.561 615.739 456.667 617.372C454.879 620.532 451.409 624.06 448.78 625.429C446.362 626.693 443.417 626.482 439.632 624.745C435.741 623.007 434.426 621.69 432.902 618.109C430.904 613.633 423.911 592.621 419.389 577.824C418.39 574.506 417.391 571.557 417.233 571.294C416.97 570.82 413.868 580.931 409.452 596.782C405.982 609.104 404.141 611.948 398.726 613.159C395.887 613.791 392.679 613.001 390.839 611.263C389.472 609.947 389.314 609.947 389.051 610.842C388.789 611.737 386.265 626.166 385.792 629.695C385.634 630.537 385.318 632.433 385.055 633.908C384.74 635.329 383.951 640.701 383.215 645.756C382.479 650.812 381.322 658.974 380.586 663.924C378.641 677.669 377.274 687.622 376.59 693.309C375.907 698.997 375.118 700.629 371.753 703.368C369.966 704.789 369.282 705 366.495 705C362.815 705 360.87 703.947 358.398 700.734C356.821 698.681 357.084 700.524 354.56 672.087C353.666 662.081 352.615 650.022 352.142 645.23C350.617 629.168 350.354 626.061 348.409 604.681C347.41 592.937 346.358 581.089 346.148 578.35C345.254 567.344 342.467 536.695 341.994 532.008C341.679 529.27 341.258 524.899 341.1 522.371C340.942 519.791 340.68 517.79 340.574 517.948C340.469 518.053 339.891 521.424 339.312 525.478L339.193 526.238C338.61 529.936 338.097 533.194 337.998 533.588C337.84 534.01 337.525 536.274 337.262 538.591C336.841 542.277 332.898 569.608 332.214 573.874C331.741 576.77 331.005 581.668 329.112 594.675C325.537 619.004 325.905 617.53 323.171 620.005C320.963 622.111 319.701 622.585 316.441 622.585C311.025 622.585 309.553 621.164 303.559 609.947C301.141 605.471 298.407 600.415 297.408 598.73C296.461 597.045 295.673 595.57 295.673 595.465C295.673 595.307 295.252 594.517 294.674 593.622L293.727 591.989L290.362 597.677C284.211 608.051 276.219 615.002 267.018 617.951C260.708 619.952 261.392 619.952 219.329 619.689C196.984 619.531 174.533 619.32 169.485 619.162C164.438 619.004 159.57 619 151 619C114.082 619 86.6443 628.504 66.461 645.16C46.2143 661.868 31.0842 686.516 22.85 718L29.4975 670C33 658.5 46.6713 638.043 56.9139 629.59C80.3555 610.246 111.418 600 151 600L260.235 599.678L263.863 597.835C268.017 595.728 269.909 593.569 274.431 585.828C280.215 575.928 283.737 571.978 289.363 569.134C291.887 567.871 292.623 567.713 295.673 567.976C300.352 568.345 302.981 569.556 305.61 572.347C307.608 574.506 310.395 579.509 310.395 580.931C310.395 581.247 310.657 581.51 310.92 581.51C311.236 581.51 311.446 580.983 311.446 580.299C311.446 578.982 313.339 565.817 314.075 561.762C314.39 560.287 315.284 553.915 316.178 547.543C317.019 541.171 318.124 533.694 318.544 530.955C319.333 525.689 320.174 520.16 321.962 508.048C322.54 503.993 323.224 499.148 323.539 497.252C323.802 495.356 324.38 491.196 324.854 488.036C325.327 484.824 325.905 480.822 326.221 479.084C326.483 477.346 327.167 472.712 327.745 468.815C328.225 465.258 328.88 460.78 329.231 458.384L329.323 457.756C329.691 455.597 330.164 452.385 330.374 450.647Z" fill="#24321C"/>
<path d="M992.45 94H215.56C175.977 94 144.915 104.246 121.474 123.59C111.231 132.043 97.2525 152.5 93.75 164L88.2 208C96.4343 176.516 110.774 151.868 131.021 135.16C151.204 118.504 178.642 109 215.56 109H996.2L992.45 94Z" fill="#24321C"/>
<path d="M865 564L1070 564" stroke="#24321C" stroke-width="12" stroke-miterlimit="1.41421" stroke-dasharray="80 12 175 10"/>
<path d="M894 538L1058 538" stroke="#24321C" stroke-width="12" stroke-dasharray="100 10"/>
<mask id="path-12-inside-2_101_2" fill="white">
<path d="M323.194 321.5C311.627 321.5 302.472 311.718 303.238 300.177L311.262 179.177C311.958 168.668 320.686 160.5 331.218 160.5H856.35C865.997 160.5 874.27 167.387 876.019 176.874L898.325 297.874C900.591 310.165 891.154 321.5 878.656 321.5H323.194Z"/>
</mask>
<path d="M323.194 321.5C311.627 321.5 302.472 311.718 303.238 300.177L311.262 179.177C311.958 168.668 320.686 160.5 331.218 160.5H856.35C865.997 160.5 874.27 167.387 876.019 176.874L898.325 297.874C900.591 310.165 891.154 321.5 878.656 321.5H323.194Z" fill="#5C8647" stroke="#24321C" stroke-width="20" mask="url(#path-12-inside-2_101_2)"/>
<path d="M475.5 217L742 217M526.5 258H687" stroke="#24321C" stroke-width="20" stroke-dasharray="80 12 120 30 90 60"/>
</svg>
