<svg width="1161" height="1096" viewBox="0 0 1161 1096" fill="none" xmlns="http://www.w3.org/2000/svg">
<path d="M47 772.5H44.5V775V1054V1056.5L47.0046 1056.5L1140 1054.5L1143.78 1054.49L1142.3 1051.02C1121.55 1002.42 1109.85 963.581 1109.15 922.015C1108.44 880.438 1118.72 835.895 1142.33 775.916L1143.67 772.5H1140H47Z" fill="white" stroke="#B0B0B0" stroke-width="5"/>
<path fill-rule="evenodd" clip-rule="evenodd" d="M46.9714 837V828H1121.39C1120.48 831.038 1119.61 834.037 1118.79 837H46.9714ZM46.9714 867V858H1113.55C1112.88 861.035 1112.26 864.034 1111.69 867H46.9714ZM46.9714 895V886H1108.65C1108.27 889.028 1107.94 892.026 1107.67 895H46.9714ZM46.9714 925V916H1106.59C1106.57 919.016 1106.6 922.014 1106.69 925H46.9714ZM46.9714 954V945H1108.12C1108.47 948.001 1108.87 951 1109.32 954H46.9714ZM46.9714 983V974H1113.14C1113.83 976.987 1114.57 979.985 1115.36 983H46.9714ZM46.9714 1013V1004H1121.58C1122.55 1006.97 1123.57 1009.97 1124.64 1013H46.9714Z" fill="#E6E6E6"/>
<path d="M839.456 868.218C839.456 864.812 835.971 858 829 858H938.544C945.515 858 949 863.109 949 868.218L942.029 1009L894.228 956.774L845.929 1009L839.456 868.218Z" fill="#314626"/>
<path d="M217.971 1051H1160.97V1096H216.471L217.971 1051Z" fill="black"/>
<path d="M105.471 71.4999C105.471 55.4997 123.971 -1.55568e-05 198.471 0H282.971L235.971 775H117.971C29.4715 783 36.9663 1051 118 1051H218L216.471 1096H117.971C38.9715 1096 -16.5286 996 4.47137 867L105.471 71.4999Z" fill="black"/>
<path d="M184.697 750L232.347 25H949.612L1129.06 750H184.697Z" fill="#557A42" stroke="black" stroke-width="50"/>
<path d="M267 650L431 650" stroke="black" stroke-width="12" stroke-dasharray="300 10"/>
<path d="M262 676L467 676" stroke="black" stroke-width="12" stroke-miterlimit="1.41421" stroke-dasharray="200 25 75 10"/>
<path d="M298 177.5H459" stroke="black" stroke-width="15" stroke-dasharray="2000 0.1 1600 200"/>
<path d="M300 148H483" stroke="black" stroke-width="15" stroke-dasharray="2000 300 1600 0.1"/>
<path d="M302 119H450" stroke="black" stroke-width="15" stroke-dasharray="2000 300 1600 200"/>
<path d="M304 90H504" stroke="black" stroke-width="15" stroke-dasharray="2000 200"/>
</svg>
