<svg width="1162" height="1096" viewBox="0 0 1162 1096" fill="none" xmlns="http://www.w3.org/2000/svg">
<path d="M46.9714 772.5H44.4714V775V1054V1056.5L46.9759 1056.5L1139.98 1054.5L1143.75 1054.49L1142.27 1051.02C1121.52 1002.42 1109.83 963.581 1109.12 922.015C1108.41 880.438 1118.69 835.895 1142.3 775.916L1143.64 772.5H1139.97H46.9714Z" fill="white" stroke="#B0B0B0" stroke-width="5"/>
<path fill-rule="evenodd" clip-rule="evenodd" d="M46.9714 837V828H1121.39C1120.48 831.038 1119.61 834.037 1118.79 837H46.9714ZM46.9714 867V858H1113.55C1112.88 861.035 1112.26 864.034 1111.69 867H46.9714ZM46.9714 895V886H1108.65C1108.27 889.028 1107.94 892.026 1107.67 895H46.9714ZM46.9714 925V916H1106.59C1106.57 919.016 1106.6 922.014 1106.69 925H46.9714ZM46.9714 954V945H1108.12C1108.47 948.001 1108.87 951 1109.32 954H46.9714ZM46.9714 983V974H1113.14C1113.83 976.987 1114.57 979.985 1115.36 983H46.9714ZM46.9714 1013V1004H1121.58C1122.55 1006.97 1123.57 1009.97 1124.64 1013H46.9714Z" fill="#E6E6E6"/>
<path d="M217.971 1051H1160.97V1096H216.471L217.971 1051Z" fill="#24321C"/>
<path d="M217.971 775H1161.47L1085.65 443H238.106L217.971 775Z" fill="#24321C"/>
<path d="M117.971 775H235.971L256.288 440H58.6851L4.47136 867C-16.5286 996 38.9715 1096 117.971 1096H216.471L217.971 1051H117.971C36.9375 1051 29.4715 783 117.971 775Z" fill="#24321C"/>
<path d="M264.971 0H984.472L1085.19 441L342 460L238.227 441L264.971 0Z" fill="#557A42"/>
<path d="M198.472 0C123.972 -1.55568e-05 105.472 55.4997 105.472 71.4999L58.8121 439L151.5 453.5L256.348 439L282.971 0H198.472Z" fill="#557A42"/>
<path fill-rule="evenodd" clip-rule="evenodd" d="M1079.24 414.929C1073.27 399.24 1063.13 385.34 1049.35 373.937C1028.88 357.171 1015.82 351.869 995.301 352.002C979.442 352.106 966.488 355.987 956.196 363.769C939.906 375.998 938.557 393.518 952.938 406.834C959.137 412.61 973.762 418.882 982.272 419.5C995.936 420.452 1006.04 410.651 1001.84 400.514C1000.82 397.888 995.864 393.267 994.148 393.278C993.33 393.283 993.175 394.019 993.532 396.527C993.974 399.402 993.735 399.955 991.875 401.681C987.991 405.197 983.329 404.982 977.97 401.099C972.859 397.519 972.169 394.401 975.217 389.422C978.424 384.013 986.386 379.736 994.633 378.825C999.777 378.24 1009.52 379.524 1015.43 381.567C1021.83 383.791 1028.02 388.71 1030.53 393.531C1032.12 396.52 1032.3 397.866 1032.04 403.746C1031.86 409.38 1031.39 411.343 1029.24 415.704C1025.8 422.768 1020.65 429.475 1016.67 431.95C1001.82 441.231 979.202 443.644 957.719 438.274C944.19 434.872 920.912 422.778 910.259 413.664L910.211 413.622C904.643 408.802 904.548 408.72 900.222 401.239C893.463 389.527 883.53 379.06 868.936 368.44C853.187 356.971 843.252 353.362 826.079 352.923C814.548 352.631 807.285 353.78 797.517 357.457C782.378 363.189 773.488 372.063 771.252 383.589C768.395 397.996 781.65 412.972 802.732 419.019C817.252 423.21 830.832 416.937 830.785 405.978C830.748 402.733 830.325 401.511 828.498 399.135C825.844 395.846 822.137 393.482 821.003 394.347C820.598 394.656 820.606 395.39 821.187 396.121C822.849 398.437 822.301 400.522 819.384 402.746C815.413 405.772 810.996 405.617 805.97 402.221C797.235 396.339 802.183 385.959 815.943 381.154C819.933 379.72 821.157 379.59 827.864 379.791C839.559 380.204 848.013 382.966 853.799 388.377C863.468 397.315 862.642 410.607 851.54 425.986C841.723 439.521 814.895 445.451 788.668 439.806C780.635 438.083 774.722 435.795 762.386 429.507C742.319 419.352 735.056 413.521 728.305 402.422C720.053 388.883 712.522 381.033 696.772 369.503C685.309 361.067 679.717 358.225 670.371 356.021C655.286 352.384 639.028 353.348 624.702 358.768C616.969 361.635 606.512 369.296 603.302 374.521C595.036 387.739 598.379 400.943 612.645 411.442C621.469 417.997 635.093 422.501 643.093 421.469C644.562 421.276 647.738 420.214 650.015 419.158C660.343 414.437 661.766 403.284 652.862 396.914C651.378 395.821 649.898 395.096 649.572 395.221C649.247 395.345 649.184 396.999 649.451 398.834C649.814 401.954 649.655 402.323 647.387 404.113C645.442 405.595 644.22 405.971 641.604 405.988C638.743 406.006 637.593 405.585 634.544 403.523C629.6 400.188 628.507 397.562 630.252 393.02C631.758 388.908 636.535 384.958 642.477 382.715C650.21 379.787 662.56 380.257 672.249 383.807C684.565 388.318 690.481 397.893 687.918 409.42C686.056 418.005 679.478 428.824 673.56 433.148C663.752 440.315 645.975 444.227 629.607 442.803C619.132 441.953 607.981 439.148 600.089 435.403C586.031 428.76 579.448 425.129 573.185 420.823C564.283 414.636 560.561 410.925 556.142 403.606C548.389 390.738 538.211 380.273 523.208 369.717C512.822 362.437 507.559 359.777 498.867 357.569C469.594 350.167 436.529 361.159 428.666 380.926C426.362 386.636 426.621 394.777 429.217 400.087C432.904 407.778 440.336 414.159 450.526 418.623C463.837 424.292 473.893 424.349 481.348 418.606C485.48 415.456 486.6 413.306 486.544 408.53C486.488 403.755 485.319 401.619 481.195 398.524C478.31 396.461 475.687 395.927 476.689 397.696C479.107 401.782 477.513 405.283 472.544 406.846C468.879 408.033 465.355 407.26 461.889 404.528C458.507 401.917 457.507 400.331 457.475 397.576C457.473 390.413 467.934 383.058 479.532 382.125C484.596 381.725 494.423 383.069 499.431 384.873C505.259 386.917 510.208 390.619 513.203 395.07C515.782 398.91 515.952 399.46 516.027 405.889C516.091 411.338 515.707 413.483 514.275 416.921C509.18 428.649 501.907 435.922 491.243 439.91C482.126 443.276 476.985 444.105 464.559 444.186C446.819 444.241 438.373 442.092 418.967 432.483C405.975 426.078 391.468 416.008 388.389 411.314C387.39 409.79 384.642 405.521 382.31 401.863C374.566 389.79 366.127 381.212 351.535 370.776C342.466 364.284 340.244 363.074 333.511 360.607C310.852 352.489 284.97 355.413 268.113 368.075C254.091 378.514 250.896 392.006 259.467 404.808C267.038 416.086 287.588 425.626 299.908 423.463C312.309 421.301 318.478 410.484 312.087 402.26C308.352 397.447 303.263 395.705 305.438 399.977C307.445 403.76 303 408.197 297.277 408.235C293.517 408.259 288.578 405.352 286.247 401.755C282.583 396.085 290.162 386.973 301.164 384.024C303.039 383.522 307.285 383.066 310.555 383.044C325.024 382.95 337.6 388.684 342.281 397.471C343.701 400.094 344.134 402.173 344.184 406.398C344.264 413.316 342.684 418.041 337.547 426.157C334.416 431.075 332.559 433.108 328.991 435.581C320.12 441.772 307.243 445.031 293.709 445.278C281.842 445.415 270.353 444.26 258.947 439.327C232.017 427.678 220.715 420.822 213.082 411.346C207.579 404.546 204.808 401.703 197.518 395.293C190.241 388.939 173.623 377.679 165.177 373.387C152.666 367.145 135.304 364.246 121.935 366.197C103.777 368.872 94.6277 378.794 93.7668 390.499C93.4406 394.234 95.2614 401.034 97.4248 404.49C102.921 413.186 108.567 420.041 121.372 424.333C128.71 426.786 129.889 427.009 134.774 427.009C139.358 427.009 140.508 426.786 143.399 425.337C145.405 424.278 147.267 422.606 148.302 420.933C149.694 418.537 149.785 417.645 148.987 414.245C148.203 410.9 147.654 409.841 145.34 407.667C142.886 405.215 139.812 403.32 138.384 403.32C138.008 403.32 138.322 404.657 138.927 406.274C139.992 408.894 139.96 409.395 138.522 410.956C135.772 413.966 131.011 413.854 125.757 410.677C120.503 407.5 118.663 403.821 120.401 399.697C122.517 394.624 129.342 390.722 137.088 390.109C141.969 389.775 151.225 391.113 156.93 393.008C169.986 397.411 177.695 408.169 176.324 420.264C175.587 426.73 171.524 435.035 167.349 438.38C149.327 452.911 115.037 442.133 100.051 435.581C85.0657 429.028 66.0233 410.677 66.0233 395.293C66.0233 395.293 65.1449 397.064 63.7812 399.862L55.2881 466.755C59.865 466.567 64.482 466.307 67.9195 466.113C71.1885 465.929 73.3909 465.805 73.4778 465.86C73.8438 466.138 78.4471 465.581 83.7855 464.633C105.253 461.01 126.516 459.394 151.689 459.394C177.013 459.394 196.453 460.899 221.614 464.689C227.534 465.581 232.562 466.194 232.836 466.082C233.098 465.915 238.011 465.079 243.726 464.132C261.31 461.346 275.154 459.749 293.709 459.279C306.415 458.872 306.891 459.628 307.673 460.87C308.417 462.051 309.437 463.671 321.5 465.15C324.921 465.544 341.542 465.364 357.139 465.196C371.398 465.042 384.801 464.897 386.483 465.207C392.383 466.332 393.282 466.326 397.605 465.502C412.695 462.526 436.863 459.797 459.822 458.545C488.5 457.011 521.794 458.753 553.08 463.508L564.137 465.15L570.663 463.944C580.208 462.168 598.329 459.723 611.885 458.41C628.625 456.77 671.952 456.487 688.729 457.908C702.15 459.045 721.389 461.369 730.319 462.902C736.298 463.904 736.462 463.903 744.62 462.442C784.599 455.446 830.281 453.801 871.859 457.815C882.909 458.907 906.655 462.119 907.971 462.784C908.3 462.904 912.79 462.324 917.848 461.434C967.945 452.78 1020.92 452.434 1071.21 460.433C1075.06 461.058 1085.11 461.501 1089.89 461.598L1085.51 442.415C1084.95 441.661 1084.36 440.903 1083.73 440.146C1083.7 437.683 1083.65 435.644 1083.56 433.867L1079.24 414.929Z" fill="#24321C"/>
<path d="M388 676H842" stroke="#557A42" stroke-width="15" stroke-miterlimit="1.41421" stroke-dasharray="200 25 75 10"/>
<path d="M428 646H791" stroke="#557A42" stroke-width="15" stroke-dasharray="240 48 720 96"/>
<path d="M525 546H673" stroke="#557A42" stroke-width="15" stroke-dasharray="30 10 120 10"/>
<path d="M498 517H698" stroke="#557A42" stroke-width="15" stroke-dasharray="80 10"/>
<path d="M331.218 101.5H856.35C863.586 101.5 869.79 106.665 871.102 113.781L893.408 234.781C895.107 243.999 888.03 252.5 878.656 252.5H323.194C314.519 252.5 307.653 245.163 308.227 236.507L316.251 115.507C316.773 107.626 323.319 101.5 331.218 101.5Z" fill="#5C8647" stroke="#24321C" stroke-width="10"/>
<path d="M475.5 153L742 153M526.5 194H687" stroke="#24321C" stroke-width="20" stroke-dasharray="80 12 120 30 90 60"/>
<path d="M418.583 479.56C408.167 482.558 405.619 496.886 414.04 504.66C421.242 511.213 431.214 510.214 435.867 502.55C442.847 490.999 431.546 475.894 418.583 479.56ZM433.54 487.889C436.31 491.444 436.421 494.553 434.094 500.551C431.435 507.215 426.006 509.103 419.358 505.549C412.71 502.217 412.489 492.332 418.915 487.223C423.236 483.78 430.66 484.224 433.54 487.889Z" fill="#557A42" stroke="#557A42" stroke-width="5"/>
<path d="M406.796 525.935C401.662 531.083 401.772 535.355 406.905 540.503C410.401 544.008 411.165 544.337 415.425 543.789C425.146 542.474 429.406 531.959 422.852 525.387C418.156 520.678 411.82 520.897 406.796 525.935ZM421.979 527.469C425.583 530.864 425.801 534.807 422.525 538.312C419.357 541.708 414.66 541.598 411.274 538.093C407.888 534.807 407.779 530.097 410.837 526.154C413.677 522.54 417.282 522.978 421.979 527.469Z" fill="#557A42" stroke="#557A42" stroke-width="5"/>
<path d="M424.594 562.758C423.911 563.133 422.755 564.259 422.072 565.278C421.074 566.832 420.864 567.637 421.074 569.781C421.284 571.979 421.652 572.73 423.228 574.231C424.752 575.678 425.54 576 427.484 576C429.428 576 430.216 575.678 431.739 574.231C437.414 568.923 431.424 559.22 424.594 562.758ZM429.533 563.187C433 564.795 433.316 569.888 430.058 572.73C427.641 574.928 426.013 574.874 423.753 572.569C421.021 569.781 421.652 565.867 425.277 563.669C427.221 562.436 427.746 562.383 429.533 563.187Z" fill="#557A42" stroke="#557A42" stroke-width="5"/>
<path d="M200.6 657.363C198.6 658.163 195 664.829 195 667.763C195 671.096 201.133 676.429 205 676.429C209.267 676.429 216.333 669.763 216.333 665.763C216.333 659.629 207.267 654.696 200.6 657.363ZM209.4 659.896C216.067 664.429 211.267 674.296 202.733 673.496C198.733 673.096 198.333 672.696 197.933 668.163C197.667 664.563 198.333 662.429 200.2 660.563C203.533 657.229 205.4 657.096 209.4 659.896Z" fill="#557A42" stroke="#557A42" stroke-width="5"/>
<path d="M166.075 562.563C149.408 570.83 147.808 597.096 163.141 607.363C182.075 619.763 205.408 602.43 200.341 579.763C196.741 563.63 180.475 555.496 166.075 562.563ZM181.541 568.296C188.875 572.163 195.141 581.763 195.141 589.363C195.141 598.83 185.808 609.096 177.408 609.096C168.075 609.096 156.475 596.296 156.475 586.03C156.475 572.696 170.741 562.696 181.541 568.296Z" fill="#557A42" stroke="#557A42" stroke-width="5"/>
<path d="M161.275 624.763C152.208 627.563 146.875 637.696 149.808 646.63C153.941 659.163 171.941 660.23 179.141 648.363C184.608 639.563 181.141 629.296 171.675 625.296C166.741 623.163 166.608 623.163 161.275 624.763ZM172.875 627.563C177.008 629.43 179.141 633.963 179.141 640.763C179.141 647.83 175.541 651.43 168.608 651.43C161.941 651.43 157.941 648.096 156.875 641.83C155.808 634.896 157.275 630.496 161.541 628.23C165.941 625.83 168.608 625.696 172.875 627.563Z" fill="#557A42" stroke="#557A42" stroke-width="5"/>
<path d="M171.141 695.163C158.341 701.563 156.875 720.363 168.741 726.896C173.275 729.563 181.808 729.163 186.741 726.096C198.475 719.03 198.208 700.363 186.341 694.763C180.741 692.096 176.875 692.23 171.141 695.163ZM184.875 704.763C189.941 710.363 190.075 719.296 185.141 723.296C179.941 727.296 174.341 728.096 170.341 725.43C162.875 720.496 161.141 706.763 167.408 701.563C171.941 697.963 180.075 699.43 184.875 704.763Z" fill="#557A42" stroke="#557A42" stroke-width="5"/>
<path d="M946.875 486.54C941.941 487.34 937.141 494.274 937.141 500.407C937.141 504.407 938.075 506.54 941.008 509.607C950.075 518.674 964.341 510.007 961.941 497.074C960.608 490.14 953.808 485.34 946.875 486.54ZM956.341 491.607C963.008 498.407 959.408 509.474 950.608 509.474C947.941 509.474 945.675 508.274 943.275 505.34C939.141 500.407 938.875 496.407 942.608 491.607C946.208 487.074 951.675 487.074 956.341 491.607Z" fill="#557A42" stroke="#557A42" stroke-width="5"/>
<path d="M953.275 528.941C949.808 533.341 949.675 537.474 953.141 541.074C958.741 547.207 966.875 546.541 969.808 539.874C971.808 535.074 971.275 532.807 967.408 528.407C963.541 524.14 956.875 524.407 953.275 528.941ZM966.475 529.474C972.608 535.607 967.275 545.874 959.541 542.941C953.675 540.674 952.208 530.274 957.541 528.141C962.075 526.407 963.541 526.54 966.475 529.474Z" fill="#557A42" stroke="#557A42" stroke-width="5"/>
<path d="M979.475 588.341C972.541 592.607 970.408 596.074 969.741 603.807C968.675 616.607 977.075 625.407 989.075 624.074C1007.61 622.074 1011.21 594.874 994.008 587.674C988.008 585.141 984.275 585.274 979.475 588.341ZM994.141 592.741C999.208 595.007 1003.34 602.341 1002.27 607.274C1001.07 613.141 996.941 618.474 991.341 621.141C987.341 623.007 986.008 623.141 982.541 621.674C977.741 619.674 973.475 613.274 973.475 607.941C973.475 600.607 981.741 591.407 988.408 591.141C989.608 591.141 992.275 591.807 994.141 592.741Z" fill="#557A42" stroke="#557A42" stroke-width="5"/>
<path d="M966.008 633.808C957.741 637.141 954.541 651.008 960.275 658.341C965.875 665.408 974.141 667.541 981.475 663.808C987.075 660.874 989.475 656.741 989.475 649.674C989.475 637.541 977.208 629.274 966.008 633.808ZM979.741 638.608C982.675 641.541 983.075 642.874 982.408 648.208C981.475 656.741 976.541 661.008 968.941 660.074C962.275 659.141 960.141 656.341 960.141 648.341C960.141 639.674 963.875 635.141 970.941 635.141C974.941 635.141 977.208 636.074 979.741 638.608Z" fill="#557A42" stroke="#557A42" stroke-width="5"/>
<path d="M975.924 682.601C973.498 685.676 973.401 687.598 975.439 690.48C978.932 695.477 986.211 695.093 988.443 689.712C991.549 682.408 980.873 676.354 975.924 682.601ZM984.561 682.985C986.696 685.099 987.182 689.616 985.338 691.441C983.688 693.075 979.709 692.883 977.574 690.961C975.633 689.231 975.245 683.946 976.991 682.216C978.738 680.486 982.426 680.871 984.561 682.985Z" fill="#557A42" stroke="#557A42" stroke-width="5"/>
</svg>
