<svg width="1162" height="1096" viewBox="0 0 1162 1096" fill="none" xmlns="http://www.w3.org/2000/svg">
<path d="M46.9714 772.5H44.4714V775V1054V1056.5L46.9759 1056.5L1139.98 1054.5L1143.75 1054.49L1142.27 1051.02C1121.52 1002.42 1109.83 963.581 1109.12 922.015C1108.41 880.438 1118.69 835.895 1142.3 775.916L1143.64 772.5H1139.97H46.9714Z" fill="white" stroke="#B0B0B0" stroke-width="5"/>
<path fill-rule="evenodd" clip-rule="evenodd" d="M46.9714 837V828L1121.39 828C1120.48 831.038 1119.61 834.037 1118.79 837H46.9714ZM46.9714 867V858H1113.55C1112.88 861.035 1112.26 864.034 1111.69 867H46.9714ZM46.9714 895V886H1108.65C1108.27 889.028 1107.94 892.026 1107.67 895H46.9714ZM46.9714 925V916H1106.59C1106.57 919.016 1106.6 922.014 1106.69 925H46.9714ZM46.9714 954V945H1108.12C1108.47 948.001 1108.87 951 1109.32 954H46.9714ZM46.9714 983V974H1113.14C1113.83 976.987 1114.57 979.985 1115.36 983H46.9714ZM46.9714 1013V1004H1121.58C1122.55 1006.97 1123.57 1009.97 1124.64 1013H46.9714Z" fill="#E6E6E6"/>
<path d="M217.971 1051H1160.97V1096H216.471L217.971 1051Z" fill="#557A42"/>
<path d="M264.971 0H984.471L1161.47 775H217.971L264.971 0Z" fill="#557A42"/>
<path d="M105.471 71.4999C105.471 55.4997 123.971 -1.55568e-05 198.471 0H282.971L235.971 775H117.971C29.4715 783 36.9375 1051 117.971 1051H217.971L216.471 1096H117.971C38.9715 1096 -16.5286 996 4.47137 867L105.471 71.4999Z" fill="#24321C"/>
<path d="M1099 702L894 702M1089 676L925 676" stroke="#24321C" stroke-width="12" stroke-dasharray="15 10 60 10 150 100"/>
<path d="M293 702H476" stroke="#24321C" stroke-width="15" stroke-dasharray="30 10 80 0.1"/>
<path d="M295 673H443" stroke="#24321C" stroke-width="15" stroke-dasharray="45 5 60 10"/>
<path d="M297 644H497" stroke="#24321C" stroke-width="15" stroke-dasharray="90 10"/>
<path d="M393.137 76.5H879.057C887.539 76.5 894.8 82.5827 896.286 90.9334L963.387 467.933C965.295 478.657 957.049 488.5 946.157 488.5H379.894C369.988 488.5 362.057 480.285 362.404 470.386L375.648 93.3856C375.979 83.9656 383.711 76.5 393.137 76.5Z" fill="#5C8647" stroke="#24321C" stroke-width="15" stroke-linejoin="round"/>
<path fill-rule="evenodd" clip-rule="evenodd" d="M640.663 387.174L642.093 407.587L643.497 428H659.559H675.62L674.302 407.328L673.012 386.682L688.825 395.453C697.539 400.291 704.69 404.224 704.712 404.172C704.761 404.12 707.765 398.247 711.387 391.132C715.009 384.017 718.174 377.834 718.404 377.394L718.843 376.592L694.639 363.165L670.435 349.737L668.45 319.777C666.793 294.759 666.519 289.843 666.816 290.024C666.924 290.076 670.042 291.812 674.971 294.555C679.838 297.264 686.47 300.955 693.712 304.978L720.257 319.725L722.078 347.227L723.899 374.704H739.83H755.762L754.553 356.464C753.888 346.425 753.397 338.224 753.449 338.224C753.5 338.224 761.648 342.726 771.52 348.236C781.416 353.721 789.721 358.249 789.954 358.249C790.603 358.275 804.485 331.238 804.043 330.825C803.875 330.643 795.697 326.064 785.856 320.631C776.013 315.172 767.809 310.593 767.615 310.411C767.341 310.179 770.324 308.29 781.861 301.382C789.883 296.57 796.429 292.534 796.419 292.379C796.393 291.991 778.959 265.006 778.726 265.006C778.596 265.006 768.551 270.957 756.418 278.253C744.26 285.548 734.137 291.499 733.904 291.499C733.336 291.525 680.404 262.082 680.624 261.875H615.965C616.129 262.005 597.6 273.233 567.574 291.189L566.429 291.887L542.251 278.459C523.801 268.214 518 265.11 517.808 265.342C517.28 265.963 504.133 291.965 504.108 292.379C504.103 292.689 508.521 295.25 519.762 301.486C528.367 306.246 535.418 310.23 535.449 310.308C535.454 310.386 527.61 315.146 518.043 320.89L500.602 331.342L501.095 332.144C501.359 332.61 505.345 338.819 509.963 345.96C516.257 355.713 518.436 358.896 518.714 358.792C518.915 358.689 526.542 354.161 535.661 348.702C544.781 343.243 552.432 338.69 552.686 338.612C553.088 338.431 553.179 339.414 554.324 356.697L555.534 374.962H571.466H587.397L585.622 347.383L583.873 319.803L608.412 305.056C610.382 303.875 612.305 302.721 614.155 301.612C624.99 295.113 633.31 290.123 633.653 289.947L634.326 289.559L636.337 319.907L638.321 350.254L615.421 363.941C602.84 371.495 592.579 377.705 592.61 377.782C593.286 378.998 610.282 405.233 610.385 405.233C610.463 405.233 617.318 401.171 625.615 396.203L640.663 387.174Z" fill="#24321C"/>
<path d="M568.133 237.144C568.528 237.253 615.543 261.571 615.879 261.876H680.714C680.872 261.701 722.448 237.971 723.671 237.383C724.283 237.1 724.958 237.405 747.319 248.617C759.992 254.974 770.425 260.09 770.516 260.003C771.131 259.394 783.793 237.013 783.587 236.839C783.485 236.752 776.656 233.291 768.475 229.198C760.269 225.083 753.563 221.643 753.531 221.534C753.501 221.447 760.5 217.594 769.075 212.978C777.651 208.385 784.797 204.553 784.959 204.444C785.171 204.335 783.016 201.113 777.076 192.753C772.58 186.418 768.815 181.215 768.715 181.171C768.616 181.15 761.326 185.003 752.492 189.727L736.443 198.349L735.388 183.523L734.359 168.719H719.316H704.274L705.726 191.382L707.155 214.045L684.663 226.128C672.293 232.768 662.029 238.254 661.864 238.32C661.627 238.407 661.254 233.508 660.003 213.893L658.45 189.357L679.395 178.102C690.899 171.919 700.312 166.781 700.306 166.694C700.294 166.52 684.601 144.248 684.133 143.769C683.976 143.595 679.845 145.707 670.73 150.584C663.491 154.48 657.281 157.79 656.929 157.964L656.271 158.29L655.101 140.634L653.933 123H638.89H623.848L625.002 140.417C625.636 149.996 626.107 157.833 626.058 157.833C626.01 157.833 619.11 154.393 610.728 150.192C602.346 145.99 595.473 142.594 595.427 142.637C595.225 142.877 582.241 165.54 582.203 165.692C582.187 165.823 592.508 171.092 605.13 177.405L628.093 188.922L629.818 213.849L631.517 238.777L611.892 228.936C601.076 223.515 589.909 217.92 587.047 216.484L581.829 213.893L580.325 191.186L578.822 168.501L563.855 168.544L548.865 168.61L549.725 183.414L550.586 198.24L533.068 189.444C523.407 184.611 515.504 180.692 515.459 180.736C515.437 180.78 512.411 186.005 508.73 192.34C503.442 201.505 502.146 203.922 502.424 204.096C502.627 204.227 510.408 208.145 519.742 212.804C529.078 217.485 536.711 221.36 536.715 221.425C536.719 221.491 530.349 224.952 522.548 229.154C511.864 234.88 508.403 236.839 508.516 237.079C508.654 237.34 520.916 254.691 523.827 258.719C524.23 259.307 524.701 259.829 524.85 259.873C524.974 259.916 534.68 254.8 546.394 248.508C558.531 241.999 567.887 237.1 568.133 237.144Z" fill="#24321C"/>
</svg>
