<svg width="1161" height="1096" viewBox="0 0 1161 1096" fill="none" xmlns="http://www.w3.org/2000/svg">
<path d="M47 772.5H44.5V775V1054V1056.5L47.0046 1056.5L1140 1054.5L1143.78 1054.49L1142.3 1051.02C1121.55 1002.42 1109.85 963.581 1109.15 922.015C1108.44 880.438 1118.72 835.895 1142.33 775.916L1143.67 772.5H1140H47Z" fill="white" stroke="#B0B0B0" stroke-width="5"/>
<path fill-rule="evenodd" clip-rule="evenodd" d="M46.9714 837V828H1121.39C1120.48 831.038 1119.61 834.037 1118.79 837H46.9714ZM46.9714 867V858H1113.55C1112.88 861.035 1112.26 864.034 1111.69 867H46.9714ZM46.9714 895V886H1108.65C1108.27 889.028 1107.94 892.026 1107.67 895H46.9714ZM46.9714 925V916H1106.59C1106.57 919.016 1106.6 922.014 1106.69 925H46.9714ZM46.9714 954V945H1108.12C1108.47 948.001 1108.86 951 1109.32 954H46.9714ZM46.9714 983V974H1113.14C1113.83 976.987 1114.57 979.985 1115.36 983H46.9714ZM46.9714 1013V1004H1121.58C1122.55 1006.97 1123.57 1009.97 1124.64 1013H46.9714Z" fill="#E6E6E6"/>
<path d="M217.971 1051H1160.97V1096H216.471L217.971 1051Z" fill="#557A42"/>
<path d="M208.936 0H969.178L1161 775H158L208.936 0Z" fill="#557A42"/>
<path d="M105.471 71.4999C105.471 55.4997 123.971 -1.55568e-05 198.471 0H282.971L235.971 775H117.971C29.4715 783 36.9663 1051 118 1051H218L216.471 1096H117.971C38.9715 1096 -16.5286 996 4.47137 867L105.471 71.4999Z" fill="#557A42"/>
<path d="M1110.8 572H145C101.5 572 49.606 594.194 33 642L13 799.99C31.4715 754.99 65 702 141 702H1142.9L1110.8 572Z" fill="#24321C"/>
<path d="M982.299 53.0104H216C165.5 53.0104 115.5 75.5001 98.894 123.306L86 225C104.471 180 140 138.5 216 138.5H1003.46L982.299 53.0104Z" fill="#24321C"/>
<path d="M390 649H844" stroke="#496839" stroke-width="12" stroke-miterlimit="1.41421" stroke-dasharray="200 25 75 10"/>
<path d="M430 619H793" stroke="#496839" stroke-width="12" stroke-dasharray="240 48 720 96"/>
<path d="M454 78H720.5M506 110H666.5" stroke="#496839" stroke-width="16" stroke-dasharray="80 10 60 25 100 30"/>
<path d="M429.517 475.262C479.492 486.752 508.372 471.765 531.945 437.294C558.348 483.255 639.592 501.24 678.945 437.294C710.327 482.755 752.348 483.255 779.517 475.262" stroke="#24321C" stroke-width="20" stroke-miterlimit="16"/>
<path d="M647.749 311.736C648.925 340.152 627.298 362.858 599.865 362.858C572.431 362.858 548.925 340.152 547.749 311.736C547.499 305.693 549.66 297.889 554.165 288.343C558.593 278.959 564.767 268.935 571.43 258.596C572.971 256.204 574.545 253.786 576.125 251.36C581.236 243.509 586.407 235.565 590.742 228.095C591.826 226.228 592.885 224.344 593.901 222.453C595.058 224.339 596.259 226.214 597.483 228.071C602.595 235.826 608.674 244.07 614.665 252.196C616.253 254.35 617.836 256.496 619.392 258.622C626.969 268.973 634.044 278.998 639.309 288.386C644.667 297.941 647.5 305.725 647.749 311.736Z" stroke="#24321C" stroke-width="20"/>
</svg>
