<svg width="1162" height="1096" viewBox="0 0 1162 1096" fill="none" xmlns="http://www.w3.org/2000/svg">
<path d="M46.9712 772.5H44.4712V775V1054V1056.5L46.9758 1056.5L1139.98 1054.5L1143.75 1054.49L1142.27 1051.02C1121.52 1002.42 1109.83 963.581 1109.12 922.015C1108.41 880.439 1118.69 835.895 1142.3 775.916L1143.64 772.5H1139.97H46.9712Z" fill="white" stroke="#B0B0B0" stroke-width="5"/>
<path fill-rule="evenodd" clip-rule="evenodd" d="M46.9712 837V828H1121.39C1120.48 831.038 1119.61 834.038 1118.79 837H46.9712ZM46.9712 867V858H1113.55C1112.88 861.035 1112.26 864.034 1111.69 867H46.9712ZM46.9712 895V886H1108.65C1108.27 889.028 1107.94 892.027 1107.67 895H46.9712ZM46.9712 925V916H1106.59C1106.57 919.016 1106.6 922.015 1106.69 925H46.9712ZM46.9712 954V945H1108.12C1108.47 948.002 1108.86 951 1109.32 954H46.9712ZM46.9712 983V974H1113.14C1113.83 976.987 1114.57 979.985 1115.36 983H46.9712ZM46.9712 1013V1004H1121.58C1122.55 1006.97 1123.57 1009.97 1124.64 1013H46.9712Z" fill="#E6E6E6"/>
<path d="M217.972 1051H1160.97V1096H216.472L217.972 1051Z" fill="#557A42"/>
<path d="M264.972 0H984.472L1161.47 775H217.972L264.972 0Z" fill="#557A42"/>
<path d="M105.471 71.4999C105.471 55.4997 123.971 -1.55568e-05 198.471 0H282.971L235.971 775H117.971C29.4715 783 36.9375 1051 117.971 1051H217.971L216.471 1096H117.971C38.9715 1096 -16.5286 996 4.47137 867L105.471 71.4999Z" fill="black"/>
<path d="M396.972 328.5H579.972" stroke="black" stroke-width="15" stroke-dasharray="30 10 120 10"/>
<path d="M398.972 299.5H546.972" stroke="black" stroke-width="15" stroke-dasharray="25 5 80 10"/>
<path d="M400.972 270.5H600.972" stroke="black" stroke-width="15" stroke-dasharray="80 10"/>
<path d="M388.855 73.5H883.677C890.961 73.5 897.192 78.7325 898.451 85.9064L919.429 205.406C921.041 214.588 913.976 223 904.655 223H385.108C376.64 223 369.85 215.994 370.116 207.53L373.862 88.0301C374.116 79.9327 380.753 73.5 388.855 73.5Z" fill="#5C8647" stroke="black" stroke-width="10"/>
<path d="M839.456 868.218C839.456 864.812 835.971 858 829 858H938.544C945.515 858 949 863.109 949 868.218L942.029 1009L894.228 956.775L845.929 1009L839.456 868.218Z" fill="#314626"/>
<path d="M756.5 449L1049 522.5C1009.37 594.503 993.071 645.574 936.5 687C815.954 689.024 746.905 657.16 625 628.5L756.5 449Z" fill="black" fill-opacity="0.2"/>
<path fill-rule="evenodd" clip-rule="evenodd" d="M904.5 588C941 634.5 1012 568.5 1049 522.5C950 672 842 671.5 625 628.5C733.5 645 891.5 661 904.5 588Z" fill="#C8C39B"/>
<path d="M756.5 449L1049 522.5C1012 568.5 941 634.5 904.5 588C891.5 661 733.5 645 625 628.5L756.5 449Z" fill="#DFDAAD"/>
<path d="M734 517.067L890.294 555.709" stroke="#555555" stroke-opacity="0.5" stroke-width="10" stroke-dasharray="100 10 1600 200"/>
<path d="M749.285 497.598L926.936 541.521" stroke="#555555" stroke-opacity="0.5" stroke-width="6" stroke-dasharray="50 10 1600 0.1"/>
<path d="M764.984 479.2L908.658 514.722" stroke="#555555" stroke-opacity="0.5" stroke-width="8" stroke-dasharray="40 10 50 5"/>
</svg>
