<svg width="1162" height="1096" viewBox="0 0 1162 1096" fill="none" xmlns="http://www.w3.org/2000/svg">
<path d="M47.9988 772.5H45.4988V775V1054V1056.5L48.0034 1056.5L1141 1054.5L1144.78 1054.49L1143.3 1051.02C1122.54 1002.42 1110.85 963.581 1110.15 922.015C1109.44 880.438 1119.72 835.895 1143.33 775.916L1144.67 772.5H1141H47.9988Z" fill="white" stroke="#B0B0B0" stroke-width="5"/>
<path fill-rule="evenodd" clip-rule="evenodd" d="M47.9702 837V828L1122.39 828C1121.48 831.038 1120.61 834.037 1119.79 837H47.9702ZM47.9702 867V858H1114.55C1113.88 861.035 1113.26 864.034 1112.69 867H47.9702ZM47.9702 895V886H1109.65C1109.27 889.028 1108.94 892.026 1108.66 895H47.9702ZM47.9702 925V916H1107.59C1107.57 919.016 1107.6 922.014 1107.69 925H47.9702ZM47.9702 954V945H1109.12C1109.47 948.001 1109.86 951 1110.32 954H47.9702ZM47.9702 983V974H1114.14C1114.83 976.987 1115.57 979.985 1116.36 983H47.9702ZM47.9702 1013V1004H1122.57C1123.55 1006.97 1124.57 1009.97 1125.64 1013H47.9702Z" fill="#E6E6E6"/>
<path d="M218.97 1051H1161.97V1096H217.47L218.97 1051Z" fill="#557A42"/>
<path d="M209.934 0H970.177L1162 775H158.999L209.934 0Z" fill="#557A42"/>
<path d="M106.47 71.4999C106.47 55.4997 124.97 -1.55568e-05 199.47 0H283.97L236.97 775H118.97C30.4703 783 37.9651 1051 118.999 1051H218.999L217.47 1096H118.97C39.9703 1096 -15.5298 996 5.47015 867L106.47 71.4999Z" fill="#557A42"/>
<path d="M934.226 490.781C935.926 499.999 928.849 508.5 919.475 508.5H309.869C301.194 508.5 294.328 501.163 294.902 492.507L317.25 155.508C317.772 147.626 324.318 141.5 332.217 141.5H857.349C864.584 141.5 870.789 146.665 872.1 153.781L876.858 152.904L872.1 153.781L934.226 490.781Z" fill="#5C8647" stroke="#24321C" stroke-width="10"/>
<path d="M502.499 555L768.999 555M553.499 596H713.999" stroke="#24321C" stroke-width="20" stroke-dasharray="60 6 90 15 80 30"/>
<path d="M126.022 147.545C115.608 133.003 148.31 110.399 158.338 124.403L183.51 158.851L553.935 670.02C554.629 670.977 555.164 672.04 555.519 673.168L574.476 733.314C575.364 736.13 572.077 738.4 569.758 736.573L520.661 697.888C519.848 697.247 519.129 696.494 518.526 695.652L151.141 182.598L126.022 147.545Z" fill="#292929" fill-opacity="0.45"/>
<path d="M145.666 129.993C135.253 115.451 167.954 92.8472 177.983 106.851L202.885 141.197L169.819 163.721L145.666 129.993Z" fill="#F4A5BB"/>
<path d="M163.498 155.109C153.085 140.567 186.502 118.021 196.53 132.025L202.883 141.198L169.818 163.721L163.498 155.109Z" fill="#D9D9D9"/>
<path d="M203.154 141.299L573.579 652.468C574.273 653.425 574.808 654.488 575.163 655.616L594.12 715.762C595.008 718.579 591.722 720.848 589.402 719.021L540.305 680.336C539.492 679.695 538.773 678.942 538.17 678.1L170.786 165.046C160.372 150.504 193.126 127.296 203.154 141.299Z" fill="#FDD34F"/>
<path d="M201.122 142.755L201.122 142.755L201.13 142.766L569.728 651.413L559.327 651.413L558.481 651.413L557.809 651.927L543.235 663.071L542.684 663.492L542.429 664.135L538.444 674.188L172.818 163.59L172.818 163.59C170.201 159.936 170.908 153.19 175.682 148.85L175.682 148.85C179.864 145.048 182.693 142.603 187.711 140.742C193.672 138.53 198.564 139.184 201.122 142.755Z" fill="#FDD34F" stroke="#BD9F3E" stroke-width="5"/>
<path d="M573.897 653.913C574.333 653.913 574.719 654.196 574.85 654.613L594.124 715.763C595.011 718.579 591.725 720.849 589.406 719.021L539.672 679.834C539.322 679.559 539.197 679.086 539.363 678.674L545.078 664.544L559.652 653.913L573.897 653.913Z" fill="#F6D2B7"/>
<path d="M594.123 715.763C595.01 718.579 591.724 720.848 589.405 719.021L572.901 706.017C576.214 698.992 580.188 696.342 588.002 696.342L594.123 715.763Z" fill="black"/>
<path fill-rule="evenodd" clip-rule="evenodd" d="M684.492 589.074C668.174 592.782 612.546 541.975 614.029 524.174C620.689 505.183 627.922 495.247 641.102 483.009C646.294 478.188 800.569 392.52 819.112 393.262C834.317 393.262 889.575 434.798 888.833 447.778C888.833 460.758 875.853 480.784 863.244 491.539C851.006 502.293 701.18 590.557 684.492 589.074Z" fill="#292929" fill-opacity="0.45"/>
<path d="M693.987 564.572L694.447 564.468L694.917 564.509C695.379 564.55 696.491 564.432 698.462 563.877C700.336 563.35 702.697 562.515 705.505 561.389C711.116 559.14 718.304 555.812 726.567 551.709C743.082 543.509 763.704 532.309 784.22 520.708C804.729 509.111 825.098 497.132 841.097 487.386C849.097 482.513 855.993 478.204 861.261 474.786C866.607 471.316 870.089 468.882 871.423 467.709L871.44 467.695L871.457 467.68C877.487 462.537 883.683 455.099 888.359 447.364C893.089 439.542 895.993 431.865 895.993 426.202L895.993 426.116L895.997 426.031C896.035 425.37 895.679 423.971 894.281 421.71C892.954 419.562 890.939 417.034 888.352 414.25C883.189 408.692 876.014 402.396 868.284 396.455C860.561 390.52 852.373 385.007 845.218 380.996C841.638 378.989 838.365 377.384 835.57 376.29C832.708 375.169 830.603 374.686 829.272 374.686H829.212L829.152 374.684C828.478 374.657 827.161 374.84 825.065 375.413C823.044 375.966 820.532 376.814 817.578 377.936C811.674 380.179 804.182 383.449 795.634 387.437C778.547 395.409 757.411 406.172 736.661 417.127C715.917 428.077 695.589 439.202 680.128 447.887C672.396 452.231 665.891 455.959 661.165 458.746C658.799 460.141 656.894 461.292 655.509 462.163C654.815 462.599 654.268 462.954 653.867 463.227C653.516 463.467 653.357 463.591 653.313 463.624C653.301 463.634 653.298 463.636 653.303 463.631C640.539 475.484 633.604 484.965 627.161 503.19C627.131 504.65 627.623 506.718 628.85 509.402C630.149 512.243 632.142 515.495 634.702 519.001C639.816 526.008 646.995 533.766 654.773 540.904C662.552 548.042 670.829 554.467 678.1 558.857C681.739 561.054 685.048 562.693 687.862 563.67C690.752 564.673 692.763 564.85 693.987 564.572Z" fill="#E2929D" stroke="#CB7F89" stroke-width="6"/>
</svg>
