<svg width="1161" height="1096" viewBox="0 0 1161 1096" fill="none" xmlns="http://www.w3.org/2000/svg">
<path d="M47 772.5H44.5V775V1054V1056.5L47.0046 1056.5L1140 1054.5L1143.78 1054.49L1142.3 1051.02C1121.55 1002.42 1109.85 963.581 1109.15 922.015C1108.44 880.438 1118.72 835.895 1142.33 775.916L1143.67 772.5H1140H47Z" fill="white" stroke="#B0B0B0" stroke-width="5"/>
<path fill-rule="evenodd" clip-rule="evenodd" d="M46.9717 837V828L1121.39 828C1120.48 831.038 1119.62 834.037 1118.79 837H46.9717ZM46.9717 867V858H1113.55C1112.88 861.035 1112.26 864.034 1111.69 867H46.9717ZM46.9717 895V886H1108.65C1108.27 889.028 1107.94 892.026 1107.67 895H46.9717ZM46.9717 925V916H1106.59C1106.57 919.016 1106.6 922.014 1106.69 925H46.9717ZM46.9717 954V945H1108.12C1108.47 948.001 1108.87 951 1109.32 954H46.9717ZM46.9717 983V974H1113.14C1113.83 976.987 1114.57 979.985 1115.36 983H46.9717ZM46.9717 1013V1004H1121.58C1122.55 1006.97 1123.57 1009.97 1124.64 1013H46.9717Z" fill="#E6E6E6"/>
<path d="M217.972 1051H1160.97V1096H216.472L217.972 1051Z" fill="#557A42"/>
<path d="M105.471 71.4999C105.471 55.4997 123.971 -1.55568e-05 198.471 0H282.971L235.971 775H117.971C29.4715 783 36.9663 1051 118 1051H218L216.471 1096H117.971C38.9715 1096 -16.5286 996 4.47137 867L105.471 71.4999Z" fill="#557A42"/>
<path d="M208.936 0H969.178L1161 775H158L208.936 0Z" fill="#557A42"/>
<path d="M275.698 88H252.732L250.788 110.883L206.09 636.883L203.785 664H231H975H1005.59L999.499 634.02L892.583 108.02L888.514 88H868.084H275.698Z" stroke="#24321C" stroke-width="50"/>
<path d="M913 515.5L931.5 608.5H831L913 515.5Z" fill="#24321C"/>
<path d="M277.5 515.5L269 608.5H369.5L277.5 515.5Z" fill="#24321C"/>
<path d="M859.537 212L848 135H764L859.537 212Z" fill="#24321C"/>
<path d="M295.104 212L302 135H386L295.104 212Z" fill="#24321C"/>
<path d="M419.746 394.454L386.821 385.797L371.915 381.877L380.247 394.843L400.627 426.557C407.755 440.005 411.64 449.085 414.169 456.982C416.651 464.734 417.883 471.502 419.54 480.608L419.645 481.185C428.42 551.771 387.798 596.021 342.561 639.812C339.713 642.569 336.845 645.327 333.97 648.09C314.235 667.062 294.214 686.308 278.581 707.557C260.535 732.085 248 759.688 248 793.423V815.129V815.267L248.006 815.405L253.313 930.552L253.972 944.857L263.707 934.354L298.876 896.411L333.661 934.332L343.364 944.909L344.075 930.573L349.79 815.427L349.797 815.278V815.129L349.797 793.423C349.797 780.783 354.6 767.712 363.047 753.579C371.496 739.443 383.279 724.744 396.659 708.861C399.875 705.044 403.181 701.161 406.546 697.21C430.941 668.562 458.424 636.287 477.256 598.579C486.736 579.598 490.906 554.891 491.808 529.851C492.713 504.707 490.341 478.68 486.332 456.699C485.938 454.54 485.527 452.415 485.102 450.331C482.525 437.481 480.02 428.189 477.013 420.608C476.83 420.111 476.647 419.621 476.463 419.138L474.991 415.276H474.791H474.684C471.243 408.11 467.205 402.52 462.164 396.291L461.83 395.878L461.428 395.53L433.645 371.465L425.925 364.777L423.843 374.777L419.746 394.454Z" fill="#131A0F" stroke="url(#paint0_linear_305_173)" stroke-width="12"/>
<path d="M408.931 421.276H470.805C467.322 412.994 463.198 407.106 457.5 400.065L429.717 376L424.332 401.864L385.295 391.599L405.811 423.525C420.408 451.027 422.149 461.445 425.578 480.276C423.333 462.358 418.02 442.811 408.931 421.276Z" fill="url(#paint1_linear_305_173)"/>
<path fill-rule="evenodd" clip-rule="evenodd" d="M338.102 652.443C295.678 693.235 254 733.309 254 793.423C254 819 343.797 819.5 343.797 793.423C343.797 761.663 370.834 729.902 402.004 693.287C426.436 664.587 453.407 632.903 471.888 595.899C489.747 560.139 488.312 500.996 480.429 457.776C477.798 443.347 474.447 430.693 470.857 421.276H470.805H408.931C418.02 442.811 423.333 462.358 425.578 480.276C435.427 558.862 386.283 606.115 338.102 652.443Z" fill="url(#paint2_linear_305_173)"/>
<path d="M721.223 372.586C731.515 373.531 740.709 376.535 749.026 381.647C750.392 382.471 769.122 393.398 790.633 405.875C859.166 445.681 908.92 474.706 910.164 475.602C911.115 476.305 912.261 478.001 912.846 479.576C913.334 480.86 913.383 481.635 913.505 487.983L913.651 495.009L917.31 497.092C919.309 498.255 926.455 502.326 933.162 506.178C949.576 515.578 962.388 520.157 963.217 520.932C963.583 521.296 964.144 522.192 964.437 522.968C964.973 524.324 964.973 524.518 964.998 537.432C965.022 551.193 964.876 553.494 963.949 554.657C962.998 555.845 960.778 557.419 957.461 559.236C955.583 560.278 953.925 561.199 953.803 561.296C953.413 561.587 919.415 582.32 912.952 585.93C899.937 593.273 881.142 579.246 870.824 572.416L849.703 560.351L846.948 561.902C841.509 564.978 838.314 565.972 833.778 565.996C830.997 565.996 830.534 565.923 828.485 565.221C825.558 564.227 824.607 563.767 818.9 560.399C816.291 558.849 798.438 548.504 779.268 537.383C710.174 497.31 659.641 467.777 657.397 466.178C654.007 463.707 650.982 459.249 649.373 454.379C647.958 450.066 647.909 449.049 648.056 428.286C648.227 407.619 648.227 407.595 649.763 403.864C653.299 395.215 667.498 377.258 679.448 371.177C688.936 366.355 691.98 374.258 703.663 372.901C707.516 372.465 717.881 372.271 721.223 372.586Z" fill="#292929" fill-opacity="0.45"/>
<path d="M732.993 357.152C742.995 358.078 751.93 361.022 760.012 366.032C761.339 366.839 779.541 377.547 800.445 389.774C867.043 428.782 915.392 457.224 916.601 458.103C917.525 458.791 918.639 460.453 919.208 461.997C919.682 463.255 919.73 464.015 919.848 470.235L919.99 477.12L919.208 504.854L857.847 541.152L855.169 542.672C849.884 545.687 846.779 546.66 842.371 546.684C839.669 546.684 839.219 546.613 837.228 545.924C834.384 544.951 833.46 544.5 827.914 541.2C825.378 539.68 808.029 529.542 789.4 518.645C722.257 479.376 673.149 450.434 670.969 448.867C667.674 446.446 664.736 442.077 663.171 437.305C661.797 433.079 661.749 432.082 661.891 411.735L661.892 411.727C661.964 402.851 662.005 397.862 662.154 394.75C662.344 390.764 662.712 389.856 663.55 387.803C666.987 379.327 674.429 372.205 686.042 366.245C695.262 361.521 704.576 358.79 715.929 357.461C719.673 357.033 729.746 356.844 732.993 357.152Z" fill="white"/>
<path d="M919.848 470.235L919.99 477.12L919.208 504.854L857.847 541.152L855.169 542.672C849.884 545.687 846.779 546.66 842.371 546.684C839.669 546.684 839.219 546.613 837.228 545.924C834.384 544.951 833.46 544.5 827.914 541.2C825.378 539.68 808.029 529.542 789.4 518.645C722.257 479.376 673.149 450.434 670.969 448.867C667.674 446.446 664.736 442.077 663.171 437.305C661.797 433.079 661.749 432.082 661.891 411.735L661.892 411.727C661.964 402.851 662.005 397.862 662.154 394.75C662.344 390.764 662.712 389.856 663.55 387.803C662.103 396.008 663.55 401.042 668.756 404.817L827.914 499.192C837.228 504.225 844.238 503.596 853.421 499.192L919.633 464.002C919.772 466.652 919.818 467.989 919.848 470.235Z" fill="#F3F3F3"/>
<path fill-rule="evenodd" clip-rule="evenodd" d="M923.545 479.162L919.99 477.12L857.848 510.517V541.152L878.372 552.976C889.654 559.505 899.797 565.393 900.911 566.081C903.424 567.696 905.794 568.527 907.429 568.384C908.424 568.289 909.538 567.767 914.421 564.989C920.701 561.452 953.74 542.363 954.119 542.078C954.238 541.983 955.849 541.081 957.674 540.06C960.897 538.279 963.054 536.736 963.979 535.573C964.879 534.433 965.021 532.178 964.998 518.692L964.998 518.666C964.974 506.038 964.974 505.847 964.453 504.518C964.168 503.759 963.623 502.88 963.268 502.524C962.462 501.764 954.901 497.277 938.951 488.065C935.843 486.265 932.638 484.416 929.924 482.851C926.947 481.134 924.562 479.758 923.545 479.162Z" fill="#BEBEBE"/>
<path d="M959.968 508.629L908.392 536.942V562.108L959.968 531.908V508.629Z" fill="#969696"/>
<path d="M942.644 518.139L908.393 536.942V554.839L909.022 555.188C909.241 555.353 909.379 555.358 909.651 555.188L954.308 529.392V524.988L942.644 518.139Z" fill="#707070"/>
<path d="M903.99 517.437L911.538 513.033L896.442 504.225L888.895 508.629L903.99 517.437Z" fill="#969696"/>
<path d="M926.633 504.225L919.085 508.629L903.99 499.821L911.538 495.417L926.633 504.225Z" fill="#969696"/>
<path d="M808.886 429.354L788.13 427.467L791.275 439.421L798.459 435.315L835.932 457.037L818.321 456.408L808.886 450.117L813.289 447.6L803.225 441.937L790.646 448.858L800.709 455.15L804.483 452.633L815.176 458.925L842.221 460.812L856.688 469.196C855.579 470.406 855.057 471.761 855.357 473.037C856.026 475.884 860.537 477.26 865.433 476.109C870.33 474.958 873.756 471.716 873.087 468.869C872.418 466.021 867.907 464.646 863.011 465.796C862.105 466.009 861.25 466.294 860.461 466.634L857.317 464.587L852.914 447.6L841.461 440.837C842.513 439.722 843.014 438.479 842.741 437.313C842.13 434.714 837.9 433.486 833.293 434.569C828.685 435.652 825.445 438.636 826.055 441.235C826.666 443.833 830.896 445.061 835.503 443.978C836.323 443.786 837.099 443.533 837.818 443.233L847.882 448.858L851.027 461.442L802.282 433.129L808.886 429.354Z" fill="black"/>
<path d="M502.5 246H663" stroke="#24321C" stroke-width="20" stroke-dasharray="20 15 80 20 95 52"/>
<path d="M451.5 205L718 205" stroke="#24321C" stroke-width="20" stroke-dasharray="60 15 122 15 90 16"/>
<defs>
<linearGradient id="paint0_linear_305_173" x1="370" y1="376" x2="370" y2="930.276" gradientUnits="userSpaceOnUse">
<stop stop-color="#4A5743"/>
<stop offset="0.699582" stop-color="#6F8166"/>
<stop offset="0.779637" stop-color="#787878"/>
</linearGradient>
<linearGradient id="paint1_linear_305_173" x1="301" y1="768.5" x2="299.5" y2="813" gradientUnits="userSpaceOnUse">
<stop stop-color="#1C2716"/>
<stop offset="1" stop-color="#1C2716" stop-opacity="0"/>
</linearGradient>
<linearGradient id="paint2_linear_305_173" x1="301" y1="768.5" x2="299.5" y2="813" gradientUnits="userSpaceOnUse">
<stop stop-color="#1C2716"/>
<stop offset="1" stop-color="#1C2716" stop-opacity="0"/>
</linearGradient>
</defs>
</svg>
