<svg width="1161" height="1096" viewBox="0 0 1161 1096" fill="none" xmlns="http://www.w3.org/2000/svg">
<path d="M47 772.5H44.5V775V1054V1056.5L47.0046 1056.5L1140 1054.5L1143.78 1054.49L1142.3 1051.02C1121.55 1002.42 1109.85 963.581 1109.15 922.015C1108.44 880.438 1118.72 835.895 1142.33 775.916L1143.67 772.5H1140H47Z" fill="white" stroke="#B0B0B0" stroke-width="5"/>
<path fill-rule="evenodd" clip-rule="evenodd" d="M46.9712 837V828H1121.39C1120.48 831.038 1119.61 834.037 1118.79 837H46.9712ZM46.9712 867V858H1113.55C1112.88 861.035 1112.26 864.034 1111.69 867H46.9712ZM46.9712 895V886H1108.65C1108.27 889.028 1107.94 892.026 1107.67 895H46.9712ZM46.9712 925V916H1106.59C1106.57 919.016 1106.6 922.014 1106.69 925H46.9712ZM46.9712 954V945H1108.12C1108.47 948.001 1108.86 951 1109.32 954H46.9712ZM46.9712 983V974H1113.14C1113.83 976.987 1114.57 979.985 1115.36 983H46.9712ZM46.9712 1013V1004H1121.58C1122.55 1006.97 1123.57 1009.97 1124.64 1013H46.9712Z" fill="#E6E6E6"/>
<path d="M217.971 1051H1160.97V1096H216.471L217.971 1051Z" fill="#557A42"/>
<path d="M208.936 0H969.178L1161 775H158L208.936 0Z" fill="#557A42"/>
<path d="M105.471 71.4999C105.471 55.4997 123.971 -1.55568e-05 198.471 0H282.971L235.971 775H117.971C29.4715 783 36.9663 1051 118 1051H218L216.471 1096H117.971C38.9715 1096 -16.5286 996 4.47137 867L105.471 71.4999Z" fill="#557A42"/>
<path d="M501.5 555L768 555M552.5 596H713" stroke="#24321C" stroke-width="20" stroke-dasharray="60 6 90 15 80 30"/>
<path d="M293.903 492.507L316.251 155.508C316.773 147.626 323.319 141.5 331.218 141.5H856.35C863.585 141.5 869.79 146.665 871.101 153.781L933.227 490.781C934.927 499.999 927.849 508.5 918.476 508.5H308.87C300.195 508.5 293.329 501.163 293.903 492.507Z" fill="#5C8647" stroke="#24321C" stroke-width="10"/>
<path d="M762.954 178.172C764.035 176.914 767.59 174.778 772.097 172.642C774.036 171.764 776.133 171.002 776.743 171.002C779.98 170.925 786.859 173.557 792.09 176.799C793.588 177.791 798.018 180.995 801.942 184.008C805.827 187.022 811.015 190.912 813.429 192.705C817.226 195.451 818.747 196.901 823.352 202.126C830.1 209.793 836.986 217.956 842.594 224.936C851.412 235.921 858.634 243.168 865.71 248.241C870.371 251.585 878.029 256.602 887.408 262.493L895.544 283.142C892.948 281.962 890.336 280.909 887.408 279.824C874.124 274.903 865.773 270.25 844.746 256.022C836.896 250.721 827.81 245.876 821.562 243.664C814.071 240.994 809.638 238.477 806.023 234.777C803.615 232.336 795.873 221.541 795.824 220.549C795.799 220.054 795.519 219.787 795.062 219.787C794.566 219.787 794.246 219.481 794.141 218.909C794.039 218.375 793.678 218.032 793.141 217.956C792.565 217.879 792.245 217.574 792.22 217.078C792.198 216.621 791.918 216.354 791.422 216.354C790.926 216.354 790.646 216.087 790.622 215.591C790.589 214.942 790.317 214.828 789.059 214.828C787.801 214.828 787.528 214.714 787.496 214.065C787.471 213.569 787.191 213.302 786.695 213.302C786.2 213.302 785.92 213.035 785.895 212.539C785.871 212.043 785.59 211.776 785.095 211.776C784.675 211.776 784.34 211.929 784.347 212.082C784.406 213.264 786.795 228.369 787.459 231.763C788.482 237.027 790.183 242.1 791.442 243.664C792.092 244.465 793.232 245.152 794.862 245.724C796.221 246.22 799.689 247.745 802.577 249.08C807.066 251.178 808.207 251.903 810.252 253.925C811.574 255.221 813.118 257.129 813.703 258.158C815.503 261.401 818.479 265.291 820.394 267.008C822.666 268.991 827.545 271.28 829.528 271.28C830.748 271.28 831.259 271.585 832.739 272.996C833.702 273.95 834.807 274.713 835.15 274.713C835.493 274.713 835.892 275.056 836.027 275.475C836.164 275.933 836.598 276.238 837.094 276.238C837.666 276.238 837.866 276.429 837.812 276.887C837.761 277.383 837.315 277.611 836.213 277.688C835.376 277.726 832.129 278.374 829.003 279.137C824.667 280.129 821.752 280.548 817.078 280.854C810.274 281.273 804.168 281.922 795.193 283.142L789.363 283.981L787.682 282.379C786.764 281.54 785.698 280.815 785.317 280.815C784.707 280.815 784.618 280.548 784.651 278.145C784.638 275.59 784.705 275.399 786.263 273.759C787.169 272.805 789.11 271.203 790.548 270.212C793.168 268.457 793.24 268.381 793.161 266.779C793.097 265.482 792.967 265.177 792.357 265.177C791.976 265.177 791.391 264.91 791.105 264.528C790.177 263.498 786.842 261.591 783.495 260.218C775.436 256.862 772.484 253.467 769.232 244.007C768.518 241.909 766.819 237.637 765.482 234.51C764.145 231.382 763.05 228.521 763.031 228.14C763.006 227.644 762.728 227.415 762.118 227.415C761.622 227.415 760.881 227.072 760.479 226.652C759.997 226.156 759.259 225.889 758.268 225.889H756.819L756.9 227.53C756.961 228.75 756.764 229.399 756.219 229.933C754.69 231.382 753.846 234.357 749.899 251.636C745.519 270.936 744.045 276.582 741.446 284.134C738.28 293.326 734.751 300.574 728.958 309.842C708.888 341.806 702.063 354.088 697.414 366.447C695.498 371.634 695.132 373.465 695.342 377.699L695.52 381.284L694 382.924C692.661 384.374 692.251 384.565 690.802 384.565H689.086L689.007 378.347C688.876 370.337 689.6 366.485 693.572 354.317C697.81 341.387 701.172 333.834 709.213 319.149C719.281 300.764 722.387 293.441 727.421 275.781L730.538 264.833L730.309 260.218L730.082 255.641H725.392H720.703L719.291 257.167C718.496 258.044 717.499 258.692 717.041 258.692C716.431 258.692 716.14 258.959 716.092 259.532C716.042 260.066 715.718 260.447 715.226 260.523C714.62 260.6 714.128 261.439 713.147 263.956C711.025 269.601 704.964 286.537 703.6 290.542C691.157 327.922 687.062 339.136 679.117 357.292C669.12 380.178 659.46 397.571 646.364 416.414C639.852 425.797 634.718 432.205 627.944 439.376C611.103 457.265 598.488 465.809 574.943 475.383C564.478 479.617 558.445 482.516 557.294 483.889C556.607 484.652 556.046 484.881 554.75 484.881C553.378 484.881 553.116 484.995 553.149 485.644C553.173 486.14 552.92 486.407 552.424 486.407C551.928 486.407 551.675 486.674 551.699 487.169C551.733 487.856 551.47 487.932 549.259 487.932H546.781L546.705 486.407C546.643 485.148 546.744 484.881 547.392 484.881C547.887 484.881 548.141 484.614 548.117 484.118C548.088 483.546 548.346 483.355 549.032 483.355C549.718 483.355 549.976 483.164 549.947 482.592C549.923 482.096 550.176 481.829 550.672 481.829C551.167 481.829 551.421 481.562 551.396 481.067C551.372 480.571 551.626 480.304 552.121 480.304C552.617 480.304 552.87 480.037 552.846 479.541C552.821 479.045 553.075 478.778 553.571 478.778C554.104 478.778 554.32 478.511 554.29 477.901C554.257 477.252 554.618 476.833 555.548 476.375C558.75 474.811 580.754 459.554 593.881 449.789C626.018 425.912 630.534 420.877 645.067 392.575C655.637 372.016 662.67 356.987 663.678 352.715C664.277 350.198 664.358 348.748 664.138 344.324C663.841 338.335 663.428 336.924 660.624 331.889C656.987 325.443 646.413 315.945 639.911 313.237C635.979 311.597 629.154 312.36 622.277 315.144C612.971 318.92 609.564 324.794 602.687 349.092C600.807 355.767 600.161 358.131 590.508 394.1C586.327 409.739 584.043 417.482 583.503 418.131C581.992 419.961 581.263 422.174 581.384 424.615C581.485 426.636 581.422 426.903 580.736 426.903C580.24 426.903 579.986 427.17 580.011 427.666C580.035 428.162 579.782 428.429 579.286 428.429C578.6 428.429 578.51 428.162 578.365 425.225C578.228 422.479 578.399 421.296 579.5 417.368C580.472 413.897 580.764 412.104 580.673 410.273C580.565 408.099 580.476 407.832 579.789 407.832C579.218 407.832 579.04 408.099 579.076 408.824C579.116 409.625 578.971 409.777 578.353 409.625C577.736 409.472 577.591 409.625 577.623 410.273C577.646 410.731 577.049 411.761 576.213 412.6C575.378 413.439 574.781 414.469 574.804 414.927C574.834 415.537 574.582 415.842 573.976 415.918C573.408 415.994 573.192 416.262 573.291 416.719C573.39 417.177 573.171 417.368 572.523 417.368C571.798 417.368 570.904 418.55 567.513 423.966C561.05 434.341 558.666 437.774 557.719 437.889C557.189 437.965 556.899 438.27 556.923 438.766C556.946 439.224 556.692 439.491 556.197 439.491C555.701 439.491 555.447 439.758 555.472 440.254C555.506 440.94 555.243 441.016 552.345 441.016H549.181L547.77 442.542C546.538 443.839 546.13 444.068 544.719 444.068C543.346 444.068 543.074 443.953 543.042 443.305C543.017 442.809 543.271 442.542 543.766 442.542C544.415 442.542 544.516 442.275 544.453 441.016C544.391 439.758 544.492 439.491 545.14 439.491C545.636 439.491 545.889 439.224 545.867 438.766C545.842 438.27 546.132 437.965 546.7 437.889C547.383 437.812 547.52 437.507 547.562 436.058C547.576 434.799 547.881 434.036 548.641 433.197C549.941 431.748 550.674 430.374 557.635 416.223C566.781 397.686 575.151 378.881 578.389 369.613C581.295 361.335 581.295 361.335 581.123 357.864C580.97 354.775 580.875 354.393 580.27 354.508C579.855 354.584 579.577 354.355 579.47 353.745C579.322 353.058 579.047 352.906 577.789 352.906C576.455 352.906 576.306 352.982 576.351 353.898C576.391 354.699 576.244 354.813 575.625 354.622C574.927 354.393 574.858 354.546 574.936 356.11C575.01 357.597 574.909 357.864 574.261 357.864C573.765 357.864 573.511 358.131 573.536 358.627C573.56 359.123 573.307 359.39 572.811 359.39C572.201 359.39 572.062 359.657 572.119 360.801C572.194 362.327 569.348 367.972 538.186 428.429C523.091 457.685 519.117 465.199 516.433 469.509C515.518 471.035 514.757 472.599 514.779 473.057C514.804 473.552 514.55 473.819 514.055 473.819C513.559 473.819 513.305 474.086 513.33 474.582C513.355 475.078 513.101 475.345 512.643 475.345C512.033 475.345 511.896 475.65 511.848 476.985C511.834 478.244 511.66 478.587 511.125 478.549C510.665 478.511 510.486 478.74 510.518 479.388C510.55 480.037 510.335 480.304 509.801 480.304C509.153 480.304 509.052 480.571 509.114 481.829C509.182 483.203 509.114 483.355 508.237 483.355C507.512 483.355 507.293 483.546 507.325 484.194C507.358 484.843 506.417 485.873 503.778 488.009C501.839 489.649 498.198 493.12 495.698 495.752C492.582 499.032 490.902 500.52 490.33 500.52C489.72 500.52 489.465 500.748 489.491 501.282C489.516 501.778 489.262 502.045 488.767 502.045C488.271 502.045 488.017 502.312 488.042 502.808C488.067 503.304 487.813 503.571 487.355 503.571C486.86 503.571 486.57 503.876 486.52 504.41C486.468 504.906 486.182 505.287 485.877 505.287C485.572 505.287 485.246 505.631 485.153 506.05C485.059 506.47 484.621 506.851 484.205 506.928C483.751 507.004 482.796 507.729 482.035 508.53C481.238 509.369 480.242 510.055 479.823 510.055C479.366 510.055 478.696 510.399 478.336 510.818C477.975 511.238 477.268 511.581 476.772 511.581C476.01 511.581 475.886 511.39 475.82 510.055L475.744 508.53H477.269H478.794L478.715 506.928C478.647 505.554 478.853 505.097 480.155 503.685C481.025 502.77 481.698 501.74 481.679 501.359C481.66 500.977 481.988 500.672 482.48 500.596C482.972 500.52 483.338 500.214 483.321 499.871C483.306 499.566 484.014 498.46 484.878 497.43C490.46 490.831 497.56 477.939 508.173 455.167C521.369 426.827 527.257 414.85 528.775 413.172C530.115 411.761 530.352 411.15 530.396 409.739C530.439 408.29 530.576 407.984 531.259 407.908C531.827 407.832 532.117 407.527 532.092 407.031C532.069 406.573 532.323 406.306 532.819 406.306C533.39 406.306 533.568 406.039 533.526 405.2C533.454 403.751 533.762 403.026 544.524 378.652C559.226 345.315 572.014 317.967 575.955 311.33C578.735 306.638 583.522 303.244 588.075 302.786C590.921 302.519 592.86 301.642 594.83 299.849C596.287 298.476 601.826 290.237 610.091 277.001C616.626 266.55 621.524 259.226 622.761 258.044C623.814 256.976 627.561 255.641 629.352 255.641C630.115 255.641 631.888 256.022 633.359 256.48C635.877 257.281 636.193 257.51 639.139 260.79C648.092 270.631 652.604 276.276 657.717 284.058C660.642 288.444 663.776 293.212 664.759 294.585C666.813 297.56 669.311 299.506 671.141 299.506C672.209 299.506 672.407 299.658 672.443 300.383C672.47 300.917 673.205 301.909 674.286 302.938C675.284 303.854 676.06 304.884 676 305.227C675.947 305.685 676.526 305.837 679.123 305.914L682.255 306.028L682.136 303.625C682.02 301.298 682.219 300.688 687.637 287.719C696.84 265.711 702.252 254.153 706.154 248.279C706.83 247.288 708.75 245.266 710.468 243.779C716.132 238.82 727.969 226.881 731.274 222.8C735.981 217.002 739.334 212.349 748.251 199.189C756.28 187.365 761.48 179.965 762.954 178.172Z" fill="#24321C" stroke="#24321C" stroke-width="4"/>
<path d="M384.995 425.766L383.424 430.276L381.847 434.784L388.871 437.261L390.491 432.703L392.114 428.154L394.762 431.264C396.221 432.978 397.422 434.377 397.432 434.368C397.447 434.361 398.646 433.326 400.095 432.072C401.543 430.818 402.806 429.729 402.897 429.652L403.067 429.513L394.96 419.992L397.291 413.381C399.238 407.861 399.631 406.78 399.68 406.842C399.698 406.861 400.22 407.476 401.045 408.447C401.859 409.406 402.969 410.713 404.181 412.139L408.624 417.364L404.347 429.496L411.314 431.952L412.734 427.928C413.515 425.713 414.164 423.907 414.175 423.911C414.187 423.915 415.553 425.514 417.203 427.463C418.861 429.408 420.259 431.024 420.31 431.042C420.449 431.098 425.98 426.34 425.922 426.217C425.902 426.165 424.536 424.548 422.886 422.618C421.237 420.682 419.866 419.062 419.84 419.008C419.801 418.937 420.628 418.76 423.788 418.161C425.987 417.742 427.791 417.377 427.803 417.342C427.833 417.257 426.511 410.096 426.46 410.078C426.432 410.068 423.686 410.576 420.359 411.213C417.028 411.849 414.265 412.351 414.214 412.333C414.087 412.294 405.41 401.975 405.478 401.947C405.528 401.922 416.81 400.013 417.131 399.981C417.291 399.967 417.411 400.085 421.266 404.225C423.45 406.573 425.259 408.48 425.287 408.468C425.478 408.384 430.313 404.537 430.284 404.483C430.269 404.456 429.095 403.184 427.684 401.671C426.27 400.151 425.121 398.893 425.124 398.867C425.125 398.846 427.011 398.555 429.312 398.221C431.612 397.892 433.528 397.617 433.573 397.606C433.63 397.599 433.456 396.739 432.929 394.479C432.53 392.766 432.187 391.355 432.169 391.337C432.15 391.325 430.2 391.594 427.832 391.931L423.527 392.552L424.665 389.275L425.806 386.004L419.227 383.685L417.453 388.682L415.674 393.677L409.64 394.547C406.323 395.024 403.572 395.415 403.53 395.417C403.47 395.417 403.84 394.333 405.377 390.008L407.302 384.6L412.921 383.789C416.007 383.343 418.539 382.961 418.546 382.942C418.56 382.904 417.184 376.893 417.125 376.754C417.107 376.704 416.009 376.841 413.566 377.189C411.623 377.471 409.96 377.705 409.867 377.716L409.693 377.736L412.438 369.949L405.86 367.629L404.504 371.472C403.759 373.586 403.139 375.311 403.128 375.307C403.118 375.304 401.926 374.03 400.481 372.478C399.036 370.926 397.846 369.664 397.832 369.67C397.766 369.706 392.835 373.59 392.813 373.62C392.797 373.647 394.568 375.578 396.746 377.912L400.704 382.165L396.852 393.175L393.468 389.541C391.603 387.539 389.678 385.472 389.185 384.941L388.283 383.981L391.815 373.965L388.538 372.82L385.254 371.678L382.895 378.197L379.876 374.951C378.21 373.164 376.844 371.71 376.83 371.716C376.821 371.724 375.677 372.617 374.287 373.699C372.285 375.266 371.779 375.687 371.823 375.746C371.856 375.79 373.196 377.235 374.807 378.959C376.416 380.687 377.728 382.111 377.722 382.126C377.717 382.14 376.005 382.395 373.911 382.699C371.047 383.109 370.109 383.265 370.111 383.325C370.118 383.392 371.198 388.078 371.463 389.17C371.496 389.328 371.551 389.477 371.58 389.498C371.603 389.517 374.197 389.162 377.34 388.709C380.594 388.242 383.092 387.908 383.142 387.936C383.218 387.99 391.255 396.857 391.3 396.948C391.324 396.989 386.094 397.886 377.871 399.441L377.556 399.503L373.508 394.745C370.419 391.114 369.437 389.997 369.374 390.033C369.201 390.126 363.927 394.716 363.883 394.804C363.853 394.87 364.583 395.763 366.466 397.974C367.908 399.663 369.082 401.066 369.082 401.085C369.076 401.102 366.921 401.523 364.299 402.024L359.52 402.932L359.554 403.143C359.569 403.263 359.868 404.909 360.218 406.804C360.694 409.392 360.877 410.246 360.948 410.245C361.001 410.238 363.087 409.85 365.585 409.377C368.083 408.903 370.176 408.512 370.239 408.515C370.343 408.507 370.273 408.726 368.928 412.539L367.507 416.57L374.474 419.026L378.794 406.865L385.521 405.579L387.095 405.279C390.064 404.714 392.344 404.28 392.435 404.268L392.618 404.236L387.89 417.627L381.619 418.812C378.171 419.47 375.354 420.017 375.354 420.036C375.389 420.35 376.685 427.315 376.707 427.323C376.724 427.329 378.598 426.982 380.871 426.552L384.995 425.766Z" fill="#24321C"/>
<path d="M468.586 353.75L469.877 358.977L471.163 364.206L479.321 362.222L478.046 356.921L476.779 351.625L481.195 352.932C483.628 353.653 485.623 354.236 485.626 354.221C485.636 354.205 486.132 352.49 486.729 350.414C487.325 348.337 487.848 346.532 487.886 346.403L487.961 346.167L474.444 342.164L472.578 334.485C471.019 328.073 470.725 326.81 470.809 326.839C470.839 326.846 471.71 327.105 473.087 327.515C474.446 327.92 476.298 328.472 478.32 329.072L485.733 331.273L489.159 345.363L497.252 343.396L496.115 338.721C495.49 336.148 494.992 334.043 495.005 334.04C495.018 334.037 497.292 334.706 500.051 335.531C502.814 336.348 505.129 337.014 505.188 337C505.354 336.966 507.65 329.069 507.519 328.989C507.468 328.952 505.183 328.265 502.436 327.458C499.688 326.644 497.396 325.958 497.338 325.923C497.258 325.879 497.93 325.203 500.546 322.692C502.364 320.944 503.843 319.489 503.834 319.449C503.809 319.35 498.154 313.4 498.095 313.414C498.062 313.422 495.781 315.592 493.032 318.241C490.275 320.891 487.975 323.066 487.916 323.08C487.772 323.122 473.227 318.716 473.273 318.648C473.305 318.593 482.786 309.847 483.07 309.618C483.212 309.507 483.397 309.544 489.587 311.083C493.095 311.956 495.977 312.643 495.996 312.615C496.125 312.418 498.323 305.809 498.263 305.776C498.233 305.76 496.341 305.28 494.077 304.72C491.805 304.155 489.946 303.674 489.933 303.647C489.921 303.627 491.524 302.191 493.491 300.46C495.461 298.734 497.101 297.295 497.138 297.257C497.186 297.215 496.493 296.509 494.604 294.699C493.174 293.327 491.981 292.205 491.953 292.2C491.927 292.2 490.251 293.654 488.222 295.43L484.538 298.665L483.596 294.87L482.661 291.079L475.019 292.937L476.419 298.748L477.813 304.561L472.65 309.096C469.81 311.589 467.453 313.651 467.414 313.679C467.358 313.716 467.04 312.463 465.83 307.433L464.32 301.14L469.128 296.916C471.768 294.596 473.925 292.677 473.92 292.655C473.909 292.61 468.91 287.78 468.769 287.684C468.721 287.649 467.768 288.454 465.675 290.286C464.014 291.748 462.587 292.993 462.505 293.06L462.353 293.186L460.154 284.141L452.513 285.999L453.598 290.463C454.195 292.918 454.671 294.929 454.659 294.932C454.646 294.935 452.737 294.466 450.417 293.889C448.097 293.313 446.197 292.853 446.187 292.867C446.147 292.942 443.88 299.645 443.877 299.687C443.879 299.722 446.74 300.457 450.233 301.321L456.59 302.902L459.727 315.672L454.295 314.321C451.301 313.578 448.21 312.81 447.418 312.613L445.975 312.261L443.146 300.627L439.347 301.563L435.543 302.505L437.327 310.114L432.478 308.906C429.804 308.244 427.619 307.712 427.609 307.726C427.606 307.738 427.075 309.286 426.428 311.163C425.502 313.876 425.283 314.585 425.361 314.613C425.419 314.635 427.573 315.175 430.156 315.811C432.74 316.453 434.855 316.991 434.859 317.008C434.863 317.025 433.403 318.319 431.612 319.895C429.159 322.046 428.369 322.77 428.409 322.825C428.456 322.885 432.359 326.645 433.282 327.514C433.411 327.642 433.555 327.749 433.594 327.752C433.628 327.755 435.86 325.824 438.549 323.462C441.336 321.018 443.489 319.164 443.554 319.161C443.659 319.165 456.707 322.593 456.806 322.652C456.853 322.675 452.465 326.741 445.656 333.271L445.397 333.523L438.645 331.52C433.493 329.992 431.878 329.542 431.84 329.614C431.734 329.808 429.578 337.391 429.59 337.5C429.603 337.581 430.842 337.975 433.981 338.904C436.383 339.613 438.355 340.215 438.366 340.233C438.371 340.253 436.595 341.977 434.426 344.063L430.472 347.862L430.634 348.04C430.722 348.145 432.017 349.516 433.515 351.09C435.557 353.241 436.255 353.935 436.321 353.891C436.367 353.851 438.098 352.202 440.166 350.217C442.234 348.232 443.971 346.574 444.031 346.538C444.125 346.466 444.193 346.717 445.27 351.146L446.408 355.827L454.501 353.86L451.097 339.715L456.659 334.36L457.961 333.108C460.417 330.747 462.304 328.934 462.382 328.867L462.536 328.724L466.311 344.282L461.118 349.259C458.266 352.003 455.942 354.254 455.953 354.272C456.18 354.547 461.69 360.328 461.717 360.322C461.737 360.317 463.293 358.836 465.174 357.031L468.586 353.75Z" fill="#24321C"/>
<path d="M387.885 259.439L386.039 266.717L384.185 273.994L395.525 276.914L397.439 269.555L399.361 262.208L403.933 266.717C406.453 269.203 408.524 271.231 408.538 271.214C408.561 271.201 410.298 269.417 412.396 267.255C414.493 265.093 416.323 263.215 416.454 263.082L416.702 262.841L402.705 249.035L405.453 238.363C407.748 229.451 408.218 227.704 408.302 227.795C408.334 227.823 409.235 228.714 410.659 230.123C412.065 231.514 413.981 233.409 416.075 235.477L423.748 243.055L418.704 262.639L429.952 265.536L431.626 259.039C432.547 255.463 433.317 252.546 433.336 252.551C433.354 252.555 435.712 254.873 438.562 257.7C441.425 260.52 443.835 262.861 443.917 262.882C444.144 262.95 452.157 254.744 452.048 254.559C452.01 254.481 449.65 252.133 446.802 249.336C443.955 246.529 441.586 244.18 441.539 244.099C441.469 243.992 442.739 243.602 447.607 242.232C450.993 241.276 453.769 240.458 453.783 240.402C453.819 240.264 450.771 229.229 450.688 229.208C450.643 229.196 446.411 230.367 441.288 231.819C436.156 233.268 431.898 234.432 431.815 234.41C431.612 234.368 416.613 219.39 416.715 219.337C416.79 219.291 434.2 214.76 434.699 214.666C434.948 214.622 435.151 214.79 441.754 220.75C445.496 224.128 448.59 226.868 448.632 226.846C448.919 226.688 455.966 220.002 455.914 219.922C455.887 219.883 453.875 218.05 451.458 215.872C449.035 213.685 447.064 211.871 447.065 211.83C447.065 211.797 449.979 211.084 453.537 210.247C457.094 209.418 460.058 208.726 460.127 208.703C460.215 208.684 459.825 207.359 458.69 203.892C457.833 201.264 457.102 199.1 457.072 199.075C457.04 199.059 454.023 199.746 450.36 200.597L443.702 202.157L445.036 196.869L446.377 191.591L435.757 188.856L433.66 196.924L431.555 204.991L422.224 207.177C417.093 208.378 412.838 209.366 412.772 209.374C412.678 209.383 413.111 207.634 414.927 200.651L417.204 191.917L425.894 189.88C430.667 188.76 434.581 187.817 434.589 187.786C434.605 187.724 431.629 178.498 431.519 178.287C431.484 178.212 429.782 178.576 426.003 179.455C422.999 180.162 420.426 180.756 420.281 180.785L420.011 180.839L423.249 168.268L412.628 165.533L411.03 171.737C410.151 175.149 409.415 177.937 409.398 177.932C409.381 177.928 407.341 176.096 404.866 173.862C402.391 171.629 400.355 169.815 400.334 169.826C400.235 169.891 393.043 176.648 393.011 176.697C392.991 176.742 396.028 179.525 399.757 182.884L406.537 189.005L402.007 206.775L396.211 201.545C393.017 198.663 389.719 195.688 388.874 194.925L387.33 193.543L391.495 177.374L386.206 176.028L380.907 174.688L378.103 185.221L372.931 180.548C370.077 177.977 367.739 175.886 367.717 175.897C367.705 175.911 366.035 177.465 364.006 179.349C361.084 182.078 360.348 182.807 360.427 182.893C360.483 182.957 362.779 185.037 365.538 187.517C368.294 190.005 370.543 192.056 370.537 192.079C370.531 192.103 367.884 192.736 364.646 193.498C360.215 194.532 358.767 194.903 358.78 194.997C358.799 195.101 361.13 202.293 361.694 203.968C361.768 204.21 361.874 204.436 361.922 204.465C361.961 204.491 365.976 203.582 370.836 202.444C375.87 201.268 379.737 200.403 379.818 200.441C379.945 200.515 393.743 213.305 393.826 213.443C393.869 213.503 385.8 215.621 373.133 219.179L372.648 219.32L365.659 212.419C360.325 207.154 358.635 205.539 358.54 205.604C358.282 205.773 350.647 213.683 350.591 213.826C350.554 213.934 351.818 215.233 355.069 218.439C357.559 220.888 359.589 222.924 359.591 222.954C359.584 222.982 356.267 223.936 352.228 225.077L344.868 227.152L344.949 227.478C344.989 227.665 345.681 230.202 346.489 233.122C347.588 237.11 347.991 238.423 348.101 238.412C348.184 238.394 351.398 237.502 355.246 236.419C359.094 235.337 362.319 234.438 362.417 234.434C362.58 234.407 362.499 234.759 360.914 240.916L359.238 247.422L370.486 250.319L375.592 230.682L385.953 227.749L388.377 227.065C392.95 225.774 396.462 224.783 396.603 224.752L396.886 224.678L391.308 246.297L381.648 249.007C376.337 250.509 372 251.751 372.002 251.781C372.1 252.268 375.08 263.001 375.117 263.01C375.144 263.017 378.032 262.218 381.533 261.233L387.885 259.439Z" fill="#24321C"/>
</svg>
