<svg width="1162" height="1096" viewBox="0 0 1162 1096" fill="none" xmlns="http://www.w3.org/2000/svg">
<path d="M46.9712 772.5H44.4712V775V1054V1056.5L46.9758 1056.5L1139.98 1054.5L1143.75 1054.49L1142.27 1051.02C1121.52 1002.42 1109.83 963.581 1109.12 922.015C1108.41 880.439 1118.69 835.895 1142.3 775.916L1143.64 772.5H1139.97H46.9712Z" fill="white" stroke="#B0B0B0" stroke-width="5"/>
<path fill-rule="evenodd" clip-rule="evenodd" d="M46.9712 837V828L1121.39 828C1120.48 831.038 1119.61 834.038 1118.79 837H46.9712ZM46.9712 867V858H1113.55C1112.88 861.035 1112.26 864.034 1111.69 867H46.9712ZM46.9712 895V886H1108.65C1108.27 889.028 1107.94 892.027 1107.67 895H46.9712ZM46.9712 925V916H1106.59C1106.57 919.016 1106.6 922.015 1106.69 925H46.9712ZM46.9712 954V945H1108.12C1108.47 948.002 1108.86 951 1109.32 954H46.9712ZM46.9712 983V974H1113.14C1113.83 976.987 1114.57 979.985 1115.36 983H46.9712ZM46.9712 1013V1004H1121.58C1122.55 1006.97 1123.57 1009.97 1124.64 1013H46.9712Z" fill="#E6E6E6"/>
<path d="M217.971 1051H1160.97V1096H216.471L217.971 1051Z" fill="#557A42"/>
<path d="M264.971 0H984.471L1161.47 775H217.971L264.971 0Z" fill="#557A42"/>
<path d="M105.471 71.4999C105.471 55.4997 123.971 -1.55568e-05 198.471 0H282.971L235.971 775H117.971C29.4715 783 36.9375 1051 117.971 1051H217.971L216.471 1096H117.971C38.9715 1096 -16.5286 996 4.47137 867L105.471 71.4999Z" fill="black"/>
<path d="M396.971 328.5H579.971" stroke="black" stroke-width="15" stroke-dasharray="30 10 120 10"/>
<path d="M398.971 299.5H546.971" stroke="black" stroke-width="15" stroke-dasharray="25 5 80 10"/>
<path d="M400.971 270.5H600.971" stroke="black" stroke-width="15" stroke-dasharray="80 10"/>
<path d="M919.428 205.406C921.04 214.588 913.976 223 904.654 223H385.108C376.64 223 369.85 215.994 370.115 207.53L373.861 88.03C374.115 79.9327 380.753 73.5 388.854 73.5H883.676C890.96 73.5 897.191 78.7324 898.45 85.9064L919.428 205.406Z" fill="#5C8647" stroke="black" stroke-width="10"/>
<path d="M839.456 868.218C839.456 864.812 835.971 858 829 858H938.544C945.515 858 949 863.109 949 868.218L942.029 1009L894.228 956.775L845.929 1009L839.456 868.218Z" fill="#314626"/>
<mask id="path-11-inside-1_302_12" fill="white">
<path d="M781.213 168.41C781.178 168.485 781.766 173.749 781.844 174.056C781.868 174.154 782.478 174.512 784.597 175.639L787.317 177.08L792.481 173.991C795.321 172.288 797.682 170.912 797.726 170.926C797.769 170.94 798.076 173.268 798.407 176.099L803.896 179.327L808.624 176.468C808.519 175.567 808.407 174.597 808.289 173.587C807.749 168.991 807.328 165.195 807.349 165.15C807.381 165.082 822.595 155.937 822.784 155.879C822.834 155.859 823.368 160.103 823.972 165.29L825.083 174.736L824.207 175.262C823.726 175.55 820.666 177.379 817.407 179.327L816.656 185.952L821.824 189.059C824.312 187.562 826.375 186.346 826.407 186.363C826.432 186.377 826.78 189.236 827.191 192.734L827.926 199.078L830.67 200.533L833.401 201.99L835.765 200.587L838.121 199.18L837.865 197.002C837.732 195.807 837.396 192.964 837.131 190.678C836.862 188.399 836.651 186.511 836.662 186.488C836.673 186.465 839.033 187.703 841.898 189.243L844.625 185.371L843.218 179.139L835.253 174.805L834.165 165.438C833.563 160.289 833.075 156.033 833.085 155.991C833.086 155.925 836.075 157.522 841.964 160.715L850.837 165.539L851.828 173.976L852.04 175.799L857.64 179.327L862.221 175.799L861.703 171.413L873.774 177.843L876.084 176.468C877.345 175.705 878.408 175.043 878.429 174.998C878.446 174.941 878.316 173.653 878.135 172.13L877.798 169.352L871.889 166.139C868.639 164.363 865.933 162.872 865.888 162.819C865.826 162.758 865.919 162.667 866.209 162.502C866.431 162.377 868.489 161.148 870.78 159.772L869.402 154.141L863.415 151.806L854.917 156.889L846.039 152.119C841.15 149.486 837.167 147.314 837.178 147.291C837.192 147.261 840.678 145.153 844.936 142.612L852.665 137.973L860.645 142.268L862.493 143.26L867.968 140.858L867.475 135.142C862.871 132.635 862.274 132.293 862.36 132.217C862.413 132.17 864.726 130.768 867.501 129.115C870.268 127.458 872.576 126.044 872.632 125.97C872.682 125.884 872.585 124.698 872.382 123.05L872.046 120.272L869.324 118.773L866.598 117.281L861.376 120.405C858.502 122.117 856.138 123.52 856.114 123.507C856.093 123.487 855.791 121.001 855.442 117.971L849.905 114.869L845.27 117.971C845.387 118.974 845.515 120.067 845.647 121.2C846.16 125.574 846.572 129.177 846.566 129.211C846.568 129.25 831.648 138.223 831.177 138.469C831.043 138.538 830.86 137.212 829.915 129.15C829.304 123.977 828.832 119.71 828.853 119.665C828.872 119.625 834.462 116.249 838.51 113.821L837.886 108.039L832.094 105.295C829.609 106.783 827.546 108 827.507 107.997C827.472 108.007 827.112 105.15 826.706 101.665L825.967 95.3278L820.485 92.3649L818.126 93.7799L815.763 95.2024L816.502 101.539C816.917 105.029 817.242 107.895 817.231 107.918C817.221 107.94 814.868 106.687 811.998 105.136L807.388 108.039L808.012 113.821L818.622 119.619L819.719 128.944C820.321 134.073 820.812 138.322 820.811 138.388C820.808 138.481 819.027 137.537 811.924 133.679L803.052 128.855L801.726 117.924L796.224 114.869L791.61 118.078C791.919 120.759 792.147 122.87 792.131 122.904C792.109 122.949 789.927 121.807 786.114 119.746L780.125 116.509L777.765 117.924L775.418 119.336L775.743 122.202L776.076 125.072L782.062 128.317C787.052 131.014 788.044 131.57 787.977 131.647C787.936 131.691 785.89 132.935 783.421 134.413L784.048 140.222L789.984 142.852L791.485 141.953C794.996 139.858 798.114 137.994 798.411 137.815L798.956 137.496L807.85 142.275C812.739 144.908 816.733 147.077 816.726 147.092C816.719 147.107 813.228 149.203 808.97 151.744L801.233 156.379L791.335 151.064L785.797 153.536L786.414 159.252C789.28 160.811 791.615 162.101 791.608 162.116C791.601 162.131 789.268 163.532 786.421 165.231C783.581 166.934 781.235 168.365 781.213 168.41Z"/>
</mask>
<path d="M781.213 168.41C781.178 168.485 781.766 173.749 781.844 174.056C781.868 174.154 782.478 174.512 784.597 175.639L787.317 177.08L792.481 173.991C795.321 172.288 797.682 170.912 797.726 170.926C797.769 170.94 798.076 173.268 798.407 176.099L803.896 179.327L808.624 176.468C808.519 175.567 808.407 174.597 808.289 173.587C807.749 168.991 807.328 165.195 807.349 165.15C807.381 165.082 822.595 155.937 822.784 155.879C822.834 155.859 823.368 160.103 823.972 165.29L825.083 174.736L824.207 175.262C823.726 175.55 820.666 177.379 817.407 179.327L816.656 185.952L821.824 189.059C824.312 187.562 826.375 186.346 826.407 186.363C826.432 186.377 826.78 189.236 827.191 192.734L827.926 199.078L830.67 200.533L833.401 201.99L835.765 200.587L838.121 199.18L837.865 197.002C837.732 195.807 837.396 192.964 837.131 190.678C836.862 188.399 836.651 186.511 836.662 186.488C836.673 186.465 839.033 187.703 841.898 189.243L844.625 185.371L843.218 179.139L835.253 174.805L834.165 165.438C833.563 160.289 833.075 156.033 833.085 155.991C833.086 155.925 836.075 157.522 841.964 160.715L850.837 165.539L851.828 173.976L852.04 175.799L857.64 179.327L862.221 175.799L861.703 171.413L873.774 177.843L876.084 176.468C877.345 175.705 878.408 175.043 878.429 174.998C878.446 174.941 878.316 173.653 878.135 172.13L877.798 169.352L871.889 166.139C868.639 164.363 865.933 162.872 865.888 162.819C865.826 162.758 865.919 162.667 866.209 162.502C866.431 162.377 868.489 161.148 870.78 159.772L869.402 154.141L863.415 151.806L854.917 156.889L846.039 152.119C841.15 149.486 837.167 147.314 837.178 147.291C837.192 147.261 840.678 145.153 844.936 142.612L852.665 137.973L860.645 142.268L862.493 143.26L867.968 140.858L867.475 135.142C862.871 132.635 862.274 132.293 862.36 132.217C862.413 132.17 864.726 130.768 867.501 129.115C870.268 127.458 872.576 126.044 872.632 125.97C872.682 125.884 872.585 124.698 872.382 123.05L872.046 120.272L869.324 118.773L866.598 117.281L861.376 120.405C858.502 122.117 856.138 123.52 856.114 123.507C856.093 123.487 855.791 121.001 855.442 117.971L849.905 114.869L845.27 117.971C845.387 118.974 845.515 120.067 845.647 121.2C846.16 125.574 846.572 129.177 846.566 129.211C846.568 129.25 831.648 138.223 831.177 138.469C831.043 138.538 830.86 137.212 829.915 129.15C829.304 123.977 828.832 119.71 828.853 119.665C828.872 119.625 834.462 116.249 838.51 113.821L837.886 108.039L832.094 105.295C829.609 106.783 827.546 108 827.507 107.997C827.472 108.007 827.112 105.15 826.706 101.665L825.967 95.3278L820.485 92.3649L818.126 93.7799L815.763 95.2024L816.502 101.539C816.917 105.029 817.242 107.895 817.231 107.918C817.221 107.94 814.868 106.687 811.998 105.136L807.388 108.039L808.012 113.821L818.622 119.619L819.719 128.944C820.321 134.073 820.812 138.322 820.811 138.388C820.808 138.481 819.027 137.537 811.924 133.679L803.052 128.855L801.726 117.924L796.224 114.869L791.61 118.078C791.919 120.759 792.147 122.87 792.131 122.904C792.109 122.949 789.927 121.807 786.114 119.746L780.125 116.509L777.765 117.924L775.418 119.336L775.743 122.202L776.076 125.072L782.062 128.317C787.052 131.014 788.044 131.57 787.977 131.647C787.936 131.691 785.89 132.935 783.421 134.413L784.048 140.222L789.984 142.852L791.485 141.953C794.996 139.858 798.114 137.994 798.411 137.815L798.956 137.496L807.85 142.275C812.739 144.908 816.733 147.077 816.726 147.092C816.719 147.107 813.228 149.203 808.97 151.744L801.233 156.379L791.335 151.064L785.797 153.536L786.414 159.252C789.28 160.811 791.615 162.101 791.608 162.116C791.601 162.131 789.268 163.532 786.421 165.231C783.581 166.934 781.235 168.365 781.213 168.41Z" fill="black" stroke="#5C8647" stroke-width="2" mask="url(#path-11-inside-1_302_12)"/>
<path d="M703.081 110.081C699.704 110.475 696.68 111.638 694.085 113.561C692.497 114.73 690.943 116.357 689.926 117.914C689.781 118.139 689.648 118.336 689.642 118.35C689.629 118.364 689.356 118.294 689.039 118.188C688.196 117.921 687.171 117.674 686.281 117.54C685.213 117.378 683.158 117.378 682.129 117.54C677.878 118.202 674.419 120.52 672.287 124.119C670.819 126.606 670.164 129.818 670.511 132.776L670.623 133.706L670.4 133.741C670.275 133.762 669.899 133.812 669.55 133.854C666.669 134.206 663.617 135.558 661.368 137.481C658.496 139.94 656.618 143.44 656.103 147.307C655.932 148.596 655.915 149.223 656.039 150.794C656.167 152.506 656.331 153.386 656.782 154.816C658.809 161.148 664.209 166.079 670.638 167.453C672.555 167.861 670.653 167.84 701.183 167.84C727.969 167.84 729.411 167.833 730.204 167.713C734.721 167.03 738.433 165.086 741.279 161.909C742.202 160.888 742.682 160.24 743.351 159.12C744.81 156.683 745.651 153.992 745.895 150.935C745.96 150.118 745.953 149.646 745.842 148.153C745.694 146.166 745.509 145.194 744.977 143.525C743.323 138.327 739.736 133.924 734.922 131.184C732.475 129.79 729.719 128.888 726.958 128.571C726.127 128.472 726.12 128.472 726.081 127.944C726.031 127.275 725.454 125.105 725.036 124.028C724.381 122.316 723.318 120.337 722.331 118.991C718.79 114.152 713.716 111.039 707.973 110.187C706.656 109.989 704.295 109.94 703.081 110.081Z" fill="black"/>
<path d="M710.628 147.515L710.621 147.519C708.234 148.78 706.47 150.115 704.641 152.077L710.628 147.515ZM710.628 147.515C713.387 146.065 716.361 145.23 719.642 144.966M710.628 147.515L719.642 144.966M698.52 167.037C698.616 164.102 699.177 161.533 700.314 158.801C701.391 156.206 702.733 154.119 704.64 152.077L698.52 167.037ZM698.52 167.037C697.078 167.598 695.735 168.406 694.613 169.397L694.606 169.403C693.937 169.996 692.929 171.142 692.429 171.896C688.794 177.369 689.688 185.013 694.639 190.055C696.973 192.438 699.726 193.916 702.909 194.545C703.849 194.732 704.542 194.738 706.973 194.759C707.184 194.761 707.409 194.763 707.648 194.766L707.667 194.766H707.686H711.178H728.178C733.26 194.766 737.562 194.761 740.63 194.752C742.163 194.747 743.392 194.742 744.259 194.736C744.691 194.732 745.04 194.729 745.293 194.725C745.303 194.725 745.315 194.725 745.329 194.725C745.467 194.723 745.8 194.719 746.044 194.695L746.044 194.695C749.959 194.305 753.396 192.803 756.217 190.255L756.225 190.248C756.944 189.595 758.065 188.336 758.623 187.563L758.627 187.557L758.632 187.55C761.888 182.995 762.793 177.021 761.107 171.368C758.692 163.271 751.34 157.192 743.143 156.499M698.52 167.037L743.143 156.499M743.143 156.499C743.036 156.347 742.931 156.2 742.835 156.068L742.831 156.061L742.826 156.055C738.487 150.122 731.901 146.108 724.841 145.144L743.143 156.499ZM719.642 144.966C721.226 144.839 723.136 144.911 724.839 145.144L719.642 144.966Z" fill="black" stroke="#5C8647" stroke-width="8"/>
<path d="M567.401 103.239C569.361 104.169 571.12 105.721 572.465 107.719C572.672 108.018 575.093 112.191 577.851 116.985C580.61 121.78 583.176 126.236 583.552 126.889C583.929 127.543 584.221 128.111 584.198 128.157C584.182 128.203 582.638 129.102 580.771 130.163L577.367 132.084L577.936 132.137C578.251 132.16 581.839 132.23 585.919 132.283C589.999 132.329 594.832 132.399 596.661 132.422L599.988 132.468L600.134 132.237C600.587 131.477 611.052 112.659 611.029 112.636C611.014 112.621 609.485 113.512 607.633 114.603C605.781 115.702 604.245 116.601 604.214 116.601C604.191 116.593 602.8 114.257 601.133 111.399C599.465 108.541 597.898 105.898 597.652 105.529C596.884 104.361 595.839 103.6 594.471 103.208L593.872 103.039L580.387 103.016L566.902 103.001L567.401 103.239Z" fill="black"/>
<path d="M559.756 104C556.606 104.338 553.924 105.921 552.234 108.441C551.957 108.848 549.575 112.913 546.932 117.469L542.137 125.744L542.76 126.113C543.105 126.321 547.6 128.933 552.748 131.93C560.609 136.494 562.122 137.354 562.207 137.262C562.261 137.201 564.704 133.006 567.632 127.934C570.567 122.863 573.318 118.107 573.748 117.354L574.532 116.002L572.503 112.605C571.389 110.738 570.236 108.894 569.944 108.51C568.131 106.097 565.741 104.591 562.96 104.123C562.107 103.977 560.547 103.915 559.756 104Z" fill="black"/>
<path d="M603.468 138.299C598.059 141.388 593.556 143.97 593.472 144.031C593.318 144.147 593.479 144.431 599.473 154.788L605.635 165.43L609.661 165.453C613.956 165.469 614.656 165.43 616 165.077C617.422 164.708 618.697 164.132 619.612 163.456C620.28 162.964 621.571 161.665 622.032 161.028C623.246 159.345 623.991 157.547 624.252 155.68C624.483 154.012 624.206 152.115 623.476 150.393C623.269 149.909 621.248 146.344 618.305 141.265C615.654 136.678 613.442 132.875 613.395 132.805C613.319 132.698 611.982 133.443 603.468 138.299Z" fill="black"/>
<path d="M543.658 137.585C538.564 137.692 532.409 137.808 529.19 137.861C527.469 137.884 526.086 137.938 526.116 137.969C526.155 138.007 527.684 138.883 529.52 139.921C531.357 140.966 532.893 141.842 532.924 141.872C532.963 141.911 531.533 144.485 529.751 147.597C527.607 151.362 526.454 153.444 526.332 153.813C525.863 155.211 525.894 156.525 526.408 157.808C526.554 158.154 539.54 180.621 539.74 180.852C539.763 180.882 539.77 180.444 539.755 179.876C539.732 179.307 539.763 178.554 539.809 178.208C540.001 176.841 540.715 174.582 541.33 173.36C541.43 173.153 543.597 169.388 546.148 164.985C548.691 160.582 551.196 156.248 551.711 155.365C552.226 154.474 552.694 153.682 552.748 153.598C552.856 153.459 553.002 153.528 556.19 155.357C558.027 156.41 559.61 157.324 559.717 157.393C559.894 157.509 559.902 157.509 559.848 157.37C559.809 157.286 557.327 152.783 554.315 147.358L548.845 137.5L547.692 137.516C547.062 137.516 545.241 137.554 543.658 137.585Z" fill="black"/>
<path d="M590.213 160.09C590.136 160.198 587.501 164.593 584.351 169.864L578.619 179.438L584.481 189.219L590.336 199L590.359 194.997L590.375 190.986L597.044 190.963C604.405 190.933 604.021 190.956 605.189 190.433C606.526 189.834 607.233 189.073 608.447 186.968C608.938 186.107 611.866 181.013 614.947 175.634C618.036 170.264 620.595 165.792 620.648 165.707C620.71 165.592 620.549 165.661 620.095 165.961C618.42 167.044 616.568 167.697 614.486 167.92C613.987 167.974 609.814 168.004 602.054 168.004H590.375L590.359 163.948C590.336 160.159 590.329 159.914 590.213 160.09Z" fill="black"/>
<path d="M545.541 171.055C543.581 174.559 543.266 175.196 542.859 176.556C542.022 179.338 542.052 181.574 542.974 183.948C544.281 187.321 547.3 189.934 550.781 190.71C551.941 190.963 552.625 190.979 562.422 190.979H572.242V179.376V167.774H559.809H547.385L545.541 171.055Z" fill="black"/>
<path d="M479.48 162.147C478.663 181.899 462.33 197.912 443 197.912C423.67 197.912 408.663 181.899 409.48 162.147C410.298 142.394 442.849 112.537 447.259 95C449.757 112.537 480.298 142.394 479.48 162.147Z" fill="black"/>
<path d="M481.888 114.089L472.079 113.966C471.753 115.271 470.756 117.244 468.95 120.001C467.624 122.026 466.089 124.144 464.437 126.423C463.897 127.169 463.344 127.931 462.782 128.714C460.575 131.785 458.265 135.107 456.479 138.367C454.736 141.547 453.181 145.207 453.029 148.882C452.509 161.461 461.998 171.934 474.575 171.934C487.152 171.934 497.509 161.461 498.029 148.882C498.182 145.191 496.905 141.521 495.407 138.345C493.872 135.088 491.814 131.766 489.851 128.7C489.409 128.01 488.973 127.334 488.546 126.672C487.014 124.299 485.595 122.101 484.408 120.013C482.844 117.262 482.063 115.331 481.888 114.089Z" fill="black" stroke="#5C8647" stroke-width="10"/>
</svg>
