<svg width="1161" height="1096" viewBox="0 0 1161 1096" fill="none" xmlns="http://www.w3.org/2000/svg">
<path d="M47 772.5H44.5V775V1054V1056.5L47.0046 1056.5L1140 1054.5L1143.78 1054.49L1142.3 1051.02C1121.55 1002.42 1109.85 963.581 1109.15 922.015C1108.44 880.438 1118.72 835.895 1142.33 775.916L1143.67 772.5H1140H47Z" fill="white" stroke="#B0B0B0" stroke-width="5"/>
<path fill-rule="evenodd" clip-rule="evenodd" d="M46.9714 837V828L1121.39 828C1120.48 831.038 1119.61 834.037 1118.79 837H46.9714ZM46.9714 867V858H1113.55C1112.88 861.035 1112.26 864.034 1111.69 867H46.9714ZM46.9714 895V886H1108.65C1108.27 889.028 1107.94 892.026 1107.67 895H46.9714ZM46.9714 925V916H1106.59C1106.57 919.016 1106.6 922.014 1106.69 925H46.9714ZM46.9714 954V945H1108.12C1108.47 948.001 1108.87 951 1109.32 954H46.9714ZM46.9714 983V974H1113.14C1113.83 976.987 1114.57 979.985 1115.36 983H46.9714ZM46.9714 1013V1004H1121.58C1122.55 1006.97 1123.57 1009.97 1124.64 1013H46.9714Z" fill="#E6E6E6"/>
<path d="M217.971 1051H1160.97V1096H216.471L217.971 1051Z" fill="#24321C"/>
<path d="M105.471 71.4999C105.471 55.4997 123.971 -1.55568e-05 198.471 0H282.971L235.971 775H117.971C29.4715 783 36.9663 1051 118 1051H218L216.471 1096H117.971C38.9715 1096 -16.5286 996 4.47137 867L105.471 71.4999Z" fill="#24321C"/>
<path d="M184.697 750L232.347 25H949.612L1129.06 750H184.697Z" fill="#557A42" stroke="#24321C" stroke-width="50"/>
<path d="M1046 676L841 676M1036 650L872 650" stroke="#24321C" stroke-width="12" stroke-dasharray="30 5 62 10 45 12"/>
<path d="M262 676H604" stroke="#24321C" stroke-width="12" stroke-miterlimit="1.41421" stroke-dasharray="125 15 75 20"/>
<path d="M270 650H544" stroke="#24321C" stroke-width="12" stroke-dasharray="150 10"/>
<path d="M616.246 110.647C611.809 111.993 607.067 115.04 595.115 124.323C584.016 132.933 580.817 134.208 570.781 134.208C562.908 134.208 556.385 132.826 540.856 127.901C529.758 124.358 527.823 123.969 520.803 124.004C514.42 124.004 510.9 124.536 505.916 126.307C495.707 129.957 488.831 137.184 486.773 146.467C486.102 149.373 486.358 154.546 487.415 159.4C490.623 174.741 497.474 184.166 507.631 187.319C512.168 188.701 514.532 188.453 533.549 184.343C552.742 180.198 560.133 179.064 568.183 179.064C574.921 179.064 583.974 180.694 587.433 182.501C589.909 183.812 592.841 186.434 594.744 189.056C595.659 190.331 597.041 191.748 597.809 192.209L599.234 193.059L599.849 205.46L600.464 217.861L598.379 218.711C596.361 219.491 592.48 222.042 582.756 229.057C577.142 233.132 576.069 233.663 571.342 234.868C567.559 235.825 567.348 235.86 560.28 235.647C553.638 235.435 552.93 235.47 551.79 236.073C550.063 236.994 549.193 238.057 548.244 240.36C546.662 244.222 546.747 252.371 548.445 258.713L549.185 261.477L552.08 262.646C553.707 263.284 555.865 263.886 556.899 263.992L558.789 264.205L558.903 270.795C558.978 276.606 559.06 277.527 559.646 278.625C559.999 279.299 562.092 281.46 564.247 283.444L568.182 286.987L568.423 303.994C568.679 322.737 568.656 322.985 566.442 327.697C563.714 333.473 558.988 339 552.298 344.244C545.912 349.204 546.641 348.885 540.692 349.062C531.626 349.31 530.4 348.921 523.957 343.429C522.219 341.976 520.047 340.382 519.136 339.886C518.154 339.39 517.45 338.787 517.433 338.433C517.406 337.902 517.048 337.831 515.204 337.831C513.963 337.831 511.862 337.654 510.47 337.476C507.003 336.945 506.721 336.98 506.76 337.76C506.788 338.327 506.441 338.468 504.605 338.646C503.369 338.752 479.229 340.382 450.949 342.224C422.672 344.102 399.026 345.696 398.428 345.803L397.3 345.944L397.691 358.097C397.915 364.758 398.569 383.679 399.209 400.154C399.849 416.629 400.613 437.746 400.971 447.1L401.566 464.107L443.053 468.288C465.864 470.591 492.31 473.248 501.828 474.24C511.344 475.197 520.289 476.083 521.715 476.225L524.279 476.437L524.171 474.276L524.062 472.079L526.18 470.449C531.172 466.694 534.29 465.206 541.117 463.434C546.473 462.017 550.982 461.414 555.981 461.379C560.485 461.379 560.878 461.45 574.218 464.426C612.623 472.965 617.666 473.815 626.97 473.355C637.935 472.788 644.663 471.867 660.252 468.713C702.809 460.139 726.609 457.375 735.891 460.033C740.997 461.45 744.425 463.363 747.74 466.552C753.287 471.867 755.436 477.288 758.071 492.523C758.62 495.712 759.285 499.113 759.549 500.141C760.487 504.038 761.067 511.443 761.273 522.746C761.681 542.41 762.726 545.599 769.385 547.583C788.279 553.145 805.979 553.925 825.113 550.028C833.611 548.327 842.095 545.634 853.225 541.241C857.364 539.611 858.37 538.442 858.765 534.969C859.73 526.537 854.169 482.354 849.056 457.907C846.492 445.541 844.819 439.695 841.586 431.723C835.238 415.992 830.016 407.949 821.045 400.119C811.187 391.544 800.453 384.635 786.613 378.01C767.651 368.939 745.312 361.853 723.018 357.814C719.19 357.141 714.752 356.326 713.142 356.042C711.568 355.759 709.38 355.263 708.298 354.908C705.524 354.023 701.193 351.082 699.049 348.602C695.625 344.633 692.447 337.76 690.629 330.426C689.742 326.847 689.823 327.768 689.054 310.832L688.392 296.057L691.718 293.046C699.218 286.243 698.883 286.633 699.317 283.231C699.482 281.566 699.663 278.058 699.675 275.437L699.721 270.653L701.342 270.441C704.229 270.016 706.418 268.386 707.291 265.976C708.042 263.957 708.182 256.764 707.561 252.832C706.26 244.47 704.863 242.06 700.727 240.891C698.892 240.36 697.683 240.289 692.551 240.501L686.533 240.714L680.406 238.73C673.486 236.498 668.302 234.23 665.544 232.246C664.55 231.502 661.868 228.916 659.619 226.471C657.37 224.026 654.647 221.333 653.579 220.518L651.588 218.995L650.941 205.956C650.498 197.028 650.399 192.882 650.683 192.882C651.534 192.882 653.535 191.04 654.617 189.268C658.292 183.28 662.751 180.942 672.933 179.595C678.006 178.922 682.794 178.922 689.175 179.595C695.592 180.269 699.599 180.977 714.937 184.201C735.258 188.489 737.077 188.701 741.622 187.39C752.529 184.201 759.402 171.198 759.546 153.376C759.578 150.436 759.417 149.337 758.698 146.999C756.424 139.771 752.256 134.385 745.632 130.24C737.759 125.244 726.541 122.87 716.852 124.146C712.589 124.713 711.154 125.102 702.571 127.937C687.949 132.72 681.143 134.208 673.27 134.208C668.66 134.208 667.272 134.102 664.541 133.393C659.442 132.118 656.595 130.488 646.668 123.402C636.85 116.351 632.783 113.729 628.718 111.851C624.437 109.902 620.196 109.477 616.246 110.647Z" fill="#24321C"/>
</svg>
