<svg width="1162" height="1096" viewBox="0 0 1162 1096" fill="none" xmlns="http://www.w3.org/2000/svg">
<path d="M46.9712 772.5H44.4712V775V1054V1056.5L46.9758 1056.5L1139.98 1054.5L1143.75 1054.49L1142.27 1051.02C1121.52 1002.42 1109.83 963.581 1109.12 922.015C1108.41 880.439 1118.69 835.895 1142.3 775.916L1143.64 772.5H1139.97H46.9712Z" fill="white" stroke="#B0B0B0" stroke-width="5"/>
<path fill-rule="evenodd" clip-rule="evenodd" d="M46.9712 837V828H1121.39C1120.48 831.038 1119.61 834.038 1118.79 837H46.9712ZM46.9712 867V858H1113.55C1112.88 861.035 1112.26 864.034 1111.69 867H46.9712ZM46.9712 895V886H1108.65C1108.27 889.028 1107.94 892.027 1107.67 895H46.9712ZM46.9712 925V916H1106.59C1106.57 919.016 1106.6 922.015 1106.69 925H46.9712ZM46.9712 954V945H1108.12C1108.47 948.002 1108.86 951 1109.32 954H46.9712ZM46.9712 983V974H1113.14C1113.83 976.987 1114.57 979.985 1115.36 983H46.9712ZM46.9712 1013V1004H1121.58C1122.55 1006.97 1123.57 1009.97 1124.64 1013H46.9712Z" fill="#E6E6E6"/>
<path d="M217.971 1051H1160.97V1096H216.471L217.971 1051Z" fill="#557A42"/>
<path d="M264.971 0H984.471L1161.47 775H217.971L264.971 0Z" fill="#557A42"/>
<path d="M105.471 71.4999C105.471 55.4997 123.971 -1.55568e-05 198.471 0H282.971L235.971 775H117.971C29.4715 783 36.9375 1051 117.971 1051H217.971L216.471 1096H117.971C38.9715 1096 -16.5286 996 4.47137 867L105.471 71.4999Z" fill="black"/>
<path d="M396.971 328.5H579.971" stroke="black" stroke-width="15" stroke-dasharray="30 10 120 10"/>
<path d="M398.971 299.5H546.971" stroke="black" stroke-width="15" stroke-dasharray="25 5 80 10"/>
<path d="M400.971 270.5H600.971" stroke="black" stroke-width="15" stroke-dasharray="80 10"/>
<path d="M388.854 73.5H883.676C890.96 73.5 897.191 78.7325 898.45 85.9064L919.428 205.406C921.04 214.588 913.976 223 904.654 223H385.108C376.64 223 369.85 215.994 370.115 207.53L373.861 88.0301C374.115 79.9327 380.753 73.5 388.854 73.5Z" fill="#5C8647" stroke="black" stroke-width="10"/>
<path d="M839.456 868.218C839.456 864.812 835.971 858 829 858H938.544C945.515 858 949 863.109 949 868.218L942.029 1009L894.228 956.775L845.929 1009L839.456 868.218Z" fill="#314626"/>
<mask id="path-11-inside-1_302_12" fill="white">
<path d="M801.361 194.429C801.144 194.186 798.027 189.633 798.018 189.546C798.013 189.494 799.212 187.009 800.677 184.029C802.152 181.049 803.354 178.598 803.352 178.581C803.351 178.564 800.797 178.538 797.676 178.529L791.994 178.503L790.284 176.027L788.575 173.559L788.806 173.064C788.937 172.794 789.483 171.673 790.022 170.57L791.005 168.563L799.671 168.537L808.337 168.511L812.333 160.395C814.537 155.938 816.337 152.271 816.336 152.254C816.334 152.237 811.986 152.228 806.675 152.237L797.018 152.263L796.733 152.828C796.58 153.14 794.968 156.407 793.151 160.083L789.854 166.773L786.886 166.799L783.907 166.816L782.187 164.331L780.468 161.846L782.788 157.155C784.065 154.565 785.112 152.402 785.123 152.341C785.139 152.237 784.051 152.219 778.625 152.219L772.112 152.211L770.402 149.734L768.7 147.258L769.91 144.79L771.127 142.314H777.64C781.786 142.314 784.14 142.279 784.135 142.227C784.131 142.184 782.652 140.012 780.85 137.405L777.566 132.67L778.783 130.193L780.001 127.717H782.99L785.979 127.726L791.006 134.998L796.033 142.271L805.695 142.297C813.428 142.314 815.354 142.297 815.31 142.21C815.278 142.149 812.748 138.482 809.688 134.06L804.12 126.023L795.447 125.979L786.766 125.936L785.046 123.451L783.335 120.966L784.552 118.481L785.777 115.996L791.456 115.987C794.576 115.987 797.125 115.97 797.122 115.944C797.12 115.918 795.419 113.441 793.332 110.435L789.554 104.97L790.77 102.485L791.988 100.009H794.968H797.948L801.726 105.474C803.804 108.48 805.529 110.93 805.553 110.904C805.586 110.887 806.661 108.741 807.945 106.134L810.269 101.39L813.243 101.416L816.216 101.434L817.935 103.91C819.46 106.117 819.638 106.404 819.557 106.56C819.068 107.464 812.49 120.905 812.497 120.975C812.502 121.027 815.026 124.719 818.116 129.177C822.927 136.128 823.741 137.257 823.815 137.127C824.076 136.667 831.764 120.983 831.743 120.949C831.73 120.914 829.589 117.803 826.979 114.032C824.368 110.253 822.107 106.994 821.954 106.777L821.686 106.378L822.904 103.91L824.122 101.434H827.102H830.073L833.36 106.186C835.162 108.802 836.655 110.939 836.682 110.948C836.708 110.948 837.935 108.48 839.424 105.474L842.123 100L845.096 100.017L848.07 100.043L849.736 102.433C850.727 103.849 851.401 104.892 851.403 104.996C851.395 105.092 850.218 107.542 848.789 110.444C847.351 113.346 846.165 115.787 846.146 115.857C846.113 115.97 846.772 115.987 851.787 116.005L857.461 116.031L859.18 118.507C860.438 120.314 860.875 121.009 860.833 121.114C860.796 121.183 860.241 122.304 859.607 123.59L858.437 125.936L849.78 125.962L841.113 125.979L837.126 134.095C834.922 138.552 833.132 142.227 833.135 142.262C833.138 142.288 837.478 142.306 842.789 142.297L852.428 142.271L856.017 134.998L859.605 127.717H862.585H865.565L867.275 130.193L868.985 132.67L866.825 137.031C865.644 139.438 864.579 141.593 864.461 141.819C864.306 142.114 864.276 142.245 864.357 142.271C864.421 142.297 867.377 142.323 870.92 142.34L877.356 142.358L879.022 144.747C879.932 146.059 880.684 147.18 880.699 147.241C880.704 147.293 880.168 148.431 879.521 149.76L878.323 152.176L871.789 152.219L865.246 152.263L867.865 156.042C869.308 158.119 870.802 160.274 871.182 160.839L871.879 161.846L870.671 164.331L869.453 166.808H866.473L863.494 166.816L858.466 159.535L853.43 152.263L843.769 152.237C837.361 152.228 834.119 152.245 834.152 152.306C834.165 152.35 836.695 156.025 839.766 160.465L845.347 168.546L854.018 168.572L862.698 168.598L864.408 171.074C865.647 172.864 866.104 173.585 866.061 173.681C866.024 173.75 865.47 174.871 864.835 176.157L863.675 178.503L858.006 178.529C854.895 178.538 852.348 178.572 852.351 178.598C852.353 178.624 853.471 180.258 854.832 182.222C856.194 184.194 857.893 186.644 858.601 187.678L859.9 189.555L858.682 192.023L857.455 194.49L854.494 194.507L851.525 194.534L847.747 189.06C845.659 186.045 843.942 183.586 843.915 183.586C843.88 183.586 842.805 185.732 841.523 188.347L839.173 193.1H836.21H833.248L831.538 190.624C830.065 188.504 829.835 188.13 829.898 187.974C829.941 187.878 831.356 185.002 833.041 181.587C834.726 178.173 836.309 174.967 836.557 174.463L837.009 173.542L831.369 165.4C828.277 160.925 825.715 157.285 825.684 157.328C825.559 157.476 817.718 173.463 817.726 173.542C817.731 173.594 819.977 176.878 822.72 180.84C825.464 184.811 827.717 188.078 827.729 188.104C827.741 188.139 827.198 189.286 826.527 190.65L825.294 193.143H822.366H819.43L819.205 192.822C819.082 192.648 817.599 190.511 815.91 188.069C814.221 185.628 812.805 183.638 812.762 183.647C812.719 183.655 811.48 186.097 810.015 189.077L807.345 194.49L804.403 194.516C802.108 194.534 801.43 194.507 801.361 194.429Z"/>
</mask>
<path d="M801.361 194.429C801.144 194.186 798.027 189.633 798.018 189.546C798.013 189.494 799.212 187.009 800.677 184.029C802.152 181.049 803.354 178.598 803.352 178.581C803.351 178.564 800.797 178.538 797.676 178.529L791.994 178.503L790.284 176.027L788.575 173.559L788.806 173.064C788.937 172.794 789.483 171.673 790.022 170.57L791.005 168.563L799.671 168.537L808.337 168.511L812.333 160.395C814.537 155.938 816.337 152.271 816.336 152.254C816.334 152.237 811.986 152.228 806.675 152.237L797.018 152.263L796.733 152.828C796.58 153.14 794.968 156.407 793.151 160.083L789.854 166.773L786.886 166.799L783.907 166.816L782.187 164.331L780.468 161.846L782.788 157.155C784.065 154.565 785.112 152.402 785.123 152.341C785.139 152.237 784.051 152.219 778.625 152.219L772.112 152.211L770.402 149.734L768.7 147.258L769.91 144.79L771.127 142.314H777.64C781.786 142.314 784.14 142.279 784.135 142.227C784.131 142.184 782.652 140.012 780.85 137.405L777.566 132.67L778.783 130.193L780.001 127.717H782.99L785.979 127.726L791.006 134.998L796.033 142.271L805.695 142.297C813.428 142.314 815.354 142.297 815.31 142.21C815.278 142.149 812.748 138.482 809.688 134.06L804.12 126.023L795.447 125.979L786.766 125.936L785.046 123.451L783.335 120.966L784.552 118.481L785.777 115.996L791.456 115.987C794.576 115.987 797.125 115.97 797.122 115.944C797.12 115.918 795.419 113.441 793.332 110.435L789.554 104.97L790.77 102.485L791.988 100.009H794.968H797.948L801.726 105.474C803.804 108.48 805.529 110.93 805.553 110.904C805.586 110.887 806.661 108.741 807.945 106.134L810.269 101.39L813.243 101.416L816.216 101.434L817.935 103.91C819.46 106.117 819.638 106.404 819.557 106.56C819.068 107.464 812.49 120.905 812.497 120.975C812.502 121.027 815.026 124.719 818.116 129.177C822.927 136.128 823.741 137.257 823.815 137.127C824.076 136.667 831.764 120.983 831.743 120.949C831.73 120.914 829.589 117.803 826.979 114.032C824.368 110.253 822.107 106.994 821.954 106.777L821.686 106.378L822.904 103.91L824.122 101.434H827.102H830.073L833.36 106.186C835.162 108.802 836.655 110.939 836.682 110.948C836.708 110.948 837.935 108.48 839.424 105.474L842.123 100L845.096 100.017L848.07 100.043L849.736 102.433C850.727 103.849 851.401 104.892 851.403 104.996C851.395 105.092 850.218 107.542 848.789 110.444C847.351 113.346 846.165 115.787 846.146 115.857C846.113 115.97 846.772 115.987 851.787 116.005L857.461 116.031L859.18 118.507C860.438 120.314 860.875 121.009 860.833 121.114C860.796 121.183 860.241 122.304 859.607 123.59L858.437 125.936L849.78 125.962L841.113 125.979L837.126 134.095C834.922 138.552 833.132 142.227 833.135 142.262C833.138 142.288 837.478 142.306 842.789 142.297L852.428 142.271L856.017 134.998L859.605 127.717H862.585H865.565L867.275 130.193L868.985 132.67L866.825 137.031C865.644 139.438 864.579 141.593 864.461 141.819C864.306 142.114 864.276 142.245 864.357 142.271C864.421 142.297 867.377 142.323 870.92 142.34L877.356 142.358L879.022 144.747C879.932 146.059 880.684 147.18 880.699 147.241C880.704 147.293 880.168 148.431 879.521 149.76L878.323 152.176L871.789 152.219L865.246 152.263L867.865 156.042C869.308 158.119 870.802 160.274 871.182 160.839L871.879 161.846L870.671 164.331L869.453 166.808H866.473L863.494 166.816L858.466 159.535L853.43 152.263L843.769 152.237C837.361 152.228 834.119 152.245 834.152 152.306C834.165 152.35 836.695 156.025 839.766 160.465L845.347 168.546L854.018 168.572L862.698 168.598L864.408 171.074C865.647 172.864 866.104 173.585 866.061 173.681C866.024 173.75 865.47 174.871 864.835 176.157L863.675 178.503L858.006 178.529C854.895 178.538 852.348 178.572 852.351 178.598C852.353 178.624 853.471 180.258 854.832 182.222C856.194 184.194 857.893 186.644 858.601 187.678L859.9 189.555L858.682 192.023L857.455 194.49L854.494 194.507L851.525 194.534L847.747 189.06C845.659 186.045 843.942 183.586 843.915 183.586C843.88 183.586 842.805 185.732 841.523 188.347L839.173 193.1H836.21H833.248L831.538 190.624C830.065 188.504 829.835 188.13 829.898 187.974C829.941 187.878 831.356 185.002 833.041 181.587C834.726 178.173 836.309 174.967 836.557 174.463L837.009 173.542L831.369 165.4C828.277 160.925 825.715 157.285 825.684 157.328C825.559 157.476 817.718 173.463 817.726 173.542C817.731 173.594 819.977 176.878 822.72 180.84C825.464 184.811 827.717 188.078 827.729 188.104C827.741 188.139 827.198 189.286 826.527 190.65L825.294 193.143H822.366H819.43L819.205 192.822C819.082 192.648 817.599 190.511 815.91 188.069C814.221 185.628 812.805 183.638 812.762 183.647C812.719 183.655 811.48 186.097 810.015 189.077L807.345 194.49L804.403 194.516C802.108 194.534 801.43 194.507 801.361 194.429Z" fill="black" stroke="#5C8647" stroke-width="2" mask="url(#path-11-inside-1_302_12)"/>
<path d="M479.48 162.147C478.663 181.899 462.33 197.912 443 197.912C423.67 197.912 408.663 181.899 409.48 162.147C410.298 142.394 442.849 112.537 447.259 95C449.757 112.537 480.298 142.394 479.48 162.147Z" fill="black"/>
<path d="M481.888 114.089L472.079 113.966C471.753 115.271 470.756 117.244 468.95 120.001C467.624 122.026 466.089 124.144 464.437 126.423C463.897 127.169 463.344 127.931 462.782 128.714C460.575 131.785 458.265 135.107 456.479 138.367C454.736 141.547 453.181 145.207 453.029 148.882C452.509 161.461 461.998 171.934 474.575 171.934C487.152 171.934 497.509 161.461 498.029 148.882C498.182 145.191 496.905 141.521 495.407 138.345C493.872 135.088 491.814 131.766 489.851 128.7C489.409 128.01 488.973 127.334 488.546 126.672C487.014 124.299 485.595 122.101 484.408 120.013C482.844 117.262 482.063 115.331 481.888 114.089Z" fill="black" stroke="#5C8647" stroke-width="10"/>
<path d="M567.401 103.239C569.361 104.169 571.12 105.721 572.465 107.719C572.672 108.018 575.093 112.191 577.851 116.985C580.61 121.78 583.176 126.236 583.552 126.889C583.929 127.543 584.221 128.111 584.198 128.157C584.182 128.203 582.638 129.102 580.771 130.163L577.367 132.084L577.936 132.137C578.251 132.16 581.839 132.23 585.919 132.283C589.999 132.329 594.832 132.399 596.661 132.422L599.988 132.468L600.134 132.237C600.587 131.477 611.052 112.659 611.029 112.636C611.014 112.621 609.485 113.512 607.633 114.603C605.781 115.702 604.245 116.601 604.214 116.601C604.191 116.593 602.8 114.257 601.133 111.399C599.465 108.541 597.898 105.898 597.652 105.529C596.884 104.361 595.839 103.6 594.471 103.208L593.872 103.039L580.387 103.016L566.902 103.001L567.401 103.239Z" fill="black"/>
<path d="M559.756 104C556.606 104.338 553.924 105.921 552.234 108.441C551.957 108.848 549.575 112.913 546.932 117.469L542.137 125.744L542.76 126.113C543.105 126.321 547.6 128.933 552.748 131.93C560.609 136.494 562.122 137.354 562.207 137.262C562.261 137.201 564.704 133.006 567.632 127.934C570.567 122.863 573.318 118.107 573.748 117.354L574.532 116.002L572.503 112.605C571.389 110.738 570.236 108.894 569.944 108.51C568.131 106.097 565.741 104.591 562.96 104.123C562.107 103.977 560.547 103.915 559.756 104Z" fill="black"/>
<path d="M603.468 138.299C598.059 141.388 593.556 143.97 593.472 144.031C593.318 144.147 593.479 144.431 599.473 154.788L605.635 165.43L609.661 165.453C613.956 165.469 614.656 165.43 616 165.077C617.422 164.708 618.697 164.132 619.612 163.456C620.28 162.964 621.571 161.665 622.032 161.028C623.246 159.345 623.991 157.547 624.252 155.68C624.483 154.012 624.206 152.115 623.476 150.393C623.269 149.909 621.248 146.344 618.305 141.265C615.654 136.678 613.442 132.875 613.395 132.805C613.319 132.698 611.982 133.443 603.468 138.299Z" fill="black"/>
<path d="M543.658 137.585C538.564 137.692 532.409 137.808 529.19 137.861C527.469 137.884 526.086 137.938 526.116 137.969C526.155 138.007 527.684 138.883 529.52 139.921C531.357 140.966 532.893 141.842 532.924 141.872C532.963 141.911 531.533 144.485 529.751 147.597C527.607 151.362 526.454 153.444 526.332 153.813C525.863 155.211 525.894 156.525 526.408 157.808C526.554 158.154 539.54 180.621 539.74 180.852C539.763 180.882 539.77 180.444 539.755 179.876C539.732 179.307 539.763 178.554 539.809 178.208C540.001 176.841 540.715 174.582 541.33 173.36C541.43 173.153 543.597 169.388 546.148 164.985C548.691 160.582 551.196 156.248 551.711 155.365C552.226 154.474 552.694 153.682 552.748 153.598C552.856 153.459 553.002 153.528 556.19 155.357C558.027 156.41 559.61 157.324 559.717 157.393C559.894 157.509 559.902 157.509 559.848 157.37C559.809 157.286 557.327 152.783 554.315 147.358L548.845 137.5L547.692 137.516C547.062 137.516 545.241 137.554 543.658 137.585Z" fill="black"/>
<path d="M590.213 160.09C590.136 160.198 587.501 164.593 584.351 169.864L578.619 179.438L584.481 189.219L590.336 199L590.359 194.997L590.375 190.986L597.044 190.963C604.405 190.933 604.021 190.956 605.189 190.433C606.526 189.834 607.233 189.073 608.447 186.968C608.938 186.107 611.866 181.013 614.947 175.634C618.036 170.264 620.595 165.792 620.648 165.707C620.71 165.592 620.549 165.661 620.095 165.961C618.42 167.044 616.568 167.697 614.486 167.92C613.987 167.974 609.814 168.004 602.054 168.004H590.375L590.359 163.948C590.336 160.159 590.329 159.914 590.213 160.09Z" fill="black"/>
<path d="M545.541 171.055C543.581 174.559 543.266 175.196 542.859 176.556C542.022 179.338 542.052 181.574 542.974 183.948C544.281 187.321 547.3 189.934 550.781 190.71C551.941 190.963 552.625 190.979 562.422 190.979H572.242V179.376V167.774H559.809H547.385L545.541 171.055Z" fill="black"/>
<path d="M700.077 110.081C696.684 110.477 693.612 111.641 690.938 113.569C689.301 114.741 687.68 116.371 686.599 117.931C686.444 118.157 686.303 118.355 686.296 118.369C686.283 118.383 686.013 118.313 685.7 118.207C684.868 117.938 683.853 117.691 682.969 117.557C681.908 117.395 679.853 117.395 678.817 117.557C674.538 118.221 670.983 120.543 668.703 124.151C667.131 126.643 666.343 129.862 666.568 132.827L666.641 133.759L666.417 133.794C666.291 133.815 665.912 133.865 665.562 133.907C662.667 134.26 659.559 135.615 657.23 137.543C654.256 140.006 652.233 143.515 651.558 147.39C651.333 148.682 651.291 149.311 651.35 150.885C651.406 152.6 651.534 153.483 651.926 154.916C653.691 161.262 658.886 166.204 665.259 167.581C667.158 167.99 665.257 167.969 695.787 167.969C722.573 167.969 724.016 167.962 724.814 167.842C729.359 167.157 733.151 165.209 736.129 162.025C737.095 161.001 737.601 160.352 738.317 159.229C739.876 156.787 740.829 154.09 741.199 151.026C741.299 150.207 741.311 149.734 741.262 148.238C741.196 146.247 741.052 145.273 740.588 143.6C739.149 138.39 735.745 133.978 731.045 131.231C728.655 129.834 725.937 128.93 723.189 128.612C722.362 128.514 722.355 128.514 722.338 127.984C722.315 127.313 721.828 125.139 721.455 124.059C720.871 122.344 719.89 120.36 718.959 119.011C715.618 114.162 710.673 111.041 704.965 110.187C703.657 109.99 701.297 109.94 700.077 110.081Z" fill="black"/>
<path d="M706.074 147.599L706.067 147.602C703.627 148.866 701.808 150.205 699.898 152.17L706.074 147.599ZM706.074 147.599C708.893 146.145 711.902 145.308 715.194 145.044M706.074 147.599L715.194 145.044M693.157 167.164C693.375 164.222 694.042 161.648 695.292 158.909C696.477 156.309 697.906 154.217 699.897 152.171L693.157 167.164ZM693.157 167.164C691.692 167.726 690.316 168.536 689.152 169.529L689.145 169.535C688.452 170.13 687.396 171.278 686.865 172.034C683.004 177.518 683.581 185.179 688.323 190.233C690.559 192.622 693.25 194.103 696.407 194.733C697.339 194.92 698.033 194.926 700.462 194.948C700.673 194.95 700.898 194.952 701.137 194.954L701.156 194.954H701.175H704.668H721.667C726.749 194.954 731.051 194.949 734.119 194.94C735.653 194.936 736.882 194.93 737.749 194.924C738.181 194.921 738.53 194.918 738.784 194.914C738.794 194.914 738.806 194.914 738.819 194.913C738.958 194.912 739.291 194.908 739.536 194.884L739.536 194.884C743.467 194.493 746.966 192.987 749.893 190.433L749.901 190.427C750.647 189.772 751.82 188.51 752.41 187.736L752.415 187.729L752.42 187.723C755.865 183.157 757.017 177.17 755.565 171.504C753.486 163.389 746.385 157.297 738.217 156.602M693.157 167.164L738.217 156.602M738.217 156.602C738.116 156.45 738.017 156.302 737.927 156.171L737.923 156.164L737.918 156.157C733.825 150.212 727.406 146.189 720.385 145.222L738.217 156.602ZM715.194 145.044C716.783 144.916 718.69 144.988 720.383 145.222L715.194 145.044Z" fill="black" stroke="#5C8647" stroke-width="8"/>
</svg>
