<svg width="1161" height="1096" viewBox="0 0 1161 1096" fill="none" xmlns="http://www.w3.org/2000/svg">
<path d="M47 772.5H44.5V775V1054V1056.5L47.0046 1056.5L1140 1054.5L1143.78 1054.49L1142.3 1051.02C1121.55 1002.42 1109.85 963.581 1109.15 922.015C1108.44 880.438 1118.72 835.895 1142.33 775.916L1143.67 772.5H1140H47Z" fill="white" stroke="#B0B0B0" stroke-width="5"/>
<path fill-rule="evenodd" clip-rule="evenodd" d="M46.9712 837V828L1121.39 828C1120.48 831.038 1119.61 834.037 1118.79 837H46.9712ZM46.9712 867V858H1113.55C1112.88 861.035 1112.26 864.034 1111.69 867H46.9712ZM46.9712 895V886H1108.65C1108.27 889.028 1107.94 892.026 1107.67 895H46.9712ZM46.9712 925V916H1106.59C1106.57 919.016 1106.6 922.014 1106.69 925H46.9712ZM46.9712 954V945H1108.12C1108.47 948.001 1108.86 951 1109.32 954H46.9712ZM46.9712 983V974H1113.14C1113.83 976.987 1114.57 979.985 1115.36 983H46.9712ZM46.9712 1013V1004H1121.58C1122.55 1006.97 1123.57 1009.97 1124.64 1013H46.9712Z" fill="#E6E6E6"/>
<path d="M217.971 1051H1160.97V1096H216.471L217.971 1051Z" fill="black"/>
<path d="M105.471 71.4999C105.471 55.4997 123.971 -1.55568e-05 198.471 0H282.971L235.971 775H117.971C29.4715 783 36.9663 1051 118 1051H218L216.471 1096H117.971C38.9715 1096 -16.5286 996 4.47137 867L105.471 71.4999Z" fill="black"/>
<path d="M184.697 750L232.347 25H949.612L1129.06 750H184.697Z" fill="#557A42" stroke="black" stroke-width="50"/>
<path d="M917 116L712 116M907 90L743 90" stroke="black" stroke-width="12" stroke-dasharray="30 5 62 10 45 12"/>
<path d="M298 177.5H459" stroke="black" stroke-width="15" stroke-dasharray="100 10 1600 200"/>
<path d="M300 148H483" stroke="black" stroke-width="15" stroke-dasharray="50 10 1600 0.1"/>
<path d="M302 119H450" stroke="black" stroke-width="15" stroke-dasharray="40 10 50 5"/>
<path d="M304 90H504" stroke="black" stroke-width="15" stroke-dasharray="100 20"/>
<path d="M1050.11 754.33L1049.21 750.292C1046.37 737.525 1043.65 726.481 1041.81 720.305C1040.69 716.446 1039.62 712.408 1039.47 711.339C1039.33 710.27 1039.65 703.679 1040.16 696.672C1041.19 682.837 1041.21 679.393 1040.25 678.918C1039.43 678.562 1037.12 684.203 1035.25 691.328L1033.77 696.851L1032.14 693.11C1028.09 683.846 1022.5 674.227 1020.87 673.693C1019.75 673.396 1020.5 678.562 1022.63 686.043C1027.24 702.195 1030.53 716.149 1030.19 718.108C1029.62 721.493 1028.84 734.022 1028.82 739.782L1028.76 745.126L1026.75 737.704C1025.61 733.606 1023.52 726.956 1022.14 722.859C1019.95 716.743 1019.1 713.061 1017.18 701.779C1013.26 678.68 1010.31 666.389 1008.14 664.489C1007.06 663.539 1006.55 664.667 1006.22 668.527C1005.85 672.921 1005.75 683.015 1006.1 685.628C1006.37 687.647 1006.28 687.884 1005.16 687.528C1003.97 687.172 1003.94 687.409 1004.41 690.913L1004.91 694.653L1003.32 692.16C1002.48 690.794 1001.33 689.369 1000.79 688.953C999.333 687.884 1000.18 692.456 1003.76 705.401C1006.63 715.674 1007.09 718.227 1009.44 735.447L1011.95 754.33H1050.11Z" fill="black"/>
<path fill-rule="evenodd" clip-rule="evenodd" d="M1006.86 754.33L1004.82 739.01C999.101 696.494 992.762 670.011 990.691 680.105C990.321 681.827 990.217 681.946 989.663 680.937C987.265 676.424 986.963 695.307 988.99 724.046C989.437 730.103 989.741 735.091 989.637 735.21C989.481 735.388 983.314 719.652 981.389 714.189L979.738 709.439L982.113 696.672C986.624 672.505 987.091 669.714 987.124 666.805C987.175 664.489 987.044 663.954 986.416 664.192C985.034 664.607 981.201 672.267 977.806 681.412L977.67 681.771C975.932 686.38 975.007 688.834 974.321 688.687C973.539 688.519 973.068 684.975 972.06 677.396L971.994 676.899C970.524 665.854 970.36 660.57 971.22 648.575C971.606 643.825 971.784 639.312 971.681 638.54L971.499 637.174L970.132 638.599C966.816 642.043 963.246 656.176 962.594 667.933C962.252 674.821 964.822 695.485 967.261 704.807L968.917 711.398L967.738 717.396C967.102 720.721 966.492 723.334 966.356 723.215C966.228 723.156 964.904 719.058 963.358 714.189C960.869 706.292 960.366 703.857 958.706 691.388C956.905 677.849 956.878 677.196 957.589 668.586C958.353 659.026 958.356 657.244 957.417 657.838C957.037 658.135 956.898 657.541 956.984 655.938C956.998 654.691 957.071 653.444 957.092 653.147C957.052 652.85 956.765 652.494 956.33 652.375C955.197 651.96 952.208 658.313 950.486 664.726C948.261 673.217 947.455 684.262 948.379 694.357L948.694 697.622L945.269 690.794C943.393 687.053 941.363 682.599 940.73 680.996C940.15 679.334 939.277 677.73 938.819 677.433C938.412 677.077 936.527 674.168 934.655 670.902C926.393 656.532 913.635 638.54 911.718 638.54C910.76 638.54 911.641 642.459 913.969 647.803C915.195 650.713 918.794 658.848 922.002 665.854C934.71 693.822 937.308 700.295 937.382 704.451L937.457 707.717L935.884 704.451C933.452 699.226 925.521 685.093 921.409 678.502C918.509 673.811 917.422 671.495 916.711 668.408C915.445 662.945 913.368 658.135 912.289 658.135C911.87 658.135 911.278 659.085 911.076 660.273L910.634 662.351L908.297 660.095L906.02 657.838L906.205 659.679C906.331 660.629 907.326 663.598 908.392 666.211C908.518 666.519 908.637 666.806 908.748 667.077C909.278 668.363 909.65 669.264 909.925 670.181C910.569 672.332 910.681 674.572 911.056 682.062C911.104 683.005 911.155 684.032 911.212 685.153C911.482 691.684 911.946 700.116 912.204 703.857C912.669 710.508 912.586 710.33 910.278 696.138C905.037 663.954 900.293 644.062 897.79 643.706C896.748 643.528 896.009 649.228 896.094 656.176C896.183 661.342 895.969 662.885 895.274 663.064C892.733 663.776 893.558 689.784 897.395 726.718L898.812 740.969L894.953 730.875C887.891 712.467 885.119 701.541 883.654 686.934C882.887 678.918 882.793 675.058 883.322 668.23C883.708 663.479 883.962 659.085 883.883 658.491C883.816 657.988 883.779 657.71 883.66 657.655C883.512 657.587 883.239 657.866 882.625 658.491C879.777 661.401 877.08 670.842 876.215 680.996C875.675 687.29 875.795 689.547 877.218 700.235C878.667 711.577 878.678 712.111 877.525 708.845C874.24 699.463 866.613 684.915 864.745 684.381C863.567 684.084 864.158 687.172 867.403 699.404C872.837 719.533 873.508 722.324 871.291 716.921C869.501 712.467 865.541 705.223 863.062 701.898C861.46 699.76 860.154 697.147 859.387 694.535C852.959 673.693 841.65 650.831 830.967 637.174C827.87 633.255 826.749 632.483 826.407 633.968C826.275 634.324 827.834 638.837 829.824 643.884C835.868 659.145 841.477 674.286 842.896 679.096C843.235 680.25 843.489 681.116 843.658 681.83L847.971 697.84C848.421 698.406 850.316 706.985 851.944 716.03C853.207 723.274 854.551 733.369 855.204 740.079C855.436 742.778 855.666 745.382 855.856 747.538L855.857 747.538C856.114 750.456 856.3 752.554 856.32 752.964C856.456 753.99 856.343 754.247 853.934 754.31L853.937 754.33H871.118H940.565L931.64 754.033L928.752 735.031C927.122 724.581 925.187 712.289 924.398 707.717L922.993 699.404L924.605 702.967C925.465 704.926 928.123 711.398 930.411 717.336C934.903 729.034 939.921 744.235 941.409 750.47L942.336 754.33H978.883L977.458 750.826C976.05 747.442 975.994 747.026 976.454 741.029C976.647 737.525 977.002 734.794 977.138 734.913C977.273 735.031 979.16 739.307 981.277 744.413C983.455 749.52 985.229 753.855 985.253 754.033C985.277 754.211 983.855 754.33 982.118 754.33H1006.86ZM871.118 754.33C869.98 754.33 869.648 754.092 869.777 753.261C869.826 752.727 869.514 747.679 869.019 742.157L868.155 732.063L869.94 740.079C870.944 744.473 871.975 749.52 872.197 751.183C872.652 754.152 872.615 754.33 871.118 754.33Z" fill="black"/>
<path d="M989.061 480.202C988.449 480.801 987.295 482.854 986.556 484.778C985.779 486.745 984.618 489.397 983.967 490.68C982.835 492.904 982.716 492.99 982.208 492.092C981.759 491.322 981.937 490.381 982.998 487.301C984.346 483.452 984.346 483.452 983.408 482.255C982.061 480.587 981.165 480.031 979.732 479.988C977.352 479.988 975.934 481.357 975.831 483.837C975.777 485.377 975.777 485.377 973.397 485.377C970.077 485.462 968.873 486.489 969.041 489.055C969.26 492.648 971.013 494.444 974.373 494.658C976.158 494.743 976.207 494.786 976.705 496.582C977.519 499.448 978.098 507.702 977.701 510.568C977.126 514.374 974.782 520.49 972.671 523.484C970.1 527.247 964.046 532.465 963.208 531.695C963.061 531.567 961.685 528.702 960.153 525.323C956.74 517.881 955.506 512.834 956.414 510.225C957.04 508.429 959.523 506.932 961.946 506.932H963.546L963.245 504.666C963.085 503.468 962.642 501.757 962.311 500.902C961.685 499.448 961.538 499.319 959.563 499.106C957.106 498.849 955.083 499.576 954.536 500.987C954.301 501.501 954.208 503.725 954.331 505.949C954.501 508.857 954.412 510.14 953.892 510.781C953.115 511.765 952.377 511.423 951.065 509.37C949.176 506.547 951.14 501.8 955.941 497.566C958.425 495.428 958.526 495.214 958.298 493.503C957.974 491.065 957.234 490.381 954.506 490.039C952.396 489.782 952.185 489.825 951.667 490.809C951.325 491.493 951.166 493.546 951.276 496.326C951.464 500.987 951.078 502.313 949.155 503.468C947.755 504.323 946.691 503.81 946.475 502.185C946.378 501.458 946.701 498.678 947.207 495.984C947.903 492.434 948.027 490.766 947.669 489.697C946.995 487.558 946.148 487.045 944.618 487.9C943.163 488.67 943.172 490.039 944.66 493.417C945.84 496.112 946.159 498.507 945.515 500.175L944.994 501.458L943.782 500.474C940.666 497.865 938.841 492.605 939.641 488.542C940.066 486.532 940.026 486.232 939.252 485.291C937.845 483.495 934.892 483.41 933.389 485.12C932.187 486.489 932.683 487.943 935.099 490.167C938.108 492.947 939.384 495.385 937.87 495.385C936.831 495.385 934.85 493.503 933.32 491.108C931.79 488.713 930.299 487.259 929.347 487.259C927.054 487.259 925.802 490.851 927.138 493.417C927.73 494.615 927.823 494.658 930.427 494.401L933.076 494.144L935.29 496.155C952.449 511.637 965.437 536.742 973.082 569.161C975.112 577.586 978.116 595.934 978.717 603.376L979.289 610.604L974.124 605.6C963.794 595.592 958.062 588.278 954.588 580.708C952.52 576.218 951.534 572.71 950.817 567.322C950.259 563.13 950.28 562.959 951.115 563.387C951.62 563.601 953.162 563.815 954.547 563.815C956.84 563.815 957.088 563.729 957.465 562.66C958.233 560.308 957.354 558.255 955.092 557.185C951.951 555.689 950.164 556.886 949.946 560.778C949.726 564.328 949.394 566.381 949.004 566.381C948.399 566.381 947.379 564.242 947.151 562.532C947.032 561.633 947.238 559.281 947.587 557.357C948.679 551.583 947.968 549.487 945.241 550.129C942.304 550.813 942.158 551.668 944.203 556.629C944.906 558.34 945.597 560.607 945.739 561.676L945.952 563.601L944.903 561.89C942.383 557.913 938.4 556.587 935.901 558.939C934.82 559.923 934.736 560.265 935.038 562.532C935.482 565.867 936.242 566.381 940.958 566.381C942.861 566.381 944.658 566.552 944.983 566.723C945.732 567.151 947.434 570.187 950.658 576.859C954.354 584.472 957.21 588.706 964.339 597.089C975.659 610.304 979.394 618.216 979.898 629.807C980.239 637.248 979.669 641.739 976.47 657.692C973.775 671.249 973.123 679.675 974.187 687.673C974.921 693.19 975.223 693.831 976.78 693.831C977.732 693.831 978.05 693.617 978.077 692.848C978.095 692.334 978.172 689.982 978.199 687.587C978.355 682.583 979.639 675.655 981.544 670.137C982.255 667.999 984.734 661.926 987.014 656.623C995.152 637.804 996.332 633.014 996.352 619.842C996.315 608.508 997.051 605.257 1000.47 601.365C1001.97 599.655 1002.53 599.313 1003.87 599.313C1008.28 599.27 1010.65 597.602 1010.28 594.779C1009.87 591.743 1007.77 589.903 1004.7 589.903C1002.58 589.903 1001.34 591.999 1001 596.233C1000.78 599.142 999.849 601.579 998.579 602.435C997.276 603.376 997.319 603.376 996.552 601.836C994.759 598.115 995.464 594.309 998.764 590.502C1000.71 588.235 1000.78 588.064 1000.15 586.91C999.063 584.942 997.884 584.215 996.237 584.515C993.871 584.942 993.365 586.012 994.072 589.048C994.389 590.459 994.586 591.614 994.5 591.614C994.413 591.614 993.342 590.716 992.156 589.604C989.99 587.637 989.898 587.594 988.349 587.979C987.344 588.235 986.596 588.791 986.373 589.39C986.188 589.946 985.84 590.588 985.653 590.802C985.051 591.486 985.853 593.282 987.14 594.18C988.14 594.865 988.757 594.95 990.768 594.779C993.453 594.48 994.479 595.036 994.459 596.832C994.454 597.773 994.373 597.816 990.289 597.687C986.157 597.516 986.076 597.559 985.315 598.671C984.497 599.997 984.603 602.093 985.609 603.803C986.391 605.129 988.806 606.369 991.323 606.754L993.137 607.054L993.371 611.416C994.4 629.55 992.547 641.311 986.853 652.816C985.284 655.981 981.599 662.097 981.542 661.669C981.525 661.541 981.654 658.932 981.85 655.853C983.661 623.947 983.475 613.127 980.741 592.256C978.453 575.063 978.519 575.234 972.963 560.136C969.289 550.086 967.695 544.611 967.035 539.65L966.523 535.801L968.919 532.679C976.043 523.142 982.928 519.934 991.654 522.115C994.698 522.885 995.151 522.714 995.804 520.789C996.992 517.368 995.149 514.246 991.516 513.604C989.389 513.219 988.436 513.861 986.515 516.983C985.734 518.266 984.688 519.506 984.252 519.806C983.406 520.276 979.319 520.447 978.829 520.02C978.388 519.635 980.676 514.716 982.13 512.963C983.922 510.824 986.093 509.584 989.134 509.028C992.299 508.429 993.097 508.9 993.862 511.722C994.876 515.443 997.144 516.555 999.129 514.246C1001.35 511.765 1000.42 509.327 997.109 508.814C994.857 508.472 994.053 507.959 994.617 507.317C995.33 506.505 997.182 506.761 999.066 507.916C1002.47 510.054 1004.87 510.268 1005.1 508.386C1005.2 507.83 1005.46 507.189 1005.74 507.018C1006.14 506.804 1006.09 506.376 1005.54 505.222C1004.93 503.896 1004.69 503.725 1003.21 503.596C1002.29 503.511 1000.56 503.853 999.286 504.366C996.815 505.307 995.743 505.05 995.532 503.468C995.407 502.527 996.166 502.057 999.147 501.372C1002.54 500.56 1004.5 499.662 1004.89 498.721C1005.42 497.438 1004.3 494.273 1002.93 493.032C1001.9 492.177 1001.27 491.963 999.409 491.963C995.818 491.963 995.234 492.776 995.63 497.053C995.912 500.474 995.88 500.56 994.488 501.8C993.72 502.527 991.372 504.067 989.276 505.222C987.18 506.376 984.691 507.83 983.776 508.429L982.107 509.541L981.656 508.429C980.473 505.393 981.476 500.902 984.971 493.674L987.585 488.285H990.267C993.252 488.285 995.359 487.216 996.115 485.42C996.477 484.564 996.383 484.179 995.684 483.153C994.553 481.485 993.802 480.715 992.39 479.86C990.832 478.876 990.405 478.919 989.061 480.202Z" fill="black" stroke="black" stroke-width="5"/>
<path d="M848.625 403.077C848.543 403.417 848.463 403.747 848.385 404.069C846.351 412.488 845.815 414.709 845.702 418.265C845.737 424.65 845.667 431.982 845.429 443.332C844.638 480.541 846.416 497.797 854.178 527.898C858.106 543.141 864.711 562.923 870.363 576.197C871.203 578.295 871.874 580.093 871.756 580.179C871.425 580.607 863.871 573.157 860.871 569.431C850.118 556.115 842.623 538.731 836.339 512.269C835.358 508.169 834.875 506.485 835.495 505.67C835.982 505.03 837.149 504.925 839.291 504.605C843.696 503.963 844.543 503.192 844.323 500.238C844.091 497.197 843.294 494.457 842.458 493.686C842.067 493.344 840.709 492.873 839.466 492.616C836.536 492.016 834.155 492.616 832.532 494.371C831.846 495.127 831.563 495.438 831.317 495.383C831.144 495.345 830.99 495.127 830.727 494.757C830.345 494.157 830.093 492.916 830.087 491.246C830.069 489.976 829.995 489.277 830.313 488.991C830.726 488.62 831.795 488.942 834.49 489.619C836.41 490.09 836.712 490.09 837.683 489.276C840.135 487.264 839.729 483.239 836.797 480.67C835.233 479.299 834.962 479.214 833.134 479.428C831.09 479.642 830.586 480.07 828.483 483.41L827.655 484.652L827.959 483.367C828.759 479.642 823.68 474.247 820.477 475.489C818.179 476.388 817.686 481.44 819.721 483.11C820.834 484.009 823.245 484.609 824.274 484.224C824.596 484.052 825.039 484.138 825.197 484.352C825.355 484.566 826.267 487.521 827.192 490.903C828.117 494.286 829.183 497.754 829.507 498.568C830.583 501.137 830.47 501.265 828.385 500.195C825.65 498.782 822.404 495.485 820.96 492.744C820.309 491.417 819.454 488.891 819.048 487.135C818.267 483.538 817.718 482.982 814.633 482.511C812.207 482.125 809.59 482.896 807.95 484.523C806.615 485.851 806.589 485.979 807.069 488.291C807.438 490.09 807.969 491.16 809.205 492.659C811.11 494.971 812.511 495.442 816.421 494.971L818.799 494.671L822.769 498.225C830.08 504.819 832.069 509.058 837.242 529.439C840.016 540.23 843.902 548.665 851.93 561.296C855.646 567.162 858.502 571.101 862.186 575.426C870.066 584.675 873.704 589.299 875.821 592.553C879.865 598.933 883.334 607.154 886.163 617.388C887.94 623.596 890.47 641.965 890.895 651C891.015 654.168 891.351 662.86 891.646 670.268C891.941 677.675 892.361 686.025 892.553 688.765L892.923 732.818H897.068C899.206 732.818 900.303 732.937 900.87 732.465C901.574 731.878 901.461 691.38 901.51 687.609C901.631 672.623 899.798 659.82 894.012 634.515C892.593 628.392 890.459 618.843 889.249 613.32C886.517 600.903 884.454 594.48 879.18 582.106C878.384 580.227 877.472 578.069 876.549 575.887C874.843 571.852 873.102 567.734 872.002 565.15C865.526 549.906 863.199 542.156 861.729 531.109C859.794 516.894 860.866 511.97 869.29 495.784C875.729 483.496 876.731 480.969 882.101 463.243C883.752 457.805 886.339 450.312 886.708 449.841C886.783 449.755 887.459 449.969 888.201 450.354C891.704 452.024 895.916 451.553 896.921 449.37C898.255 446.415 897.147 441.662 894.6 439.393C893.476 438.408 892.843 438.194 891.202 438.194C888.655 438.194 887.935 438.622 885.3 441.534L883.152 443.889L882.688 442.348C882.121 440.678 882.371 438.665 883.552 435.539C884.283 433.57 884.278 431.258 883.577 429.887C883.058 428.903 880.276 427.789 879.193 428.089C878.649 428.218 877.655 428.86 876.963 429.502L875.698 430.701L877.458 433.87C880.832 440.078 882.333 445.516 881.731 449.755C881.495 451.553 881.42 451.639 880.708 450.825C879.337 449.284 878.378 447.272 877.453 443.889C875.852 438.023 874.927 436.91 871.473 436.91C868.191 436.91 866.501 439.136 866.997 442.861C867.248 444.745 867.423 445.088 868.746 445.944C870.633 447.143 873.436 447.443 875.357 446.629L876.869 445.987L877.547 448.813C878.431 452.538 879.037 460.331 878.718 464.099C878.34 468.723 876.977 474.375 875.03 479.214C872.188 486.407 869.19 491.46 860.272 504.262C855.923 510.514 855.548 510.942 855.109 509.914C853.032 504.691 848.698 473.091 848.441 461.102C848.07 442.091 849.541 421.024 852.61 401.585C855.569 382.616 861.767 367.544 870.762 357.268C874.954 352.43 875.475 352.13 879.214 352.001C883.342 351.873 884.158 351.188 883.765 348.233C883.423 345.664 882.521 344.08 880.907 343.309C878.005 341.939 875.721 343.267 874.247 347.12C872.939 350.588 871.776 352.558 870.572 353.243C869.002 354.1 868.559 354.014 868.393 352.772C868.194 351.274 868.878 349.604 870.357 348.062C872.104 346.264 873.593 343.181 873.411 341.811C873.309 341.04 872.725 340.227 871.569 339.327C870.126 338.214 869.493 338 867.723 338C865.089 338 863.373 338.728 863.843 339.67C864.834 341.597 866.169 345.793 866.471 348.062C866.91 351.359 866.468 354.528 865.006 358.467C863.746 361.978 863.45 362.021 861.296 358.81C859.627 356.326 859.003 351.316 859.777 347.077C860.323 344.037 860.306 343.909 859.492 343.309C858.353 342.539 856.008 342.111 854.715 342.453C853.756 342.71 853.698 342.924 854.006 345.236C854.222 346.863 855.154 349.646 856.833 353.5C858.204 356.669 859.641 360.651 859.993 362.321C860.628 365.147 860.619 365.404 859.885 365.404C858.374 365.404 856.128 363.776 854.151 361.25C853.105 359.88 851.941 358.595 851.616 358.424C850.684 357.91 850.654 356.711 851.481 353.843C852.462 350.503 852.236 349.133 850.543 347.762C847.817 345.45 843.888 345.45 841.729 347.72C839.27 350.332 840.39 352.258 847.914 358.51C854.173 363.691 856.027 365.618 857.348 368.401C858.361 370.499 858.214 372.64 856.878 374.609C856.045 375.808 856.007 375.851 854.788 375.123C852.349 373.667 851.807 372.511 850.799 366.56L849.805 361.036L848.258 359.794C846.423 358.339 844.985 357.91 843.05 358.296C839.428 358.981 837.011 362.877 838.033 366.346C838.409 367.544 839.113 368.615 840.188 369.557C841.703 370.884 841.973 370.97 844.952 370.97C848.061 370.97 848.153 371.013 849.285 372.383C849.949 373.154 850.831 374.909 851.266 376.236C852.413 379.662 852.259 383.045 850.372 392.55C849.554 396.789 848.866 401.028 848.807 401.884C848.779 402.356 848.71 402.78 848.625 403.077Z" fill="black" stroke="black" stroke-width="5"/>
<path d="M275.849 726.715H286.852C281.02 717.303 273.851 709.35 266.084 703.963C260.158 699.821 247 694.673 247 696.507C247 697.336 249.667 699.643 255.001 703.49C263.032 709.303 270.165 717.325 275.849 726.715Z" fill="black"/>
<path d="M291.359 726.715H302.614C300.15 720.88 297.331 715.448 294.474 711.182C292.814 708.756 291.748 706.744 292.103 706.744C292.459 706.744 295.363 709.348 298.504 712.484C302.853 716.873 306.559 721.56 309.703 726.715H319.299C315.358 720.323 310.728 714.736 305.676 710.413C300.223 705.797 296.785 703.726 290.325 701.419C286.236 699.939 284.695 698.993 282.028 696.389C277.938 692.424 273.019 688.756 269.522 686.921C266.736 685.56 259.802 682.957 256.957 682.247C253.757 681.477 255.238 683.667 260.513 687.395C263.358 689.406 268.455 693.844 271.893 697.276C280.353 705.64 286.665 715.162 291.359 726.715Z" fill="black"/>
<path d="M329.787 758.225H355.73C353.506 737.591 349.036 718.188 342.659 701.211C336.495 684.761 328.079 669.613 325.175 669.613C324.108 669.613 324.345 671.152 326.834 680.56C333.235 705.176 338.984 730.916 338.392 732.573C338.214 732.928 337.799 732.041 337.443 730.561C333.354 715.236 323.278 692.809 317.707 686.418C313.499 681.625 313.736 683.992 319.841 706.892C323.397 720.088 325.886 731.626 328.138 745.355C328.677 748.604 329.263 753.277 329.787 758.225Z" fill="black"/>
<path fill-rule="evenodd" clip-rule="evenodd" d="M356.724 726.715H371.714C371.822 726.294 371.936 725.85 372.056 725.384C373.301 720.472 374.545 715.679 374.842 714.733C375.365 712.866 375.606 718.421 375.518 726.715H400.687C402.392 717.336 403.087 706.386 402.342 699.525C401.453 691.359 399.379 684.554 398.134 685.797C397.838 686.093 397.304 690.412 396.949 695.383C396.593 700.353 396.06 704.969 395.763 705.738C395.467 706.448 395.23 706.685 395.23 706.271C395.171 705.916 394.815 705.561 394.341 705.561C393.333 705.561 392.326 709.466 391.733 715.916L391.259 720.65L390.844 715.443C390.133 706.863 388.177 699.643 386.518 699.643C385.866 699.643 385.688 700.59 385.629 703.608C385.569 710.176 384.739 705.857 383.85 694.318C382.724 679.465 382.843 675.974 384.977 662.068C386.873 649.997 388.71 634.612 389.54 624.612C389.955 619.819 390.014 619.641 393.926 613.783L397.897 607.866L403.942 605.085C410.877 601.889 413.485 599.641 417.752 593.132C425.575 581.297 435.058 558.989 436.362 549.462C436.718 546.977 436.599 546.385 435.888 546.385C431.561 546.385 413.722 565.794 403.765 581.297C399.142 588.457 397.541 592.363 397.541 596.209C397.541 599.345 397.364 599.759 394.578 603.014C392.978 604.907 391.615 606.623 391.615 606.86C391.615 607.156 391.437 607.333 391.2 607.333C390.903 607.333 390.903 604.197 391.14 600.41C392.148 581.652 391.496 551.592 389.481 527.864C388.533 516.739 388.533 515.852 389.481 510.112C394.756 480.052 406.965 448.868 422.493 425.909C425.279 421.766 425.338 421.707 427.946 421.707C429.369 421.707 431.087 421.352 431.739 420.879C432.806 420.11 458.647 392.831 464.1 386.736C465.878 384.665 466.293 383.777 466.293 381.706C466.293 380.286 465.996 378.866 465.581 378.452C465.048 377.919 465.7 376.972 468.426 374.428L471.923 371.114L468.367 374.073L464.811 376.972L463.033 375.907C460.781 374.487 458.766 374.487 456.454 375.789C454.439 376.972 424.212 408.867 422.375 411.766C420.834 414.192 420.952 416.204 422.73 418.808L424.212 420.997L420.656 426.027C415.263 433.423 407.973 445.672 403.705 454.43C398.312 465.555 394.282 476.797 388.414 496.975C387.585 499.874 387.584 499.816 387.525 491.189L387.525 491.176C387.229 447.743 396.652 404.843 413.603 372.416C417.87 364.368 418.167 363.954 420.478 364.724C422.968 365.611 426.464 364.605 428.479 362.534C429.665 361.232 452.898 329.93 461.433 318.036C463.626 315.018 464.04 310.935 462.381 308.568C461.433 307.266 461.492 307.148 463.981 304.604C465.404 303.183 466.411 302 466.233 302C466.056 302 464.929 303.065 463.685 304.308L461.373 306.675L459.24 305.491C456.691 304.13 453.846 304.071 451.476 305.254C449.105 306.497 415.322 352.297 414.551 355.374C414.077 357.268 414.196 358.037 415.381 360.463L416.804 363.363L415.085 366.262C395.586 399.34 386.162 432.063 383.317 476.265C382.784 484.667 383.021 525.083 383.613 532.183C383.85 535.32 383.791 535.793 383.258 534.728C382.606 533.485 382.487 533.485 380.235 536.207C373.241 544.551 369.093 559.521 367.018 583.96C366.189 593.487 366.189 594.966 367.018 597.57C368.026 601.002 368.085 601.594 367.374 601.12C367.078 600.943 366.603 599.937 366.426 598.872C365.062 592.658 357.417 570.823 351.549 556.622C348.586 549.403 348.23 548.101 347.638 541.77C347.282 537.864 347.163 528.456 347.282 520.171L347.578 505.496L349.83 503.189C352.023 500.94 352.32 500.822 355.876 500.822C361.151 500.822 363.581 499.402 370.041 492.715C374.308 488.336 376.146 486.857 378.931 485.673L382.428 484.194L379.82 484.608L377.153 484.963L379.168 482.419L381.243 479.815L378.753 482.005C374.96 485.378 373.953 485.851 367.374 487.508C357.772 489.934 353.505 492.597 352.675 496.798C352.379 498.277 348.349 502.183 348.349 500.94C348.349 500.407 348.882 497.271 350.482 488.691C351.727 481.827 353.742 478.632 357.18 478.04C362.395 477.152 366.366 473.247 371.7 463.838C373.775 460.17 375.138 458.572 377.627 456.797C381.243 454.193 381.658 453.187 378.279 455.14C375.909 456.56 375.909 456.56 377.094 453.661C378.398 450.584 378.22 450.584 376.264 453.542C373.479 457.625 373.301 457.803 366.781 461.531C363.403 463.424 359.313 466.265 357.713 467.803C356.172 469.342 354.868 470.525 354.868 470.407C354.868 469.992 359.076 458.572 360.499 455.258C365.892 442.418 377.39 421.707 387.999 405.849C395.052 395.316 396 393.6 390.903 400.523C372.352 425.672 356.883 455.554 350.245 478.987C345.504 495.555 344.259 504.017 343.667 522.124L343.311 534.255L341.711 529.225C338.095 517.804 337.977 516.858 340.348 516.029C340.644 515.911 339.933 514.727 338.747 513.307C336.554 510.763 335.902 508.81 335.902 504.964C335.902 503.721 335.488 501.591 334.954 500.171C333.65 496.384 331.872 483.721 331.161 472.123L330.509 462.063L332.109 458.69C333.472 455.85 334.006 455.318 335.606 455.022C338.155 454.548 342.007 451.708 344.141 448.69C345.089 447.388 347.104 443.365 348.645 439.696C351.075 433.897 351.846 432.654 354.928 429.636C358.78 425.968 358.958 425.494 355.639 427.743C354.453 428.512 353.327 429.104 353.209 428.926C353.09 428.808 353.268 427.861 353.624 426.796C354.809 423.423 354.335 423.719 352.32 427.565C350.72 430.702 349.593 431.885 345.267 435.14C335.547 442.359 332.346 446.382 332.346 451.294C332.346 452.714 331.931 454.371 331.457 455.022C330.628 456.028 330.568 455.909 330.865 453.187C330.898 452.722 330.945 452.093 331 451.366C331.14 449.502 331.329 446.988 331.457 444.903C331.991 436.5 334.361 422.417 336.495 414.429C336.91 412.95 338.332 410.938 340.822 408.512L344.496 404.784L341.296 407.506C339.518 409.044 337.977 410.168 337.858 410.05C337.74 409.932 338.688 406.914 339.933 403.304C341.177 399.636 342.007 396.677 341.829 396.677C340.762 396.677 332.702 422.891 330.568 433.364C329.561 438.217 329.501 438.335 328.79 436.796C328.198 435.495 328.138 434.666 328.672 432.832C330.39 427.329 329.027 422.536 323.456 413.837C319.9 408.334 318.715 405.494 318.715 402.476C318.715 401.648 318.537 400.405 318.24 399.813C317.944 399.044 317.766 399.636 317.529 401.648L317.233 404.606L315.514 402.121C314.566 400.76 313.736 399.695 313.618 399.813C313.499 399.932 314.329 401.766 315.455 403.896C317.47 407.624 317.589 408.157 317.885 415.435C318.418 426.974 320.433 433.128 324.108 434.252C324.938 434.548 326.005 436.086 327.131 438.512C328.85 442.299 328.849 442.477 328.257 447.507C327.071 457.507 326.894 465.791 327.546 476.857C327.96 483.011 328.375 488.632 328.553 489.283C329.087 491.117 320.019 481.945 318.596 479.224C317.885 477.922 316.877 475.555 316.285 473.898C315.218 470.762 314.803 471.768 315.692 475.496C315.988 476.738 316.107 477.744 315.929 477.744C315.81 477.744 314.447 476.738 312.906 475.496L310.18 473.306L313.262 477.034C313.38 477.176 313.494 477.314 313.605 477.448C314.979 479.104 315.817 480.115 316.461 481.237C317.47 482.996 318.001 485.028 319.363 490.244C319.422 490.47 319.482 490.702 319.544 490.94C322.567 502.36 324.819 506.502 329.442 508.81C329.729 508.961 330.003 509.103 330.256 509.235C330.997 509.62 331.547 509.905 331.635 509.994C331.694 510.053 332.939 514.727 334.361 520.408C337.858 534.314 342.422 549.107 348.645 566.8C348.882 567.451 347.638 565.557 345.86 562.598C336.791 547.568 327.96 537.982 319.011 533.544C317.055 532.538 314.862 531.533 314.092 531.296C312.788 530.941 312.729 530.941 313.143 534.077C314.507 545.438 322.211 557.983 336.91 572.895C343.37 579.463 348.349 583.072 350.838 583.072C351.253 583.072 352.675 584.315 354.039 585.913C356.172 588.339 356.706 589.759 358.899 597.57C363.225 613.073 366.781 629.346 369.389 645.382C370.634 653.252 370.634 653.548 369.567 652.423C368.678 651.595 368.322 649.997 367.967 645.382C367.552 639.997 367.315 639.168 365.24 635.736C354.809 618.517 316.344 584.788 301.171 579.463L297.852 578.279L291.866 581.652C280.783 587.806 271.3 594.907 271.3 597.037C271.3 598.99 286.71 598.28 298.445 595.795C300.816 595.321 302.89 594.907 303.009 594.907C303.186 594.907 304.016 596.327 304.846 597.984C313.914 615.913 334.954 643.488 345.563 651.476C349.712 654.553 351.431 655.323 356.35 656.388C365.537 658.341 365.655 658.4 369.33 663.725C372.53 668.4 372.649 668.755 373.004 673.311C373.301 677.453 373.064 679.288 370.989 688.401C367.492 703.549 365.951 709.703 365.537 709.703C365.359 709.703 364.588 707.218 363.818 704.2C360.617 691.655 352.023 671.536 346.867 664.554C343.074 659.465 342.659 661.418 345.445 671.832C351.963 696.464 354.907 710.538 356.724 726.715ZM353.742 476.738C352.972 477.507 352.853 476.679 353.505 474.963C353.92 473.957 353.979 473.957 354.157 475.022C354.276 475.614 354.098 476.383 353.742 476.738ZM319.781 537.154C322.745 540.349 331.161 553.19 331.161 554.551C331.161 555.261 322.863 546.799 319.959 543.13C317.233 539.758 313.973 534.077 313.973 532.775C313.973 531.592 316.048 533.189 319.781 537.154ZM382.606 540.29C382.31 545.852 380.887 552.066 378.042 560.882L376.857 564.433V561.77C376.798 558.22 378.398 544.906 379.228 542.065C380.057 538.929 382.013 534.55 382.487 534.55C382.724 534.55 382.724 537.154 382.606 540.29ZM384.502 585.143C383.91 599.7 382.843 614.434 381.539 625.677C380.65 633.725 378.635 648.281 378.398 648.518C378.279 648.636 377.568 645.441 376.857 641.476C375.257 633.251 373.419 624.908 370.811 614.73C368.678 606.387 368.915 604.73 372.886 599.404C374.723 596.978 375.968 594.138 377.805 588.575C380.769 579.581 382.902 571.356 384.028 564.965L384.799 560.291L384.977 565.025C385.095 567.628 384.917 576.682 384.502 585.143Z" fill="black"/>
<path d="M404.433 732.484H411.052C411.395 726.216 411.283 719.665 410.64 716.301C409.869 712.395 408.15 708.135 407.617 708.786C407.38 709.022 406.847 713.105 406.491 717.78C406.125 722.459 405.443 727.343 404.433 732.484Z" fill="black"/>
<path d="M412.688 730.266H423.453C423.409 729.6 423.365 728.918 423.323 728.224C421.427 700.294 419.411 688.223 417.041 690.59C415.256 692.371 413.658 707.264 412.688 730.266Z" fill="black"/>
<path d="M424.812 755.562H440.281C439.459 742.384 438.316 730.585 437.192 725.236C436.184 720.561 436.007 720.088 435.177 720.443C434.643 720.62 434.229 719.2 433.695 714.999C432.925 708.371 432.154 704.644 431.206 702.277C430.376 700.146 429.309 700.975 428.42 704.407C426.875 710.75 424.942 737.682 424.812 755.562Z" fill="black"/>
<path d="M449.889 734.26H457.697C457.667 721.112 457.079 717.219 454.083 707.957C451.594 700.561 447.268 692.809 446.141 693.992C445.845 694.229 446.438 698.075 447.386 702.454C449.71 713.334 450.544 723.375 449.889 734.26Z" fill="black"/>
<path d="M461.735 726.715H467.698C468.997 716.403 469.102 713.156 468.308 712.839C467.242 712.471 464.246 719.128 461.735 726.715Z" fill="black"/>
<path d="M468.934 760H489.297C487.905 756.003 486.456 752.113 485.229 749.142L483.451 744.94L484.814 737.899C486.296 730.266 488.489 721.212 492.223 707.01C495.542 694.407 495.364 692.572 491.334 697.839C488.666 701.33 481.673 715.472 478.946 722.869C475.864 731.449 472.901 741.982 470.886 751.923C470.205 755.287 469.524 758.089 468.934 760Z" fill="black"/>
<path d="M496.388 737.366H502.866C502.496 736.394 502.09 735.3 501.676 734.141C498.594 725.798 494.741 717.869 493.556 717.514C492.509 717.165 493.061 721.321 496.388 737.366Z" fill="black"/>
<path d="M503.89 740.473H513C512.091 737.336 511.121 734.226 510.092 731.153C505.173 716.36 499.483 703.933 497.646 703.933C496.697 703.933 497.468 708.786 501.32 727.603C502.372 732.72 503.295 737.346 503.89 740.473Z" fill="black"/>
<path d="M275.849 726.715H286.852C281.02 717.303 273.851 709.35 266.084 703.963C260.158 699.821 247 694.673 247 696.507C247 697.336 249.667 699.643 255.001 703.49C263.032 709.303 270.165 717.325 275.849 726.715Z" stroke="black" stroke-width="5"/>
<path d="M291.359 726.715H302.614C300.15 720.88 297.331 715.448 294.474 711.182C292.814 708.756 291.748 706.744 292.103 706.744C292.459 706.744 295.363 709.348 298.504 712.484C302.853 716.873 306.559 721.56 309.703 726.715H319.299C315.358 720.323 310.728 714.736 305.676 710.413C300.223 705.797 296.785 703.726 290.325 701.419C286.236 699.939 284.695 698.993 282.028 696.389C277.938 692.424 273.019 688.756 269.522 686.921C266.736 685.56 259.802 682.957 256.957 682.247C253.757 681.477 255.238 683.667 260.513 687.395C263.358 689.406 268.455 693.844 271.893 697.276C280.353 705.64 286.665 715.162 291.359 726.715Z" stroke="black" stroke-width="5"/>
<path d="M329.787 758.225H355.73C353.506 737.591 349.036 718.188 342.659 701.211C336.495 684.761 328.079 669.613 325.175 669.613C324.108 669.613 324.345 671.152 326.834 680.56C333.235 705.176 338.984 730.916 338.392 732.573C338.214 732.928 337.799 732.041 337.443 730.561C333.354 715.236 323.278 692.809 317.707 686.418C313.499 681.625 313.736 683.992 319.841 706.892C323.397 720.088 325.886 731.626 328.138 745.355C328.677 748.604 329.263 753.277 329.787 758.225Z" stroke="black" stroke-width="5"/>
<path fill-rule="evenodd" clip-rule="evenodd" d="M356.724 726.715H371.714C371.822 726.294 371.936 725.85 372.056 725.384C373.301 720.472 374.545 715.679 374.842 714.733C375.365 712.866 375.606 718.421 375.518 726.715H400.687C402.392 717.336 403.087 706.386 402.342 699.525C401.453 691.359 399.379 684.554 398.134 685.797C397.838 686.093 397.304 690.412 396.949 695.383C396.593 700.353 396.06 704.969 395.763 705.738C395.467 706.448 395.23 706.685 395.23 706.271C395.171 705.916 394.815 705.561 394.341 705.561C393.333 705.561 392.326 709.466 391.733 715.916L391.259 720.65L390.844 715.443C390.133 706.863 388.177 699.643 386.518 699.643C385.866 699.643 385.688 700.59 385.629 703.608C385.569 710.176 384.739 705.857 383.85 694.318C382.724 679.465 382.843 675.974 384.977 662.068C386.873 649.997 388.71 634.612 389.54 624.612C389.955 619.819 390.014 619.641 393.926 613.783L397.897 607.866L403.942 605.085C410.877 601.889 413.485 599.641 417.752 593.132C425.575 581.297 435.058 558.989 436.362 549.462C436.718 546.977 436.599 546.385 435.888 546.385C431.561 546.385 413.722 565.794 403.765 581.297C399.142 588.457 397.541 592.363 397.541 596.209C397.541 599.345 397.364 599.759 394.578 603.014C392.978 604.907 391.615 606.623 391.615 606.86C391.615 607.156 391.437 607.333 391.2 607.333C390.903 607.333 390.903 604.197 391.14 600.41C392.148 581.652 391.496 551.592 389.481 527.864C388.533 516.739 388.533 515.852 389.481 510.112C394.756 480.052 406.965 448.868 422.493 425.909C425.279 421.766 425.338 421.707 427.946 421.707C429.369 421.707 431.087 421.352 431.739 420.879C432.806 420.11 458.647 392.831 464.1 386.736C465.878 384.665 466.293 383.777 466.293 381.706C466.293 380.286 465.996 378.866 465.581 378.452C465.048 377.919 465.7 376.972 468.426 374.428L471.923 371.114L468.367 374.073L464.811 376.972L463.033 375.907C460.781 374.487 458.766 374.487 456.454 375.789C454.439 376.972 424.212 408.867 422.375 411.766C420.834 414.192 420.952 416.204 422.73 418.808L424.212 420.997L420.656 426.027C415.263 433.423 407.973 445.672 403.705 454.43C398.312 465.555 394.282 476.797 388.414 496.975C387.585 499.874 387.584 499.816 387.525 491.189L387.525 491.176C387.229 447.743 396.652 404.843 413.603 372.416C417.87 364.368 418.167 363.954 420.478 364.724C422.968 365.611 426.464 364.605 428.479 362.534C429.665 361.232 452.898 329.93 461.433 318.036C463.626 315.018 464.04 310.935 462.381 308.568C461.433 307.266 461.492 307.148 463.981 304.604C465.404 303.183 466.411 302 466.233 302C466.056 302 464.929 303.065 463.685 304.308L461.373 306.675L459.24 305.491C456.691 304.13 453.846 304.071 451.476 305.254C449.105 306.497 415.322 352.297 414.551 355.374C414.077 357.268 414.196 358.037 415.381 360.463L416.804 363.363L415.085 366.262C395.586 399.34 386.162 432.063 383.317 476.265C382.784 484.667 383.021 525.083 383.613 532.183C383.85 535.32 383.791 535.793 383.258 534.728C382.606 533.485 382.487 533.485 380.235 536.207C373.241 544.551 369.093 559.521 367.018 583.96C366.189 593.487 366.189 594.966 367.018 597.57C368.026 601.002 368.085 601.594 367.374 601.12C367.078 600.943 366.603 599.937 366.426 598.872C365.062 592.658 357.417 570.823 351.549 556.622C348.586 549.403 348.23 548.101 347.638 541.77C347.282 537.864 347.163 528.456 347.282 520.171L347.578 505.496L349.83 503.189C352.023 500.94 352.32 500.822 355.876 500.822C361.151 500.822 363.581 499.402 370.041 492.715C374.308 488.336 376.146 486.857 378.931 485.673L382.428 484.194L379.82 484.608L377.153 484.963L379.168 482.419L381.243 479.815L378.753 482.005C374.96 485.378 373.953 485.851 367.374 487.508C357.772 489.934 353.505 492.597 352.675 496.798C352.379 498.277 348.349 502.183 348.349 500.94C348.349 500.407 348.882 497.271 350.482 488.691C351.727 481.827 353.742 478.632 357.18 478.04C362.395 477.152 366.366 473.247 371.7 463.838C373.775 460.17 375.138 458.572 377.627 456.797C381.243 454.193 381.658 453.187 378.279 455.14C375.909 456.56 375.909 456.56 377.094 453.661C378.398 450.584 378.22 450.584 376.264 453.542C373.479 457.625 373.301 457.803 366.781 461.531C363.403 463.424 359.313 466.265 357.713 467.803C356.172 469.342 354.868 470.525 354.868 470.407C354.868 469.992 359.076 458.572 360.499 455.258C365.892 442.418 377.39 421.707 387.999 405.849C395.052 395.316 396 393.6 390.903 400.523C372.352 425.672 356.883 455.554 350.245 478.987C345.504 495.555 344.259 504.017 343.667 522.124L343.311 534.255L341.711 529.225C338.095 517.804 337.977 516.858 340.348 516.029C340.644 515.911 339.933 514.727 338.747 513.307C336.554 510.763 335.902 508.81 335.902 504.964C335.902 503.721 335.488 501.591 334.954 500.171C333.65 496.384 331.872 483.721 331.161 472.123L330.509 462.063L332.109 458.69C333.472 455.85 334.006 455.318 335.606 455.022C338.155 454.548 342.007 451.708 344.141 448.69C345.089 447.388 347.104 443.365 348.645 439.696C351.075 433.897 351.846 432.654 354.928 429.636C358.78 425.968 358.958 425.494 355.639 427.743C354.453 428.512 353.327 429.104 353.209 428.926C353.09 428.808 353.268 427.861 353.624 426.796C354.809 423.423 354.335 423.719 352.32 427.565C350.72 430.702 349.593 431.885 345.267 435.14C335.547 442.359 332.346 446.382 332.346 451.294C332.346 452.714 331.931 454.371 331.457 455.022C330.628 456.028 330.568 455.909 330.865 453.187C330.898 452.722 330.945 452.093 331 451.366C331.14 449.502 331.329 446.988 331.457 444.903C331.991 436.5 334.361 422.417 336.495 414.429C336.91 412.95 338.332 410.938 340.822 408.512L344.496 404.784L341.296 407.506C339.518 409.044 337.977 410.168 337.858 410.05C337.74 409.932 338.688 406.914 339.933 403.304C341.177 399.636 342.007 396.677 341.829 396.677C340.762 396.677 332.702 422.891 330.568 433.364C329.561 438.217 329.501 438.335 328.79 436.796C328.198 435.495 328.138 434.666 328.672 432.832C330.39 427.329 329.027 422.536 323.456 413.837C319.9 408.334 318.715 405.494 318.715 402.476C318.715 401.648 318.537 400.405 318.24 399.813C317.944 399.044 317.766 399.636 317.529 401.648L317.233 404.606L315.514 402.121C314.566 400.76 313.736 399.695 313.618 399.813C313.499 399.932 314.329 401.766 315.455 403.896C317.47 407.624 317.589 408.157 317.885 415.435C318.418 426.974 320.433 433.128 324.108 434.252C324.938 434.548 326.005 436.086 327.131 438.512C328.85 442.299 328.849 442.477 328.257 447.507C327.071 457.507 326.894 465.791 327.546 476.857C327.96 483.011 328.375 488.632 328.553 489.283C329.087 491.117 320.019 481.945 318.596 479.224C317.885 477.922 316.877 475.555 316.285 473.898C315.218 470.762 314.803 471.768 315.692 475.496C315.988 476.738 316.107 477.744 315.929 477.744C315.81 477.744 314.447 476.738 312.906 475.496L310.18 473.306L313.262 477.034C313.38 477.176 313.494 477.314 313.605 477.448C314.979 479.104 315.817 480.115 316.461 481.237C317.47 482.996 318.001 485.028 319.363 490.244C319.422 490.47 319.482 490.702 319.544 490.94C322.567 502.36 324.819 506.502 329.442 508.81C329.729 508.961 330.003 509.103 330.256 509.235C330.997 509.62 331.547 509.905 331.635 509.994C331.694 510.053 332.939 514.727 334.361 520.408C337.858 534.314 342.422 549.107 348.645 566.8C348.882 567.451 347.638 565.557 345.86 562.598C336.791 547.568 327.96 537.982 319.011 533.544C317.055 532.538 314.862 531.533 314.092 531.296C312.788 530.941 312.729 530.941 313.143 534.077C314.507 545.438 322.211 557.983 336.91 572.895C343.37 579.463 348.349 583.072 350.838 583.072C351.253 583.072 352.675 584.315 354.039 585.913C356.172 588.339 356.706 589.759 358.899 597.57C363.225 613.073 366.781 629.346 369.389 645.382C370.634 653.252 370.634 653.548 369.567 652.423C368.678 651.595 368.322 649.997 367.967 645.382C367.552 639.997 367.315 639.168 365.24 635.736C354.809 618.517 316.344 584.788 301.171 579.463L297.852 578.279L291.866 581.652C280.783 587.806 271.3 594.907 271.3 597.037C271.3 598.99 286.71 598.28 298.445 595.795C300.816 595.321 302.89 594.907 303.009 594.907C303.186 594.907 304.016 596.327 304.846 597.984C313.914 615.913 334.954 643.488 345.563 651.476C349.712 654.553 351.431 655.323 356.35 656.388C365.537 658.341 365.655 658.4 369.33 663.725C372.53 668.4 372.649 668.755 373.004 673.311C373.301 677.453 373.064 679.288 370.989 688.401C367.492 703.549 365.951 709.703 365.537 709.703C365.359 709.703 364.588 707.218 363.818 704.2C360.617 691.655 352.023 671.536 346.867 664.554C343.074 659.465 342.659 661.418 345.445 671.832C351.963 696.464 354.907 710.538 356.724 726.715ZM353.742 476.738C352.972 477.507 352.853 476.679 353.505 474.963C353.92 473.957 353.979 473.957 354.157 475.022C354.276 475.614 354.098 476.383 353.742 476.738ZM319.781 537.154C322.745 540.349 331.161 553.19 331.161 554.551C331.161 555.261 322.863 546.799 319.959 543.13C317.233 539.758 313.973 534.077 313.973 532.775C313.973 531.592 316.048 533.189 319.781 537.154ZM382.606 540.29C382.31 545.852 380.887 552.066 378.042 560.882L376.857 564.433V561.77C376.798 558.22 378.398 544.906 379.228 542.065C380.057 538.929 382.013 534.55 382.487 534.55C382.724 534.55 382.724 537.154 382.606 540.29ZM384.502 585.143C383.91 599.7 382.843 614.434 381.539 625.677C380.65 633.725 378.635 648.281 378.398 648.518C378.279 648.636 377.568 645.441 376.857 641.476C375.257 633.251 373.419 624.908 370.811 614.73C368.678 606.387 368.915 604.73 372.886 599.404C374.723 596.978 375.968 594.138 377.805 588.575C380.769 579.581 382.902 571.356 384.028 564.965L384.799 560.291L384.977 565.025C385.095 567.628 384.917 576.682 384.502 585.143Z" stroke="black" stroke-width="5"/>
<path d="M404.433 732.484H411.052C411.395 726.216 411.283 719.665 410.64 716.301C409.869 712.395 408.15 708.135 407.617 708.786C407.38 709.022 406.847 713.105 406.491 717.78C406.125 722.459 405.443 727.343 404.433 732.484Z" stroke="black" stroke-width="5"/>
<path d="M412.688 730.266H423.453C423.409 729.6 423.365 728.918 423.323 728.224C421.427 700.294 419.411 688.223 417.041 690.59C415.256 692.371 413.658 707.264 412.688 730.266Z" stroke="black" stroke-width="5"/>
<path d="M424.812 755.562H440.281C439.459 742.384 438.316 730.585 437.192 725.236C436.184 720.561 436.007 720.088 435.177 720.443C434.643 720.62 434.229 719.2 433.695 714.999C432.925 708.371 432.154 704.644 431.206 702.277C430.376 700.146 429.309 700.975 428.42 704.407C426.875 710.75 424.942 737.682 424.812 755.562Z" stroke="black" stroke-width="5"/>
<path d="M449.889 734.26H457.697C457.667 721.112 457.079 717.219 454.083 707.957C451.594 700.561 447.268 692.809 446.141 693.992C445.845 694.229 446.438 698.075 447.386 702.454C449.71 713.334 450.544 723.375 449.889 734.26Z" stroke="black" stroke-width="5"/>
<path d="M461.735 726.715H467.698C468.997 716.403 469.102 713.156 468.308 712.839C467.242 712.471 464.246 719.128 461.735 726.715Z" stroke="black" stroke-width="5"/>
<path d="M468.934 760H489.297C487.905 756.003 486.456 752.113 485.229 749.142L483.451 744.94L484.814 737.899C486.296 730.266 488.489 721.212 492.223 707.01C495.542 694.407 495.364 692.572 491.334 697.839C488.666 701.33 481.673 715.472 478.946 722.869C475.864 731.449 472.901 741.982 470.886 751.923C470.205 755.287 469.524 758.089 468.934 760Z" stroke="black" stroke-width="5"/>
<path d="M496.388 737.366H502.866C502.496 736.394 502.09 735.3 501.676 734.141C498.594 725.798 494.741 717.869 493.556 717.514C492.509 717.165 493.061 721.321 496.388 737.366Z" stroke="black" stroke-width="5"/>
<path d="M503.89 740.473H513C512.091 737.336 511.121 734.226 510.092 731.153C505.173 716.36 499.483 703.933 497.646 703.933C496.697 703.933 497.468 708.786 501.32 727.603C502.372 732.72 503.295 737.346 503.89 740.473Z" stroke="black" stroke-width="5"/>
<path d="M610.495 727.564H619.756C616.88 721.226 615.66 717.129 615.576 713.924C615.576 713.156 615.417 712.03 615.299 711.39L615.022 710.239L614.31 710.904C613.914 711.288 613.321 712.568 612.965 713.771L612.292 715.946L609.839 712.491C605.686 706.733 600.266 700.923 599.396 701.281C599.158 701.384 599 701.691 599 702.023C599 702.612 600.899 707.193 602.007 709.343C605.084 715.193 608.071 721.655 610.495 727.564Z" fill="black"/>
<path d="M621.873 727.564H634.021C631.473 721.799 630.341 717.337 629.619 711.058C629.501 709.983 629.224 709.087 629.026 709.087C628.433 709.087 627.206 711.058 626.652 712.926C626.376 713.847 626.138 716.202 626.138 718.173L626.178 721.756L625.426 719.964C623.369 714.974 621.945 709.471 621.945 706.656C621.945 704.915 621.51 702.945 621.154 702.945C620.56 702.945 619.255 705.402 618.78 707.372C618.068 710.162 618.464 717.098 619.571 720.86C620.113 722.781 620.922 725.112 621.873 727.564Z" fill="black"/>
<path d="M638.792 727.564H647.307C647.951 719.55 649.942 711.591 653.435 702.817C657.153 693.475 657.391 692.708 656.362 692.708C655.769 692.708 652.881 695.625 650.784 698.312C644.644 706.257 640.399 716.72 638.792 727.564Z" fill="black"/>
<path d="M649.286 727.564H666.586C666.922 724.514 667.464 720.522 667.795 718.812C669.259 711.621 670.881 706.374 674.006 698.85C677.448 690.481 677.962 688.689 676.815 688.92C674.797 689.355 667.36 698.543 665.184 703.277C664.116 705.658 664.274 704.276 665.659 699.822C667.28 694.448 669.417 688.894 672.621 681.575C675.153 675.918 675.826 673.513 674.955 673.513C672.859 673.513 665.54 681.6 661.188 688.792C654.78 699.259 651.061 709.983 649.637 721.858C649.454 723.41 649.339 725.401 649.286 727.564Z" fill="black"/>
<path d="M668.821 727.564C671.423 722.867 675.939 718.181 681.008 714.974C683.345 713.496 684.298 712.915 686.705 711.877C688.406 711.109 694.617 709.343 695.566 709.343L687.53 714.753C687.372 714.804 683.263 717.866 682.155 718.889C679.388 721.477 677.124 724.376 675.376 727.564H668.821Z" fill="black"/>
<path fill-rule="evenodd" clip-rule="evenodd" d="M780.477 727.564L780.857 725.335C782.043 718.297 781.331 710.645 779.037 705.501C777.019 700.971 772.866 695.878 771.995 696.799C771.877 696.927 772.391 698.923 773.103 701.227C775.12 707.574 775.754 713.23 775.041 717.837L774.764 719.423L771.244 715.021C768.989 712.181 767.841 710.44 767.96 710.133C768.158 709.8 768 709.672 767.406 709.672C766.971 709.672 766.259 709.34 765.784 708.905C764.637 707.855 764.123 707.932 764.281 709.161L764.4 710.21L761.195 711.029C759.415 711.515 756.844 712.436 755.459 713.102L752.927 714.305L752.413 712.078L751.899 709.877L753.007 709.109C753.6 708.7 755.736 707.625 757.714 706.704C763.767 703.94 764.36 703.121 759.732 704.042C753.798 705.219 749.802 706.78 745.015 709.698C743.433 710.671 741.969 711.464 741.692 711.464C735.032 716.628 734.486 717.492 730.56 723.711L730.536 723.749C729.78 724.948 729.086 726.228 728.46 727.564H745.273C746.185 726.195 747.047 725.043 747.231 724.9C747.613 724.639 747.676 725.945 747.507 727.564H756.342C756.47 726.87 756.622 726.141 756.804 725.31C757.951 720.217 758.11 718.886 757.477 718.886C757.239 718.886 756.725 719.244 756.369 719.679C754.945 721.343 754.826 721.343 755.024 719.782C755.143 718.809 755.064 718.246 754.747 718.118C754.114 717.888 759.613 714.33 762.699 712.974C763.925 712.411 765.033 711.976 765.112 711.976C765.23 711.976 766.22 713.895 770.808 723.365L772.832 727.564H780.477ZM741.969 720.217C742.563 717.53 742.879 717.094 746.281 714.074C748.418 712.206 748.971 711.873 748.615 712.667C748.536 712.923 748.299 714.1 748.18 715.277L747.903 717.402L745.332 719.449C743.947 720.575 742.602 721.778 742.365 722.111C741.534 723.262 741.415 722.725 741.969 720.217Z" fill="black"/>
<path d="M767.406 727.564H759.361C759.955 717.379 761.356 711.84 762.936 714.791C763.253 715.329 763.569 715.508 763.965 715.405C764.4 715.303 764.716 715.456 764.954 715.866C765.632 717.011 766.706 722.339 767.406 727.564Z" fill="black"/>
<path fill-rule="evenodd" clip-rule="evenodd" d="M630.595 653.545C631.486 653.209 633.859 652.669 635.088 652.512C636.678 652.308 639.28 652.609 641.1 653.185C642.148 653.521 643.931 654.482 646.533 656.091C650.135 658.325 650.508 658.613 652.532 660.655C654.122 662.252 654.472 662.673 655.279 664.018C656.905 666.684 657.423 668.221 657.423 670.479L657.423 671.8L656.977 672.016C652.496 674.178 648.051 675.343 642.124 675.932C640.762 676.064 639.63 676.172 639.594 676.172C639.558 676.172 639.895 677.649 640.341 679.438C640.786 681.24 641.184 682.969 641.22 683.281C641.292 684.038 641.883 685.539 642.485 686.536C643.111 687.569 643.184 687.917 642.834 688.29C642.461 688.686 641.244 689.454 640.594 689.695L640.039 689.911L640.124 694.174C640.396 708.749 640.507 713.007 641.034 717.623C640.046 720.857 639.291 724.192 638.792 727.564H642.464C642.582 728.159 642.702 728.648 642.858 729.243C643.593 732.077 643.449 733.855 642.352 735.524C641.22 737.241 639.786 738.31 638.196 738.622C636.739 738.911 635.004 738.286 633.932 737.085C633.161 736.232 632.667 735.224 631.872 732.858C631.665 732.236 631.516 731.799 631.415 731.352C631.229 730.528 631.201 729.669 631.265 727.564H634.021C632.957 725.157 632.14 722.976 631.496 720.796C631.552 719.057 631.609 717.235 631.643 715.864C631.715 713.414 631.823 710.688 631.884 709.799C632.113 706.64 632.245 703.302 632.366 697.141C632.482 691.761 632.52 690.879 632.211 690.733C632.136 690.698 632.04 690.706 631.92 690.704C631.498 690.704 630.414 690.175 629.908 689.743C629.053 688.986 628.258 687.641 628.089 686.644C627.98 685.972 628.089 685.719 628.607 685.407C629.33 684.975 629.595 684.687 630.016 683.858C630.932 682.032 631.643 679.594 631.643 678.249L631.643 677.721L631.257 677.793C630.438 677.925 628.041 678.093 626.74 678.093C625.776 678.093 624.511 678.225 622.282 678.574C618.825 679.102 617.018 679.294 615.512 679.294H614.5L614.572 677.517C614.693 674.49 615.271 672.413 616.885 669.146C618.644 665.591 620.21 663.021 622.077 660.679C622.532 660.108 623.131 659.352 623.558 658.813C623.653 658.695 623.738 658.587 623.812 658.493C625.559 656.296 627.98 654.53 630.595 653.545Z" fill="black"/>
</svg>
