<svg width="100" height="100" viewBox="0 0 100 100" fill="none" xmlns="http://www.w3.org/2000/svg">
<rect width="100" height="100" rx="50" transform="matrix(1 0 0 -1 0 100)" fill="#557A42"/>
<path d="M48.4598 18.1406C49.6965 17.9063 50.9332 17.9649 52.1699 18.3163C54.9377 19.0193 56.8222 20.6888 57.8233 23.3248C58.0589 24.2035 58 26.0195 57.6467 28.7727C57.4111 30.2957 56.7339 34.6599 55.615 41.8651C53.966 52.5265 52.9355 58.0329 52.5232 58.3844C52.111 58.5601 50.6977 58.5894 48.2832 58.4722C47.8121 58.4722 47.547 58.4429 47.4882 58.3844C47.1937 58.2086 46.9287 57.535 46.6931 56.3634C46.5165 55.309 45.7509 50.4762 44.3964 41.8651C42.6886 30.7351 41.8936 24.7893 42.0114 24.0278C42.0114 23.9106 42.0703 23.6763 42.1881 23.3248C42.9536 20.8645 44.7498 19.2243 47.5765 18.4042C47.8709 18.287 48.1654 18.1992 48.4598 18.1406ZM48.5482 64.1837C49.5493 63.9494 50.6977 64.0079 51.9932 64.3594C54.5844 65.0038 56.3805 66.5854 57.3817 69.1043C57.5583 69.3972 57.6761 69.7194 57.735 70.0709C58.0883 71.4182 58.0883 72.7362 57.735 74.0249C57.0283 76.7196 55.3794 78.5355 52.7882 79.4728C52.4938 79.5899 52.2288 79.6778 51.9932 79.7364C50.6388 80.0879 49.3137 80.0879 48.0182 79.7364C45.3092 79.0334 43.4836 77.3932 42.5414 74.8158C42.4236 74.5229 42.3353 74.2593 42.2764 74.0249C41.9231 72.7362 41.9231 71.4182 42.2764 70.0709C42.7475 68.3135 43.6309 66.9369 44.9264 65.941C45.9276 65.1209 47.1348 64.5351 48.5482 64.1837Z" fill="white"/>
</svg>
