<svg width="60" height="60" viewBox="0 0 60 60" fill="none" xmlns="http://www.w3.org/2000/svg">
<path d="M31.9304 52.2237C44.1248 52.2237 54.0104 42.3381 54.0104 30.1437C54.0104 17.9492 44.1248 8.06363 31.9304 8.06363C19.7361 8.06363 9.85046 17.9492 9.85046 30.1437C9.85046 42.3381 19.7361 52.2237 31.9304 52.2237Z" fill="#7DAEBF"/>
<path d="M52.4573 30.4671C52.4486 30.3345 52.4396 30.2019 52.4309 30.0783C52.3958 29.6892 52.3601 29.3091 52.3073 28.929C52.2986 28.8318 52.2806 28.7343 52.2716 28.6371C52.2014 28.1862 52.1216 27.7356 52.0244 27.2934C51.9977 27.1521 51.9626 27.0195 51.9269 26.8779C51.8564 26.5599 51.7682 26.2416 51.6797 25.9233C51.6353 25.7643 51.5912 25.605 51.5468 25.455C51.4232 25.0572 51.2906 24.6591 51.1493 24.27C51.0785 24.0843 51.0077 23.8989 50.9282 23.7132C50.8397 23.4837 50.7425 23.2536 50.6453 23.0328C50.5481 22.8204 50.4596 22.6084 50.3624 22.396C50.2652 22.184 50.159 21.9808 50.0528 21.7772C49.8674 21.4148 49.673 21.0612 49.4696 20.7164C49.3814 20.5752 49.3016 20.4248 49.2134 20.2836C49.1249 20.142 49.0541 20.0004 48.9656 19.868L48.8417 19.6824L48.833 19.6912C47.5514 17.764 45.9689 16.0492 44.1656 14.608L44.2628 14.626L43.2992 13.9364C41.1512 12.398 38.7734 11.2664 36.236 10.5772L36.1034 10.5416L36.0944 10.5504C34.583 10.1528 33.0095 9.90521 31.3916 9.83441L31.436 9.80801H30.4106C30.0215 9.80801 29.6237 9.8168 29.2436 9.8432C29.1728 9.8432 29.1023 9.85241 29.0228 9.86081C28.7045 9.87881 28.3862 9.90521 28.0679 9.94082C27.9971 9.94961 27.9353 9.9584 27.8645 9.96722C27.5462 10.0024 27.2282 10.0468 26.9099 10.0996C26.8481 10.1088 26.786 10.1264 26.7242 10.1352C26.4059 10.188 26.0876 10.25 25.7696 10.312C25.7078 10.3296 25.637 10.3384 25.5749 10.356C25.2656 10.4268 24.9563 10.4976 24.6557 10.586C24.5762 10.6036 24.5054 10.63 24.4259 10.648C24.134 10.7272 23.8513 10.816 23.5683 10.904C23.4711 10.9308 23.3827 10.966 23.2855 11.0016C23.0291 11.0896 22.7727 11.178 22.5164 11.2756C22.4014 11.3196 22.2777 11.3636 22.1628 11.4168C21.9417 11.5052 21.7296 11.5936 21.5086 11.6908C21.3583 11.7528 21.2169 11.8236 21.0666 11.8852C20.8898 11.9652 20.7219 12.0532 20.545 12.1416C20.3683 12.23 20.1914 12.3188 20.0147 12.416C19.891 12.4776 19.7672 12.5484 19.6522 12.6192C19.4313 12.7428 19.2191 12.8664 19.0069 12.9904C18.9539 13.026 18.9008 13.0612 18.8389 13.0964C16.9736 14.228 15.2675 15.6512 13.7913 17.3308L13.641 17.5076L13.6499 17.5252C10.326 21.3884 8.31049 26.4096 8.31049 31.899C8.31049 44.0895 18.2202 53.9991 30.4106 53.9991C42.362 53.9991 52.1126 44.4696 52.493 32.6064L52.5104 32.6241V31.899C52.5104 31.4217 52.493 30.9444 52.4573 30.4671ZM30.4106 53.4423C18.5296 53.4423 8.86738 43.7799 8.86738 31.899C8.86738 26.5863 10.8033 21.7244 14.0034 17.9672C14.366 18.4448 15.0996 19.4348 15.4355 20.1064C15.5505 20.3364 15.63 20.6724 15.7272 21.088C15.9836 22.1928 16.3725 23.8548 18.0433 25.8525C18.3881 26.268 18.9097 26.5776 19.4666 26.9136C20.2533 27.3909 21.155 27.93 21.6766 28.8495C22.6578 30.5643 23.4534 30.7677 24.4169 31.0062C24.7706 31.0947 25.0625 31.3422 25.3895 31.6251C25.8224 31.9965 26.3618 32.4648 27.2369 32.7123C27.5285 32.8008 27.7673 32.8539 27.953 32.8983C28.6424 33.066 28.6424 33.066 29.3675 33.9411C29.4824 34.0827 29.6768 34.4451 29.6858 34.5336C29.4911 35.3997 29.4911 36.3369 29.6768 37.044C29.9861 38.2374 30.8348 38.9091 31.5065 39.4485C31.8866 39.7491 32.2139 40.0143 32.3378 40.2795C32.6204 40.8897 32.2847 43.4886 31.8515 45.6453C31.8071 45.8664 31.7363 46.1229 31.6481 46.4055C31.2947 47.6256 30.8171 49.2876 31.8956 50.7723C32.3816 51.4356 32.8328 51.7629 33.2747 51.7629C33.3101 51.7629 33.3452 51.7629 33.3809 51.7536C33.8138 51.7008 34.088 51.3207 34.1765 51.0996L34.265 50.8788L34.0613 50.7549C33.2657 50.2689 33.3011 49.5969 33.7964 47.9523C34.1498 46.7769 34.9541 46.0872 35.8205 45.3537C36.0329 45.168 36.245 44.991 36.4481 44.8056C37.5176 43.8156 39.6662 40.6065 40.7885 38.7411C41.372 37.7688 41.5313 36.9468 41.2484 36.2928C40.9745 35.6472 40.2848 35.2053 39.2066 34.9755C37.7828 34.6659 37.4738 34.3833 36.731 33.7023C36.581 33.561 36.413 33.4107 36.2096 33.2427C34.9898 32.1822 32.6471 31.9347 32.5853 31.9347C31.9751 31.7931 31.3652 31.9347 30.8879 32.3676C30.3575 31.6074 28.4393 30.4053 27.5729 30.0075C27.1397 29.8128 26.7152 29.76 26.3351 29.7246C25.7516 29.6628 25.2923 29.6097 24.9122 29.088C24.2312 28.1511 25.7606 26.772 25.9376 26.6217C26.3708 26.2503 26.7419 26.0823 27.0602 26.1354C27.5198 26.2149 27.8294 26.7543 28.0325 27.1167C28.0943 27.2316 28.1564 27.3288 28.2005 27.3909C28.5365 27.8505 29.0402 28.5399 29.6768 28.434C29.8535 28.4073 29.942 28.3101 29.9861 28.2306C30.1187 28.0095 30.0215 27.7269 29.8889 27.3465C29.7476 26.9487 29.5619 26.4096 29.5973 25.8348C29.6681 24.7476 32.09 22.5816 34.0349 20.8492L34.256 20.6548C34.9898 20.0004 35.3078 19.4172 35.2286 18.86C35.0957 17.8876 33.8228 17.2688 32.2226 16.4824C32.0018 16.376 31.772 16.2612 31.5422 16.1464C30.5519 15.6512 30.0836 15.554 29.8094 15.7928C29.5352 16.0312 29.6768 16.4292 29.8094 16.818C29.8625 16.9772 29.9684 17.278 29.9774 17.322C29.6591 17.4724 27.8117 16.8888 27.3962 16.208C27.3254 16.0932 27.281 15.9696 27.5111 15.7928L27.9176 15.4832C28.8017 14.8204 29.288 14.4488 29.1641 14.0424C29.0666 13.7152 28.6514 13.6444 28.2272 13.6268C27.3608 13.5828 26.4854 13.132 26.4413 12.8136C26.4236 12.6808 26.627 12.4424 27.2636 12.2212C28.9607 11.62 29.3849 12.2744 29.9243 13.1052C30.0038 13.2292 30.0923 13.3616 30.1808 13.4856C30.9143 14.5288 31.6304 15.4656 32.3021 15.5628C32.5058 15.5896 32.6912 15.5364 32.8415 15.4124L32.9741 15.3152C33.3188 15.05 33.7964 14.6876 33.752 14.1128C33.7079 13.5208 33.1067 12.9372 31.8692 12.2656C30.5252 11.5316 30.3044 11.0192 30.2957 10.7804C30.2867 10.5772 30.4193 10.4356 30.4988 10.3736C32.2757 10.3824 34.0085 10.6036 35.6612 11.0192C35.3696 11.5496 35.078 12.6632 35.8736 14.7144C36.2624 15.7044 36.722 16.2436 37.2881 16.3584C37.3676 16.376 37.4474 16.3852 37.5176 16.3852C38.225 16.3852 38.8706 15.7396 39.401 15.2092C39.542 15.068 39.6749 14.9352 39.7985 14.8204C40.4705 14.2192 42.2384 14.3252 42.9632 14.4312C45.041 15.9252 46.844 17.7816 48.2762 19.912C47.4716 20.2568 45.6065 21.1852 45.836 22.3164C45.9776 23.0328 46.844 23.5629 47.675 24.0843C48.17 24.3939 48.9302 24.8625 48.8861 25.0923C48.8684 25.1721 48.7802 25.2072 48.4178 25.2429C48.0554 25.278 47.6132 25.3224 47.357 25.7025C47.1269 26.0382 47.1182 26.5509 47.3213 27.3024C47.3657 27.4791 47.3834 27.7356 47.4008 28.0095C47.4542 28.929 47.5337 30.3168 49.1162 30.5202C50.5568 30.7059 51.653 31.731 51.9269 32.0142C51.8918 43.8333 42.2561 53.4423 30.4106 53.4423Z" fill="#417B30"/>
<path d="M30.3602 59.0385C46.3874 59.0385 59.3798 46.0461 59.3798 30.0192C59.3798 13.9924 46.3874 1 30.3602 1C14.3334 1 1.34113 13.9924 1.34113 30.0192C1.34113 46.0461 14.3334 59.0385 30.3602 59.0385ZM23.3321 8.28241C35.3369 8.28241 45.0689 18.0144 45.0689 30.0192C45.0689 42.0243 35.3369 51.7563 23.3321 51.7563C11.327 51.7563 1.59502 42.0243 1.59502 30.0192C1.59502 18.0144 11.327 8.28241 23.3321 8.28241Z" fill="black"/>
<path d="M30.0194 1C13.9924 1 1 13.9924 1 30.0192C1 46.0461 13.9924 59.0385 30.0194 59.0385C46.046 59.0385 59.0384 46.0461 59.0384 30.0192C59.0384 13.9924 46.046 1 30.0194 1ZM37.0472 51.7563C25.0424 51.7563 15.3105 42.0243 15.3105 30.0192C15.3105 18.0144 25.0424 8.28241 37.0472 8.28241C49.0526 8.28241 58.7846 18.0144 58.7846 30.0192C58.7846 42.0243 49.0526 51.7563 37.0472 51.7563Z" fill="#557A42"/>
<path d="M30.0194 1.00003C13.9924 1.00003 1 13.9924 1 30.0192C1 46.0461 13.9924 59.0385 30.0194 59.0385C46.046 59.0385 59.0384 46.0461 59.0384 30.0192C59.0384 13.9924 46.046 1.00003 30.0194 1.00003ZM37.0472 51.7563C25.0424 51.7563 15.3105 42.0243 15.3105 30.0192C15.3105 18.0144 25.0424 8.28241 37.0472 8.28241C49.0526 8.28241 58.7846 18.0144 58.7846 30.0192C58.7846 42.0243 49.0526 51.7563 37.0472 51.7563Z" stroke="white" stroke-width="0.944001" stroke-miterlimit="10"/>
<path d="M58.3466 29.7057H53.6804V27.8418H49.0088V32.5137H53.6804V30.6498H58.3466V29.7057Z" fill="white"/>
<path d="M50.6009 30.7686V35.4345H48.7373V40.1061H53.4089V35.4345H51.545V30.7686H50.6009Z" fill="white"/>
</svg>
